<svg width="36" height="36" viewBox="0 0 48 24" fill="none" xmlns="http://www.w3.org/2000/svg">
<path d="M10.25 9.22H7.96V11.38V11.67H10.25V9.22ZM4.46 11.67H6.72V11.37V9.22H4.79V8.08H13.28V9.22H11.51V11.67H13.57V12.82H11.51V16.9H10.25V12.82H7.89C7.71 14.33 7.14 15.84 5.4 16.94C5.19 16.67 4.73 16.24 4.43 16.04C5.89 15.16 6.43 14 6.62 12.82H4.46V11.67ZM16.7 10.13V11.28V11.7H21.44V10.13H16.7ZM18.19 7.75L19.39 7.45C19.61 7.88 19.84 8.45 19.96 8.84L19.36 9.01H22.67V13.34H21.44V12.82H16.64C16.51 14.25 16.17 15.86 15.32 16.97C15.09 16.75 14.55 16.37 14.26 16.24C15.34 14.82 15.44 12.74 15.44 11.28V9.01H18.68C18.56 8.64 18.36 8.13 18.19 7.75ZM24.7 7.89H28.13V14.18H27.23V8.84H25.58V14.22H24.7V7.89ZM32.21 7.89L33.33 8.25C32.79 9.33 31.92 10.42 31.11 11.1C30.93 10.87 30.51 10.42 30.27 10.22C31.03 9.66 31.78 8.78 32.21 7.89ZM25.96 9.3H26.86V12.27C26.86 13.05 26.79 13.92 26.5 14.73L27.09 14.3C27.53 14.82 28.08 15.53 28.32 15.98L27.57 16.58C27.36 16.13 26.87 15.42 26.45 14.88C26.16 15.61 25.68 16.28 24.9 16.79C24.78 16.59 24.49 16.27 24.28 16.11C25.82 15.22 25.96 13.51 25.96 12.27V9.3ZM28.94 16.93C28.87 16.66 28.66 16.21 28.49 16C28.7 15.89 28.98 15.67 28.98 15.23V12.31H28.32V11.22H28.98V7.69H30.08V11.22H33.55V12.31H31.78C32.14 13.75 32.81 15.06 33.78 15.75C33.51 15.96 33.15 16.38 32.97 16.68C31.82 15.76 31.1 14.15 30.67 12.31H30.08V15.21L31.31 14.77C31.3 15.1 31.35 15.59 31.4 15.85C29.49 16.61 29.14 16.76 28.94 16.93ZM36.92 8.9V9.83H41V8.9H36.92ZM35.72 7.85H42.28V10.87H35.72V7.85ZM34.53 11.5H43.43V12.58H37.76L37.52 13.33H42.33C42.33 13.33 42.3 13.67 42.27 13.83C42.07 15.38 41.83 16.13 41.47 16.47C41.17 16.75 40.84 16.82 40.37 16.85C39.99 16.87 39.33 16.88 38.64 16.84C38.62 16.5 38.44 16.02 38.22 15.7C38.89 15.76 39.63 15.77 39.94 15.77C40.16 15.77 40.29 15.76 40.42 15.68C40.61 15.54 40.76 15.14 40.89 14.42H35.76C35.97 13.93 36.21 13.24 36.41 12.58H34.53V11.5Z" fill="#FF6600"/>
<rect x="0.5" y="0.5" width="47" height="23" rx="1.5" stroke="#FF6600"/>
</svg>
