<svg width="15" height="15" viewBox="0 0 15 15" fill="none" xmlns="http://www.w3.org/2000/svg">
<path d="M7.49638 0C7.92773 0 8.27709 0.349568 8.27709 0.780933L8.27707 6.71926H14.2191C14.6504 6.71926 15 7.06867 15 7.50004C15 7.93138 14.6504 8.28074 14.2191 8.28074H8.27707V14.219C8.27707 14.6504 7.92775 15 7.4964 15C7.06502 15 6.71562 14.6504 6.71562 14.219L6.7156 8.28074H0.78099C0.349588 8.28074 0 7.9314 0 7.50004C0 7.06867 0.349588 6.71926 0.78099 6.71926H6.7156V0.780933C6.7156 0.349568 7.06502 0 7.4964 0H7.49638Z" fill="var(--base-color)"/>
</svg>
