<svg width="64" height="64" viewBox="0 0 64 64" fill="none" xmlns="http://www.w3.org/2000/svg">
<circle cx="32" cy="32" r="32" fill="#DDE8FF"/>
<path d="M32.4729 28.7504C31.9705 28.949 32.1042 28.9814 31.4923 28.7383L15.114 21.9349C14.9803 21.8093 14.9033 21.635 14.8952 21.4527C14.8911 21.2704 14.956 21.0921 15.0856 20.9583L31.0547 14.1631C31.4153 13.9929 31.7881 13.8997 32.4486 14.1712L48.7175 20.8368C48.9971 21.1083 49.0093 21.5499 48.75 21.8174L32.4729 28.7504ZM32.9673 47.2763C32.9673 47.6896 33.3036 48.0259 33.721 48.0259L49.3132 39.8976C49.921 39.5167 50.0628 38.844 50.0628 37.8675V24.1514C50.0628 23.9528 49.9858 23.7624 49.844 23.6205C49.7022 23.4787 49.5117 23.4017 49.3132 23.4017L33.7169 29.9458C32.9632 30.2375 32.9632 30.6225 32.9632 31.0358L32.9673 47.2763ZM30.3456 29.9458L14.7534 23.4017C14.5548 23.4017 14.3644 23.4787 14.2226 23.6205C14.0807 23.7624 14.0037 23.9528 14.0037 24.1514V39.9178C14.0037 40.084 13.9024 40.3271 14.7534 40.6674L30.3456 48.03C30.7589 48.03 31.0952 47.6937 31.0952 47.2804V31.0358C31.0952 30.6225 31.0952 30.2375 30.3456 29.9458ZM25.2563 33.8276C23.2586 32.9564 21.265 32.0852 19.2714 31.2059C18.9432 31.0641 18.777 31.0033 18.777 30.744V29.0097C18.7689 28.7828 18.9067 28.483 19.1701 28.5843L25.317 31.2829C25.8884 31.5544 25.7141 31.5868 25.7384 32.6201V33.4791C25.7425 33.6493 25.5804 33.9654 25.2563 33.8276Z" fill="#5586F1"/>
</svg>
