<svg width="14" height="14" viewBox="0 0 14 14"  xmlns="http://www.w3.org/2000/svg">
<path d="M7.76211 4.15516C7.76211 3.73474 7.42128 3.39391 7.00086 3.39391C6.58044 3.39391 6.23961 3.73474 6.23961 4.15516C6.23961 4.57558 6.58044 4.91641 7.00086 4.91641C7.42128 4.91641 7.76211 4.57558 7.76211 4.15516ZM8.77711 4.15516C8.77711 5.13614 7.98184 5.93141 7.00086 5.93141C6.01988 5.93141 5.22461 5.13614 5.22461 4.15516C5.22461 3.17418 6.01988 2.37891 7.00086 2.37891C7.98184 2.37891 8.77711 3.17418 8.77711 4.15516Z" />
<path d="M2.93945 4.32042C2.96731 2.1045 4.78346 0.329235 6.99945 0.351775C9.21544 0.329235 11.0315 2.10451 11.0594 4.32035C11.0549 5.02 10.8646 5.70588 10.5079 6.30779C10.1512 6.9097 9.64098 7.40602 9.02945 7.74594L7.42575 9.29889C7.3007 9.42039 7.13321 9.48835 6.95885 9.48835C6.7845 9.48835 6.61701 9.42039 6.49195 9.29889L4.8172 7.67496C4.24334 7.32321 3.76934 6.83007 3.44057 6.24274C3.1118 5.6554 2.93926 4.99352 2.93945 4.32042ZM6.99945 8.33471L8.44075 6.94928L8.50165 6.91882C8.96209 6.66501 9.34614 6.2925 9.61387 5.84002C9.8816 5.38753 10.0232 4.87159 10.0241 4.34583C10.013 2.68942 8.66118 1.35564 7.0047 1.36677L6.99945 1.36684C5.34318 1.34143 3.97986 2.66346 3.95445 4.31973V4.32042C3.95339 4.83336 4.08685 5.33761 4.34152 5.78286C4.59619 6.22811 4.96317 6.59879 5.40583 6.85792L5.45658 6.88837L5.50229 6.92897L6.99945 8.33471Z" />
<path d="M11.3689 8.97663H10.0443C9.90969 8.97663 9.78061 8.92316 9.68543 8.82798C9.59026 8.73281 9.53679 8.60372 9.53679 8.46913C9.53679 8.33453 9.59026 8.20544 9.68543 8.11027C9.78061 8.0151 9.90969 7.96163 10.0443 7.96163H11.7343C11.845 7.95585 11.9545 7.98647 12.0461 8.0488C12.1378 8.11113 12.2065 8.20174 12.2418 8.3068L13.5968 12.3667C13.6234 12.4453 13.6304 12.5291 13.6172 12.611C13.6039 12.6928 13.5708 12.7702 13.5207 12.8363C13.4707 12.9024 13.4052 12.9552 13.3299 12.9901C13.2547 13.0251 13.1721 13.041 13.0893 13.0366H0.909428C0.826618 13.041 0.743991 13.0251 0.668777 12.9901C0.593562 12.9552 0.528052 12.9024 0.477976 12.8363C0.4279 12.7702 0.394785 12.6928 0.381527 12.611C0.36827 12.5291 0.375274 12.4453 0.401928 12.3667L1.75692 8.3068C1.79222 8.20174 1.86094 8.11113 1.95258 8.0488C2.04422 7.98647 2.15374 7.95585 2.26442 7.96163H3.95436C4.08895 7.96163 4.21804 8.0151 4.31321 8.11027C4.40839 8.20544 4.46186 8.33453 4.46186 8.46913C4.46186 8.60372 4.40839 8.73281 4.31321 8.82798C4.21804 8.92316 4.08895 8.97663 3.95436 8.97663H2.62982L1.61482 12.0216H12.3839L11.3689 8.97663Z" />
<path d="M5.4782 11.0072C5.34361 11.0072 5.21452 10.9537 5.11935 10.8585C5.02417 10.7634 4.9707 10.6343 4.9707 10.4997C4.9707 10.3651 5.02417 10.236 5.11935 10.1408C5.21452 10.0457 5.34361 9.99219 5.4782 9.99219H8.5232C8.80341 9.99219 9.0307 10.2195 9.0307 10.4997C9.0307 10.7799 8.80341 11.0072 8.5232 11.0072H5.4782Z" />


</svg>
