<svg viewBox="0 0 1024 1024" xmlns="http://www.w3.org/2000/svg" width="40" height="40">
<path d="M656.792209 378.374662c0-78.691873-65.953679-142.592356-147.117767-142.592356-81.205991 0-147.243473 63.900483-147.243473 142.592356 0 78.733775 66.037483 142.67616 147.243473 142.67616C590.796628 521.092724 656.792209 457.066536 656.792209 378.374662zM411.74957 378.374662c0-52.335543 43.91325-94.866028 97.924871-94.866028 53.927817 0 97.799165 42.530485 97.799165 94.866028s-43.871348 94.949832-97.799165 94.949832C455.66282 473.282593 411.74957 430.710205 411.74957 378.374662z" fill="#3B6DEC"></path>
<path d="M608.563058 769.487519c29.289467-38.675505 40.351584-55.520092 48.187249-67.545953 8.506097-13.115312 12.696293-19.610115 38.968819-49.611916 13.324822-15.168508 130.692201-151.685081 130.692201-250.741305 0-169.367706-142.173337-307.141337-316.862591-307.141337-174.647352 0-312.001964 137.773631-312.001964 307.141337 0 76.722481 76.05205 187.008429 125.32875 241.941894l0 0.041902 2.597921 8.715607-2.34651-0.041902c24.805958 28.744742 61.009248 76.806285 90.424421 116.864555-85.605696 12.989606-145.735003 42.279074-145.735003 76.680579 0 46.259759 108.19085 83.803912 241.732384 83.803912 133.541534 0 241.732384-37.544153 241.732384-83.803912C751.28112 811.766593 692.618381 782.686636 608.563058 769.487519zM358.575988 621.573615c-45.002701-52.209837-116.361732-158.054178-116.361732-220.027171 0-143.011376 119.9653-259.331205 267.418283-259.331205 147.536787 0 267.460185 116.31983 267.460185 259.331205 0 57.992307-61.679679 154.534414-118.959653 219.859563-28.535232 32.432114-33.731075 40.477289-43.159015 54.975366-10.224077 15.797037-27.487683 42.279074-98.427695 131.865455-2.472215 2.975039-5.279646 4.609215-7.877568 4.609215s-5.36345-1.592274-6.871921-3.43596C497.941894 804.182339 407.768885 678.518373 358.575988 621.573615zM509.590638 904.076602c-111.794419 0-202.344545-25.853507-202.344545-57.740895 0-23.842213 51.329896-44.290367 124.02979-53.047876 18.394959 25.392585 31.384565 43.661838 32.054996 44.583681 11.816352 14.456175 28.158114 22.752762 45.924544 22.794664 17.682625 0 34.317702-8.296587 46.343563-23.12988 13.450528-16.970292 24.554546-31.133153 34.527212-44.080858 71.484737 8.925117 121.767084 29.079957 121.767084 52.796465C711.935183 878.223095 621.385056 904.076602 509.590638 904.076602z" fill="#3B6DEC"></path>
</svg>