<svg width="20" height="20" viewBox="0 0 20 20" fill="none" xmlns="http://www.w3.org/2000/svg">
<path d="M9.99468 1.33203C6.60568 1.33203 3.86135 3.99436 3.84668 7.30737C3.84668 8.49703 4.20068 9.6297 4.85768 10.5977L4.92201 10.6894L4.95935 10.7514L4.99001 10.798C5.01068 10.8284 5.03268 10.8574 5.05735 10.886L5.07268 10.9027L8.98235 15.45C9.10776 15.5958 9.26322 15.7127 9.43806 15.7928C9.6129 15.8728 9.80299 15.9141 9.99528 15.9138C10.1876 15.9135 10.3775 15.8716 10.5521 15.7909C10.7267 15.7103 10.8817 15.5929 11.0067 15.4467L14.895 10.8987L14.8693 10.927C14.9077 10.8869 14.9426 10.8437 14.9737 10.7977L15.0037 10.7517C15.016 10.7324 15.04 10.6917 15.0393 10.693C15.7287 9.7297 16.1153 8.5557 16.1297 7.31837C16.1297 4.0017 13.378 1.33203 9.99468 1.33203ZM9.99468 2.66536C12.6503 2.66536 14.7963 4.74736 14.7963 7.31037C14.7873 8.25523 14.4874 9.17437 13.9373 9.9427L13.8797 10.034L9.99301 14.5807L6.08301 10.0334L6.04535 9.97103L6.02601 9.9427C5.47455 9.17588 5.17855 8.25488 5.18001 7.31037C5.19168 4.74203 7.33201 2.66536 9.99468 2.66536Z" fill="#A4A4A4"/>
<path d="M15.3088 13.9581C15.4537 13.8735 15.6251 13.8467 15.7889 13.883C15.9527 13.9192 16.0968 14.0159 16.1925 14.1537L16.2205 14.1977L17.6538 16.6534C17.7686 16.85 17.8311 17.0728 17.8354 17.3004C17.8397 17.528 17.7856 17.753 17.6783 17.9538C17.571 18.1546 17.4141 18.3246 17.2225 18.4476C17.0309 18.5706 16.811 18.6425 16.5838 18.6564L16.4948 18.6587L3.48612 18.5877C3.25937 18.5865 3.03669 18.5274 2.83912 18.4161C2.64156 18.3048 2.47563 18.145 2.35704 17.9517C2.23845 17.7585 2.17111 17.5381 2.16138 17.3116C2.15166 17.0851 2.19987 16.8598 2.30146 16.6571L2.34312 16.5801L3.70912 14.2507C3.796 14.1016 3.93735 13.9919 4.10342 13.9449C4.26949 13.8978 4.44735 13.917 4.59957 13.9984C4.75178 14.0798 4.86649 14.217 4.91957 14.3813C4.97264 14.5455 4.95993 14.724 4.88412 14.8791L4.85946 14.9251L3.49346 17.2544L16.5021 17.3254L15.0688 14.8697C14.9797 14.717 14.955 14.5352 15 14.3642C15.045 14.1932 15.1561 14.0471 15.3088 13.9581Z" fill="#A4A4A4"/>
<path d="M9.99967 4.76563C9.64944 4.76567 9.30264 4.8347 8.97908 4.96877C8.65552 5.10284 8.36154 5.29932 8.11392 5.54701C7.8663 5.79469 7.66988 6.08872 7.53589 6.41232C7.4019 6.73591 7.33296 7.08272 7.33301 7.43296C7.33305 7.78319 7.40208 8.12999 7.53615 8.45355C7.67022 8.77711 7.8667 9.07109 8.11439 9.31871C8.36207 9.56634 8.65611 9.76275 8.9797 9.89674C9.30329 10.0307 9.65011 10.0997 10.0003 10.0996C10.7077 10.0995 11.386 9.81847 11.8861 9.31824C12.3862 8.81802 12.6671 8.13962 12.667 7.43229C12.6669 6.72496 12.3858 6.04663 11.8856 5.54654C11.3854 5.04644 10.707 4.76554 9.99967 4.76563ZM9.99967 6.09896C10.3534 6.09905 10.6926 6.23964 10.9426 6.48982C11.1927 6.73999 11.3331 7.07925 11.333 7.43296C11.3329 7.78667 11.1923 8.12586 10.9422 8.37591C10.692 8.62595 10.3527 8.76638 9.99901 8.76629C9.6453 8.7662 9.30611 8.62561 9.05606 8.37543C8.80601 8.12526 8.66559 7.786 8.66567 7.43229C8.66576 7.07858 8.80636 6.73939 9.05653 6.48934C9.30671 6.2393 9.64596 6.09887 9.99967 6.09896Z" fill="#3887FF"/>
</svg>
