<svg width="48" height="48" viewBox="0 0 48 48" xmlns="http://www.w3.org/2000/svg">
<circle cx="24" cy="24" r="24"/>
<path d="M18.6665 23.9999C18.6665 26.9455 21.0545 29.3333 23.9999 29.3333C26.9455 29.3333 29.3333 26.9453 29.3333 23.9999C29.3333 21.0543 26.9453 18.6665 23.9999 18.6665C21.0543 18.6665 18.6665 21.0545 18.6665 23.9999Z" fill="#F7FBFF" />
<path d="M38.4 22.4H36.688C35.9534 16.6076 31.3924 12.0466 25.6 11.312V9.6C25.6 9.38989 25.5586 9.18183 25.4782 8.98771C25.3978 8.79359 25.2799 8.6172 25.1314 8.46863C24.9828 8.32006 24.8064 8.2022 24.6123 8.12179C24.4182 8.04139 24.2101 8 24 8C23.7899 8 23.5818 8.04139 23.3877 8.12179C23.1936 8.2022 23.0172 8.32006 22.8686 8.46863C22.7201 8.6172 22.6022 8.79359 22.5218 8.98771C22.4414 9.18183 22.4 9.38989 22.4 9.6V11.312C16.6076 12.0466 12.0466 16.6076 11.312 22.4H9.6C9.17565 22.4 8.76869 22.5686 8.46863 22.8686C8.16857 23.1687 8 23.5757 8 24C8 24.4243 8.16857 24.8313 8.46863 25.1314C8.76869 25.4314 9.17565 25.6 9.6 25.6H11.312C12.0466 31.3924 16.6076 35.9534 22.4 36.688V38.4C22.4 38.6101 22.4414 38.8182 22.5218 39.0123C22.6022 39.2064 22.7201 39.3828 22.8686 39.5314C23.0172 39.6799 23.1936 39.7978 23.3877 39.8782C23.5818 39.9586 23.7899 40 24 40C24.2101 40 24.4182 39.9586 24.6123 39.8782C24.8064 39.7978 24.9828 39.6799 25.1314 39.5314C25.2799 39.3828 25.3978 39.2064 25.4782 39.0123C25.5586 38.8182 25.6 38.6101 25.6 38.4V36.688C31.3924 35.9534 35.9534 31.3924 36.688 25.6H38.4C38.6101 25.6 38.8182 25.5586 39.0123 25.4782C39.2064 25.3978 39.3828 25.2799 39.5314 25.1314C39.6799 24.9828 39.7978 24.8064 39.8782 24.6123C39.9586 24.4182 40 24.2101 40 24C40 23.7899 39.9586 23.5818 39.8782 23.3877C39.7978 23.1936 39.6799 23.0172 39.5314 22.8686C39.3828 22.7201 39.2064 22.6022 39.0123 22.5218C38.8182 22.4414 38.6101 22.4 38.4 22.4ZM24 33.6C18.698 33.6 14.4 29.302 14.4 24C14.4 18.698 18.698 14.4 24 14.4C29.302 14.4 33.6 18.698 33.6 24C33.6 29.302 29.302 33.6 24 33.6Z" fill="#F7FBFF"/>
</svg>
