<svg width="64" height="64" viewBox="0 0 64 64" fill="none" xmlns="http://www.w3.org/2000/svg">
<circle cx="32" cy="32" r="32" fill="#FFEED6"/>
<path d="M35.6856 16C36.1504 16.0129 36.5929 16.2025 36.9228 16.5302C37.2422 16.8516 37.4088 17.2814 37.3848 17.7213C37.4349 18.6091 36.7118 19.3743 35.7578 19.4406H28.1255C27.1514 19.3944 26.4041 18.6251 26.4524 17.7213C26.4041 16.8175 27.1514 16.0462 28.1235 16H35.6855H35.6856ZM43.9506 18.0085L43.9446 18.0145C46.7826 18.0145 48.1384 19.6294 48.1384 21.9653V45.0894C48.1384 47.9014 46.6902 49 43.7136 49H20.0793C17.0947 49 16.0221 47.594 16 45.0894V21.9593C16.002 19.6294 16.7593 18.0085 19.8283 18.0085H23.6766C23.6364 18.1953 23.6164 18.3862 23.6123 18.5769C23.6123 20.0231 24.717 21.4491 26.1571 21.4491H37.7523C39.094 21.4491 40.2248 20.023 40.2248 18.5769C40.2245 18.386 40.205 18.1955 40.1666 18.0085H43.9506ZM24.4177 34.4563L29.6359 39.6744C29.8852 39.9112 30.2159 40.0432 30.5598 40.0432C30.9036 40.0432 31.2344 39.9112 31.4837 39.6744L40.8775 30.2947C41.0016 30.1736 41.1001 30.029 41.1674 29.8693C41.2347 29.7096 41.2694 29.538 41.2694 29.3647C41.2694 29.1914 41.2347 29.0199 41.1674 28.8602C41.1001 28.7005 41.0016 28.5558 40.8775 28.4348C40.7568 28.3132 40.6131 28.2167 40.4549 28.1509C40.2967 28.085 40.127 28.0511 39.9556 28.0511C39.7843 28.0511 39.6146 28.085 39.4564 28.1509C39.2981 28.2167 39.1545 28.3132 39.0337 28.4348L30.5598 36.8846L26.2817 32.6125C26.0358 32.3698 25.7042 32.2337 25.3587 32.2337C25.0133 32.2337 24.6817 32.3698 24.4358 32.6125C24.3115 32.7311 24.2121 32.8734 24.1436 33.031C24.0751 33.1886 24.0388 33.3583 24.037 33.5302C24.0351 33.702 24.0676 33.8725 24.1327 34.0315C24.1977 34.1906 24.294 34.335 24.4157 34.4563L24.4177 34.4563Z" fill="#F5B761"/>
</svg>
