<svg viewBox="0 0 1024 1024" version="1.1" xmlns="http://www.w3.org/2000/svg" width="200" height="200">
  <path d="M495.104 849.92c51.2 0 98.112-9.024 142.528-28.928a31.36 31.36 0 0 0 15.36-40.768c-7.552-18.816-30.016-26.624-48.96-19.392-30.912 11.776-66.304 19.2-99.712 19.2-139.776 0-256.512-86.016-256.512-257.28 0-198.144 148.992-326.4 298.752-326.4 167.424 0 239.616 108.288 239.616 238.08 0 99.84-55.296 162.816-108.288 162.816-41.472 0-55.296-26.112-41.472-82.176l28.992-144.192a36.096 36.096 0 0 0-35.392-43.2h-6.784a26.624 26.624 0 0 0-25.216 18.048l-5.888 17.28a1.152 1.152 0 0 1-1.088 0.768 1.152 1.152 0 0 1-1.024-0.64c-14.592-29.44-37.504-42.368-66.496-42.368-99.84 0-173.568 108.288-173.568 210.432 0 79.872 46.08 129.024 112.128 129.024 35.968 0 79.488-24.32 104.896-57.92a1.152 1.152 0 0 1 0.896-0.448c0.576 0 1.024 0.384 1.152 0.96 8.832 42.368 48.576 65.088 97.344 65.088 88.32 0 192-79.872 192-237.312 0-178.944-117.504-304.128-302.592-304.128-208.128 0-384.768 158.208-384.768 399.36 0 217.344 150.528 324.096 324.096 324.096z m-9.216-261.888c-29.952 0-50.688-19.968-50.688-62.976 0-56.064 35.328-130.56 91.392-130.56 12.224 0 22.208 3.2 30.72 10.24 11.648 9.664 13.12 26.368 10.432 41.28l-15.232 83.84a56.32 56.32 0 0 1-13.376 28.288c-19.712 21.504-36.224 29.888-53.248 29.888z"></path>
</svg>