<svg viewBox="0 0 1024 1024" version="1.1" xmlns="http://www.w3.org/2000/svg" width="200" height="200">
  <path d="M705.08729171 182.59006334A136.53333333 136.53333333 0 0 1 801.63093758 415.45635414l-144.81546879 144.81546879 48.27182292 48.27182293L849.9027605 463.72817707a204.8 204.8 0 0 0-289.63093757-289.63093757l-144.81546879 144.81546879 48.27182293 48.27182292L608.54364586 222.36906242a135.54133333 135.54133333 0 0 1 96.54364585-39.77899908z m-386.17458342 727.09433287A203.36 203.36 0 0 0 463.72817707 849.9027605L608.54364586 705.08729171l-48.27182293-48.27182292-144.81546879 144.81546879a136.53333333 136.53333333 0 0 1-193.08729172-193.08729172L367.18453121 463.72817707l-48.27182292-48.27182293-144.81546879 144.81546879a204.59733333 204.59733333 0 0 0 144.81546879 349.41257328z"></path>
  <path d="M729.22320318 343.04861974l-386.17458344 386.17458344-48.27182292-48.27182292L680.95138026 294.77679682z" p-id="34561"></path>
</svg>