<svg width="33" height="33" viewBox="0 0 33 33" fill="none" xmlns="http://www.w3.org/2000/svg">
<circle cx="16.5" cy="16.5" r="15.5" fill="#ECF1FA" stroke="white" stroke-width="2"/>
<path d="M12.3678 15.1624C11.2644 14.0457 10.6207 12.5381 10.6207 10.9523C10.6207 9.3665 11.2414 7.83655 12.3678 6.74213C13.4483 5.67005 14.9195 5 16.5632 5C18.1954 5 19.6782 5.67005 20.7586 6.74213C21.8621 7.84772 22.5057 9.3665 22.5057 10.9523C22.5057 12.5381 21.8851 14.068 20.7586 15.1624C19.6897 16.2345 18.2069 16.9046 16.5632 16.9046C14.9195 16.9046 13.4483 16.2345 12.3678 15.1624ZM17.2069 19.2386L16.4943 18.7695L15.7816 19.2386L16.3448 19.6071L15.0575 25.7827L16.4828 27L17.9195 25.7716L16.6322 19.5959L17.2069 19.2386ZM19 17.3401L18.3563 19.0041L19.7356 25.8497H25C24.8506 21.8518 22.3678 18.4792 19 17.3401ZM13.954 17.3513C10.6092 18.5015 8.13793 21.8518 8 25.8497H13.2184L14.5977 19.0041L13.954 17.3513Z" fill="#3887FF"/>
</svg>
