<svg width="10" height="10" viewBox="0 0 10 10" xmlns="http://www.w3.org/2000/svg">
<path d="M6.79688 2.34375H1.95312C1.89096 2.34375 1.83135 2.36844 1.7874 2.4124C1.74344 2.45635 1.71875 2.51596 1.71875 2.57812C1.71875 2.64029 1.74344 2.6999 1.7874 2.74385C1.83135 2.78781 1.89096 2.8125 1.95312 2.8125H6.79688C6.85904 2.8125 6.91865 2.78781 6.9626 2.74385C7.00656 2.6999 7.03125 2.64029 7.03125 2.57812C7.03125 2.51596 7.00656 2.45635 6.9626 2.4124C6.91865 2.36844 6.85904 2.34375 6.79688 2.34375ZM5.39062 3.75H1.95312C1.89096 3.75 1.83135 3.77469 1.7874 3.81865C1.74344 3.8626 1.71875 3.92221 1.71875 3.98438C1.71875 4.04654 1.74344 4.10615 1.7874 4.1501C1.83135 4.19406 1.89096 4.21875 1.95312 4.21875H5.39062C5.45279 4.21875 5.5124 4.19406 5.55635 4.1501C5.60031 4.10615 5.625 4.04654 5.625 3.98438C5.625 3.92221 5.60031 3.8626 5.55635 3.81865C5.5124 3.77469 5.45279 3.75 5.39062 3.75ZM5.39062 5.15625H1.95312C1.89096 5.15625 1.83135 5.18094 1.7874 5.2249C1.74344 5.26885 1.71875 5.32846 1.71875 5.39062C1.71875 5.45279 1.74344 5.5124 1.7874 5.55635C1.83135 5.60031 1.89096 5.625 1.95312 5.625H5.39062C5.45279 5.625 5.5124 5.60031 5.55635 5.55635C5.60031 5.5124 5.625 5.45279 5.625 5.39062C5.625 5.32846 5.60031 5.26885 5.55635 5.2249C5.5124 5.18094 5.45279 5.15625 5.39062 5.15625Z" />
<path d="M8.125 1.25V5.07812C8.125 5.14029 8.10031 5.1999 8.05635 5.24385C8.0124 5.28781 7.95279 5.3125 7.89062 5.3125C7.82846 5.3125 7.76885 5.28781 7.7249 5.24385C7.68094 5.1999 7.65625 5.14029 7.65625 5.07812V1.25C7.65625 1.20856 7.63979 1.16882 7.61049 1.13951C7.58118 1.11021 7.54144 1.09375 7.5 1.09375H1.25C1.20856 1.09375 1.16882 1.11021 1.13951 1.13951C1.11021 1.16882 1.09375 1.20856 1.09375 1.25V8.75C1.09375 8.79144 1.11021 8.83118 1.13951 8.86049C1.16882 8.88979 1.20856 8.90625 1.25 8.90625H5.07812C5.14029 8.90625 5.1999 8.93094 5.24385 8.9749C5.28781 9.01885 5.3125 9.07846 5.3125 9.14062C5.3125 9.20279 5.28781 9.2624 5.24385 9.30635C5.1999 9.35031 5.14029 9.375 5.07812 9.375H1.25C1.08424 9.375 0.925268 9.30915 0.808058 9.19194C0.690848 9.07473 0.625 8.91576 0.625 8.75V1.25C0.625 1.08424 0.690848 0.925268 0.808058 0.808058C0.925268 0.690848 1.08424 0.625 1.25 0.625H7.5C7.66576 0.625 7.82473 0.690848 7.94194 0.808058C8.05915 0.925268 8.125 1.08424 8.125 1.25Z" />
<path d="M9.3306 9.10638L8.3931 8.16888C8.6469 7.85855 8.77171 7.46254 8.74171 7.06276C8.71171 6.66299 8.5292 6.29004 8.23192 6.02106C7.93465 5.75209 7.54536 5.60767 7.14459 5.61767C6.74381 5.62768 6.36222 5.79136 6.07874 6.07483C5.79526 6.35831 5.63159 6.73991 5.62158 7.14068C5.61157 7.54146 5.75599 7.93074 6.02497 8.22802C6.29395 8.52529 6.6669 8.70781 7.06667 8.73781C7.46645 8.76781 7.86246 8.643 8.17279 8.38919L9.11029 9.32669C9.13971 9.35612 9.17961 9.37265 9.22122 9.37265C9.26283 9.37265 9.30274 9.35612 9.33216 9.32669C9.36158 9.29727 9.37811 9.25737 9.37811 9.21576C9.37811 9.17415 9.36158 9.13424 9.33216 9.10482L9.3306 9.10638ZM5.93841 7.18607C5.93841 6.93884 6.01172 6.69717 6.14908 6.49161C6.28643 6.28604 6.48165 6.12583 6.71006 6.03122C6.93847 5.93661 7.1898 5.91186 7.43227 5.96009C7.67475 6.00832 7.89748 6.12737 8.0723 6.30219C8.24711 6.477 8.36616 6.69973 8.41439 6.94221C8.46263 7.18468 8.43787 7.43602 8.34326 7.66442C8.24865 7.89283 8.08844 8.08805 7.88287 8.22541C7.67731 8.36276 7.43564 8.43607 7.18841 8.43607C6.85689 8.43607 6.53895 8.30437 6.30453 8.06995C6.07011 7.83553 5.93841 7.51759 5.93841 7.18607Z" />
</svg>
