<svg viewBox="0 0 1024 1024" version="1.1" xmlns="http://www.w3.org/2000/svg" width="200" height="200">
<path d="M282.7776 75.1104H256a112.64 112.64 0 0 0-112.64 112.64v647.5776a112.64 112.64 0 0 0 112.64 112.896h26.5728zM639.4368 262.8608l60.7232 28.416V75.1104h-157.1328v216.1664l60.7232-28.416a42.24 42.24 0 0 1 35.6864 0z"></path>
<path d="M784.384 76.4928v280.9344a42.0864 42.0864 0 0 1-59.9552 38.144l-102.8096-48.0768-102.8608 48.0768a42.0864 42.0864 0 0 1-59.9552-38.144V75.1104H367.0016V948.224h400.5888a112.64 112.64 0 0 0 112.896-112.64V188.0064a112.64 112.64 0 0 0-96.1024-111.5136z"></path>
</svg>
