<svg viewBox="0 0 1024 1024" version="1.1" xmlns="http://www.w3.org/2000/svg" width="200" height="200">
<path d="M211.953 926.023c-20.674 0-37.52-16.847-37.52-37.52v-750.41c0-20.674 16.846-37.521 37.52-37.521h75.041v825.45h-75.041z m637.848-637.848v-75.041h37.52v75.041h-37.52zM699.719 100.573v262.643l-112.561-84.421-112.561 84.421V100.573h225.122z m150.082 787.93c0 20.674-16.847 37.52-37.521 37.52H324.514v-825.45h112.561v337.684l150.082-112.561L737.24 438.257V100.573h75.041c20.674 0 37.521 16.847 37.521 37.521h37.52c0-41.46-33.58-75.041-75.041-75.041H211.953c-41.46 0-75.041 33.581-75.041 75.041v750.41c0 41.46 33.581 75.041 75.041 75.041H812.28c41.46 0 75.041-33.581 75.041-75.041V363.216h-37.52v525.287z"></path>
</svg>