<svg viewBox="0 0 1024 1024" version="1.1" xmlns="http://www.w3.org/2000/svg" width="200" height="200">
<path d="M858.4192 236.6976h-114.7392V151.552a68.6592 68.6592 0 0 0-68.608-68.608H345.6512A68.7104 68.7104 0 0 0 276.992 151.552v85.1456H162.2528a82.8928 82.8928 0 0 0-82.8416 82.8928v99.4304h861.8496V319.5904a82.8416 82.8416 0 0 0-82.8416-82.8928zM352.768 158.72h315.1872v77.9776H352.768zM605.6448 575.0784H415.0272V485.3248H79.4112v368.64a82.8416 82.8416 0 0 0 82.8416 82.8416h696.32a82.7904 82.7904 0 0 0 82.8416-82.8416v-368.64h-335.7696z"></path>
<path d="M605.6448 485.3248v17.7664q9.1136-8.704 17.8688-17.7664z"></path>
</svg>
