<svg width="80" height="50" viewBox="0 0 80 50" fill="none" xmlns="http://www.w3.org/2000/svg">
<g clip-path="url(#clip0_14_203)">
<path d="M63.8662 40.0705C64.568 39.9297 65.1997 39.8592 65.9015 39.7184V39.0142H63.8662V40.0705Z" fill="#4CD2E3"/>
<path fill-rule="evenodd" clip-rule="evenodd" d="M76.078 9.15484C76.7798 16.0562 79.7275 32.5351 79.8679 32.5351C80.1486 34.2253 80.0082 34.9295 79.5169 35.1408C78.8151 35.4929 71.3056 37.1126 70.6739 37.183C70.1108 37.183 69.4093 37.4375 68.847 37.6414C68.4282 37.7934 68.0866 37.9173 67.9368 37.8872H66.6033V38.2393H64.2171C64.2171 38.2393 64.1469 38.4506 63.5153 38.5915C63.6631 38.0476 63.8109 37.7468 63.983 37.3965C64.0561 37.2478 64.1335 37.0902 64.2171 36.9013C64.4456 36.9222 64.6372 36.9677 64.8174 37.0105C65.246 37.1123 65.6101 37.1988 66.2524 36.9013C66.3226 36.7957 66.3752 36.6724 66.4279 36.5492C66.4805 36.426 66.5332 36.3027 66.6033 36.1971C66.856 36.1776 67.1356 36.1473 67.4182 36.1166C68.1562 36.0367 68.915 35.9544 69.2703 36.0562C69.373 36.1594 69.363 36.2625 69.3502 36.3932C69.3455 36.441 69.3405 36.4926 69.3405 36.5492C69.8317 36.3379 70.1125 36.2675 71.0248 36.1971C71.3681 36.1397 71.618 36.0355 71.8888 35.9227C71.9502 35.8971 72.0127 35.871 72.0776 35.845C72.0776 35.6828 72.2016 35.6451 72.545 35.5408C72.6489 35.5092 72.773 35.4715 72.9198 35.4224C73.0601 35.352 74.534 35.352 75.7973 35.4929V35.1408C75.9477 35.1408 76.0578 35.161 76.1601 35.1798C76.2486 35.196 76.3312 35.2112 76.4289 35.2112C76.4289 35.1408 77.2009 34.9999 77.5518 35.1408C77.5518 35.0929 77.6654 35.0369 77.829 34.9561C78.1468 34.7993 78.6537 34.5493 78.8853 34.0844C78.8853 33.7807 78.6919 32.7493 78.5059 31.7573C78.3038 30.6792 78.1104 29.6478 78.1835 29.6478C78.2537 29.3661 78.3063 29.0844 78.3589 28.8027C78.4116 28.521 78.4642 28.2393 78.5344 27.9577H77.8326C77.5518 25.7041 77.1307 23.0281 76.4991 21.0562V19.014C76.4313 19.014 76.3471 18.9811 76.1991 18.9233C76.0406 18.8615 75.8091 18.7711 75.4464 18.6619C75.5215 19.0014 75.5766 19.3611 75.6331 19.7302C75.682 20.0501 75.7321 20.3771 75.7973 20.7041C75.8263 20.7041 76.0962 22.0574 76.4124 23.6428C76.8596 25.885 77.3994 28.5915 77.4817 28.5915C77.5518 29.1548 77.6045 29.7358 77.6571 30.3168C77.7097 30.8978 77.7624 31.4788 77.8326 32.0422H77.4817V32.7464H77.1307C77.2009 32.852 77.2536 32.9753 77.3062 33.0985C77.3588 33.2217 77.4115 33.345 77.4817 33.4506H76.1482C76.0826 33.4068 76.0511 33.3357 76.0197 33.2649C75.9502 33.1082 75.8814 32.953 75.4464 33.0985C75.4464 33.1665 75.4136 33.251 75.356 33.3996C75.2943 33.5585 75.2043 33.7908 75.0954 34.1548C73.2707 34.2253 71.6565 34.6478 71.6565 34.8591C70.6447 34.8591 66.9344 35.4079 64.8628 35.7144C64.0604 35.8331 63.5039 35.9154 63.4451 35.9154C61.3396 36.1971 60.0764 36.3379 59.6553 36.2675C59.5149 36.4788 56.1461 37.1126 54.8828 36.9717C54.7074 37.2182 54.5319 37.4471 54.3565 37.676C54.181 37.9048 54.0056 38.1337 53.8301 38.3802C52.7072 38.521 47.5137 39.5774 47.3733 39.7886C46.8469 39.8591 46.3381 39.9119 45.8293 39.9647C45.3204 40.0175 44.8116 40.0703 44.2853 40.1408V40.4929C43.9917 40.577 43.7984 40.5103 43.6903 40.4731C43.6175 40.4479 43.5834 40.4362 43.5834 40.4929H40.8463V40.845C40.5656 40.845 40.1445 41.0562 40.1445 41.1971C39.969 41.1267 39.7936 41.0739 39.6181 41.021C39.4426 40.9682 39.2672 40.9154 39.0917 40.845C39.0216 40.9506 38.9689 41.0739 38.9163 41.1971C38.8636 41.3203 38.811 41.4436 38.7408 41.5492C38.6005 41.5492 38.3899 41.3379 38.3899 41.1971C38.0039 41.3027 37.6004 41.426 37.1968 41.5492C36.7933 41.6724 36.3897 41.7957 36.0037 41.9013C36.0037 42.0422 35.0913 42.0422 34.6702 41.9013C34.4785 41.9655 34.2867 42.1465 34.0713 42.3497C33.5774 42.8158 32.9595 43.399 31.9331 42.9577C31.9331 42.9577 31.4418 42.3943 31.2313 42.2534V43.3098H29.196V43.6619C29.0205 43.5915 28.8451 43.5386 28.6696 43.4858C28.4942 43.433 28.3187 43.3802 28.1432 43.3098C28.0731 43.4154 28.0204 43.5386 27.9678 43.6619C27.9151 43.7851 27.8625 43.9084 27.7923 44.014H26.1079V44.3661C25.4514 44.5757 24.6044 44.5689 23.7722 44.5621C22.6474 44.553 21.5494 44.5441 20.9846 45.0703C20.7901 45.2655 20.7453 45.2804 20.7327 45.3093C20.718 45.3429 20.747 45.3956 20.6337 45.7746C21.2014 45.7075 21.7532 45.6565 22.2967 45.6062C22.8954 45.5508 23.484 45.4963 24.0727 45.4224C24.1428 45.3168 24.1955 45.1936 24.2481 45.0703C24.3007 44.9471 24.3534 44.8239 24.4236 44.7182C25.0552 44.6478 25.6868 44.595 26.3185 44.5422C26.9501 44.4893 27.5818 44.4365 28.2134 44.3661V44.014C28.8451 43.9436 29.4767 43.8908 30.1084 43.8379C30.74 43.7851 31.3716 43.7323 32.0033 43.6619V43.3098C32.1787 43.3802 32.3542 43.433 32.5297 43.4858C32.7051 43.5386 32.8806 43.5915 33.056 43.6619V43.3098C33.442 43.2393 33.8456 43.1865 34.2491 43.1337C34.6527 43.0809 35.0562 43.0281 35.4422 42.9577V43.6619C35.6177 43.5562 35.7932 43.433 35.9686 43.3098C36.1441 43.1865 36.3195 43.0633 36.495 42.9577V42.6055C36.9512 42.5351 37.4074 42.4823 37.8635 42.4295C38.3197 42.3767 38.7759 42.3239 39.2321 42.2534V41.9013C40.0743 41.8309 40.934 41.7781 41.7938 41.7253C42.6535 41.6724 43.5132 41.6196 44.3554 41.5492C44.4958 41.2675 47.0224 40.4929 47.7944 40.4929V40.1408C47.9698 40.2112 48.1453 40.264 48.3208 40.3168C48.4962 40.3696 48.6717 40.4224 48.8471 40.4929V40.1408H49.8999V39.7886H52.9879V39.0844H54.6723C54.6897 39.0844 54.7072 39.1148 54.7321 39.1584C54.8077 39.2902 54.9521 39.5424 55.3741 39.4365C55.3741 39.3661 55.6548 39.2253 56.0759 39.0844V38.7323C56.497 38.8731 57.4094 38.8731 57.4094 38.7323C58.0411 38.6619 58.6727 38.6091 59.3043 38.5562C59.936 38.5034 60.5676 38.4506 61.1993 38.3802C61.2695 38.2746 61.3221 38.1513 61.3747 38.0281C61.4274 37.9048 61.48 37.7816 61.5502 37.676C62.0418 37.5663 62.3208 37.8406 62.6189 38.1337C62.7038 38.2171 62.7903 38.3021 62.8837 38.3802C62.5328 38.7323 62.3924 39.014 62.1819 39.4365L62.1818 39.4365C61.1993 39.2957 56.7778 40.352 56.3567 40.4929C53.2686 41.0562 51.6544 41.4084 51.5843 41.5492H49.198V42.2534C47.7944 42.1126 47.1627 42.6055 47.5137 42.6055C47.5137 42.6584 47.5312 42.7068 47.5487 42.7552C47.6014 42.9004 47.654 43.0457 47.2329 43.3098C46.6465 43.5361 46.35 43.5588 46.0266 43.5835C45.8469 43.5972 45.6589 43.6116 45.4082 43.6619C45.4784 42.8168 44.0747 42.6055 43.3729 42.6055C43.3027 42.7112 43.2501 42.8344 43.1974 42.9577C43.1448 43.0809 43.0921 43.2041 43.022 43.3098C42.4956 43.3802 41.9868 43.433 41.4779 43.4858C40.9691 43.5386 40.4603 43.5915 39.9339 43.6619V44.014H39.583V43.6619C39.3419 43.6964 39.3713 43.748 39.4056 43.8082C39.4413 43.8706 39.4822 43.9423 39.2321 44.014H38.1794V44.3661C37.7246 44.4905 37.489 44.3218 37.2862 44.1765C37.1446 44.0751 37.019 43.9851 36.8459 44.014V44.3661C36.0739 44.507 34.4597 44.9295 34.4597 45.0703C33.4771 45.0703 28.1432 45.9154 28.0029 46.1267C27.6263 46.1807 26.9507 46.2967 26.2369 46.4193C25.0884 46.6166 23.8411 46.8309 23.5814 46.8309C22.4584 46.9013 21.897 46.9013 21.897 46.8309C21.5817 46.8309 21.1779 47.053 20.7104 47.31C20.3454 47.5108 19.9416 47.7328 19.5108 47.8872C18.809 48.0633 17.7913 48.0633 16.8614 48.0633C15.9315 48.0633 15.0893 48.0633 14.7384 48.2393C14.6682 48.345 14.6155 48.4682 14.5629 48.5915C14.5103 48.7147 14.4576 48.8379 14.3874 48.9436C13.8197 48.8766 13.2679 48.8255 12.7244 48.7752C12.1257 48.7198 11.5371 48.6653 10.9485 48.5915V49.2957C10.7654 49.2957 10.5159 49.3756 10.252 49.4601C9.90904 49.57 9.54175 49.6876 9.26411 49.6478C8.84301 49.6478 8.28155 49.507 7.57973 49.2957C7.55376 49.1394 7.41251 48.9637 7.22706 48.7332C6.91127 48.3406 6.46734 47.7887 6.24626 46.9013C5.47425 46.0562 5.19352 42.4647 5.19352 42.1126C5.05315 42.1126 4.14078 36.9717 4.14078 36.6196C4.00041 36.6196 3.78986 34.7886 3.78986 33.8731C3.69041 33.8233 3.59977 33.7822 3.51481 33.7437C3.35995 33.6736 3.224 33.612 3.08804 33.521C3.2284 33.1689 3.2284 32.4647 3.08804 32.4647C2.46844 26.6102 1.6589 23.157 1.27426 21.5163C1.13608 20.9269 1.05274 20.5713 1.05274 20.4224C0.982557 20.4224 0.701827 20.0703 0.350913 19.3661C0.280731 18.9084 0.228094 18.4506 0.175457 17.9929C0.12282 17.5351 0.0701826 17.0774 0 16.6196H0.350913C0.350913 16.3769 0.282878 16.4073 0.20542 16.4419C0.125537 16.4776 0.0356322 16.5178 0 16.2675C0.0701826 15.8802 0.12282 15.4753 0.175457 15.0703C0.228094 14.6654 0.280731 14.2605 0.350913 13.8731C0.350913 13.4606 0.712156 13.1689 1.01142 12.9273C1.22303 12.7564 1.40365 12.6105 1.40365 12.4647C1.78966 12.3943 2.19321 12.3415 2.59676 12.2886C3.00031 12.2358 3.40386 12.183 3.78986 12.1126V11.7605H8.21137C8.28155 11.5844 8.33419 11.4084 8.38683 11.2323C8.43946 11.0562 8.4921 10.8802 8.56228 10.7041C9.00832 10.729 9.27937 10.789 9.499 10.8376C9.90143 10.9266 10.1312 10.9775 10.9485 10.7041V10.352C11.2292 10.4224 11.51 10.4753 11.7907 10.5281C12.0714 10.5809 12.3521 10.6337 12.6329 10.7041C12.7031 10.5985 12.7557 10.4753 12.8083 10.352C12.861 10.2288 12.9136 10.1055 12.9838 9.99991C13.1943 10.0703 13.4224 10.1231 13.6505 10.176C13.8786 10.2288 14.1067 10.2816 14.3173 10.352C14.3173 10.352 27.8625 7.95766 30.3891 7.60554C30.3891 7.39428 34.2491 6.76047 35.1615 6.90132C35.1615 6.69005 35.6528 6.40836 36.8459 6.19709C36.8459 5.98583 37.8284 5.84498 38.5303 6.19709C38.5303 6.10363 38.9561 6.03773 39.4795 5.95672C40.1394 5.8546 40.9543 5.72848 41.2674 5.49287H41.6183V5.14076H41.2674C41.0673 4.73928 41.4019 4.76695 41.6869 4.79053C41.8018 4.80004 41.9087 4.80888 41.9692 4.78864V5.14076C42.3201 5.14076 44.3554 4.78864 48.1453 4.08442C48.426 4.08442 48.8471 3.87315 48.8471 3.7323C49.2682 3.7323 50.1806 3.52104 50.1806 3.38019C51.3035 2.95766 54.2512 2.81681 54.2512 3.02808H54.6021C54.6021 2.88723 54.953 2.74639 55.6548 2.67597C56.5672 2.60554 61.4098 2.04216 62.4626 0.985826C62.6922 1.0319 62.8767 1.12321 63.058 1.21289C63.4307 1.39731 63.7895 1.57485 64.4979 1.33794C64.919 0.985826 65.1997 0.422445 65.1997 0.2816C64.7786 0.2816 68.9194 -0.211357 73.762 0.633713C74.0427 0.985826 74.1831 3.7323 73.0601 3.02808C72.826 2.79318 72.6876 2.55828 72.5536 2.331C72.4064 2.08131 72.2646 1.84082 72.0074 1.61963C71.5301 2.09851 70.805 2.10249 70.215 2.10573C69.7639 2.1082 69.3919 2.11025 69.2703 2.32385V1.61963C68.458 1.79427 68.3172 2.11329 68.2532 2.25843C68.2398 2.28886 68.2297 2.31165 68.2175 2.32385C67.5859 2.60554 67.1648 1.97174 67.1648 1.97174H66.8139V2.32385H66.463V1.97174C66.3635 2.02163 66.2729 2.06269 66.1879 2.10117C66.0331 2.17132 65.8971 2.2329 65.7611 2.32385C65.691 2.42949 65.6383 2.55273 65.5857 2.67597C65.5331 2.79921 65.4804 2.92245 65.4102 3.02808H67.0946C67.4455 2.67597 71.5161 2.32385 72.2179 2.32385C72.2614 2.58547 72.3116 2.8066 72.3602 3.02066C72.4685 3.49804 72.5689 3.94029 72.5689 4.71822H73.2707C73.4116 4.22323 73.4464 4.03001 73.5616 3.92466C73.6758 3.82019 73.8691 3.80215 74.3234 3.66188V4.36611C75.1656 4.57737 75.3762 6.61963 75.3762 6.76047C75.6569 7.95766 75.8674 8.80273 76.078 9.15484ZM60.2518 3.48583C60.0764 3.53864 59.9009 3.59146 59.7254 3.66188C59.7254 3.7323 59.7254 3.87315 59.7956 3.94357C60.0764 4.01399 60.3571 4.06681 60.6378 4.11963C60.9185 4.17245 61.1993 4.22526 61.48 4.29568C61.9011 3.52104 62.0415 3.38019 63.1644 3.23935C63.3939 3.64239 63.4358 3.66883 63.6735 3.81902C63.7266 3.85252 63.7894 3.89219 63.8662 3.94357V2.25343H63.5153C63.0667 2.90819 62.6892 2.87333 62.1762 2.82596C61.8064 2.79181 61.3662 2.75116 60.7782 2.95766V3.30977C60.6027 3.38019 60.4273 3.43301 60.2518 3.48583ZM44.7765 6.40836H44.0747C44.0747 6.47878 44.0747 6.61963 44.0045 6.76047H45.338V6.40836H47.7242V6.05625H48.0751V6.40836C48.4962 6.40836 49.4788 6.19709 51.1632 5.70414H52.8475C52.8475 5.63371 53.1985 5.49287 53.9003 5.35202C53.9472 5.35202 54.0534 5.35552 54.1948 5.36018C54.6878 5.37642 55.6083 5.40675 55.9356 5.35202C55.9356 5.21118 57.7603 4.6478 58.3218 4.6478C58.5323 3.94357 58.6727 3.45061 58.6727 3.23935C57.5337 3.23935 56.8765 3.41745 56.1828 3.60544C55.7224 3.73019 55.246 3.85929 54.6021 3.94357C54.6021 4.15484 53.0581 4.43653 52.2159 4.29568V4.99991H50.5315V5.35202C50.5132 5.35202 50.4517 5.328 50.361 5.2925C50.1043 5.1921 49.6128 4.99991 49.198 4.99991V5.70414C48.812 5.77456 48.4085 5.82737 48.0049 5.88019C47.6014 5.93301 47.1978 5.98583 46.8118 6.05625C46.7381 6.00693 46.5095 6.00942 46.2435 6.01232C45.7498 6.0177 45.1274 6.02448 45.1274 5.70414C44.9871 5.70414 44.7765 6.19709 44.7765 6.40836ZM33.9194 8.23987C33.8426 8.13055 33.7549 8.00561 33.4771 8.0985C33.4561 8.0985 33.4413 8.11752 33.4178 8.14794C33.3627 8.21892 33.2596 8.35202 32.9157 8.45061C32.9157 8.59146 34.7404 9.01399 35.6528 9.15484C35.723 9.0492 35.7756 8.92596 35.8282 8.80272C35.8809 8.67948 35.9335 8.55625 36.0037 8.45061C36.4148 8.2856 36.6814 8.48307 36.9023 8.64666C37.0585 8.76233 37.1918 8.86107 37.3372 8.80273C37.6179 8.45063 37.8284 8.09854 38.039 7.74644L38.039 7.74639C38.6005 7.53512 38.7408 8.0985 38.7408 8.0985C39.3023 8.16892 39.4426 7.74639 39.4426 7.74639C39.6532 7.81681 39.8813 7.86963 40.1094 7.92244C40.3375 7.97526 40.5656 8.02808 40.7761 8.0985V7.39428C41.5764 7.46728 41.8111 7.52136 42.0469 7.52711C42.266 7.53245 42.4862 7.49604 43.1623 7.39428C43.0921 7.1478 43.0395 6.91892 42.9869 6.69005C42.9342 6.46118 42.8816 6.2323 42.8114 5.98583H42.4605V6.33794H41.4078C41.3376 6.44357 41.2849 6.56681 41.2323 6.69004C41.1797 6.81329 41.127 6.93653 41.0569 7.04216C40.4891 7.10918 39.9373 7.16025 39.3938 7.21056C38.7951 7.26597 38.2065 7.32045 37.6179 7.39428V7.74639H36.2844V7.39428H35.5826V7.74639C35.4071 7.67597 35.2317 7.62315 35.0562 7.57033C34.8808 7.51752 34.7053 7.4647 34.5299 7.39428V8.0985C34.0973 8.49308 34.0173 8.37917 33.9194 8.23987ZM15.6507 12.2534H13.9663V12.6055H15.6507V12.2534ZM15.6507 12.2534H16.7035V11.9013H15.6507V12.2534ZM8.04718 45.9274C8.09615 46.2473 8.14619 46.5743 8.21137 46.9013C8.42192 46.9013 8.63247 46.9013 8.84301 46.8309C8.56228 45.9506 8.36928 44.9295 8.17628 43.9084C7.98328 42.8872 7.79027 41.8661 7.50954 40.9858C7.50954 40.5633 7.36918 39.8591 7.15863 38.9436V37.2534C7.01827 37.2534 6.4568 34.3661 6.4568 33.8027C6.31644 33.8027 6.10589 31.4788 6.10589 30.352C5.96553 30.352 5.75498 29.8591 5.75498 29.6478C5.61461 29.6478 5.68479 28.6619 5.75498 28.2393C5.47425 28.1689 5.05315 26.7605 5.05315 26.1971C5.05315 26.1971 4.70224 26.2675 4.70224 25.4929C4.77242 25.4929 4.77242 25.352 4.70224 25.1408C4.62982 24.3414 4.57608 23.5233 4.52174 22.6961C4.47077 21.9201 4.41927 21.136 4.35132 20.352H4.00041C4.00041 20.0703 3.43895 18.6619 3.29858 18.6619C2.94767 17.6055 3.2284 15.2816 3.29858 14.8591C3.93023 14.5774 4.28114 14.3661 4.63205 13.8027H4.28114V14.1548C4.07947 14.3235 3.8456 14.3144 3.61809 14.3056C3.37055 14.2961 3.13052 14.2868 2.94767 14.507V15.2112H2.59676C2.45639 16.3379 2.45639 18.6619 2.59676 18.6619C2.59676 19.0336 2.69454 19.9155 2.78687 20.7483C2.86945 21.4932 2.94767 22.1987 2.94767 22.4647H3.29858C3.35778 22.7023 3.40449 23.1027 3.44924 23.4863C3.51062 24.0124 3.56832 24.507 3.6495 24.507V25.2112H4.00041C4.00041 26.1971 4.56187 30.352 4.70224 30.352C4.70224 30.7393 4.78997 31.7429 4.87769 32.7464C4.96542 33.7499 5.05315 34.7534 5.05315 35.1408C5.19352 35.1408 5.40406 35.845 5.40406 36.1971C5.45213 36.1971 5.45082 36.2466 5.44803 36.3514C5.44269 36.5526 5.43194 36.9573 5.75498 37.6055C5.89534 37.6055 6.10589 38.0985 6.10589 38.3098C6.24626 38.3098 6.80772 41.6196 6.80772 42.1126C6.94808 42.1126 7.299 44.1548 7.15863 44.507C7.25808 44.5568 7.34872 44.5979 7.43367 44.6364C7.58853 44.7065 7.7245 44.7681 7.86046 44.8591C7.93564 45.1986 7.99069 45.5583 8.04718 45.9274ZM5.12333 14.2957V14.6478C5.39512 14.6726 6.22361 14.4879 7.24745 14.2597C9.13181 13.8396 11.6779 13.272 12.6329 13.5915V12.8872H13.6856C13.6856 12.8168 13.5979 12.676 13.5102 12.5351C13.4224 12.3943 13.3347 12.2534 13.3347 12.183C12.6201 12.3264 12.5199 12.5347 12.4415 12.6978C12.4044 12.775 12.3721 12.842 12.282 12.8872C11.9858 13.0358 11.2036 12.9754 10.5702 12.9265C10.303 12.9058 10.0623 12.8872 9.89575 12.8872C9.89575 13.0281 9.05356 13.2393 8.56228 13.2393C7.01826 13.5915 6.03571 13.9436 5.12333 14.2957ZM10.9485 47.6055V47.2534H12.6329V46.9013C12.3521 46.8309 12.0714 46.7781 11.7907 46.7253C11.51 46.6724 11.2292 46.6196 10.9485 46.5492C10.6678 46.9013 10.4572 47.2534 10.2467 47.6055H10.9485ZM19.7915 45.9154V45.5633C19.986 45.3681 20.0308 45.3532 20.0434 45.3244C20.0581 45.2907 20.0291 45.238 20.1424 44.8591H19.7915C19.5969 45.0544 19.5822 45.0992 19.5533 45.1118C19.5198 45.1265 19.4671 45.0976 19.0897 45.2112V44.507H17.7562V45.2112C17.1016 45.3271 16.4681 45.4642 15.8441 45.5993C15.3309 45.7104 14.8241 45.8201 14.3173 45.9154V46.6196H15.6507V46.2675H16.0016V46.6196C16.6333 46.514 17.2649 46.3908 17.8966 46.2675C18.5282 46.1443 19.1599 46.021 19.7915 45.9154ZM29.0279 10.0746C29.1452 9.88824 29.2476 9.72561 29.6873 9.78864C30.1785 9.78864 31.7226 8.87315 31.8629 8.7323C31.3561 8.84532 30.3747 9.01503 29.3812 9.18683C27.8985 9.44323 26.3887 9.70431 26.3887 9.78864H24.0025C23.3006 10.2112 22.9497 10.4224 22.9497 10.4929C22.5988 10.4929 21.897 10.7041 21.897 10.845C21.1601 10.9154 20.4232 10.9682 19.6862 11.021C18.9493 11.0739 18.2124 11.1267 17.4755 11.1971C17.0544 11.1971 16.7737 11.5492 17.4755 11.9013C20.2828 11.9013 23.9323 10.7041 23.9323 10.4929C24.1809 10.5428 24.3767 10.6015 24.5602 10.6565C24.8947 10.7569 25.1883 10.845 25.6869 10.845C25.9676 10.6337 25.9676 10.352 25.9676 10.1408C26.3887 9.99991 27.3011 9.99991 27.3011 10.1408H28.9854C29.0002 10.1186 29.0141 10.0964 29.0279 10.0746ZM73.8378 6.27893C73.683 6.20878 73.547 6.1472 73.4111 6.05625V8.45061C73.5865 8.55625 73.762 8.67949 73.9374 8.80273C74.1129 8.92597 74.2883 9.04921 74.4638 9.15484V8.0985H74.1129V6.40836C74.0134 6.35847 73.9228 6.31741 73.8378 6.27893ZM74.9902 11.8661C74.9375 11.4084 74.8849 10.9506 74.8147 10.4929H74.1129C74.2971 11.1861 74.2698 11.3941 74.2094 11.8533C74.1777 12.0937 74.137 12.4031 74.1129 12.8872C74.2883 12.9577 74.4638 13.0105 74.6393 13.0633C74.8147 13.1161 74.9902 13.1689 75.1656 13.2393C75.0954 12.7816 75.0428 12.3239 74.9902 11.8661ZM75.3396 17.499C75.3741 17.5784 75.4097 17.6605 75.4464 17.7464C75.6218 17.6055 75.7095 17.4999 75.7973 17.3943C75.885 17.2886 75.9727 17.183 76.1482 17.0422C75.9165 16.4028 75.7326 15.7155 75.5571 15.0594C75.5199 14.9206 75.4831 14.7831 75.4464 14.6478H74.7445C74.7445 16.1265 74.9785 16.6661 75.3396 17.499Z" fill="#4CD2E3"/>
<path d="M10.0052 25.4969L12.5355 25.0135L12.3687 24.1331L9.27271 24.7246L9.10594 23.8443L12.2019 23.2528L12.062 22.5139L13.0678 22.3218L13.2078 23.0606L16.1309 22.5021L16.2976 23.3825L13.3745 23.941L13.5413 24.8213L16.0715 24.3379L16.5897 27.0733L14.0595 27.5567L14.1071 27.8082C15.1058 28.0083 16.1292 28.2526 17.1644 28.5598L16.7467 29.5355C15.7505 29.0906 14.9068 28.7631 14.25 28.5628L14.5568 30.182L13.551 30.3741L13.2115 28.582C12.4331 29.5452 11.6093 30.3542 10.7273 31.0276L10.0674 30.2089C11.096 29.6215 12.0799 28.7982 13.0379 27.7518L10.5234 28.2322L10.0052 25.4969ZM15.5323 26.4771L15.3089 25.2981L13.6902 25.6073L13.9135 26.7864L15.5323 26.4771ZM12.9077 26.9785L12.6844 25.7995L11.0657 26.1088L11.289 27.2878L12.9077 26.9785ZM18.4942 23.6307C18.4259 23.8718 18.3546 24.0972 18.296 24.3038C18.9245 25.1286 19.6647 25.769 20.5067 26.2597L20.5704 26.1661C21.0493 25.3416 21.2792 24.3203 21.2445 23.1052L18.4942 23.6307ZM19.84 27.0387C19.1012 26.5771 18.4418 26.019 17.8805 25.3769C17.7171 25.7176 17.5349 26.0456 17.3498 26.3579L16.5319 25.6508C17.3038 24.3957 17.7137 22.9491 17.7676 21.3424L18.7973 21.276C18.7863 21.7342 18.738 22.1669 18.6868 22.584L22.9772 21.7643L23.1618 22.7389L22.2503 22.9131C22.2983 24.37 22.0442 25.6076 21.488 26.6261L21.4371 26.701C22.3025 27.0569 23.26 27.2975 24.3224 27.404L23.9106 28.4112C22.745 28.2755 21.7127 27.984 20.7823 27.5428C20.1135 28.2244 19.1941 28.8725 18.0338 29.4525L17.4652 28.6001C18.4802 28.1129 19.2604 27.5892 19.84 27.0387ZM17.0773 31.2805L11.561 32.3344L11.3734 31.344L23.7889 28.972L23.9765 29.9624L18.2088 31.0643L18.4619 32.4005L23.271 31.4818L23.4556 32.4564L18.6466 33.3752L18.9057 34.7429L25.4277 33.4968L25.6183 34.5029L11.6627 37.1692L11.4721 36.1631L13.9866 35.6827L13.4268 32.7272L14.464 32.5291L15.0239 35.4845L17.7741 34.9591L17.0773 31.2805ZM30.4778 26.114L30.6803 27.183C30.2191 27.4991 29.7392 27.8026 29.272 28.0873L30.1059 32.489C30.2786 33.4008 29.9406 33.9378 29.092 34.0999L27.7247 34.3611L27.2775 33.29C27.6951 33.2591 28.1096 33.2125 28.5025 33.1374C28.8797 33.0654 29.0296 32.825 28.9521 32.4162L28.2434 28.6748C27.7104 28.9558 27.1744 29.2211 26.6384 29.4864L26.1658 28.4527C26.799 28.1851 27.4293 27.9018 28.0379 27.5901L27.3083 23.7386L25.5324 24.0779L25.3269 22.9931L27.1028 22.6539L26.5519 19.7456L27.652 19.5354L28.2029 22.4437L29.7588 22.1464L29.9643 23.2311L28.4084 23.5284L29.0695 27.0183C29.5524 26.7306 30.0166 26.4301 30.4778 26.114ZM32.1582 24.669L33.4864 31.6803C34.202 31.3318 34.8302 30.9511 35.4022 30.5324L35.806 31.5466C34.8365 32.1879 33.6978 32.7964 32.4058 33.369L31.9234 32.3698C32.2483 32.1937 32.3765 31.9249 32.311 31.579L29.9763 19.2542L31.0921 19.041L31.9498 23.5685L34.1657 23.1452L34.3741 24.2456L32.1582 24.669ZM39.4091 31.9985L38.089 32.2507C37.1775 32.4248 36.6264 32.0089 36.4418 31.0342L34.0415 18.3635L35.1573 18.1503L36.0567 22.8979C36.9401 22.4033 37.7839 21.786 38.5568 21.0519L39.3926 21.8533C38.3232 22.7418 37.29 23.4768 36.2711 24.0298L37.5129 30.5852C37.5933 31.0096 37.8393 31.1907 38.2479 31.1126L39.018 30.9655C39.3795 30.8965 39.6071 30.7226 39.7226 30.4725C39.8733 30.1505 39.8382 29.2776 39.633 27.8508L40.7328 27.9827C40.9504 29.733 40.9269 30.8126 40.6683 31.2529C40.445 31.6214 40.0377 31.8784 39.4091 31.9985ZM45.7534 17.0056L54.8528 15.2671L55.0613 16.3675L51.761 16.998L53.8128 27.8294C53.9974 28.8041 53.5898 29.4032 52.6155 29.5894L50.5567 29.9827L50.1125 28.9273C50.7815 28.8484 51.4318 28.7567 52.029 28.6426C52.5005 28.5525 52.6886 28.256 52.5962 27.7686L50.598 17.2202L45.9619 18.106L45.7534 17.0056ZM42.1373 16.9145C43.3421 17.5151 44.3898 18.1457 45.2676 18.825L44.6464 19.7582C43.8404 19.114 42.774 18.4707 41.4817 17.838L42.1373 16.9145ZM41.1673 21.9378L44.5619 21.2893L45.896 28.332C46.4039 27.7463 46.9597 27.07 47.5448 26.2903L48.0698 27.428C47.2239 28.5507 46.2787 29.5783 45.2527 30.5237L44.6378 29.5986C44.8348 29.3492 44.9188 29.1051 44.8712 28.8536L43.683 22.5811L41.3728 23.0225L41.1673 21.9378ZM69.0737 17.6976L65.6634 18.3491C64.689 18.5353 64.1341 18.1852 63.9703 17.3206L63.8453 16.6603C63.2367 16.9721 62.6123 17.2868 61.988 17.6016L61.2053 16.8226C62.0722 16.4126 62.8889 15.996 63.6428 15.5913L63.1216 12.8403L64.2217 12.6301L64.6744 15.0196C66.3409 14.017 67.6684 13.0304 68.6668 12.0252L69.5327 12.6416C68.2655 13.8611 66.726 15.0185 64.8769 16.0886L65.0287 16.8903C65.0972 17.2519 65.3373 17.4015 65.7773 17.3174L68.6847 16.7619C69.0305 16.6959 69.267 16.5692 69.3847 16.4165C69.5435 16.2232 69.5769 15.7119 69.4908 14.9138L70.5906 15.0458C70.6861 16.1515 70.5911 16.8538 70.3215 17.1497C70.0744 17.3924 69.6709 17.5835 69.0737 17.6976ZM69.5106 18.5426L70.398 23.2273L69.2351 23.4495L68.5442 19.8023L60.9849 21.2466L61.7175 25.1138L60.5702 25.333L59.6411 20.4282L69.5106 18.5426ZM66.4564 23.9966C68.5909 24.1753 70.5636 24.5314 72.3844 25.0306L71.9374 26.1096C69.9858 25.5214 68.0258 25.1466 66.0544 24.9694L66.4564 23.9966ZM64.3534 21.3197L65.4713 21.2039C65.6385 23.2896 65.4133 24.766 64.8117 25.6303C64.1612 26.6668 62.4454 27.581 59.6455 28.3603L58.9962 27.4255C61.5026 26.8164 63.0851 26.0579 63.7594 25.1472C64.3483 24.3017 64.5463 23.0258 64.3534 21.3197ZM59.1448 16.7765C58.5995 17.3367 57.9884 17.8933 57.3085 18.4304L56.7543 17.3961C58.4997 16.0364 59.6997 14.6343 60.3416 13.2085L61.3552 13.4872C61.0432 14.2473 60.6122 14.9812 60.0781 15.686L60.7988 19.4903L59.6987 19.7005L59.1448 16.7765Z" fill="white"/>
</g>
<defs>
<clipPath id="clip0_14_203">
<rect width="80" height="50" fill="white"/>
</clipPath>
</defs>
</svg>
