<svg width="21" height="20" viewBox="0 0 21 20" fill="none" xmlns="http://www.w3.org/2000/svg">
<path d="M17.6054 13.8343H2.57349C1.82212 13.8343 1.21191 13.2241 1.21191 12.4727V1.36157C1.21191 0.610204 1.82212 0 2.57349 0H17.6054C18.3568 0 18.967 0.610204 18.967 1.36157V12.4727C18.967 13.2241 18.3568 13.8343 17.6054 13.8343Z" fill="#62A2FF"/>
<path d="M18.9115 6.89062H19.3851C19.8222 6.89062 20.1774 7.24582 20.1774 7.68298V9.25403C20.1774 9.69119 19.8222 10.0464 19.3851 10.0464H18.9115C18.4743 10.0464 18.1191 9.69119 18.1191 9.25403V7.67842C18.1237 7.24126 18.4743 6.89062 18.9115 6.89062Z" fill="#F4F4F4"/>
<path d="M18.8345 10.0469H19.4675V10.4613C19.4675 10.9713 19.0531 11.3857 18.5431 11.3857H17.0312V10.7527H18.5431C18.7025 10.7527 18.8345 10.6206 18.8345 10.4613V10.0469Z" fill="#CDD6E0"/>
<path d="M1.28416 6.89062H0.769585C0.346086 6.89062 0 7.23671 0 7.66021V9.27679C0 9.70029 0.346086 10.0464 0.769585 10.0464H1.28416C1.70766 10.0464 2.05375 9.70029 2.05375 9.27679V7.66021C2.05375 7.23216 1.71221 6.89062 1.28416 6.89062Z" fill="#F4F4F4"/>
<path d="M1.34326 10.0469H0.714844V10.4613C0.714844 10.9713 1.12924 11.3857 1.63926 11.3857H3.1511V10.7527H1.63926C1.47988 10.7527 1.34782 10.6206 1.34782 10.4613V10.0469H1.34326Z" fill="#CDD6E0"/>
<path d="M4.4495 20.0002C3.72089 20.0002 3.12891 19.4082 3.12891 18.6796V17.4046C3.12891 16.6805 3.72089 16.084 4.4495 16.084C5.17354 16.084 5.77009 16.676 5.77009 17.4046V18.6796C5.77009 19.4082 5.1781 20.0002 4.4495 20.0002ZM15.4696 20.0002C14.741 20.0002 14.149 19.4082 14.149 18.6796V17.4046C14.149 16.6805 14.741 16.084 15.4696 16.084C16.1936 16.084 16.7902 16.676 16.7902 17.4046V18.6796C16.7902 19.4082 16.1982 20.0002 15.4696 20.0002Z" fill="#181818"/>
<path d="M17.978 11.33V17.9876H2.19922V11.33L2.76388 6.74438C2.91871 5.47843 3.9934 4.53125 5.26845 4.53125H14.9088C16.1838 4.53125 17.2585 5.48299 17.4133 6.74438L17.978 11.33Z" fill="url(#paint0_linear_3917_47171)"/>
<path d="M17.0588 10.7465L16.5761 6.84846C16.4714 6.00602 15.7565 5.37305 14.9049 5.37305H5.26916C4.42216 5.37305 3.70267 6.00602 3.59793 6.84846L3.11523 10.7465H17.0588Z" fill="#54C0EB"/>
<path d="M17.9819 16.3848H2.19404C1.75233 16.3848 1.39258 16.7445 1.39258 17.1862C1.39258 17.6279 1.75233 17.9877 2.19404 17.9877H17.9819C18.4236 17.9877 18.7834 17.6279 18.7834 17.1862C18.7834 16.7445 18.4236 16.3848 17.9819 16.3848Z" fill="#FF7058"/>
<path d="M17.9819 16.3848H2.19404C1.75233 16.3848 1.39258 16.7445 1.39258 17.1862C1.39258 17.6279 1.75233 17.9877 2.19404 17.9877H17.9819C18.4236 17.9877 18.7834 17.6279 18.7834 17.1862C18.7834 16.7445 18.4236 16.3848 17.9819 16.3848Z" fill="#306BFF"/>
<path d="M5.55129 14.2947C5.55129 14.9231 5.04127 15.4331 4.41285 15.4331C3.78444 15.4331 3.27441 14.9231 3.27441 14.2947C3.27441 13.6663 3.78444 13.1562 4.41285 13.1562C5.04127 13.1562 5.55129 13.6663 5.55129 14.2947Z" fill="#F7CF6F"/>
<path d="M16.9038 14.2947C16.9038 14.9231 16.3938 15.4331 15.7654 15.4331C15.137 15.4331 14.627 14.9231 14.627 14.2947C14.627 13.6663 15.137 13.1562 15.7654 13.1562C16.3938 13.1562 16.9038 13.6663 16.9038 14.2947Z" fill="#FFD15C"/>
<path d="M10.0722 5.37305L5.79626 10.7465H5.00391L9.27989 5.37305H10.0722ZM11.871 5.37305L7.6041 10.7465H6.32905L10.605 5.37305H11.871Z" fill="#84DBFF"/>
<path d="M7.59218 14.854C7.492 14.854 7.41003 14.772 7.41003 14.6719V13.9888C7.41003 13.8886 7.492 13.8066 7.59218 13.8066C7.69236 13.8066 7.77433 13.8886 7.77433 13.9888V14.6719C7.77433 14.772 7.69236 14.854 7.59218 14.854ZM6.59035 14.854C6.49017 14.854 6.4082 14.772 6.4082 14.6719V13.9888C6.4082 13.8886 6.49017 13.8066 6.59035 13.8066C6.69054 13.8066 6.7725 13.8886 6.7725 13.9888V14.6719C6.7725 14.772 6.69054 14.854 6.59035 14.854ZM8.59401 14.854C8.49382 14.854 8.41186 14.772 8.41186 14.6719V13.9888C8.41186 13.8886 8.49382 13.8066 8.59401 13.8066C8.69419 13.8066 8.77616 13.8886 8.77616 13.9888V14.6719C8.77616 14.772 8.69419 14.854 8.59401 14.854ZM9.59583 14.854C9.49565 14.854 9.41368 14.772 9.41368 14.6719V13.9888C9.41368 13.8886 9.49565 13.8066 9.59583 13.8066C9.69602 13.8066 9.77798 13.8886 9.77798 13.9888V14.6719C9.77798 14.772 9.69602 14.854 9.59583 14.854ZM10.5977 14.854C10.4975 14.854 10.4155 14.772 10.4155 14.6719V13.9888C10.4155 13.8886 10.4975 13.8066 10.5977 13.8066C10.6978 13.8066 10.7798 13.8886 10.7798 13.9888V14.6719C10.7798 14.772 10.6978 14.854 10.5977 14.854ZM11.5995 14.854C11.4993 14.854 11.4173 14.772 11.4173 14.6719V13.9888C11.4173 13.8886 11.4993 13.8066 11.5995 13.8066C11.6997 13.8066 11.7816 13.8886 11.7816 13.9888V14.6719C11.7816 14.772 11.6997 14.854 11.5995 14.854ZM12.6013 14.854C12.5011 14.854 12.4192 14.772 12.4192 14.6719V13.9888C12.4192 13.8886 12.5011 13.8066 12.6013 13.8066C12.7015 13.8066 12.7835 13.8886 12.7835 13.9888V14.6719C12.7835 14.772 12.7015 14.854 12.6013 14.854ZM13.6031 14.854C13.503 14.854 13.421 14.772 13.421 14.6719V13.9888C13.421 13.8886 13.503 13.8066 13.6031 13.8066C13.7033 13.8066 13.7853 13.8886 13.7853 13.9888V14.6719C13.7853 14.772 13.7033 14.854 13.6031 14.854Z" fill="#306BFF"/>
<defs>
<linearGradient id="paint0_linear_3917_47171" x1="10.0886" y1="4.53125" x2="10.0886" y2="17.9876" gradientUnits="userSpaceOnUse">
<stop stop-color="#2D68FF"/>
<stop offset="1" stop-color="#89CDFF"/>
</linearGradient>
</defs>
</svg>
