<svg width="56" height="56" viewBox="0 0 56 56" fill="none" xmlns="http://www.w3.org/2000/svg">
<circle cx="28" cy="28" r="28" fill="#E2F1FF"/>
<path d="M37.8561 14H17.7469C17.139 14 16.6479 14.6251 16.6479 15.3978C16.6479 16.1706 17.139 16.7957 17.7469 16.7957H38.0465C38.6544 16.7957 39.1454 16.1706 39.1454 15.3978V15.3601C39.1454 14.6079 38.6644 14 38.0732 14H37.8561ZM37.8561 18.8632H17.7469C17.139 18.8632 16.6479 19.4883 16.6479 20.261C16.6479 21.0338 17.139 21.6589 17.7469 21.6589H38.0465C38.6544 21.6589 39.1454 21.0338 39.1454 20.261V20.2233C39.1454 19.4711 38.6644 18.8632 38.0732 18.8632H37.8561ZM25.8307 30.1214H30.5874C30.9515 30.1214 31.3089 29.9703 31.5995 29.6921L35.2038 26.237C35.4944 25.9588 35.8518 25.8077 36.2159 25.8077H38.4039C38.8181 25.8077 39.1555 25.3818 39.1555 24.8564C39.1555 24.3309 38.8181 23.905 38.4039 23.905H17.3995C16.9853 23.905 16.6479 24.3309 16.6479 24.8564C16.6479 25.3818 16.9853 25.8077 17.3995 25.8077H20.1654C20.5428 25.8077 20.9103 25.9691 21.2076 26.2679L24.8519 29.9257C24.9789 30.0527 25.1392 30.1249 25.2995 30.1249H25.8307V30.1214Z" fill="#2B99FF"/>
<path d="M35.6979 28.4695L31.646 32.3573C31.3554 32.6355 30.998 32.7866 30.6339 32.7866H25.6801C25.3026 32.7866 24.9352 32.6252 24.6379 32.3264L20.91 28.4901C20.8633 28.4729 20.5927 28.4695 20.2152 28.4695H14.6769C13.7516 28.4695 13 29.4243 13 30.5989V39.161C13 40.3356 13.7516 41.2904 14.6769 41.2904H41.3231C42.2484 41.2904 43 40.3356 43 39.161V30.5989C43 29.4208 42.2484 28.4695 41.3231 28.4695H35.6979Z" fill="#2B99FF"/>
</svg>
