<svg width="12" height="12" viewBox="0 0 12 12" fill="none" xmlns="http://www.w3.org/2000/svg">
<g id="&#229;&#174;&#158;&#229;&#186;&#149;&#229;&#155;&#190;&#230;&#160;&#135;/checked" clip-path="url(#clip0_2174_882)">
<path id="Union" fill-rule="evenodd" clip-rule="evenodd" d="M6.00546 0.671875C8.95098 0.671875 11.3388 3.05969 11.3388 6.00522C11.3388 8.95074 8.95098 11.3386 6.00546 11.3386C3.05994 11.3386 0.672119 8.95074 0.672119 6.00522C0.672119 3.05969 3.05994 0.671875 6.00546 0.671875ZM9.19817 4.05714C9.12969 3.99333 9.00815 3.98738 8.92868 4.04456L8.92499 4.04729L5.39493 6.7203C5.33029 6.76924 5.2121 6.77562 5.14114 6.7342L5.13739 6.73193L3.80147 5.89972C3.71907 5.84839 3.603 5.86577 3.53908 5.93745L3.53621 5.94075L3.38186 6.12236C3.31679 6.19892 3.32763 6.30546 3.39968 6.37533L3.40285 6.37835L5.0544 7.91753C5.1745 8.02945 5.36531 8.03531 5.4835 7.92892L5.48717 7.92556L9.27596 4.39458C9.35423 4.32163 9.36063 4.21168 9.2881 4.14102L9.28512 4.13818L9.19817 4.05714Z" fill="#1989FA"/>
</g>
<defs>
<clipPath id="clip0_2174_882">
<rect width="12" height="12" fill="white"/>
</clipPath>
</defs>
</svg>
