<svg viewBox="0 0 1024 1024" version="1.1" xmlns="http://www.w3.org/2000/svg" width="200" height="200">
<path d="M884.0192 865.4336c-93.0304 102.2464-223.232 157.952-372.1216 157.952-27.904 0-55.808 0-83.7632-9.2672l37.2224-139.3664h55.808c102.4 0 186.112-37.1712 251.2384-102.2464l111.616 92.928z m46.5408-55.7568L809.6256 716.8c46.4896-55.7056 65.0752-130.048 65.0752-213.7088 0-185.856-139.52-343.808-316.3136-362.3936V1.28c260.5056 27.904 465.2032 241.6128 465.2032 511.0784 0 111.5136-37.2224 213.7088-93.0304 297.3184zM363.008 1004.8512c-139.5712-46.4896-251.1872-139.4176-306.9952-260.1984l130.2528-55.7568c46.4896 83.6096 111.616 139.3664 204.6464 167.2704l-27.904 148.6848zM28.16 679.6288a525.568 525.568 0 0 1-27.9552-167.2704c0-278.784 223.2832-501.76 493.1072-511.0784V150.016c-195.3792 9.2672-344.2176 167.2704-344.2176 362.3936 0 37.1712 9.3184 83.6096 18.5856 120.832l-139.52 46.4384z"></path>
<path d="M28.1088 679.6288a525.568 525.568 0 0 1-27.9552-167.2704c0-278.784 223.2832-501.76 502.4256-511.0784V150.016C307.2 149.9648 148.992 317.2352 148.992 512.3584c0 37.1712 9.3184 83.6096 18.5856 120.832l-139.52 46.4384z"></path>
</svg>
