<svg width="7" height="7" viewBox="0 0 7 7"  xmlns="http://www.w3.org/2000/svg">

<path d="M5.44375 2.23193L5.77393 1.90176C5.8334 1.84229 5.8334 1.74521 5.77393 1.68506C5.71445 1.62559 5.61738 1.62559 5.55723 1.68506L5.22705 2.01523C4.80322 1.63789 4.25635 1.39863 3.65273 1.36377V0.74375H4.11211C4.19687 0.74375 4.26523 0.675391 4.26523 0.590625C4.26592 0.505859 4.19756 0.4375 4.11279 0.4375H2.88779C2.80303 0.4375 2.73467 0.505859 2.73467 0.590625C2.73467 0.675391 2.80303 0.74375 2.88779 0.74375H3.34717V1.36377C2.74424 1.39863 2.19668 1.63857 1.77285 2.01523L1.44268 1.68506C1.3832 1.62559 1.28613 1.62559 1.22598 1.68506C1.1665 1.74453 1.1665 1.8416 1.22598 1.90176L1.55615 2.23193C1.14736 2.69199 0.896484 3.29561 0.896484 3.95938C0.897168 5.39697 2.0627 6.5625 3.50029 6.5625C4.93789 6.5625 6.10342 5.39697 6.10342 3.95938C6.10342 3.29561 5.85322 2.69199 5.44375 2.23193ZM3.50029 6.25625C2.23359 6.25625 1.20342 5.22607 1.20342 3.95938C1.20342 2.69268 2.23359 1.6625 3.50029 1.6625C4.76699 1.6625 5.79717 2.69268 5.79717 3.95938C5.79717 5.22607 4.76699 6.25625 3.50029 6.25625Z" />
<path d="M4.87891 3.80469H3.65391V2.42656C3.65391 2.3418 3.58555 2.27344 3.50078 2.27344C3.41602 2.27344 3.34766 2.3418 3.34766 2.42656V4.11094H4.87891C4.96299 4.11094 5.03203 4.04189 5.03203 3.95781C5.03203 3.87373 4.96299 3.80469 4.87891 3.80469Z" />


</svg>
