<svg width="40" height="40" viewBox="0 0 41 40" xmlns="http://www.w3.org/2000/svg">
<path d="M20.8396 0C9.79513 0 0.839844 8.95529 0.839844 19.9998C0.839844 31.0442 9.79513 40 20.8396 40C31.8841 40 40.8393 31.0447 40.8393 19.9998C40.8393 8.95479 31.8885 0 20.8396 0ZM32.9661 32.1297C29.9578 35.1327 25.9392 36.9079 21.6934 37.1095C17.4476 37.3111 13.2789 35.9246 9.99961 33.2202C6.72034 30.5158 4.5655 26.6873 3.95504 22.4808C3.34458 18.2743 4.32224 13.9911 6.69749 10.4662C9.07273 6.94116 12.6754 4.42685 16.8033 3.41322C20.9313 2.39959 25.2887 2.95926 29.0265 4.98318C32.7643 7.00709 35.6146 10.3502 37.022 14.3611C38.4293 18.3719 38.2929 22.763 36.6392 26.6787C35.7794 28.7165 34.5319 30.5678 32.9661 32.1297Z" />
<path d="M20.8393 4.98926C12.6991 4.98926 6.10742 11.5829 6.10742 19.7212C6.10742 27.8594 12.701 34.4531 20.8393 34.4531C28.9776 34.4531 35.5712 27.8585 35.5712 19.7217C35.5712 11.5849 28.9776 4.98926 20.8393 4.98926ZM28.25 20.0785H19.4421C19.0515 20.0781 18.677 19.9228 18.4008 19.6466C18.1246 19.3704 17.9693 18.9959 17.9689 18.6054V9.80195C17.9689 9.41123 18.1241 9.03652 18.4004 8.76024C18.6767 8.48396 19.0514 8.32875 19.4421 8.32875C19.8328 8.32875 20.2075 8.48396 20.4838 8.76024C20.7601 9.03652 20.9153 9.41123 20.9153 9.80195V17.1322H28.2504C28.6412 17.1322 29.0159 17.2874 29.2922 17.5636C29.5684 17.8399 29.7236 18.2146 29.7236 18.6054C29.7236 18.9961 29.5684 19.3708 29.2922 19.6471C29.0159 19.9233 28.6412 20.0785 28.2504 20.0785H28.25Z" />
</svg>
