<svg width="16" height="16" viewBox="0 0 16 16" fill="none" xmlns="http://www.w3.org/2000/svg">
<path d="M8.92473 8.00112L13.6122 2.41362C13.6908 2.32076 13.6247 2.17969 13.5033 2.17969H12.0783C11.9944 2.17969 11.914 2.21719 11.8587 2.28147L7.99258 6.8904L4.12651 2.28147C4.07294 2.21719 3.99258 2.17969 3.90687 2.17969H2.48187C2.36044 2.17969 2.29437 2.32076 2.37294 2.41362L7.06044 8.00112L2.37294 13.5886C2.35534 13.6093 2.34405 13.6346 2.3404 13.6616C2.33676 13.6885 2.34092 13.7159 2.35239 13.7405C2.36386 13.7651 2.38216 13.786 2.40511 13.8005C2.42806 13.815 2.4547 13.8227 2.48187 13.8225H3.90687C3.9908 13.8225 4.07115 13.785 4.12651 13.7208L7.99258 9.11183L11.8587 13.7208C11.9122 13.785 11.9926 13.8225 12.0783 13.8225H13.5033C13.6247 13.8225 13.6908 13.6815 13.6122 13.5886L8.92473 8.00112Z" fill="#A4A4A4"/>
</svg>
