<svg
width="14"
height="14"
viewBox="0 0 14 14"
xmlns="http://www.w3.org/2000/svg"
>
<path
  d="M3.48018 7.89145L5.63645 9.80347C5.64652 9.81899 5.66024 9.84095 5.684 9.86201C5.78558 9.95166 5.92006 10.0011 6.07282 10.0011H6.08839C6.23291 10.0011 6.36831 9.95166 6.47078 9.86109C6.49459 9.83912 6.50922 9.81717 6.52112 9.79616L9.94169 5.93926C10.0478 5.845 10.1064 5.71786 10.1064 5.58244C10.1064 5.44705 10.0478 5.32082 9.94169 5.2257C9.73491 5.04454 9.39371 5.03354 9.16685 5.23667L6.06552 8.78985L4.24407 7.17692C4.03729 6.99487 3.6851 6.99487 3.48018 7.17692C3.37313 7.2712 3.31458 7.39927 3.31458 7.53466C3.31458 7.67004 3.37315 7.79722 3.48018 7.89145ZM11.5077 0.417167C11.3339 0.156434 11.0412 0 10.7283 0H2.36295C2.05004 0 1.7573 0.156434 1.5835 0.417167L0 2.80743V12.1769C0 12.692 0.421754 13.1137 0.936805 13.1137H12.1768C12.6919 13.1137 13.1136 12.692 13.1136 12.1769V2.80743L11.5077 0.417167ZM12.1768 12.1769H0.936805V3.74422H12.1768V12.1769ZM0.936805 2.80743L2.30713 0.942846L10.8344 0.935516L12.1768 2.80743H0.936805Z"
/>
</svg>