<svg viewBox="0 0 1024 1024" fill="#EDF4FF" xmlns="http://www.w3.org/2000/svg" width="40" height="40">
<path width="30" height="30" d="M515.614118 374.261961h-261.019608a15.058824 15.058824 0 0 0 0 30.117647h261.019608a15.058824 15.058824 0 0 0 0-30.117647zM515.614118 532.881569h-261.019608a15.058824 15.058824 0 0 0 0 30.117647h261.019608a15.058824 15.058824 0 0 0 0-30.117647zM515.614118 693.50902h-261.019608a15.058824 15.058824 0 0 0 0 30.117647h261.019608a15.058824 15.058824 0 0 0 0-30.117647zM781.251765 693.50902h-83.927843a15.058824 15.058824 0 0 0 0 30.117647h83.927843a15.058824 15.058824 0 0 0 0-30.117647z" fill="#3B6DEC"></path>
<path width="30" height="30" d="M913.568627 893.088627h-32.12549V536.495686a115.651765 115.651765 0 0 0-75.695686-108.222745l-178.296471-65.455686v-112.840784a115.45098 115.45098 0 0 0-140.549019-112.64L233.110588 193.355294a114.848627 114.848627 0 0 0-90.553725 112.840784v586.892549H110.431373a15.058824 15.058824 0 0 0 0 30.117648h803.137254a15.058824 15.058824 0 0 0 0-30.117648z m-321.254902 0H172.67451V306.196078a84.73098 84.73098 0 0 1 66.861176-83.32549l253.992157-56.219608a85.534118 85.534118 0 0 1 103.80549 83.325491v642.509804z m35.137255 0V394.942745l167.855687 61.44a85.734902 85.734902 0 0 1 56.018823 80.313726v356.392156z" fill="#3B6DEC"></path>
</svg>