<svg width="32" height="32" viewBox="0 0 32 32" xmlns="http://www.w3.org/2000/svg">
<path d="M28.7967 12.7995C28.3414 11.5566 27.6981 10.3876 26.8881 9.33145C26.0632 8.2517 25.0752 7.30094 23.9579 6.51179C21.634 4.86772 18.8816 4 16.0018 4C13.122 4 10.3694 4.86787 8.04553 6.51179C6.92832 7.30098 5.94033 8.25174 5.11542 9.33145C4.30669 10.3884 3.66339 11.5573 3.20666 12.7995C1.84385 13.5921 1 15.0329 1 16.5854C1 17.7872 1.38516 18.8876 2.08495 19.6866C2.83507 20.5446 3.41762 20.9968 4.62312 20.9968H4.94454L4.94785 20.6823C4.94785 20.6201 5.04505 14.5615 5.04836 12.7242C6.93029 8.7256 11.4945 5.70287 15.9983 5.70287C20.5057 5.70287 25.0699 8.7256 26.9449 12.7276C26.955 13.6904 27.1593 20.3877 27.1659 20.6889L27.1759 21H27.494C28.6963 21 29.2587 20.5446 29.9786 19.6834C30.6349 18.8942 31 17.7969 31 16.5886C31.0002 15.0362 30.1596 13.5953 28.7967 12.7995Z" />
<path d="M25.2109 14.1109C24.7054 12.9174 23.9813 11.8505 23.0632 10.9309C22.1418 10.0113 21.0699 9.29171 19.8758 8.78627C18.6389 8.26314 17.3266 8 15.9713 8C14.6299 7.99909 13.3024 8.26666 12.0705 8.78627C10.8757 9.29143 9.79295 10.0199 8.88303 10.9309C7.96486 11.8458 7.2357 12.9255 6.73556 14.1109C6.21217 15.3464 5.94676 16.6556 5.94676 18.0036C5.94676 19.4883 6.26234 20.9204 6.89335 22.2541C7.01162 22.5139 6.95789 23.1983 6.56357 24.0865V24.0863C6.18345 24.9393 5.61342 25.6764 5.07922 26.01L4 26.6769L5.2191 27.0488C5.8322 27.2349 6.48112 27.326 7.15521 27.326C8.67183 27.326 9.90513 26.8803 10.547 26.5924C10.6581 26.5363 10.7118 26.5187 10.8051 26.5713C10.8338 26.5889 10.8338 26.5854 10.8588 26.6029C12.4185 27.5437 14.1394 28 15.9752 28C17.3166 28.001 18.6441 27.7333 19.8761 27.2136C21.07 26.7116 22.1421 25.9923 23.0636 25.0726C23.985 24.1528 24.7057 23.0859 25.2112 21.8924C25.7348 20.6604 26 19.3512 26 18.0034C25.9997 16.6521 25.7344 15.3429 25.2109 14.1109ZM23.4234 21.1644C23.0175 22.1264 22.426 23.0027 21.6812 23.7453C20.9384 24.4866 20.0741 25.0675 19.112 25.472C18.1213 25.89 17.0538 26.1053 15.975 26.1046C14.4929 26.1046 13.1237 25.7355 11.9043 25.0073C11.8637 24.9815 11.8222 24.957 11.7799 24.9339L11.7719 24.9293C11.4369 24.7404 11.0771 24.6445 10.7026 24.6445C10.269 24.6445 9.93514 24.7736 9.71023 24.8827C9.19262 25.1092 8.64703 25.2686 8.08729 25.3569C8.17699 25.1889 8.26061 25.0179 8.33801 24.8442C8.68054 24.0729 9.17667 22.6139 8.66166 21.4827L8.65005 21.4577C8.14101 20.3816 7.88287 19.2194 7.88287 18.0037C7.88287 16.9068 8.09858 15.8414 8.52388 14.8373C8.92969 13.8761 9.52093 13.0005 10.2652 12.2583C11 11.5227 11.8741 10.9344 12.8388 10.5262C13.8282 10.1093 14.8943 9.89471 15.9714 9.89555C17.0629 9.89555 18.1183 10.1078 19.1081 10.5264C20.0726 10.9344 20.9466 11.5227 21.6812 12.2582C22.4246 13.0009 23.0157 13.8763 23.4224 14.837C23.8482 15.8387 24.0636 16.9034 24.0636 18.0036C24.0636 19.1015 23.8482 20.1648 23.4234 21.1644Z" />
<path d="M11.4257 17C12.2128 17 12.8514 17.6705 12.8514 18.4981C12.8514 19.3257 12.2128 20 11.4257 20C10.6386 20 10 19.3257 10 18.4981C9.99983 17.6705 10.6386 17 11.4257 17ZM16.0037 17C16.7908 17 17.4294 17.6705 17.4294 18.4981C17.4294 19.3257 16.7945 20 16.0037 20C15.2166 20 14.578 19.3257 14.578 18.4981C14.5778 17.6705 15.2166 17 16.0037 17ZM20.5741 17C21.3614 17 22 17.6705 22 18.4981C22 19.3257 21.3614 20 20.5741 20C19.787 20 19.1484 19.3257 19.1484 18.4981C19.1521 17.6705 19.7909 17 20.5741 17Z" />
</svg>
