<svg width="9" height="9" viewBox="0 0 9 9"  xmlns="http://www.w3.org/2000/svg">
<g clip-path="url(#clip0_1714_36126)">
<path d="M3.68945 6.17655H6.52929V6.77597H3.68945V6.17655ZM3.68945 4.82031H5.57392V5.41973H3.68945V4.82031Z" />
<path d="M6.77985 2.23682L6.16365 1.58854C6.15732 1.58194 6.15082 1.57588 6.14414 1.5699L6.07479 1.49722H5.97847C5.95728 1.49493 5.93584 1.49493 5.91457 1.49722H5.30795L5.32623 1.47973L4.45277 0.5625H1.45843C1.12233 0.562764 0.849961 0.835225 0.849609 1.17132V6.89396C0.849961 7.23006 1.12233 7.50243 1.45843 7.50278H2.47172V7.82868C2.47207 8.16478 2.74444 8.43715 3.08054 8.4375H7.54248C7.87857 8.43715 8.15095 8.16478 8.1513 7.82868V3.67418L6.77985 2.23682ZM6.21217 2.50963L6.33978 2.64349L7.11463 3.45797L6.17517 3.412C6.1732 3.41142 6.1715 3.41015 6.17039 3.40842C6.16928 3.4067 6.16882 3.40463 6.1691 3.4026L6.21217 2.50963ZM2.47172 2.10604V6.90302H1.45843C1.45333 6.90275 1.44937 6.89871 1.44902 6.89361V1.17132C1.44937 1.16631 1.45342 1.16227 1.45843 1.16191H4.19587L4.51526 1.49722H3.08054C2.74444 1.49757 2.47198 1.76994 2.47172 2.10604ZM7.55188 7.82868C7.55153 7.83369 7.54749 7.83773 7.54248 7.83809L7.54257 7.83782H3.08054C3.07553 7.83747 3.07148 7.83343 3.07113 7.82842V2.10604C3.07148 2.10103 3.07553 2.09698 3.08054 2.09663H5.63191L5.57039 3.37474V3.37597C5.55562 3.71118 5.81499 3.99595 6.1473 4.01071L7.5518 4.079V7.82868H7.55188Z" />
</g>
</svg>
