<svg width="14" height="14" viewBox="0 0 14 14" fill="var(--base-color)" xmlns="http://www.w3.org/2000/svg">
<path d="M5.73828 9.6058H10.1558V10.5382H5.73828V9.6058ZM5.73828 7.49609H8.66967V8.42852H5.73828V7.49609Z" fill="var(--base-color)"/>
<path d="M10.5461 3.47949L9.58758 2.47105C9.57773 2.4608 9.56762 2.45137 9.55723 2.44207L9.44936 2.329H9.29951C9.26656 2.32545 9.2332 2.32545 9.20012 2.329H8.25648L8.28492 2.3018L6.92621 0.875H2.26834C1.74553 0.87541 1.32184 1.29924 1.32129 1.82205V10.7239C1.32184 11.2468 1.74553 11.6704 2.26834 11.671H3.84457V12.1779C3.84512 12.7008 4.26881 13.1245 4.79162 13.125H11.7324C12.2552 13.1245 12.6789 12.7008 12.6795 12.1779V5.71539L10.5461 3.47949ZM9.66305 3.90387L9.86156 4.11209L11.0669 5.37906L9.60549 5.30756C9.60242 5.30665 9.59979 5.30468 9.59806 5.30199C9.59633 5.29931 9.59562 5.29609 9.59605 5.29293L9.66305 3.90387ZM3.84457 3.27605V10.738H2.26834C2.26041 10.7376 2.25426 10.7313 2.25371 10.7234V1.82205C2.25426 1.81426 2.26055 1.80797 2.26834 1.80742H6.52658L7.02342 2.329H4.79162C4.26881 2.32955 3.84498 2.75324 3.84457 3.27605ZM11.7471 12.1779C11.7465 12.1857 11.7402 12.192 11.7324 12.1926L11.7326 12.1922H4.79162C4.78383 12.1916 4.77754 12.1853 4.77699 12.1775V3.27605C4.77754 3.26826 4.78383 3.26197 4.79162 3.26143H8.76043L8.66473 5.24959V5.2515C8.64176 5.77295 9.04521 6.21592 9.56215 6.23889L11.7469 6.34512V12.1779H11.7471Z" fill="var(--base-color)"/>
</svg>
