<svg width="20" height="20" viewBox="0 0 20 20" fill="none" xmlns="http://www.w3.org/2000/svg">
<path d="M18.6889 16.3988V4.78869C18.6889 3.5104 17.6498 2.46925 16.368 2.46925H15.207V1.54793C15.207 1.41662 15.0968 1.30859 14.9608 1.30859H14.2925C14.1534 1.30859 14.0463 1.41574 14.0463 1.54793V2.46925H5.92185V1.54793C5.92185 1.41662 5.81164 1.30859 5.67572 1.30859H5.00735C4.86832 1.30859 4.76122 1.41574 4.76122 1.54793V2.46925H3.60016C2.31621 2.46925 1.2793 3.5077 1.2793 4.78869V16.3987C1.2793 17.677 2.31837 18.7182 3.60016 18.7182H16.368C17.652 18.7182 18.6889 17.6798 18.6889 16.3988ZM2.43993 4.78869C2.43993 4.14795 2.95796 3.62988 3.60014 3.62988H4.7612V4.5512C4.7612 4.68251 4.8714 4.79053 5.00733 4.79053H5.6757C5.81472 4.79053 5.92183 4.68339 5.92183 4.5512V3.62988H14.0463V4.5512C14.0463 4.68251 14.1565 4.79053 14.2924 4.79053H14.9608C15.0998 4.79053 15.2069 4.68339 15.2069 4.5512V3.62988H16.368C17.0078 3.62988 17.5282 4.15043 17.5282 4.78869V5.95117H2.43993V4.78869ZM16.368 17.5576H3.60014C2.96036 17.5576 2.43993 17.037 2.43993 16.3987V7.1118H17.5282V16.3987C17.5282 17.0395 17.0102 17.5576 16.368 17.5576Z" fill="#A4A4A4"/>
</svg>
