<svg width="12" height="12" viewBox="0 0 12 12" xmlns="http://www.w3.org/2000/svg">
<path  d="M6 0C9.31371 0 12 2.68629 12 6C12 9.31371 9.31371 12 6 12C2.68629 12 0 9.31371 0 6C0 2.68629 2.68629 0 6 0ZM8.38196 3.61649C8.23551 3.47004 7.99807 3.47004 7.85163 3.61649L5.99547 5.47264L4.13932 3.61649C3.99287 3.47004 3.75543 3.47004 3.60899 3.61649C3.46254 3.76293 3.46254 4.00037 3.60899 4.14682L5.46514 6.00297L3.60899 7.85913C3.46254 8.00557 3.46254 8.24301 3.60899 8.38946C3.75543 8.5359 3.99287 8.5359 4.13932 8.38946L5.99547 6.5333L7.85163 8.38946C7.99807 8.5359 8.23551 8.5359 8.38196 8.38946C8.5284 8.24301 8.5284 8.00557 8.38196 7.85913L6.5258 6.00297L8.38196 4.14682C8.5284 4.00037 8.5284 3.76293 8.38196 3.61649Z"/>
</svg>
