<svg width="16" height="16" viewBox="0 0 16 16" xmlns="http://www.w3.org/2000/svg">
<path fill-rule="evenodd" clip-rule="evenodd" d="M8 15C11.866 15 15 11.866 15 8C15 4.13401 11.866 1 8 1C4.13401 1 1 4.13401 1 8C1 11.866 4.13401 15 8 15ZM10.1278 11.7791C10.285 11.9257 10.4451 12 10.6037 12C10.6961 11.9998 10.787 11.9735 10.8685 11.9235C10.9499 11.8734 11.0194 11.8012 11.0708 11.7131L12.7521 9.62802C12.8163 9.58046 12.8709 9.5179 12.9125 9.44443C12.9541 9.37096 12.9817 9.28823 12.9935 9.20167C13.0053 9.11511 13.001 9.02667 12.981 8.94213C12.9609 8.85759 12.9256 8.77886 12.8772 8.7111L12.839 8.65606C12.7644 8.5658 12.3082 8.10069 11.3136 7.09195L11.3073 7.08563C10.9515 6.72475 10.586 6.35403 10.5083 6.27207C10.3879 6.11807 10.2215 6.0216 10.0421 6.00183L6.70918 6L6.66554 6.00313C6.38437 6.04513 5.85318 6.3052 5.85318 6.98004C5.84045 7.52628 6.16753 8.01357 6.64781 8.14321C6.72015 8.15852 6.80475 8.17811 6.89829 8.19976C6.91791 8.20431 6.93793 8.20894 6.9583 8.21364L6.96123 8.21432C7.09181 8.24466 7.23445 8.27779 7.38381 8.31016L7.36198 8.32686H5.39949C5.15923 8.12991 4.47257 7.55915 3.95842 7.06013L3.94023 7.04369C3.59633 6.75284 3.26743 6.60571 2.96285 6.60571C2.48757 6.60571 2.19572 6.96413 2.09616 7.18038C1.98092 7.43889 1.92955 7.83149 2.1739 8.0973C2.68827 8.61876 4.55758 10.5504 4.68827 10.6991C4.76797 10.7804 4.86335 10.8389 4.96655 10.8696C5.06976 10.9004 5.17786 10.9027 5.28198 10.8762H9.05558C9.1603 10.8762 9.26142 10.9201 9.33994 10.9996L9.38949 11.0502C9.57178 11.237 9.95091 11.6254 10.1278 11.7791ZM5.23697 10.0936L5.18628 10.0929L5.13855 10.1109C4.91034 9.86148 3.23515 8.13147 2.68941 7.57637C2.6916 7.56727 2.69418 7.5583 2.69714 7.5495C2.71123 7.52263 2.78965 7.38829 2.96262 7.38829C3.06877 7.38829 3.25243 7.43655 3.527 7.66636C4.17935 8.2979 5.05695 9.00796 5.09423 9.03796L5.18265 9.10917H7.56905L8.32868 8.52563C8.60281 8.30833 8.57144 8.0613 8.54553 7.96531C8.52643 7.89514 8.44324 7.67106 8.15821 7.65932C7.79766 7.61036 7.4088 7.51981 7.09541 7.44684L7.09377 7.44646L7.08773 7.44505C6.96787 7.41718 6.86047 7.39221 6.78737 7.37733C6.6369 7.33664 6.53053 7.17856 6.53484 6.99048C6.53484 6.84518 6.67554 6.79666 6.73714 6.78257H9.98342C9.9908 6.7854 9.9974 6.79045 10.0025 6.79718L10.028 6.82822C10.0825 6.88796 10.366 7.17543 10.8622 7.67862C10.9073 7.72442 10.9543 7.77211 11.0025 7.82114C11.4563 8.28171 12.0261 8.86013 12.2521 9.09613L10.5701 11.1822C10.5635 11.177 10.5567 11.1707 10.5492 11.1637C10.3848 11.0207 10.0057 10.6326 9.84386 10.4667L9.79271 10.4142C9.58883 10.2076 9.32721 10.0936 9.05127 10.0936H5.23697Z" />
</svg>
