<svg viewBox="0 0 1024 1024" version="1.1" xmlns="http://www.w3.org/2000/svg" width="200" height="200">
<path d="M959.676507 508.078691c0-244.530272-200.372563-442.760033-447.545012-442.760033-247.172449 0-447.545012 198.22976-447.545012 442.760033 0 1.440815 0.016373 2.87856 0.030699 4.315282-0.014326 1.437745-0.030699 2.87549-0.030699 4.316306 0 244.530272 200.372563 442.760033 447.545012 442.760033 247.172449 0 447.545012-198.22976 447.545012-442.760033 0-1.440815-0.017396-2.87856-0.030699-4.316306C959.660134 510.956228 959.676507 509.519506 959.676507 508.078691zM764.950548 528.017812c0 16.019859-12.986779 29.007661-29.008684 29.007661L282.736944 557.025473c-16.020882 0-29.007661-12.986779-29.007661-29.007661l0-33.851992c0-16.019859 12.986779-29.007661 29.007661-29.007661l453.205942 0c16.020882 0 29.008684 12.986779 29.008684 29.007661L764.951571 528.017812z"></path>
</svg>