<svg width="40" height="40" viewBox="0 0 40 40" xmlns="http://www.w3.org/2000/svg">
<path d="M29.0228 0L39.9993 10.9767V17.2833C39.9989 17.7081 39.8362 18.1167 39.5446 18.4256C39.253 18.7345 38.8544 18.9204 38.4304 18.9453C38.0063 18.9702 37.5887 18.8322 37.263 18.5596C36.9372 18.2869 36.7279 17.9002 36.6777 17.4783L36.666 17.2833V13.3333H31.6661C30.3908 13.3334 29.1637 12.8461 28.2358 11.9712C27.3079 11.0963 26.7494 9.89982 26.6745 8.62667L26.6662 8.33333V3.33333H4.99992C4.5917 3.33339 4.1977 3.48326 3.89265 3.75453C3.58759 4.02579 3.3927 4.39958 3.34494 4.805L3.33328 5V33.3333C3.33301 34.1743 3.65062 34.9843 4.22242 35.6009C4.79423 36.2175 5.57798 36.5953 6.41656 36.6583L6.66655 36.6667H14.9997C15.4245 36.6671 15.8331 36.8298 16.142 37.1214C16.4509 37.413 16.6368 37.8116 16.6617 38.2357C16.6866 38.6597 16.5486 39.0773 16.2759 39.4031C16.0033 39.7288 15.6166 39.9382 15.1947 39.9883L14.9997 40H6.66655C4.95618 40 3.31123 39.3426 2.07195 38.1638C0.83266 36.985 0.093852 35.3749 0.00833319 33.6667L7.76796e-09 33.3333V5C-7.10381e-05 3.72465 0.487201 2.49748 1.36212 1.56957C2.23703 0.641655 3.43345 0.0831539 4.70659 0.00833332L4.99992 0H29.0228ZM28.3329 16.6667C29.865 16.6666 31.3821 16.9683 32.7976 17.5545C34.2131 18.1408 35.4993 19.0002 36.5827 20.0835C37.6661 21.1669 38.5255 22.453 39.1119 23.8685C39.6982 25.284 40 26.8012 40 28.3333C40 29.8655 39.6982 31.3826 39.1119 32.7981C38.5255 34.2136 37.6661 35.4998 36.5827 36.5832C35.4993 37.6665 34.2131 38.5259 32.7976 39.1121C31.3821 39.6984 29.865 40.0001 28.3329 40C25.2388 39.9998 22.2716 38.7706 20.0839 36.5827C17.8961 34.3948 16.6671 31.4274 16.6671 28.3333C16.6671 25.2393 17.8961 22.2719 20.0839 20.084C22.2716 17.8961 25.2388 16.6668 28.3329 16.6667ZM28.3329 20C27.2385 20 26.1549 20.2155 25.1439 20.6343C24.1329 21.0531 23.2142 21.667 22.4404 22.4408C21.6666 23.2146 21.0528 24.1333 20.634 25.1443C20.2152 26.1554 19.9997 27.239 19.9997 28.3333C19.9997 29.4277 20.2152 30.5113 20.634 31.5224C21.0528 32.5334 21.6666 33.4521 22.4404 34.2259C23.2142 34.9997 24.1329 35.6135 25.1439 36.0323C26.1549 36.4511 27.2385 36.6667 28.3329 36.6667C30.543 36.6667 32.6625 35.7887 34.2253 34.2259C35.7881 32.6631 36.666 30.5435 36.666 28.3333C36.666 26.1232 35.7881 24.0036 34.2253 22.4408C32.6625 20.878 30.543 20 28.3329 20ZM28.3329 21.6667C28.7749 21.6667 29.1988 21.8423 29.5113 22.1548C29.8239 22.4674 29.9995 22.8913 29.9995 23.3333V26.6667H33.3328C33.7747 26.6667 34.1986 26.8424 34.5111 27.1549C34.8236 27.4675 34.9992 27.8913 34.9992 28.3333C34.9992 28.7753 34.8236 29.1992 34.5111 29.5118C34.1986 29.8243 33.7747 29.9999 33.3328 30H28.3329C27.8908 30 27.4669 29.8244 27.1544 29.5118C26.8418 29.1993 26.6662 28.7754 26.6662 28.3333V23.3333C26.6662 22.8913 26.8418 22.4674 27.1544 22.1548C27.4669 21.8423 27.8908 21.6667 28.3329 21.6667ZM29.9995 5.69167V8.33333C29.9995 8.74156 30.1494 9.13556 30.4207 9.44062C30.6919 9.74568 31.0657 9.94057 31.4711 9.98833L31.6661 10H34.3094L29.9995 5.69167Z" />
</svg>
