<svg width="44" height="44" viewBox="0 0 44 44" xmlns="http://www.w3.org/2000/svg">
<path d="M29.0233 0L40 10.9767V17.2833C39.9995 17.7081 39.8369 18.1167 39.5453 18.4256C39.2536 18.7345 38.8551 18.9204 38.431 18.9453C38.0069 18.9702 37.5894 18.8322 37.2636 18.5596C36.9379 18.2869 36.7285 17.9002 36.6783 17.4783L36.6667 17.2833V13.3333H31.6667C30.3913 13.3334 29.1641 12.8461 28.2362 11.9712C27.3083 11.0963 26.7498 9.89982 26.675 8.62667L26.6667 8.33333V3.33333H5C4.59178 3.33339 4.19777 3.48326 3.89271 3.75453C3.58766 4.02579 3.39276 4.39958 3.345 4.805L3.33333 5V33.3333C3.33307 34.1743 3.65068 34.9843 4.2225 35.6009C4.79431 36.2176 5.57807 36.5953 6.41667 36.6583L6.66667 36.6667H15C15.4248 36.6671 15.8334 36.8298 16.1423 37.1214C16.4512 37.413 16.6371 37.8116 16.662 38.2357C16.6868 38.6597 16.5489 39.0773 16.2762 39.4031C16.0036 39.7288 15.6168 39.9382 15.195 39.9883L15 40H6.66667C4.95626 40 3.31129 39.3426 2.07198 38.1638C0.832674 36.985 0.0938535 35.3749 0.00833333 33.6667L7.76809e-09 33.3333V5C-7.10393e-05 3.72465 0.487209 2.49748 1.36214 1.56957C2.23707 0.641655 3.43351 0.0831539 4.70667 0.00833332L5 0H29.0233ZM30 5.69167V8.33333C30.0001 8.74156 30.1499 9.13556 30.4212 9.44062C30.6925 9.74568 31.0662 9.94057 31.4717 9.98833L31.6667 10H34.31L30 5.69167Z" />
<rect x="21.084" y="36.2759" width="20.072" height="2.86743" rx="1.43371" transform="rotate(-45 21.084 36.2759)" />
<rect x="23.1113" y="22.083" width="20.072" height="2.86743" rx="1.43371" transform="rotate(45 23.1113 22.083)" />
</svg>
