<svg width="8" height="8" viewBox="0 0 8 8" fill="none" xmlns="http://www.w3.org/2000/svg">
<g id="&#228;&#184;&#139;&#232;&#189;&#189; 1" clip-path="url(#clip0_2239_6662)">
<path id="Vector" d="M7.21875 8H0.78125C0.57405 8 0.375336 7.91769 0.228823 7.77118C0.08231 7.62466 0 7.42595 0 7.21875L0 4.98438C0 4.90149 0.032924 4.82201 0.0915291 4.7634C0.150134 4.7048 0.22962 4.67188 0.3125 4.67188C0.39538 4.67188 0.474866 4.7048 0.533471 4.7634C0.592076 4.82201 0.625 4.90149 0.625 4.98438V7.21875C0.625 7.26019 0.641462 7.29993 0.670765 7.32924C0.700067 7.35854 0.73981 7.375 0.78125 7.375H7.21875C7.26019 7.375 7.29993 7.35854 7.32924 7.32924C7.35854 7.29993 7.375 7.26019 7.375 7.21875V4.98438C7.375 4.90149 7.40792 4.82201 7.46653 4.7634C7.52513 4.7048 7.60462 4.67188 7.6875 4.67188C7.77038 4.67188 7.84987 4.7048 7.90847 4.7634C7.96708 4.82201 8 4.90149 8 4.98438V7.21875C8 7.42595 7.91769 7.62466 7.77118 7.77118C7.62466 7.91769 7.42595 8 7.21875 8Z" fill="#595959"/>
<path id="Vector_2" d="M3.99994 6.15473C3.91751 6.15355 3.83889 6.11986 3.78119 6.06098L1.65619 3.93598C1.62695 3.90674 1.60376 3.87203 1.58793 3.83382C1.57211 3.79562 1.56396 3.75467 1.56396 3.71332C1.56396 3.62981 1.59714 3.54972 1.65619 3.49066C1.71524 3.43161 1.79534 3.39844 1.87885 3.39844C1.96236 3.39844 2.04245 3.43161 2.1015 3.49066L3.99994 5.39691L5.90619 3.49848C5.96524 3.43943 6.04534 3.40625 6.12885 3.40625C6.21236 3.40625 6.29245 3.43943 6.3515 3.49848C6.41056 3.55753 6.44373 3.63762 6.44373 3.72113C6.44373 3.80465 6.41056 3.88474 6.3515 3.94379L4.21869 6.06098C4.161 6.11986 4.08237 6.15355 3.99994 6.15473Z" fill="#595959"/>
<path id="Vector_3" d="M4 6.02344C3.91712 6.02344 3.83763 5.99051 3.77903 5.93191C3.72042 5.8733 3.6875 5.79382 3.6875 5.71094V0.3125C3.6875 0.22962 3.72042 0.150134 3.77903 0.0915291C3.83763 0.032924 3.91712 0 4 0C4.08288 0 4.16237 0.032924 4.22097 0.0915291C4.27958 0.150134 4.3125 0.22962 4.3125 0.3125V5.71094C4.3125 5.79382 4.27958 5.8733 4.22097 5.93191C4.16237 5.99051 4.08288 6.02344 4 6.02344Z" fill="#595959"/>
</g>
<defs>
<clipPath id="clip0_2239_6662">
<rect width="8" height="8" fill="white"/>
</clipPath>
</defs>
</svg>