<svg width="24" height="24" viewBox="0 0 24 24" xmlns="http://www.w3.org/2000/svg">
<path d="M12.7559 14.184L18.4799 8.45999C18.6199 8.31995 18.8099 8.24128 19.0079 8.24128C19.2059 8.24128 19.3959 8.31995 19.5359 8.45999C19.6759 8.60002 19.7546 8.78995 19.7546 8.98799C19.7546 9.18603 19.6759 9.37595 19.5359 9.51599L12.6119 16.44C12.4508 16.5954 12.2357 16.6823 12.0119 16.6823C11.7881 16.6823 11.573 16.5954 11.4119 16.44L4.46391 9.52799C4.39457 9.45865 4.33957 9.37633 4.30204 9.28574C4.26452 9.19514 4.2452 9.09805 4.2452 8.99999C4.2452 8.90193 4.26452 8.80483 4.30204 8.71424C4.33957 8.62364 4.39457 8.54133 4.46391 8.47199C4.53324 8.40265 4.61556 8.34765 4.70616 8.31012C4.79675 8.2726 4.89385 8.25328 4.99191 8.25328C5.08997 8.25328 5.18706 8.2726 5.27766 8.31012C5.36825 8.34765 5.45057 8.40265 5.51991 8.47199L11.2439 14.196V2.60399C11.2304 2.49753 11.2397 2.38943 11.2713 2.28686C11.3028 2.18428 11.3558 2.0896 11.4267 2.00909C11.4977 1.92859 11.5849 1.86411 11.6827 1.81994C11.7805 1.77577 11.8866 1.75293 11.9939 1.75293C12.1012 1.75293 12.2073 1.77577 12.3051 1.81994C12.4029 1.86411 12.4901 1.92859 12.5611 2.00909C12.632 2.0896 12.685 2.18428 12.7166 2.28686C12.7481 2.38943 12.7574 2.49753 12.7439 2.60399L12.7559 14.184ZM3.59991 21.156C3.41733 21.1328 3.24946 21.0439 3.12778 20.9058C3.0061 20.7677 2.93896 20.59 2.93896 20.406C2.93896 20.2219 3.0061 20.0442 3.12778 19.9062C3.24946 19.7681 3.41733 19.6791 3.59991 19.656H20.3999C20.5825 19.6791 20.7504 19.7681 20.872 19.9062C20.9937 20.0442 21.0609 20.2219 21.0609 20.406C21.0609 20.59 20.9937 20.7677 20.872 20.9058C20.7504 21.0439 20.5825 21.1328 20.3999 21.156H3.59991Z" />
</svg>
