<svg width="12" height="12" viewBox="0 0 12 12" fill="none" xmlns="http://www.w3.org/2000/svg">
<path fill-rule="evenodd" clip-rule="evenodd" d="M12 6C12 9.31372 9.31372 12 6 12C2.68629 12 0 9.31372 0 6C0 2.68628 2.68629 0 6 0C9.31372 0 12 2.68628 12 6ZM7.74402 2C7.64523 2 7.54568 2.03812 7.46945 2.11356L4.52246 5.06134C4.47113 5.11267 4.43457 5.17645 4.41591 5.24643L4.01379 6.74677C3.94536 6.99954 4.14136 7.23367 4.38557 7.23367C4.40234 7.23367 4.41931 7.23248 4.43639 7.23013C4.45335 7.22781 4.47041 7.22433 4.48746 7.21967L5.98703 6.81757C6.01324 6.81058 6.0386 6.80106 6.06277 6.78918C6.10306 6.76941 6.14001 6.7431 6.17212 6.711L9.1207 3.76401C9.27158 3.61154 9.27158 3.36655 9.1207 3.21487L8.01859 2.11356C7.94235 2.03812 7.84357 2 7.74402 2ZM7.74402 2.93954L8.29391 3.48944L5.69147 6.09189L4.9409 6.29333L5.14157 5.54199L7.74402 2.93954ZM3 8.60001C2.77908 8.60001 2.60001 8.77908 2.60001 9C2.60001 9.22092 2.77908 9.39999 3 9.39999H9C9.22092 9.39999 9.39999 9.22092 9.39999 9C9.39999 8.77908 9.22092 8.60001 9 8.60001H3Z" fill="#1890FF"/>
</svg>
