<svg width="15" height="15" viewBox="0 0 15 15" fill="none" xmlns="http://www.w3.org/2000/svg">
<path d="M7.49436 9.75395C7.69312 9.75395 7.88375 9.67499 8.02429 9.53444C8.16484 9.3939 8.2438 9.20327 8.2438 9.00451V3.00902H10.5446C10.637 3.00901 10.7261 2.97484 10.7949 2.91309L10.8421 2.86213C10.872 2.82302 10.8939 2.7784 10.9065 2.73082C10.9191 2.68324 10.9223 2.63365 10.9157 2.58486C10.9092 2.53607 10.8931 2.48905 10.8684 2.44649C10.8436 2.40392 10.8108 2.36664 10.7716 2.33678L7.86084 0.115449C7.76266 0.0404394 7.64251 -0.000135132 7.51897 3.3813e-07C7.39542 0.000135808 7.27536 0.0409738 7.17735 0.116198L4.28827 2.33828C4.22638 2.38598 4.18096 2.45185 4.15835 2.52665C4.13574 2.60145 4.13709 2.68145 4.1622 2.75545C4.1873 2.82945 4.23492 2.89375 4.29837 2.93935C4.36183 2.98495 4.43796 3.00957 4.5161 3.00977H6.74493V9.00526C6.74493 9.20402 6.82388 9.39465 6.96443 9.53519C7.10498 9.67574 7.2956 9.7547 7.49436 9.7547V9.75395ZM11.5286 4.51314C11.3389 4.5357 11.165 4.62984 11.0424 4.77632C10.9198 4.9228 10.8577 5.11056 10.8689 5.30125C10.8801 5.49194 10.9637 5.67116 11.1026 5.80228C11.2415 5.93341 11.4252 6.00655 11.6163 6.00677H13.4899V13.5011H1.49887V6.00677H3.37246C3.57123 6.00677 3.76185 5.92781 3.90239 5.78726C4.04294 5.64671 4.1219 5.45609 4.1219 5.25733C4.1219 5.05857 4.04294 4.86795 3.90239 4.7274C3.76185 4.58685 3.57123 4.50789 3.37246 4.50789H1.49887C1.30204 4.50789 1.10713 4.54666 0.925279 4.62199C0.743427 4.69731 0.578193 4.80772 0.439009 4.9469C0.299826 5.08609 0.18942 5.25132 0.114095 5.43317C0.0387695 5.61502 -2.30666e-09 5.80993 0 6.00677V13.5011C-2.30666e-09 13.698 0.0387695 13.8929 0.114095 14.0747C0.18942 14.2566 0.299826 14.4218 0.439009 14.561C0.578193 14.7002 0.743427 14.8106 0.925279 14.8859C1.10713 14.9612 1.30204 15 1.49887 15H13.4899C13.6867 15 13.8816 14.9612 14.0634 14.8859C14.2453 14.8106 14.4105 14.7002 14.5497 14.561C14.6889 14.4218 14.7993 14.2566 14.8746 14.0747C14.95 13.8929 14.9887 13.698 14.9887 13.5011V6.00677C14.9887 5.80993 14.95 5.61502 14.8746 5.43317C14.7993 5.25132 14.6889 5.08609 14.5497 4.9469C14.4105 4.80772 14.2453 4.69731 14.0634 4.62199C13.8816 4.54666 13.6867 4.50789 13.4899 4.50789H11.6163L11.5286 4.51314Z" fill="var(--base-color)"/>
</svg>
