<svg width="21" height="21" viewBox="0 0 21 21" fill="none" xmlns="http://www.w3.org/2000/svg">
<path d="M10.5 4.15625C10.5 3.9822 10.4309 3.81528 10.3078 3.69221C10.1847 3.56914 10.0178 3.5 9.84375 3.5H5.25C4.78587 3.5 4.34075 3.68437 4.01256 4.01256C3.68437 4.34075 3.5 4.78587 3.5 5.25V15.75C3.5 16.2141 3.68437 16.6593 4.01256 16.9874C4.34075 17.3156 4.78587 17.5 5.25 17.5H15.75C16.2141 17.5 16.6593 17.3156 16.9874 16.9874C17.3156 16.6593 17.5 16.2141 17.5 15.75V11.1563C17.5 10.9822 17.4309 10.8153 17.3078 10.6922C17.1847 10.5691 17.0178 10.5 16.8438 10.5C16.6697 10.5 16.5028 10.5691 16.3797 10.6922C16.2566 10.8153 16.1875 10.9822 16.1875 11.1563V15.75C16.1875 15.866 16.1414 15.9773 16.0594 16.0594C15.9773 16.1414 15.866 16.1875 15.75 16.1875H5.25C5.13397 16.1875 5.02269 16.1414 4.94064 16.0594C4.85859 15.9773 4.8125 15.866 4.8125 15.75V5.25C4.8125 5.13397 4.85859 5.02269 4.94064 4.94064C5.02269 4.85859 5.13397 4.8125 5.25 4.8125H9.84375C10.0178 4.8125 10.1847 4.74336 10.3078 4.62029C10.4309 4.49722 10.5 4.3303 10.5 4.15625Z" fill="var(--base-color)"/>
<path d="M17.4001 7.40873C17.4186 7.42528 17.4334 7.44557 17.4435 7.46827C17.4536 7.49097 17.4587 7.51555 17.4585 7.54037C17.4583 7.5652 17.4529 7.58971 17.4425 7.61227C17.4322 7.63483 17.4171 7.65493 17.3984 7.67123L13.4154 11.1817C13.3901 11.2039 13.359 11.2184 13.3257 11.2233C13.2925 11.2283 13.2585 11.2236 13.2278 11.2097C13.1972 11.1959 13.1712 11.1735 13.1529 11.1453C13.1347 11.117 13.1249 11.0841 13.1249 11.0505V9.1876C13.1249 8.62498 12.5938 8.97585 11.7433 9.12548C10.835 9.28385 9.18038 10.4179 8.36138 11.0129C8.21876 11.1161 8.02976 10.9735 8.09626 10.8107C8.48126 9.87185 9.30638 8.0326 10.0851 7.4376C12.2963 5.74973 13.1249 6.37535 13.1249 5.81273V3.9551C13.125 3.92129 13.1348 3.88822 13.1533 3.8599C13.1718 3.83158 13.1981 3.80922 13.229 3.79552C13.2599 3.78182 13.2941 3.77737 13.3275 3.78271C13.3609 3.78805 13.392 3.80295 13.4171 3.8256L17.4001 7.40873Z" fill="var(--base-color)"/>
</svg>
