<svg viewBox="0 0 1024 1024" fill="#EDF4FF" xmlns="http://www.w3.org/2000/svg" width="30" height="30">
<path width="30" height="30" d="M613.12 546.133333a210.346667 210.346667 0 1 0-202.24 0 341.333333 341.333333 0 0 0-237.653333 322.986667 21.333333 21.333333 0 0 0 21.333333 21.333333 21.333333 21.333333 0 0 0 21.333333-21.333333 296.106667 296.106667 0 0 1 223.146667-286.293333l16.213333 87.466666-33.706666 194.986667a21.333333 21.333333 0 0 0 17.493333 24.746667h3.84a20.906667 20.906667 0 0 0 20.906667-17.92l31.146666-180.906667h34.56l35.84 181.76a21.76 21.76 0 0 0 20.906667 17.066667h4.266667a20.906667 20.906667 0 0 0 16.64-25.173334l-38.4-194.986666 16.213333-85.333334a296.106667 296.106667 0 0 1 223.146667 286.293334 21.333333 21.333333 0 0 0 21.333333 21.333333 21.333333 21.333333 0 0 0 21.333333-21.333333 341.333333 341.333333 0 0 0-237.653333-324.693334z m-268.8-183.466666A167.68 167.68 0 1 1 512 530.346667 167.68 167.68 0 0 1 344.32 362.666667z m184.746667 286.293333h-34.133334l-14.08-74.24h62.293334z" fill="#3B6DEC"></path>
</svg>