<svg width="22" height="22" viewBox="0 0 22 22" xmlns="http://www.w3.org/2000/svg">
<path d="M18.3707 8.27169C18.6494 8.30102 18.9281 8.37435 19.2067 8.49169C19.4854 8.60902 19.7274 8.77402 19.9327 8.98669C20.1381 9.19935 20.2921 9.46702 20.3947 9.78969C20.4974 10.1124 20.5121 10.501 20.4387 10.9557C20.4094 11.073 20.3507 11.3627 20.2627 11.8247C20.1747 12.2867 20.0721 12.8184 19.9547 13.4197C19.8374 14.021 19.7054 14.6407 19.5587 15.2787C19.4121 15.9167 19.2727 16.463 19.1407 16.9177C19.0674 17.1817 18.9611 17.453 18.8217 17.7317C18.6824 18.0104 18.5027 18.2634 18.2827 18.4907C18.0627 18.718 17.7987 18.905 17.4907 19.0517C17.1827 19.1984 16.8161 19.2717 16.3907 19.2717H4.20272C3.89472 19.2717 3.57572 19.2057 3.24572 19.0737C2.91572 18.9417 2.61139 18.7547 2.33272 18.5127C2.05405 18.2707 1.82672 17.9774 1.65072 17.6327C1.47472 17.288 1.38672 16.903 1.38672 16.4777V7.03969C1.38672 6.14502 1.62872 5.44469 2.11272 4.93869C2.59672 4.43269 3.27872 4.17969 4.15872 4.17969H14.9827C15.3054 4.17969 15.6391 4.24202 15.9837 4.36669C16.3284 4.49135 16.6401 4.66369 16.9187 4.88369C17.1974 5.10369 17.4247 5.36035 17.6007 5.65369C17.7767 5.94702 17.8647 6.26235 17.8647 6.59969V6.84169H16.7207C16.1341 6.84169 15.4484 6.83802 14.6637 6.83069C13.8791 6.82335 13.0431 6.81969 12.1557 6.81969C11.2684 6.81969 10.4397 6.81602 9.66972 6.80869C8.89972 6.80135 8.23605 6.79769 7.67872 6.79769H6.66672C6.28539 6.79769 5.98839 6.91869 5.77572 7.16069C5.56305 7.40269 5.39805 7.72169 5.28072 8.11769C5.16339 8.54302 5.03139 8.99402 4.88472 9.47069C4.73805 9.94735 4.60605 10.391 4.48872 10.8017C4.34205 11.2857 4.19539 11.755 4.04872 12.2097C4.01939 12.327 4.00472 12.4224 4.00472 12.4957C4.00472 12.745 4.08905 12.954 4.25772 13.1227C4.42639 13.2914 4.63539 13.3757 4.88472 13.3757C5.33939 13.3757 5.64739 13.0897 5.80872 12.5177L6.97472 8.24969C8.88139 8.26435 10.6267 8.27169 12.2107 8.27169H18.3707Z" />
</svg>
