
<svg width="23" height="24" viewBox="0 0 23 24" fill="none" xmlns="http://www.w3.org/2000/svg">
<path d="M9.65596 0.84375L0 10.4997V23.6888L22.845 0.84375H9.65596Z" fill="#1890FF"/>
<path d="M8.88313 3.68036L9.27345 4.07068L6.56948 6.77466L10.3879 10.593L13.1823 7.79855L13.567 8.18322L10.3652 11.385L5.77186 6.79163L8.88313 3.68036ZM9.66377 9.47298L10.6311 8.50566L9.74863 7.62319L8.92838 8.44343L8.56634 8.08139L9.38659 7.26115L8.59463 6.46919L7.67822 7.3856L7.31052 7.0179L9.63549 4.69294L10.0032 5.06063L8.99061 6.07321L9.78257 6.86517L10.6764 5.97139L11.0384 6.33342L10.1446 7.22721L11.0271 8.10968L12.0849 7.05185L12.4583 7.4252L10.0371 9.84633L9.66377 9.47298ZM4.26148 7.61187L4.6518 7.22155L5.83408 8.40383L6.46199 7.77592L6.86363 8.17756L6.23572 8.80547L6.43371 9.00346C6.79009 9.00912 7.77438 9.09963 8.01197 9.12225L8.15339 9.71622C7.88752 9.64268 7.33881 9.5352 6.89192 9.46167L9.85045 12.4202L9.46013 12.8105L6.74484 10.0952C7.15779 10.8928 7.48023 11.7357 7.57639 12.3523C7.418 12.2731 7.13516 12.1939 6.9598 12.1543C6.8806 11.3624 6.3828 10.1518 5.81146 9.22973L5.01384 10.0274L4.6122 9.62571L5.44376 8.79416L4.26148 7.61187Z" fill="white"/>
</svg>

