<svg width="24" height="24" viewBox="0 0 16 16" fill="none" xmlns="http://www.w3.org/2000/svg">
<path d="M11.6456 7.49576C11.7054 7.43602 11.7652 7.37623 11.8249 7.37623H12.6616C12.7214 7.37623 12.7811 7.31649 12.7811 7.25675V6.30046C12.7811 6.24072 12.7214 6.18093 12.6616 6.18093H11.7054C11.6456 6.18093 11.5261 6.24072 11.5261 6.30046L10.5101 7.37623C10.4503 7.43602 10.3905 7.43602 10.3905 7.37623L9.85268 6.30046C9.79285 6.24072 9.73311 6.18093 9.67337 6.18093H8.11945C8.05977 6.18093 7.99992 6.24072 7.99992 6.30046V7.25675C7.99992 7.31649 8.05976 7.37623 8.11945 7.37623H9.07573C9.13547 7.37623 9.19526 7.43602 9.255 7.49576L9.61359 8.27277V8.45205L8.53783 9.70712C8.47804 9.70712 8.41833 9.76683 8.35856 9.76683H7.52185C7.46211 9.76683 7.40227 9.82661 7.40227 9.88635V10.8426C7.40227 10.9024 7.46211 10.9622 7.52185 10.9622H8.47803C8.53782 10.9622 8.65735 10.9024 8.65735 10.8426L10.032 9.28871C10.0917 9.22897 10.1515 9.22897 10.1515 9.28871L10.9284 10.8426C10.9284 10.9024 11.0479 10.9622 11.1077 10.9622H12.064C12.1237 10.9622 12.1835 10.9024 12.1835 10.8426V9.88635C12.1835 9.82661 12.1237 9.76683 12.064 9.76683H11.7054C11.6456 9.76683 11.5859 9.70712 11.5261 9.6473L10.9284 8.45206V8.27278L11.6456 7.49576ZM6.74489 3.79031C6.44605 4.02942 6.14724 4.38801 5.96793 4.98566L5.66918 6.18095H3.93593C3.87614 6.18095 3.8164 6.24073 3.8164 6.30047V7.25676C3.8164 7.3165 3.87614 7.37624 3.93593 7.37624H5.37028L4.47379 10.9622C4.29452 11.6793 3.8164 11.5598 3.8164 11.5598H3.21875V12.7552H3.8164C4.29452 12.7552 4.77264 12.6954 5.0117 12.3965C5.31053 12.0977 5.48985 11.5598 5.60934 10.9622L6.50583 7.37624H7.88044C7.94014 7.37624 7.99997 7.3165 7.99997 7.25676V6.30047C7.99997 6.24073 7.94014 6.18095 7.88044 6.18095H6.80467L7.10347 5.0454C7.16326 4.86608 7.46211 4.56728 7.64133 4.44775C8.29877 3.96963 9.19526 4.26843 9.79285 4.38801V3.37198C9.19526 3.25245 7.88044 2.83407 6.74489 3.79031Z" fill="#FFA940"/>
<circle cx="8" cy="8" r="7.5" stroke="#FFA940"/>
</svg>
