<svg width="14" height="14" viewBox="0 0 14 14" fill="var(--base-color)" xmlns="http://www.w3.org/2000/svg">
<g id="&#232;&#180;&#159;&#232;&#180;&#163;&#228;&#186;&#186; (1) 1">
<path id="Vector" d="M4.6058 6.51063C3.9338 5.81063 3.5418 4.86562 3.5418 3.87162C3.5418 2.87762 3.9198 1.91862 4.6058 1.23263C5.2638 0.560625 6.1598 0.140625 7.1608 0.140625C8.1548 0.140625 9.0578 0.560625 9.7158 1.23263C10.3878 1.92562 10.7798 2.87762 10.7798 3.87162C10.7798 4.86562 10.4018 5.82463 9.7158 6.51063C9.0648 7.18263 8.1618 7.60262 7.1608 7.60262C6.1598 7.60262 5.2638 7.18263 4.6058 6.51063ZM7.5528 9.06563L7.1188 8.77163L6.6848 9.06563L7.0278 9.29663L6.2438 13.1676L7.1118 13.9306L7.9868 13.1606L7.2028 9.28963L7.5528 9.06563ZM8.6448 7.87563L8.2528 8.91863L9.0928 13.2096H12.2988C12.2078 10.7036 10.6958 8.58963 8.6448 7.87563ZM5.5718 7.88263C3.5348 8.60363 2.0298 10.7036 1.9458 13.2096H5.1238L5.9638 8.91863L5.5718 7.88263Z" fill="var(--base-color)"/>
</g>
</svg>
