<svg width="14" height="14" viewBox="0 0 14 14" fill="none" xmlns="http://www.w3.org/2000/svg">
<g id="&#232;&#180;&#159;&#232;&#180;&#163;&#228;&#186;&#186; (1) 1">
<path id="Vector" d="M4.60604 6.51063C3.93404 5.81063 3.54204 4.86562 3.54204 3.87162C3.54204 2.87762 3.92004 1.91862 4.60604 1.23263C5.26404 0.560625 6.16004 0.140625 7.16105 0.140625C8.15505 0.140625 9.05804 0.560625 9.71604 1.23263C10.388 1.92562 10.78 2.87762 10.78 3.87162C10.78 4.86562 10.402 5.82463 9.71604 6.51063C9.06504 7.18263 8.16205 7.60262 7.16105 7.60262C6.16004 7.60262 5.26404 7.18263 4.60604 6.51063ZM7.55304 9.06563L7.11904 8.77163L6.68504 9.06563L7.02804 9.29663L6.24405 13.1676L7.11205 13.9306L7.98705 13.1606L7.20305 9.28963L7.55304 9.06563ZM8.64505 7.87563L8.25305 8.91863L9.09305 13.2096H12.299C12.208 10.7036 10.696 8.58963 8.64505 7.87563ZM5.57204 7.88263C3.53504 8.60363 2.03004 10.7036 1.94604 13.2096H5.12404L5.96405 8.91863L5.57204 7.88263Z" fill="#3887FF"/>
</g>
</svg>
