<svg viewBox="0 0 1024 1024" version="1.1" xmlns="http://www.w3.org/2000/svg" width="200" height="200">
<path d="M258.24 86.656c18.208 0 33.568 6.336 46.272 18.944 12.64 12.672 18.944 28.096 18.944 46.272v110.944c0 18.176-6.336 33.6-18.944 46.272a62.912 62.912 0 0 1-46.272 18.976H147.264c-18.176 0-33.568-6.336-46.24-18.976s-18.976-28.096-18.976-46.272V151.872c0-18.208 6.336-33.632 18.976-46.272s28.064-18.944 46.24-18.944H258.24z m307.584 0c18.176 0 33.6 6.336 46.24 18.944s18.976 28.096 18.976 46.272v110.944c0 18.176-6.304 33.6-18.976 46.272s-28.064 18.976-46.24 18.976h-112.928c-18.144 0-33.568-6.336-46.24-18.976s-18.976-28.096-18.976-46.272V151.872c0-18.208 6.336-33.632 18.976-46.272s28.096-18.944 46.24-18.944h112.928z m303.68 0c18.208 0 33.632 6.336 46.272 18.944s18.976 28.096 18.976 46.272v110.944c0 18.176-6.336 33.6-18.976 46.272s-28.064 18.976-46.272 18.976h-112.896c-18.176 0-33.568-6.336-46.24-18.976s-18.976-28.096-18.976-46.272V151.872c0-18.208 6.336-33.632 18.976-46.272s28.064-18.944 46.24-18.944h112.896zM258.24 392.32c18.208 0 33.568 6.336 46.272 18.944 12.64 12.672 18.944 28.064 18.944 46.24v110.976c0 18.144-6.336 33.568-18.944 46.24a63.04 63.04 0 0 1-46.272 18.976H147.264c-18.176 0-33.568-6.336-46.24-18.976s-18.976-28.096-18.976-46.24v-110.976c0-18.176 6.336-33.568 18.976-46.24s28.064-18.944 46.24-18.944H258.24z m307.584 0c18.176 0 33.6 6.336 46.24 18.944s18.976 28.064 18.976 46.24v110.976c0 18.144-6.304 33.568-18.976 46.24s-28.064 18.976-46.24 18.976h-112.928c-18.144 0-33.568-6.336-46.24-18.976s-18.976-28.096-18.976-46.24v-110.976c0-18.176 6.336-33.568 18.976-46.24s28.096-18.944 46.24-18.944h112.928z m303.68 0c18.208 0 33.632 6.336 46.272 18.944s18.976 28.064 18.976 46.24v110.976c0 18.144-6.336 33.568-18.976 46.24s-28.064 18.976-46.272 18.976h-112.896c-18.176 0-33.568-6.336-46.24-18.976s-18.976-28.096-18.976-46.24v-110.976c0-18.176 6.336-33.568 18.976-46.24s28.064-18.944 46.24-18.944h112.896zM258.24 697.952c18.208 0 33.568 6.336 46.272 18.976 12.64 12.672 18.944 28.064 18.944 46.24v110.976c0 18.144-6.336 33.568-18.944 46.24a63.04 63.04 0 0 1-46.272 18.976H147.264c-18.176 0-33.568-6.336-46.24-18.976s-18.976-28.096-18.976-46.24v-110.976c0-18.208 6.336-33.568 18.976-46.24s28.064-18.976 46.24-18.976H258.24z m307.584 0c18.176 0 33.6 6.336 46.24 18.976s18.976 28.064 18.976 46.24v110.976c0 18.144-6.304 33.568-18.976 46.24s-28.064 18.976-46.24 18.976h-112.928c-18.144 0-33.568-6.336-46.24-18.976s-18.976-28.096-18.976-46.24v-110.976c0-18.208 6.336-33.568 18.976-46.24s28.096-18.976 46.24-18.976h112.928z m303.68 0c18.208 0 33.632 6.336 46.272 18.976s18.976 28.064 18.976 46.24v110.976c0 18.144-6.336 33.568-18.976 46.24s-28.064 18.976-46.272 18.976h-112.896c-18.176 0-33.568-6.336-46.24-18.976s-18.976-28.096-18.976-46.24v-110.976c0-18.208 6.336-33.568 18.976-46.24s28.064-18.976 46.24-18.976h112.896z m0 0"></path>
</svg>