<svg width="56" height="56" viewBox="0 0 56 56" fill="none" xmlns="http://www.w3.org/2000/svg">
<circle cx="28" cy="28" r="28" fill="#E2F1FF"/>
<ellipse cx="38.955" cy="37.3708" rx="7.07865" ry="6.7955" fill="white"/>
<path d="M34.3776 28.8245C33.0279 29.5343 31.8618 30.5483 30.9715 31.7863C30.0812 33.0244 29.4911 34.4526 29.2479 35.958C29.0047 37.4635 29.115 39.0048 29.5701 40.4603C30.0252 41.9157 30.8126 43.2453 31.8701 44.344C23.8288 45.3461 13 43.4427 13 39.3843C13 32.9301 19.1348 26.4067 26.698 26.4067C29.5452 26.4067 32.1879 27.3301 34.3776 28.8245ZM33.9953 17.3964C33.9953 21.4784 30.6919 24.7912 26.6162 24.7912C24.6568 24.7891 22.7784 24.0089 21.394 22.6222C20.0097 21.2355 19.2327 19.3558 19.234 17.3964C19.2327 15.4376 20.009 13.5585 21.3922 12.1716C22.7755 10.7848 24.6527 10.0038 26.6114 10C27.5819 10.0008 28.5427 10.1928 29.4391 10.5649C30.3354 10.9371 31.1496 11.4821 31.8352 12.1689C32.5209 12.8557 33.0646 13.6709 33.4352 14.5678C33.8058 15.4647 33.9962 16.4259 33.9953 17.3964H33.9953ZM38.9551 30.0562C39.9377 30.054 40.9111 30.2457 41.8196 30.6202C42.728 30.9947 43.5537 31.5447 44.2493 32.2388C44.9448 32.9328 45.4967 33.7572 45.8732 34.6649C46.2498 35.5725 46.4436 36.5455 46.4436 37.5281C46.4436 38.5107 46.2498 39.4837 45.8732 40.3913C45.4967 41.2989 44.9448 42.1233 44.2493 42.8174C43.5537 43.5114 42.728 44.0615 41.8196 44.436C40.9111 44.8105 39.9377 45.0022 38.9551 45C36.9763 44.9956 35.08 44.2064 33.6824 42.8057C32.2847 41.4049 31.4998 39.5069 31.4998 37.5281C31.4998 35.5493 32.2847 33.6513 33.6824 32.2505C35.08 30.8497 36.9763 30.0606 38.9551 30.0562ZM38.8985 38.9375H41.5474L40.525 39.5085C40.989 40.2164 41.2517 40.5404 41.7582 41.0422C42.1814 41.4638 42.4236 41.6714 42.982 42.0647C43.3832 41.5189 43.5987 41.3034 43.9966 40.7213C43.3832 40.3973 43.1409 40.1771 42.6438 39.6658C42.4178 39.4455 42.2163 39.2013 42.0429 38.9375H43.9966V37.5422C43.7104 37.5816 43.4775 37.5422 43.0041 37.5422H42.422V35.8402H42.7288C43.1834 35.8402 43.4571 35.8009 43.7528 35.8402V34.4449C43.4571 34.4842 43.1834 34.4449 42.7304 34.4449H42.4236V33.6678C42.4236 33.3532 42.3812 33.1078 42.4236 32.8231H40.8411C40.8726 33.0591 40.8411 33.3139 40.8411 33.649V34.4449H39.7416V33.6285C39.7416 33.284 39.7101 33.0685 39.7416 32.8231H38.1591C38.1906 33.1063 38.1591 33.3344 38.1591 33.6191V34.4449H38.0742C37.6621 34.4449 37.3883 34.4842 37.0391 34.4449V35.8402C37.3883 35.8009 37.6101 35.8402 38.0742 35.8402H38.1591V37.5422H37.8319C37.3663 37.5422 37.1241 37.5816 36.8393 37.5422V38.9375C37.1241 38.8982 37.3773 38.9375 37.8304 38.9375H38.4863C38.1906 39.4094 38.0317 39.6061 37.673 39.9694C37.343 40.3066 36.9664 40.5947 36.5546 40.8251V35.1057C36.8201 34.5802 37.0426 34.0342 37.22 33.4728C37.2829 33.2856 37.3144 33.1881 37.3773 33.0497L35.7209 32.6281C35.6045 33.325 33.5313 35.9944 32.9838 36.5151C33.2575 36.8721 33.6382 37.3173 34.1227 37.8553C34.4908 37.4306 34.7456 37.1176 34.8872 36.9209C34.8762 37.2465 34.9501 37.9167 34.9501 38.5364V42.0065H36.5546C36.5232 41.7706 36.5546 41.2405 36.5546 41.0234C36.9982 41.456 37.3569 41.8036 37.6306 42.0663C38.0946 41.7549 38.5052 41.4072 38.8654 41.0234C39.4049 40.4477 39.5733 40.218 40.0263 39.5101L38.8969 38.9391L38.8985 38.9375ZM39.7432 37.5422V35.8402H40.8411V37.5422H39.7416H39.7432Z" fill="#2B99FF"/>
</svg>
