<svg width="56" height="56" viewBox="0 0 56 56" fill="none" xmlns="http://www.w3.org/2000/svg">
<circle cx="28" cy="28" r="28" fill="#DEFFE0"/>
<rect x="19.116" y="17.2549" width="19.7583" height="20.1436" fill="white"/>
<path d="M31.9348 24.1415H25.413C26.7826 23.1055 27.8913 22.1341 28.7391 21.1628C29.6522 22.2636 30.7609 23.235 31.9348 24.1415ZM32.9783 30.2285H24.5V33.013H32.913V30.2285H32.9783ZM44 18.5079V25.4366C44 31.7179 41.1957 37.6105 36.2391 41.5606L29.7826 46.741C29.587 46.9352 29.2609 47 29 47C28.7391 47 28.413 46.9352 28.1522 46.741L21.6957 41.5606C16.8043 37.6105 14 31.7179 14 25.4366V18.5079C14 17.9898 14.3261 17.4718 14.8478 17.2775L28.5435 12.0971C28.8696 11.9676 29.1957 11.9676 29.4565 12.0971L43.1522 17.2775C43.6739 17.4718 44 17.9898 44 18.5079ZM35.3913 27.8973H22.087V36.1212H24.5V35.2794H32.913V36.1212H35.3261V27.8973H35.3913ZM37.6087 24.5301C34.413 23.1702 32 21.4866 30.3696 19.4144L31.0217 18.6374H27.6304C26.1957 20.7743 23.587 22.7817 19.8696 24.7243C20.4565 25.3719 20.9783 26.0842 21.4348 26.7965C22.2174 26.3432 23 25.8899 23.6522 25.4366V26.4727H33.7609V25.5014C34.4783 25.9547 35.1957 26.3432 35.913 26.667C36.4348 26.0194 36.9565 25.3071 37.6087 24.5301Z" fill="#3DDE47"/>
</svg>
