<svg width="15" height="15" viewBox="0 0 15 15" fill="none" xmlns="http://www.w3.org/2000/svg">
<path d="M1.67089 13.3291H13.3671C13.7468 13.2911 13.7089 13.4051 13.7089 12.9873V12.038C13.7089 11.5063 13.5949 11.3924 13.0633 11.3924H10.7848C10.481 11.1646 10.443 10.8608 10.3671 10.7848C9.03797 9.3038 9.79747 8.31646 10.6329 6.94937C10.7848 6.75949 10.9367 6.56962 11.0506 6.34177C11.3924 5.73418 11.5823 5.05063 11.5823 4.29114C11.5823 1.93671 9.68354 0 7.29114 0C4.93671 0 3 1.89873 3 4.29114C3 5.27848 3.34177 6.18987 3.91139 6.91139C4.82278 8.35443 6.3038 9.53165 3.91139 11.3924H1.63291C1.21519 11.3924 0.987342 11.6203 0.987342 12.038V13.0253C0.987342 13.4051 1.25316 13.3291 1.67089 13.3291ZM14.3544 13.9747H0.341772C0.151899 13.9747 0 14.1266 0 14.3165V14.6582C0 14.8481 0.151899 15 0.341772 15H14.3165C14.5063 15 14.6582 14.8481 14.6582 14.6582V14.3165C14.6582 14.1266 14.5063 13.9747 14.3544 13.9747Z" fill="white"/>
</svg>
