<svg width="6" height="7" viewBox="0 0 6 7" fill="none" xmlns="http://www.w3.org/2000/svg">
<path d="M5.17822 0.728906H0.457324C0.205078 0.728906 0 0.524512 0 0.271582V0.1875H5.63555V0.272266C5.63555 0.524512 5.43115 0.728906 5.17822 0.728906Z" fill="#429BCF"/>
<path d="M2.81748 3.31396C3.90234 3.31396 4.78145 2.15527 4.78145 0.726562H0.853516C0.853516 2.15596 1.73262 3.31396 2.81748 3.31396Z" fill="#D2EDF7"/>
<path d="M0.482617 6.26953H5.15361C5.42021 6.26953 5.63623 6.48555 5.63623 6.75215V6.81162H0V6.75215C0 6.48486 0.216016 6.26953 0.482617 6.26953Z" fill="#429BCF"/>
<path d="M2.81748 3.67969C1.73262 3.67969 0.853516 4.83838 0.853516 6.26709H4.78213C4.78213 4.83838 3.90234 3.67969 2.81748 3.67969Z" fill="#D2EDF7"/>
<path d="M2.81836 0.726562V3.31396C3.90254 3.31328 4.78164 2.15527 4.78164 0.726562H2.81836Z" fill="#83C6EF"/>
<path d="M2.62695 1.97656H3.00635V3.0874H2.62695V1.97656Z" fill="#D2EDF7"/>
<path d="M2.81641 6.26709H4.78037C4.78037 4.83838 3.90127 3.67969 2.81641 3.67969V6.26709Z" fill="#83C6EF"/>
<path d="M2.81641 1.97656H3.00576V3.0874H2.81641V1.97656Z" fill="#83C6EF"/>
<path d="M1.00586 1.73047C1.30322 2.66152 2.00186 3.31572 2.81738 3.31572C3.63223 3.31572 4.33154 2.66152 4.62891 1.73047H1.00586Z" fill="#FFD858"/>
<path d="M4.56924 6.26855C4.1666 5.79961 3.53223 5.49609 2.81719 5.49609C2.10147 5.49609 1.46709 5.80029 1.06445 6.26855H4.56924Z" fill="#FDC223"/>
<path d="M2.73242 3.2123C2.73242 3.26343 2.7415 3.31246 2.75765 3.34862C2.7738 3.38477 2.79571 3.40508 2.81855 3.40508C2.8414 3.40508 2.86331 3.38477 2.87946 3.34862C2.89561 3.31246 2.90469 3.26343 2.90469 3.2123C2.90469 3.16118 2.89561 3.11215 2.87946 3.07599C2.86331 3.03984 2.8414 3.01953 2.81855 3.01953C2.79571 3.01953 2.7738 3.03984 2.75765 3.07599C2.7415 3.11215 2.73242 3.16118 2.73242 3.2123Z" fill="#FDC223"/>
<path d="M2.73242 3.78262C2.73242 3.83374 2.7415 3.88278 2.75765 3.91893C2.7738 3.95508 2.79571 3.97539 2.81855 3.97539C2.8414 3.97539 2.86331 3.95508 2.87946 3.91893C2.89561 3.88278 2.90469 3.83374 2.90469 3.78262C2.90469 3.73149 2.89561 3.68246 2.87946 3.64631C2.86331 3.61015 2.8414 3.58984 2.81855 3.58984C2.79571 3.58984 2.7738 3.61015 2.75765 3.64631C2.7415 3.68246 2.73242 3.73149 2.73242 3.78262Z" fill="#FDC223"/>
<path d="M2.73047 4.44277C2.73047 4.4939 2.73954 4.54293 2.7557 4.57908C2.77185 4.61524 2.79376 4.63555 2.8166 4.63555C2.83945 4.63555 2.86135 4.61524 2.87751 4.57908C2.89366 4.54293 2.90273 4.4939 2.90273 4.44277C2.90273 4.39165 2.89366 4.34261 2.87751 4.30646C2.86135 4.27031 2.83945 4.25 2.8166 4.25C2.79376 4.25 2.77185 4.27031 2.7557 4.30646C2.73954 4.34261 2.73047 4.39165 2.73047 4.44277Z" fill="#FDC223"/>
<path d="M2.07021 2.52402C1.82959 2.52402 1.59717 2.50898 1.375 2.48369C1.73389 2.9957 2.24658 3.31699 2.81738 3.31699C3.62812 3.31699 4.32402 2.66963 4.62344 1.74609C4.25088 2.19863 3.2501 2.52402 2.07021 2.52402Z" fill="#FDC223"/>
<path d="M2.81641 0.1875V0.72959H5.22129C5.44961 0.72959 5.63418 0.544336 5.63418 0.316699V0.1875H2.81641ZM5.22129 6.26943H2.81709V6.81152H5.63418V6.68301C5.63418 6.45469 5.44893 6.26943 5.22129 6.26943Z" fill="#1A7FC0"/>
</svg>
