<svg width="40" height="40" viewBox="0 0 40 40" fill="none" xmlns="http://www.w3.org/2000/svg">
<rect width="40" height="40" rx="10" fill="#EDF4FF"/>
<g clip-path="url(#clip0_3569_40423)">
<path d="M26.75 28.125H13.25C11.5 28.125 10 26.75 10 24.875V15.125C10 13.375 11.375 11.875 13.25 11.875H26.875C28.625 11.875 30.125 13.25 30.125 15.125V25C30 26.75 28.625 28.125 26.75 28.125ZM13.25 13.125C12.125 13.125 11.25 14 11.25 15.125V25C11.25 26.125 12.125 27 13.25 27H26.875C28 27 28.875 26.125 28.875 25V15.125C28.875 14 28 13.125 26.875 13.125H13.25Z" fill="#3B6DEC"/>
<path d="M17.125 21.25C15.625 21.25 14.375 20 14.375 18.5C14.375 17 15.625 15.75 17.125 15.75C18.625 15.75 19.875 17 19.875 18.5C19.875 20.125 18.625 21.25 17.125 21.25ZM17.125 17C16.25 17 15.5 17.75 15.5 18.5C15.5 19.25 16.25 20 17.125 20C18 20 18.625 19.375 18.625 18.5C18.625 17.625 17.875 17 17.125 17Z" fill="#3B6DEC"/>
<path d="M21.2503 24.5C21.0003 24.5 20.7503 24.25 20.6253 24C20.1253 21.625 18.2503 21.25 17.1253 21.25C16.0003 21.25 14.1253 21.625 13.7503 24C13.6253 24.375 13.3753 24.5 13.0003 24.5C12.6253 24.375 12.3753 24.125 12.5003 23.75C13.0003 21.5 14.7503 20 17.1253 20C19.5003 20 21.3753 21.375 21.7503 23.75C21.8753 24.125 21.6253 24.375 21.2503 24.5Z" fill="#3B6DEC"/>
<path d="M26.875 18.75H23.125C22.75 18.75 22.5 18.5 22.5 18.125C22.5 17.75 22.75 17.5 23.125 17.5H26.875C27.25 17.5 27.5 17.75 27.5 18.125C27.5 18.5 27.25 18.75 26.875 18.75Z" fill="#3B6DEC"/>
<path d="M24.375 21.75H23.125C22.75 21.75 22.5 21.5 22.5 21.125C22.5 20.75 22.75 20.5 23.125 20.5H24.375C24.75 20.5 25 20.75 25 21.125C25 21.5 24.75 21.75 24.375 21.75Z" fill="#3B6DEC"/>
</g>
<defs>
<clipPath id="clip0_3569_40423">
<rect width="20.1367" height="20" fill="white" transform="translate(10 10)"/>
</clipPath>
</defs>
</svg>
