<svg viewBox="0 0 1024 1024" version="1.1" xmlns="http://www.w3.org/2000/svg" width="200" height="200">
  <path d="M160 714h-32V184h640v31h64v-95H64v658h96z"></path>
  <path d="M192 246v658h768V246H192z m113.277 594l73.253-121.441 108.826 72.622 60.322 40.251 32.422-64.897 110.035-220.127L851.742 840H305.277z m382.151-431.286L522.857 737.93 358.286 628.107 256 797.814V310h640v477.707L687.428 408.714z"></path>
  <path d="M450.001 382.286c-51.126 0-92.572 41.445-92.572 92.571s41.446 92.572 92.572 92.572c51.126 0 92.57-41.445 92.57-92.572 0-51.126-41.444-92.571-92.57-92.571z m0 121.143c-15.755 0-28.572-12.817-28.572-28.572 0-15.754 12.817-28.571 28.572-28.571 15.754 0 28.57 12.817 28.57 28.571 0 15.754-12.816 28.572-28.57 28.572z"></path>
</svg>
