<svg width="24" height="24" viewBox="0 0 24 24" xmlns="http://www.w3.org/2000/svg">
  <path fill-rule="evenodd" clip-rule="evenodd" d="M12 1.5C17.799 1.5 22.5 6.20101 22.5 12C22.5 17.799 17.799 22.5 12 22.5C6.20101 22.5 1.5 17.799 1.5 12C1.5 6.20101 6.20101 1.5 12 1.5Z" />
  <path fill-rule="evenodd" clip-rule="evenodd" d="M12.8123 10.0597C13.0056 10.0597 13.1623 10.2164 13.1623 10.4097L13.1622 15.3512L14.2007 15.3524C14.4171 15.3524 14.5927 15.5279 14.5927 15.7444V16.9988C14.5927 17.2153 14.4171 17.3908 14.2007 17.3908H9.87638C9.65988 17.3908 9.48438 17.2153 9.48438 16.9988V15.7444C9.48438 15.5279 9.65988 15.3524 9.87638 15.3524L10.9222 15.3512V12.1228L10.7209 12.1239C10.5044 12.1239 10.3289 11.9484 10.3289 11.7319V10.4571C10.3289 10.2406 10.5044 10.0651 10.7209 10.0651L11.2188 10.0639C11.2365 10.0611 11.2546 10.0597 11.273 10.0597H12.8123ZM12.6072 6.625C12.8237 6.625 12.9992 6.8005 12.9992 7.017V8.473C12.9992 8.6895 12.8237 8.865 12.6072 8.865H11.1512C10.9347 8.865 10.7592 8.6895 10.7592 8.473V7.017C10.7592 6.8005 10.9347 6.625 11.1512 6.625H12.6072Z" fill="white"/>
</svg>
