<svg width="13" height="15" viewBox="0 0 13 15" fill="none" xmlns="http://www.w3.org/2000/svg">
<path d="M8.03124 2.13797C8.03124 2.36602 8.06792 2.60262 8.14126 2.84778C8.21461 3.09293 8.33073 3.32383 8.48965 3.54048C8.64856 3.75713 8.85026 3.93387 9.09474 4.07069C9.33922 4.20753 9.62649 4.27594 9.95654 4.27594H12.6336V12.862C12.6336 13.1927 12.5633 13.4892 12.4228 13.7514C12.2822 14.0137 12.0988 14.236 11.8727 14.4185C11.6465 14.6009 11.3929 14.7434 11.1117 14.8461C10.8306 14.9487 10.5494 15 10.2683 15H2.36537C2.13311 15 1.87946 14.9373 1.60442 14.8119C1.32937 14.6864 1.07267 14.5211 0.834296 14.3158C0.595926 14.1106 0.397284 13.8769 0.23837 13.6146C0.0794567 13.3523 0 13.0787 0 12.7936V2.20639C0 1.96693 0.0611204 1.71893 0.183362 1.46237C0.305603 1.20582 0.467572 0.969213 0.66927 0.752565C0.870968 0.535918 1.10017 0.356328 1.35688 0.213797C1.61358 0.0712657 1.88251 0 2.16367 0H8.03124V2.13797ZM5.73922 11.7674C5.73922 11.6306 5.70561 11.4966 5.63837 11.3654C5.57114 11.2343 5.48252 11.1174 5.3725 11.0148C5.26248 10.9122 5.13413 10.8295 4.98744 10.7668C4.84075 10.7041 4.69406 10.6727 4.54737 10.6727H2.31036C1.99253 10.6727 1.71749 10.7811 1.48523 10.9977C1.25297 11.2144 1.13684 11.4652 1.13684 11.7503V12.8449H5.73922V11.7674ZM9.95654 11.0832C10.091 11.1403 10.2499 11.0946 10.4333 10.9464C10.6166 10.7982 10.7725 10.6129 10.9009 10.3905C11.0292 10.1682 11.1026 9.94869 11.1209 9.73204C11.1392 9.51539 11.0567 9.37286 10.8734 9.30445C10.7267 9.23603 10.528 9.14481 10.2774 9.03079C10.0268 8.91676 9.75485 8.78278 9.46147 8.62885C9.16809 8.47491 8.85637 8.31243 8.52632 8.14139C8.19627 7.97035 7.87233 7.79932 7.5545 7.62828C7.6034 7.57127 7.64618 7.50855 7.68286 7.44014C7.71953 7.37172 7.76231 7.30901 7.81121 7.252C7.79899 7.21779 7.79287 7.17788 7.79287 7.13227C7.79287 7.04105 7.82343 6.95838 7.88455 6.88426C7.94567 6.81015 8.02513 6.76169 8.12292 6.73888C8.29406 6.33979 8.23294 6.02623 7.93956 5.79818C7.79287 5.68415 7.64007 5.56727 7.48116 5.44755C7.32225 5.32782 7.16333 5.20525 7.00442 5.07982C6.75994 4.88597 6.54296 4.79761 6.35348 4.81471C6.16401 4.83181 5.98982 4.92018 5.8309 5.07982C5.8798 5.13683 5.90425 5.21665 5.90425 5.31927C5.90425 5.42189 5.86452 5.51311 5.78506 5.59293C5.70561 5.67275 5.60476 5.71266 5.48252 5.71266C5.45807 5.71266 5.40917 5.70125 5.33583 5.67845C5.15246 5.9179 4.95994 6.16876 4.75824 6.43101C4.55654 6.69327 4.36401 6.94413 4.18065 7.18358C4.29066 7.252 4.34567 7.35462 4.34567 7.49145C4.34567 7.60547 4.30594 7.69954 4.22649 7.77366C4.14703 7.84778 4.04618 7.88483 3.92394 7.88483C3.82615 7.88483 3.74669 7.86203 3.68557 7.81642C3.67335 7.83922 3.66418 7.85348 3.65807 7.85918C3.65195 7.86488 3.64279 7.87913 3.63056 7.90194C3.4961 8.08438 3.4472 8.24116 3.48387 8.37229C3.52055 8.50342 3.6 8.60319 3.72224 8.67161C3.91783 8.79704 4.14397 8.95097 4.40068 9.13341C4.65739 9.31585 4.88965 9.47548 5.09746 9.61231C5.26859 9.70354 5.47946 9.73204 5.73005 9.69783C5.98065 9.66363 6.16707 9.59521 6.28931 9.49259C6.25263 9.44698 6.2343 9.38426 6.2343 9.30445C6.2343 9.20182 6.27403 9.1106 6.35348 9.03079C6.43294 8.95097 6.53379 8.91106 6.65603 8.91106C6.66826 8.91106 6.68048 8.91676 6.6927 8.92816C6.71715 8.88255 6.75382 8.82554 6.80272 8.75713C7.07165 8.99658 7.35281 9.23603 7.64618 9.47548C7.93956 9.71494 8.22377 9.94014 8.49882 10.1511C8.77386 10.362 9.03668 10.5502 9.28727 10.7155C9.53787 10.8808 9.76096 11.0034 9.95654 11.0832ZM11.1667 1.16306C11.4968 1.43672 11.7596 1.67047 11.9552 1.86431C12.1508 2.05815 12.3005 2.22064 12.4044 2.35177C12.5083 2.4829 12.5725 2.59122 12.597 2.67674C12.6214 2.76226 12.6336 2.84493 12.6336 2.92474V3.1813H9.9382C9.80374 3.1813 9.69067 3.14139 9.59899 3.06157C9.50731 2.98176 9.43091 2.88483 9.36979 2.77081C9.30867 2.65678 9.26282 2.53991 9.23226 2.42018C9.2017 2.30046 9.18642 2.20068 9.18642 2.12087V0H9.2231C9.33311 0 9.43702 0.0142532 9.53481 0.0427594C9.6326 0.0712657 9.75179 0.125428 9.89237 0.205245C10.0329 0.285063 10.2041 0.401938 10.4058 0.555872C10.6075 0.709806 10.8611 0.9122 11.1667 1.16306Z" fill="white"/>
</svg>
