<svg width="10" height="10" viewBox="0 0 10 10" fill="none" xmlns="http://www.w3.org/2000/svg">
<path d="M8.05841 2.85547C8.07072 2.85552 8.08278 2.85898 8.09326 2.86545C8.10373 2.87193 8.11222 2.88117 8.11778 2.89216C8.12334 2.90314 8.12575 2.91545 8.12476 2.92773C8.12377 2.94 8.11941 2.95177 8.11216 2.96172L5.16028 7.03047C5.13554 7.06468 5.10304 7.09253 5.06545 7.11173C5.02786 7.13094 4.98625 7.14095 4.94403 7.14095C4.90182 7.14095 4.8602 7.13094 4.82261 7.11173C4.78502 7.09253 4.75252 7.06468 4.72778 7.03047L1.77591 2.96172C1.76886 2.95167 1.76468 2.93988 1.76383 2.92764C1.76298 2.91539 1.76549 2.90314 1.77108 2.89221C1.77668 2.88128 1.78514 2.87209 1.79558 2.86561C1.80601 2.85914 1.81801 2.85563 1.83028 2.85547H2.45528C2.47635 2.85552 2.49712 2.86052 2.5159 2.87007C2.53469 2.87963 2.55096 2.89347 2.56341 2.91047L4.93841 6.18859L7.32216 2.91047C7.3346 2.89347 7.35088 2.87963 7.36966 2.87007C7.38844 2.86052 7.40921 2.85552 7.43028 2.85547H8.05528H8.05841Z" fill="#A3A3A3"/>
</svg>
