<svg width="47" height="47" viewBox="0 0 47 47" fill="none" xmlns="http://www.w3.org/2000/svg">
<path d="M23.5013 37.2084C19.8656 37.2084 16.3789 35.7641 13.808 33.1933C11.2372 30.6225 9.79297 27.1358 9.79297 23.5001C9.79297 19.8644 11.2372 16.3776 13.808 13.8068C16.3789 11.236 19.8656 9.79175 23.5013 9.79175C27.137 9.79175 30.6237 11.236 33.1946 13.8068C35.7654 16.3776 37.2096 19.8644 37.2096 23.5001C37.2096 27.1358 35.7654 30.6225 33.1946 33.1933C30.6237 35.7641 27.137 37.2084 23.5013 37.2084ZM23.5013 31.3334C27.8292 31.3334 31.3346 28.0591 31.3346 26.4376C31.3346 24.8161 27.8292 27.4167 23.5013 27.4167C19.1734 27.4167 15.668 24.8161 15.668 26.4376C15.668 28.0591 19.1734 31.3334 23.5013 31.3334Z" fill="url(#paint0_linear_1872_12689)"/>
<path d="M33.0712 41.26C32.8149 41.8849 32.351 42.4023 31.7578 42.7252C31.1646 43.048 30.4782 43.1566 29.8143 43.0327C29.1504 42.9087 28.5495 42.5597 28.1128 42.0445C27.6761 41.5293 27.4302 40.8794 27.4166 40.2041C27.4031 39.5289 27.6226 38.8695 28.0383 38.3372C28.4539 37.8049 29.0403 37.432 29.6987 37.2815C30.3571 37.1309 31.0473 37.2119 31.653 37.5106C32.2587 37.8094 32.743 38.3078 33.0242 38.9218C37.4109 35.6788 40.1447 30.3365 40.1447 24.4693C40.1447 14.7325 32.6795 6.85409 23.4989 6.85409C14.3182 6.85409 6.85305 14.7305 6.85305 24.4713C6.85258 26.4885 7.1793 28.4924 7.82046 30.405C7.86584 30.5278 7.88614 30.6584 7.88015 30.7892C7.87417 30.92 7.84202 31.0482 7.78562 31.1663C7.72921 31.2845 7.64969 31.3901 7.55176 31.4769C7.45383 31.5638 7.33948 31.6302 7.21547 31.6721C7.09145 31.714 6.96029 31.7306 6.82974 31.7209C6.6992 31.7113 6.57191 31.6755 6.45542 31.6158C6.33892 31.5561 6.23558 31.4737 6.1515 31.3733C6.06743 31.273 6.00432 31.1568 5.96592 31.0317C5.77929 30.4802 5.61659 29.9209 5.4783 29.3553C4.54579 29.2617 3.67779 28.8367 3.03187 28.1576C2.38596 27.4786 2.00496 26.5904 1.95804 25.6544C1.91112 24.7183 2.20139 23.7965 2.77616 23.0563C3.35093 22.316 4.17208 21.8064 5.09055 21.6199C6.40263 12.169 14.1341 4.89575 23.4989 4.89575C32.8636 4.89575 40.5951 12.169 41.9072 21.6199C42.8257 21.8067 43.6468 22.3167 44.2213 23.0573C44.7958 23.7979 45.0857 24.72 45.0383 25.6561C44.9909 26.5922 44.6094 27.4803 43.963 28.159C43.3166 28.8378 42.4482 29.2623 41.5155 29.3553C40.3053 34.3178 37.2758 38.6026 33.0712 41.26Z" fill="url(#paint1_linear_1872_12689)"/>
<defs>
<linearGradient id="paint0_linear_1872_12689" x1="23.5013" y1="9.79175" x2="23.5013" y2="37.2084" gradientUnits="userSpaceOnUse">
<stop offset="0.39375" stop-color="#3887FF"/>
<stop offset="1" stop-color="#68A2FD"/>
</linearGradient>
<linearGradient id="paint1_linear_1872_12689" x1="23.4982" y1="4.89575" x2="23.4982" y2="43.0826" gradientUnits="userSpaceOnUse">
<stop offset="0.39375" stop-color="#3887FF"/>
<stop offset="1" stop-color="#68A2FD"/>
</linearGradient>
</defs>
</svg>
