<svg width="48" height="48" viewBox="0 0 48 48" fill="none" xmlns="http://www.w3.org/2000/svg">
<circle cx="24" cy="24" r="24" transform="rotate(-180 24 24)" fill="#F0F5FE"/>
<path d="M30.8581 33.7838C30.8579 33.8232 30.8468 33.8618 30.8261 33.8953C30.8054 33.9288 30.7758 33.956 30.7407 33.9738C30.7055 33.9915 30.6661 33.9993 30.6268 33.9961C30.5876 33.9929 30.5499 33.979 30.5181 33.9558L17.4981 24.5098C17.3886 24.4306 17.2995 24.3266 17.238 24.2063C17.1766 24.086 17.1445 23.9529 17.1445 23.8178C17.1445 23.6827 17.1766 23.5495 17.238 23.4292C17.2995 23.3089 17.3886 23.2049 17.4981 23.1258L30.5181 13.6798C30.5502 13.6572 30.5879 13.6439 30.6271 13.6411C30.6663 13.6384 30.7055 13.6464 30.7405 13.6643C30.7755 13.6822 30.8049 13.7093 30.8256 13.7427C30.8463 13.7761 30.8576 13.8145 30.8581 13.8538L30.8581 15.8538C30.8579 15.9212 30.8419 15.9877 30.8113 16.0478C30.7808 16.1079 30.7365 16.1599 30.6821 16.1998L20.1921 23.7998L30.6821 31.4278C30.7365 31.4676 30.7808 31.5197 30.8113 31.5798C30.8419 31.6399 30.8579 31.7063 30.8581 31.7738L30.8581 33.7738L30.8581 33.7838Z" fill="#1890FF"/>
</svg>
