<svg width="64" height="64" viewBox="0 0 64 64" fill="none" xmlns="http://www.w3.org/2000/svg">
<circle cx="32" cy="32" r="32" fill="#D6FFE3"/>
<path d="M32 51C21.5063 51 13 42.4937 13 32C13 21.5063 21.5063 13 32 13C42.4937 13 51 21.5063 51 32C51 42.4937 42.4937 51 32 51ZM31.7264 35.6081C31.2455 35.6191 30.7672 35.5339 30.3197 35.3575C29.8722 35.1811 29.4644 34.917 29.1204 34.5808C28.7764 34.2446 28.503 33.843 28.3164 33.3996C28.1297 32.9563 28.0336 32.4801 28.0336 31.9991C28.0336 31.518 28.1297 31.0418 28.3164 30.5985C28.503 30.1551 28.7764 29.7535 29.1204 29.4173C29.4644 29.0811 29.8722 28.817 30.3197 28.6406C30.7672 28.4642 31.2455 28.379 31.7264 28.39C32.6692 28.4116 33.5662 28.8014 34.2254 29.4758C34.8845 30.1503 35.2536 31.056 35.2536 31.9991C35.2536 32.9421 34.8845 33.8478 34.2254 34.5223C33.5662 35.1967 32.6692 35.5865 31.7264 35.6081ZM40.2536 21.4056L26.7104 26.5242C26.5128 26.6002 26.3345 26.7193 26.1886 26.8728C26.0427 27.0262 25.9328 27.2103 25.8668 27.4115L21.3942 40.7609C21.0104 41.9009 22.0649 42.9953 23.1707 42.6077L36.6569 37.8672C36.8623 37.7932 37.0479 37.673 37.1994 37.5158C37.351 37.3587 37.4644 37.1688 37.5309 36.9609L42.0605 23.2334C42.4405 22.0801 41.3594 20.9838 40.2517 21.4056H40.2536Z" fill="#31CB62"/>
</svg>
