<svg width="26" height="26" viewBox="0 0 26 26" xmlns="http://www.w3.org/2000/svg">
<path d="M23.7359 1H2.2641C1.56765 1 1 1.5784 1 2.28322V24.358C1 24.835 1.49312 25.1451 1.91349 24.931L6.05163 22.8285H23.7359C24.4294 22.8285 25 22.2501 25 21.5453V2.28561C25 1.5784 24.4323 1 23.7359 1ZM23.7359 20.9025C23.7359 21.2561 23.4521 21.5453 23.1039 21.5453H6.05163L2.26171 23.4713V2.92603C2.26171 2.57242 2.54554 2.28322 2.89376 2.28322H23.1039C23.4521 2.28322 23.7359 2.57242 23.7359 2.92603V20.9025Z"  stroke="#A3A3A3" stroke-width="0.5"/>
<path d="M8.664 4.576L9.544 4.744C9.424 5.656 9.192 6.648 8.944 7.28C8.76 7.16 8.352 6.984 8.136 6.896C8.384 6.328 8.568 5.408 8.664 4.576ZM11.12 4.672L11.944 4.392C12.304 5.088 12.624 5.984 12.76 6.584L11.872 6.904C11.768 6.296 11.44 5.368 11.12 4.672ZM11.608 7.144L12.512 7.408C11.832 9.32 10.464 10.2 8.272 10.68C8.184 10.408 7.968 10.032 7.768 9.808C9.76 9.48 11.016 8.768 11.608 7.144ZM9.896 3.208H10.808V8.168H9.896V3.208ZM6.32 3.2H7.248V4.728H8.112V5.616H7.248V6.792L8.064 6.592L8.176 7.464L7.248 7.712V9.656C7.248 10.12 7.16 10.352 6.896 10.496C6.624 10.64 6.24 10.664 5.672 10.656C5.648 10.424 5.528 10.04 5.408 9.8C5.728 9.808 6.064 9.808 6.16 9.808C6.272 9.808 6.32 9.768 6.32 9.648V7.952L5.416 8.184L5.176 7.264C5.504 7.2 5.896 7.112 6.32 7.016V5.616H5.312V4.728H6.32V3.2ZM13.52 3.576H20.48V5.384H19.48V4.464H14.48V5.384H13.52V3.576ZM13.688 8.192H18.136V9.072H13.688V8.192ZM15.264 4.56L16.224 4.648L16.104 5.296H19.408V6.128H15.944L15.8 6.8H19.784C19.784 6.8 19.768 7.072 19.752 7.192C19.576 9.144 19.392 9.968 19.072 10.304C18.84 10.544 18.6 10.616 18.24 10.64C17.952 10.672 17.44 10.664 16.92 10.648C16.904 10.376 16.776 9.992 16.6 9.752C17.128 9.792 17.656 9.8 17.888 9.8C18.064 9.8 18.168 9.784 18.264 9.704C18.472 9.536 18.632 8.912 18.752 7.64H14.616C14.832 6.84 15.104 5.552 15.264 4.56ZM6.344 13.2H7.24V14.696H8.096V15.584H7.24V15.736C7.44 15.992 8.056 16.936 8.192 17.176L7.632 17.888C7.552 17.632 7.4 17.264 7.24 16.904V20.712H6.344V17.472C6.128 18.184 5.864 18.832 5.592 19.264C5.512 19 5.312 18.552 5.168 18.304C5.648 17.72 6.072 16.568 6.304 15.584H5.368V14.696H6.344V13.2ZM9.296 16.272C9.264 17.384 9.112 18.776 8.632 19.92C9.232 19.672 9.752 19.296 10.184 18.792C9.784 18.08 9.504 17.232 9.296 16.272ZM11.968 13.256L12.624 14.024C11.72 14.368 10.472 14.536 9.304 14.608V15.416H11.672L11.84 15.392L12.44 15.56C12.256 16.912 11.88 17.984 11.336 18.832C11.736 19.304 12.232 19.68 12.84 19.92C12.624 20.112 12.336 20.488 12.2 20.744C11.608 20.464 11.128 20.08 10.728 19.6C10.296 20.064 9.776 20.432 9.192 20.72C9.064 20.488 8.816 20.128 8.624 19.936C8.496 20.232 8.352 20.512 8.176 20.76C8.008 20.592 7.608 20.304 7.384 20.216C8.296 18.92 8.368 17.024 8.368 15.728V13.824C9.664 13.768 11.112 13.592 11.968 13.256ZM11.384 16.272H10.152C10.296 16.88 10.496 17.448 10.76 17.96C11.032 17.464 11.24 16.904 11.384 16.272Z" />
<path d="M19.4039 13.1837C19.1444 12.9244 18.7061 12.9414 18.4243 13.2232L14.0973 17.5512L14 20L16.4483 19.9027L20.7766 15.5735C21.0587 15.2913 21.0756 14.8529 20.8161 14.5937L19.4039 13.1837ZM16.1973 19.2104L14.7132 19.2854L14.7879 17.801L15.1738 17.4144L16.5835 18.8244L16.1976 19.2104H16.1973ZM17.0541 18.3549L15.6447 16.9452L17.5251 15.0644L18.9345 16.4742L17.0541 18.3549ZM20.0932 15.3139L19.4023 16.0047L17.9929 14.595L18.6835 13.9042C18.8275 13.7605 19.0487 13.7492 19.1783 13.8788L20.1186 14.819C20.2482 14.9489 20.2369 15.1702 20.0932 15.3139Z" />
</svg>
