<svg width="24" height="24" viewBox="0 0 24 24" xmlns="http://www.w3.org/2000/svg">
<path d="M19.9478 22.4766H10.022C8.49619 22.4766 7.25635 21.2344 7.25635 19.7109V16.1531C7.25635 15.7172 7.61025 15.3633 8.04619 15.3633C8.48213 15.3633 8.83604 15.7172 8.83604 16.1531V19.7109C8.83604 20.3649 9.36807 20.8969 10.022 20.8969H19.9478C20.3603 20.8969 20.6931 20.5617 20.6931 20.1516V3.85548C20.6931 3.44298 20.3579 3.11017 19.9478 3.11017H9.58135C9.16885 3.11017 8.83604 3.44532 8.83604 3.85548V8.24767C8.83604 8.68361 8.48213 9.03751 8.04619 9.03751C7.61025 9.03751 7.25635 8.68361 7.25635 8.24767V3.85548C7.25635 2.57111 8.29932 1.52814 9.58369 1.52814H19.9501C21.2321 1.52814 22.2774 2.57111 22.2774 3.85548V20.1492C22.2751 21.4336 21.2298 22.4766 19.9478 22.4766Z" />
<path d="M11.365 16.718C11.1635 16.718 10.9596 16.6406 10.8072 16.4859C10.4979 16.1766 10.4979 15.6773 10.8072 15.368L13.8166 12.3586C14.0182 12.157 14.0182 11.8312 13.8166 11.6297L10.8189 8.63436C10.5096 8.32499 10.5096 7.82577 10.8189 7.51639C11.1283 7.20702 11.6275 7.20702 11.9369 7.51639L14.9322 10.5141C15.7502 11.332 15.7502 12.6609 14.9322 13.4789L11.9229 16.4883C11.7682 16.6406 11.5666 16.718 11.365 16.718Z" />
<path d="M14.7656 12.7922H2.5125C2.07656 12.7922 1.72266 12.4383 1.72266 12.0024C1.72266 11.5664 2.07656 11.2125 2.5125 11.2125H14.7656C15.2016 11.2125 15.5555 11.5664 15.5555 12.0024C15.5555 12.4383 15.2016 12.7922 14.7656 12.7922Z" />
</svg>
