<svg width="27" height="27" viewBox="0 0 24 24" fill="none" xmlns="http://www.w3.org/2000/svg">
<g clip-path="url(#clip0_3593_44754)">
<path d="M11.3259 0.000685711L0.683594 11.2978V24L23.3122 0L11.3259 0.000685711Z" fill="#52C41A"/>
<path d="M8.71269 12.683L8.05371 13.3433L4.81714 12.6706C4.6851 12.645 4.55478 12.6111 4.42697 12.5691L4.41737 12.5787C4.59175 12.7249 4.7586 12.8798 4.91726 13.043L6.63566 14.762L6.02537 15.373L3 12.3524L3.70217 11.6496L6.83726 12.3147C7.04526 12.3604 7.17531 12.3902 7.22743 12.4039L7.23703 12.3943C7.08172 12.2725 6.9355 12.1396 6.79954 11.9966L5.0784 10.2734L5.68869 9.66238L8.71269 12.683ZM11.0037 10.3892L9.21531 12.1803L6.18994 9.15975L7.90834 7.4393L8.43566 7.96592L7.36114 9.04181L8.07429 9.75358L9.07269 8.75381L9.59794 9.27838L8.59954 10.2782L9.32983 11.0091L10.4743 9.86261L11.0037 10.3892ZM12.3662 2.97461L14.5858 6.80227L13.8699 7.51884L11.3829 6.06444C11.2459 5.98301 11.1176 5.88765 11.0002 5.77987L10.9927 5.78741C11.096 5.90904 11.1894 6.03884 11.2718 6.17552L12.7179 8.67289L11.9746 9.41689L8.14423 7.20272L8.85051 6.49575L11.3499 8.09415C11.4842 8.18376 11.6114 8.28348 11.7305 8.39244L11.7442 8.37872C11.6342 8.25162 11.5373 8.11378 11.4549 7.9673L9.97577 5.36707L10.6615 4.68135L13.2384 6.23312C13.3683 6.31489 13.4916 6.40659 13.6073 6.50741L13.6169 6.49781C13.5101 6.38119 13.4139 6.2552 13.3296 6.12135L11.7141 3.63015L12.3662 2.97461Z" fill="white"/>
</g>
<defs>
<clipPath id="clip0_3593_44754">
<rect width="24" height="24" fill="white"/>
</clipPath>
</defs>
</svg>
