<svg width="36" height="36" viewBox="0 0 36 36" fill="none" xmlns="http://www.w3.org/2000/svg">
<g clip-path="url(#clip0_1726_31177)">
<path d="M18.5676 33.897C27.4588 33.897 34.6665 26.6893 34.6665 17.7981C34.6665 8.90693 27.4588 1.69922 18.5676 1.69922C9.67646 1.69922 2.46875 8.90693 2.46875 17.7981C2.46875 26.6893 9.67646 33.897 18.5676 33.897Z" fill="url(#paint0_linear_1726_31177)"/>
<path d="M32.6357 10.0176C33.0785 10.0176 33.4375 9.65861 33.4375 9.21581C33.4375 8.77302 33.0785 8.41406 32.6357 8.41406C32.1929 8.41406 31.834 8.77302 31.834 9.21581C31.834 9.65861 32.1929 10.0176 32.6357 10.0176Z" stroke="#67A4FF" stroke-width="4"/>
<path d="M22.2002 34.0449C22.643 34.0449 23.0019 33.686 23.0019 33.2432C23.0019 32.8004 22.643 32.4414 22.2002 32.4414C21.7574 32.4414 21.3984 32.8004 21.3984 33.2432C21.3984 33.686 21.7574 34.0449 22.2002 34.0449Z" stroke="#67A4FF" stroke-width="4"/>
<g filter="url(#filter0_f_1726_31177)">
<path d="M6.91749 18.9297L7.19061 19.6678L7.92872 19.9409L7.19061 20.214L6.91749 20.9522L6.64436 20.214L5.90625 19.9409L6.64436 19.6678L6.91749 18.9297Z" fill="#67A4FF"/>
</g>
<path d="M32.6086 23.4609L33.0146 24.5581L34.1117 24.9641L33.0146 25.3701L32.6086 26.4672L32.2026 25.3701L31.1055 24.9641L32.2026 24.5581L32.6086 23.4609Z" fill="#67A4FF"/>
<g filter="url(#filter1_f_1726_31177)">
<path d="M11.6415 2.83203L12.1308 4.15424L13.453 4.6435L12.1308 5.13276L11.6415 6.45497L11.1523 5.13276L9.83008 4.6435L11.1523 4.15424L11.6415 2.83203Z" fill="#67A4FF"/>
</g>
<mask id="mask0_1726_31177" style="mask-type:luminance" maskUnits="userSpaceOnUse" x="8" y="8" width="20" height="20">
<path d="M27.4644 8.73828H8.45312V27.7495H27.4644V8.73828Z" fill="white"/>
</mask>
<g mask="url(#mask0_1726_31177)">
<path d="M13.5662 14.9486V25.7461L15.1209 24.8006L16.6756 25.7461L18.2303 24.8006L19.7847 25.7461L21.3396 24.8006L22.8941 25.7461L24.4486 24.8006L26.0036 25.7461V12.501C26.0036 11.6224 25.2927 10.9102 24.4154 10.9102H11.9785" fill="url(#paint1_linear_1726_31177)"/>
<path d="M10.3908 18.9329H13.5663V12.3592C13.5663 11.5589 12.9189 10.9102 12.12 10.9102H11.837C11.0383 10.9102 10.3906 11.5589 10.3906 12.3592V18.9329H10.3908Z" fill="url(#paint2_linear_1726_31177)"/>
<path d="M26.0039 20.5426C26.0805 20.5425 26.1541 20.512 26.2083 20.4577C26.2625 20.4033 26.2928 20.3298 26.2928 20.253V12.5015C26.2928 11.4646 25.451 10.6211 24.4162 10.6211H11.9784C10.9435 10.6211 10.1016 11.4648 10.1016 12.5015V17.1164C10.1015 17.1931 10.1319 17.2667 10.1861 17.321C10.2403 17.3753 10.3138 17.4059 10.3905 17.406C10.4672 17.4059 10.5408 17.3753 10.595 17.321C10.6492 17.2667 10.6796 17.1931 10.6795 17.1164V12.5015C10.6795 11.784 11.2621 11.2003 11.9782 11.2003C12.6943 11.2003 13.2769 11.7842 13.2769 12.5015V18.6438H10.6797V18.1759C10.6798 18.0992 10.6494 18.0256 10.5952 17.9713C10.541 17.917 10.4675 17.8865 10.3907 17.8863C10.314 17.8865 10.2404 17.9171 10.1862 17.9715C10.132 18.0258 10.1016 18.0994 10.1016 18.1762V18.9336C10.1015 19.0104 10.1319 19.0839 10.1861 19.1383C10.2403 19.1926 10.3138 19.2232 10.3905 19.2232H13.2771V25.7467C13.2771 25.7979 13.2908 25.8482 13.3166 25.8925C13.3425 25.9368 13.3796 25.9734 13.4243 25.9985C13.4689 26.0237 13.5195 26.0366 13.5707 26.0358C13.622 26.0351 13.6721 26.0207 13.716 25.9942L15.1207 25.1399L16.5255 25.9942C16.6176 26.0502 16.7331 26.0502 16.8254 25.9942L18.2301 25.1399L19.6348 25.9942C19.727 26.0502 19.8425 26.0502 19.9348 25.9942L21.3395 25.1399L22.7443 25.9942C22.8363 26.0502 22.9517 26.0502 23.0442 25.9942L24.4489 25.1399L25.8535 25.9942C25.8972 26.0209 25.9474 26.0355 25.9988 26.0363C26.0501 26.0371 26.1007 26.0242 26.1453 25.9988C26.19 25.9736 26.2271 25.9369 26.253 25.8926C26.2788 25.8484 26.2924 25.798 26.2923 25.7467V21.3128C26.2923 21.1529 26.1631 21.0232 26.0034 21.0232C25.8437 21.0232 25.7144 21.1529 25.7144 21.3128V25.2323L24.5987 24.5538C24.5535 24.5262 24.5016 24.5117 24.4487 24.5117C24.3958 24.5117 24.3439 24.5262 24.2987 24.5538L22.8943 25.408L21.4895 24.5538C21.4443 24.5262 21.3925 24.5117 21.3395 24.5117C21.2866 24.5117 21.2347 24.5262 21.1896 24.5538L19.7848 25.408L18.3803 24.5538C18.3351 24.5262 18.2833 24.5117 18.2304 24.5117C18.1774 24.5117 18.1255 24.5262 18.0804 24.5538L16.6754 25.408L15.2707 24.5538C15.2256 24.5262 15.1737 24.5117 15.1208 24.5117C15.068 24.5117 15.0161 24.5262 14.971 24.5538L13.8552 25.2323V12.5015C13.8552 11.9969 13.6554 11.5383 13.3314 11.2003H24.4164C25.1325 11.2003 25.7149 11.7842 25.7149 12.5015V20.253C25.7148 20.3298 25.7452 20.4033 25.7994 20.4577C25.8535 20.512 25.9271 20.5425 26.0039 20.5426Z" fill="#67A4FF"/>
<path d="M17.9997 14.3203H15.7346C15.5112 14.3203 15.3301 14.5014 15.3301 14.7248C15.3301 14.9482 15.5112 15.1293 15.7346 15.1293H17.9997C18.2231 15.1293 18.4042 14.9482 18.4042 14.7248C18.4042 14.5014 18.2231 14.3203 17.9997 14.3203Z" fill="white"/>
<path d="M23.3392 14.3203H19.3752C19.1518 14.3203 18.9707 14.5014 18.9707 14.7248C18.9707 14.9482 19.1518 15.1293 19.3752 15.1293H23.3392C23.5626 15.1293 23.7437 14.9482 23.7437 14.7248C23.7437 14.5014 23.5626 14.3203 23.3392 14.3203Z" fill="white"/>
<path d="M19.8604 16.2617H15.7346C15.5112 16.2617 15.3301 16.4428 15.3301 16.6662C15.3301 16.8896 15.5112 17.0707 15.7346 17.0707H19.8604C20.0838 17.0707 20.2649 16.8896 20.2649 16.6662C20.2649 16.4428 20.0838 16.2617 19.8604 16.2617Z" fill="url(#paint3_linear_1726_31177)"/>
<path d="M18.1615 19.9844H15.7346C15.5112 19.9844 15.3301 20.1655 15.3301 20.3889C15.3301 20.6123 15.5112 20.7934 15.7346 20.7934H18.1615C18.3849 20.7934 18.566 20.6123 18.566 20.3889C18.566 20.1655 18.3849 19.9844 18.1615 19.9844Z" fill="url(#paint4_linear_1726_31177)"/>
<path d="M22.9346 18.1211H15.7346C15.5112 18.1211 15.3301 18.3022 15.3301 18.5256C15.3301 18.749 15.5112 18.9301 15.7346 18.9301H22.9346C23.158 18.9301 23.3391 18.749 23.3391 18.5256C23.3391 18.3022 23.158 18.1211 22.9346 18.1211Z" fill="url(#paint5_linear_1726_31177)"/>
</g>
</g>
<defs>
<filter id="filter0_f_1726_31177" x="1.90625" y="14.9297" width="10.0234" height="10.0234" filterUnits="userSpaceOnUse" color-interpolation-filters="sRGB">
<feFlood flood-opacity="0" result="BackgroundImageFix"/>
<feBlend mode="normal" in="SourceGraphic" in2="BackgroundImageFix" result="shape"/>
<feGaussianBlur stdDeviation="2" result="effect1_foregroundBlur_1726_31177"/>
</filter>
<filter id="filter1_f_1726_31177" x="5.83008" y="-1.16797" width="11.623" height="11.6211" filterUnits="userSpaceOnUse" color-interpolation-filters="sRGB">
<feFlood flood-opacity="0" result="BackgroundImageFix"/>
<feBlend mode="normal" in="SourceGraphic" in2="BackgroundImageFix" result="shape"/>
<feGaussianBlur stdDeviation="2" result="effect1_foregroundBlur_1726_31177"/>
</filter>
<linearGradient id="paint0_linear_1726_31177" x1="18.5676" y1="1.69922" x2="18.5676" y2="33.897" gradientUnits="userSpaceOnUse">
<stop stop-color="white" stop-opacity="0"/>
<stop offset="1" stop-color="#67A4FF" stop-opacity="0.37"/>
</linearGradient>
<linearGradient id="paint1_linear_1726_31177" x1="18.991" y1="10.9102" x2="18.991" y2="25.7461" gradientUnits="userSpaceOnUse">
<stop stop-color="#DEF9FF"/>
<stop offset="0.808917" stop-color="#67A4FF"/>
<stop offset="1" stop-color="#67A4FF"/>
</linearGradient>
<linearGradient id="paint2_linear_1726_31177" x1="11.9785" y1="10.9102" x2="11.9785" y2="18.9329" gradientUnits="userSpaceOnUse">
<stop stop-color="#67A4FF"/>
<stop offset="1" stop-color="#DEF9FF"/>
</linearGradient>
<linearGradient id="paint3_linear_1726_31177" x1="15.3301" y1="16.4235" x2="16.7671" y2="18.8914" gradientUnits="userSpaceOnUse">
<stop stop-color="#DBE1FF"/>
<stop offset="1" stop-color="#BCC7FF" stop-opacity="0"/>
</linearGradient>
<linearGradient id="paint4_linear_1726_31177" x1="15.3301" y1="20.1462" x2="16.9708" y2="21.9938" gradientUnits="userSpaceOnUse">
<stop stop-color="#DBE1FF"/>
<stop offset="1" stop-color="#BCC7FF" stop-opacity="0"/>
</linearGradient>
<linearGradient id="paint5_linear_1726_31177" x1="15.3301" y1="18.2829" x2="16.3805" y2="21.2106" gradientUnits="userSpaceOnUse">
<stop stop-color="#DBE1FF"/>
<stop offset="1" stop-color="#BCC7FF" stop-opacity="0"/>
</linearGradient>
<clipPath id="clip0_1726_31177">
<rect width="36" height="36" fill="white"/>
</clipPath>
</defs>
</svg>
