<svg width="117" height="114" viewBox="0 0 117 114" fill="none" xmlns="http://www.w3.org/2000/svg">
<g id="Not Found illustration 1" clip-path="url(#clip0_1_851)">
<g id="Group">
<g id="Group_2">
<path id="Vector" d="M59.1971 110.636C86.9336 110.636 109.418 88.1214 109.418 60.3475C109.418 32.5737 86.9336 10.0586 59.1971 10.0586C31.4608 10.0586 8.97607 32.5737 8.97607 60.3475C8.97607 88.1214 31.4608 110.636 59.1971 110.636Z" fill="url(#paint0_linear_1_851)"/>
</g>
<g id="Group_3">
<path id="Vector_2" d="M86.2906 21.7598H30.6564C27.1886 21.7598 24.3774 24.5747 24.3774 28.0472H92.5697C92.5697 24.5747 89.7584 21.7598 86.2906 21.7598Z" fill="url(#paint1_linear_1_851)"/>
</g>
<g id="Group_4">
<path id="Vector_3" d="M24.3774 27.877H92.5697V79.8836C92.5697 82.1955 91.6525 84.4131 90.0197 86.048C88.3866 87.6833 86.1724 88.6019 83.8632 88.6019H33.084C30.7749 88.6019 28.5603 87.6833 26.9275 86.048C25.2947 84.4131 24.3774 82.1955 24.3774 79.8836V27.877Z" fill="url(#paint2_linear_1_851)"/>
</g>
<g id="Group_5">
<path id="Vector_4" d="M80.8482 34.4453H36.1216C35.1902 34.4453 34.4351 35.2006 34.4351 36.1323C34.4351 37.064 35.1902 37.8193 36.1216 37.8193H80.8482C81.7795 37.8193 82.5347 37.064 82.5347 36.1323C82.5347 35.2006 81.7795 34.4453 80.8482 34.4453Z" fill="url(#paint3_linear_1_851)"/>
</g>
<g id="Group_6">
<path id="Vector_5" d="M80.8482 48.7793H36.1216C35.1902 48.7793 34.4351 49.5346 34.4351 50.4663C34.4351 51.398 35.1902 52.1533 36.1216 52.1533H80.8482C81.7795 52.1533 82.5347 51.398 82.5347 50.4663C82.5347 49.5346 81.7795 48.7793 80.8482 48.7793Z" fill="url(#paint4_linear_1_851)"/>
</g>
<g id="Group_7">
<path id="Vector_6" d="M80.8482 63.1152H36.1216C35.1902 63.1152 34.4351 63.8705 34.4351 64.8022C34.4351 65.7339 35.1902 66.4892 36.1216 66.4892H80.8482C81.7795 66.4892 82.5347 65.7339 82.5347 64.8022C82.5347 63.8705 81.7795 63.1152 80.8482 63.1152Z" fill="url(#paint5_linear_1_851)"/>
</g>
<g id="Group_8">
<path id="Vector_7" d="M80.8482 77.4492H36.1216C35.1902 77.4492 34.4351 78.2045 34.4351 79.1362C34.4351 80.0679 35.1902 80.8232 36.1216 80.8232H80.8482C81.7795 80.8232 82.5347 80.0679 82.5347 79.1362C82.5347 78.2045 81.7795 77.4492 80.8482 77.4492Z" fill="url(#paint6_linear_1_851)"/>
</g>
<g id="Group_9" filter="url(#filter0_d_1_851)">
<path id="Vector_8" d="M35.8186 60.0391H12.0025C10.0891 60.0391 8.53809 61.5922 8.53809 63.5081V97.5954C8.53809 99.5114 10.0891 101.064 12.0025 101.064H35.8186C37.7319 101.064 39.283 99.5114 39.283 97.5954V63.5081C39.283 61.5922 37.7319 60.0391 35.8186 60.0391Z" fill="url(#paint7_linear_1_851)"/>
</g>
<g id="Group_10" filter="url(#filter1_d_1_851)">
<path id="Vector_9" d="M103.616 6.79492H77.3099C76.0841 6.79492 75.0903 7.78998 75.0903 9.01745V21.3986C75.0903 22.626 76.0841 23.6211 77.3099 23.6211H103.616C104.842 23.6211 105.835 22.626 105.835 21.3986V9.01745C105.835 7.78998 104.842 6.79492 103.616 6.79492Z" fill="url(#paint8_linear_1_851)"/>
</g>
<g id="Group_11">
<path id="Vector_10" d="M33.1612 77.0938H14.6602C14.0373 77.0938 13.5322 77.5995 13.5322 78.2233V78.227C13.5322 78.8508 14.0373 79.3565 14.6602 79.3565H33.1612C33.7842 79.3565 34.2892 78.8508 34.2892 78.227V78.2233C34.2892 77.5995 33.7842 77.0938 33.1612 77.0938Z" fill="url(#paint9_linear_1_851)"/>
</g>
<g id="Group_12">
<path id="Vector_11" d="M33.1717 93.0137H14.8298C14.2121 93.0137 13.7114 93.5036 13.7114 94.108V94.1115C13.7114 94.7159 14.2121 95.2058 14.8298 95.2058H33.1717C33.7894 95.2058 34.2901 94.7159 34.2901 94.1115V94.108C34.2901 93.5036 33.7894 93.0137 33.1717 93.0137Z" fill="url(#paint10_linear_1_851)"/>
</g>
<g id="Group_13">
<path id="Vector_12" d="M33.1717 84.6836H14.8298C14.2121 84.6836 13.7114 85.1735 13.7114 85.7779V85.7815C13.7114 86.3858 14.2121 86.8758 14.8298 86.8758H33.1717C33.7894 86.8758 34.2901 86.3858 34.2901 85.7815V85.7779C34.2901 85.1735 33.7894 84.6836 33.1717 84.6836Z" fill="url(#paint11_linear_1_851)"/>
</g>
<g id="Group_14">
<path id="Vector_13" d="M21.4245 65.3047H16.018C14.8204 65.3047 13.8496 66.2768 13.8496 67.476V68.9784C13.8496 70.1777 14.8204 71.1498 16.018 71.1498H21.4245C22.6221 71.1498 23.5929 70.1777 23.5929 68.9784V67.476C23.5929 66.2768 22.6221 65.3047 21.4245 65.3047Z" fill="url(#paint12_linear_1_851)"/>
</g>
<g id="Group_15">
<g id="Group_16">
<g id="Group_17">
<path id="Vector_14" d="M81.5825 17.7607C82.9918 17.7607 84.1342 16.6168 84.1342 15.2056C84.1342 13.7944 82.9918 12.6504 81.5825 12.6504C80.1732 12.6504 79.0308 13.7944 79.0308 15.2056C79.0308 16.6168 80.1732 17.7607 81.5825 17.7607Z" fill="#81D5E7"/>
</g>
<g id="Group_18">
<path id="Vector_15" d="M90.7016 17.7607C92.1109 17.7607 93.2534 16.6168 93.2534 15.2056C93.2534 13.7944 92.1109 12.6504 90.7016 12.6504C89.2924 12.6504 88.1499 13.7944 88.1499 15.2056C88.1499 16.6168 89.2924 17.7607 90.7016 17.7607Z" fill="#81D5E7"/>
</g>
<g id="Group_19">
<path id="Vector_16" d="M99.8208 17.7607C101.23 17.7607 102.372 16.6168 102.372 15.2056C102.372 13.7944 101.23 12.6504 99.8208 12.6504C98.4115 12.6504 97.269 13.7944 97.269 15.2056C97.269 16.6168 98.4115 17.7607 99.8208 17.7607Z" fill="#81D5E7"/>
</g>
</g>
</g>
<g id="Group_20">
<path id="Vector_17" d="M92.9015 78.7061L86.4395 85.8398L104.656 102.386L111.118 95.2523L92.9015 78.7061Z" fill="url(#paint13_linear_1_851)"/>
</g>
<g id="Group_21">
<path id="Vector_18" fill-rule="evenodd" clip-rule="evenodd" d="M99.7317 66.896C99.7317 81.8215 87.6487 93.9208 72.7434 93.9208C57.838 93.9208 45.7549 81.8215 45.7549 66.896C45.7549 51.9706 57.838 39.8711 72.7434 39.8711C87.6487 39.8711 99.7317 51.9706 99.7317 66.896ZM95.5924 66.896C95.5924 79.5321 85.3623 89.7759 72.7433 89.7759C60.1243 89.7759 49.8945 79.5321 49.8945 66.896C49.8945 54.26 60.1243 44.0164 72.7433 44.0164C85.3623 44.0164 95.5924 54.26 95.5924 66.896Z" fill="url(#paint14_linear_1_851)"/>
</g>
<g id="Group_22">
<path id="Vector_19" d="M72.7433 89.777C85.3623 89.777 95.5922 79.5333 95.5922 66.8972C95.5922 54.2612 85.3623 44.0176 72.7433 44.0176C60.1243 44.0176 49.8945 54.2612 49.8945 66.8972C49.8945 79.5333 60.1243 89.777 72.7433 89.777Z" fill="url(#paint15_linear_1_851)" fill-opacity="0.2"/>
</g>
<g id="Group_23">
<path id="Vector_20" d="M78.2335 66.897L84.768 60.3391C85.3801 59.6903 85.7156 58.8281 85.7029 57.9356C85.6903 57.0431 85.3306 56.1908 84.7003 55.5596C84.0701 54.9285 83.2188 54.5683 82.3276 54.5557C81.4363 54.543 80.5752 54.8789 79.9273 55.4919L73.3782 62.0498L66.8438 55.4919C66.5293 55.1587 66.1513 54.892 65.7322 54.7076C65.313 54.5232 64.8612 54.4248 64.4034 54.4183C63.9456 54.4118 63.4911 54.4973 63.0669 54.6698C62.6427 54.8422 62.2573 55.0981 61.9336 55.4223C61.6099 55.7464 61.3543 56.1323 61.1821 56.5571C61.0099 56.9819 60.9245 57.437 60.931 57.8954C60.9375 58.3538 61.0357 58.8063 61.2199 59.226C61.404 59.6457 61.6704 60.0242 62.0032 60.3391L68.5486 66.897L62.0032 73.4549C61.6704 73.7698 61.404 74.1483 61.2199 74.568C61.0357 74.9877 60.9375 75.4402 60.931 75.8986C60.9245 76.357 61.0099 76.8121 61.1821 77.2369C61.3543 77.6617 61.6099 78.0476 61.9336 78.3717C62.2573 78.6959 62.6427 78.9518 63.0669 79.1242C63.4911 79.2967 63.9456 79.3822 64.4034 79.3757C64.8612 79.3692 65.313 79.2708 65.7322 79.0864C66.1513 78.902 66.5293 78.6353 66.8438 78.3021L73.3929 71.7441L79.9419 78.3021C80.596 78.8789 81.4451 79.1843 82.3162 79.1561C83.1873 79.1278 84.0148 78.768 84.6302 78.1499C85.2455 77.5319 85.6024 76.7021 85.6279 75.8297C85.6536 74.9574 85.346 74.1081 84.768 73.4549L78.2335 66.897Z" fill="url(#paint16_linear_1_851)"/>
</g>
<g id="Group_24" filter="url(#filter2_f_1_851)">
<path id="Vector_21" d="M73.4989 81.9103C82.37 81.9103 89.5613 80.8465 89.5613 79.5343C89.5613 78.222 82.37 77.1582 73.4989 77.1582C64.6279 77.1582 57.4365 78.222 57.4365 79.5343C57.4365 80.8465 64.6279 81.9103 73.4989 81.9103Z" fill="#EC5575" fill-opacity="0.56"/>
</g>
<g id="Group_25">
<path id="Vector_22" d="M54.9355 95.3163C55.1621 94.3763 56.4973 94.3763 56.724 95.3163L57.4866 98.4801C57.5676 98.816 57.8295 99.0783 58.165 99.1594L61.3245 99.9231C62.2632 100.15 62.2632 101.487 61.3245 101.714L58.165 102.478C57.8295 102.559 57.5676 102.821 57.4866 103.157L56.724 106.321C56.4973 107.261 55.1621 107.261 54.9355 106.321L54.1728 103.157C54.0918 102.821 53.8299 102.559 53.4944 102.478L50.3349 101.714C49.3962 101.487 49.3962 100.15 50.3349 99.9231L53.4944 99.1594C53.8299 99.0783 54.0918 98.816 54.1728 98.4801L54.9355 95.3163Z" fill="url(#paint17_linear_1_851)"/>
</g>
<g id="Group_26">
<path id="Vector_23" d="M18.5946 11.1367C18.8213 10.1966 20.1565 10.1966 20.3831 11.1367L21.1458 14.3004C21.2268 14.6363 21.4887 14.8986 21.8242 14.9797L24.9836 15.7434C25.9224 15.9703 25.9224 17.3074 24.9836 17.5343L21.8242 18.298C21.4887 18.3791 21.2268 18.6414 21.1458 18.9773L20.3831 22.141C20.1565 23.0811 18.8213 23.0811 18.5946 22.141L17.832 18.9773C17.751 18.6414 17.489 18.3791 17.1536 18.298L13.9941 17.5343C13.0554 17.3074 13.0554 15.9703 13.9941 15.7434L17.1536 14.9797C17.489 14.8986 17.751 14.6363 17.832 14.3004L18.5946 11.1367Z" fill="url(#paint18_linear_1_851)"/>
</g>
<g id="Group_27">
<path id="Vector_24" fill-rule="evenodd" clip-rule="evenodd" d="M57.1948 11.6498C58.0416 11.6498 58.728 10.9624 58.728 10.1145C58.728 9.26656 58.0416 8.57919 57.1948 8.57919C56.3481 8.57919 55.6616 9.26656 55.6616 10.1145C55.6616 10.9624 56.3481 11.6498 57.1948 11.6498ZM57.1948 12.8012C58.6767 12.8012 59.878 11.5983 59.878 10.1145C59.878 8.63063 58.6767 7.42773 57.1948 7.42773C55.713 7.42773 54.5117 8.63063 54.5117 10.1145C54.5117 11.5983 55.713 12.8012 57.1948 12.8012Z" fill="url(#paint19_linear_1_851)"/>
</g>
<g id="Group_28">
<path id="Vector_25" d="M104.87 53.9243C104.724 53.3516 105.252 52.8357 105.82 52.9956L109.655 54.0746C110.223 54.2345 110.405 54.9502 109.983 55.363L107.132 58.149C106.71 58.5618 106 58.3619 105.854 57.7893L104.87 53.9243Z" fill="url(#paint20_linear_1_851)"/>
</g>
<g id="Group_29">
<path id="Vector_26" d="M14.98 47.3338C15.552 47.1885 16.0666 47.7178 15.9062 48.2865L14.8235 52.1252C14.6631 52.6938 13.948 52.8754 13.5364 52.452L10.7579 49.5939C10.3463 49.1705 10.5468 48.4596 11.1188 48.3144L14.98 47.3338Z" fill="url(#paint21_linear_1_851)"/>
</g>
<g id="Group_30">
<path id="Vector_27" d="M88.0996 100.385C88.6717 100.239 89.1862 100.769 89.0258 101.337L87.9431 105.176C87.7827 105.745 87.0677 105.926 86.6561 105.503L83.8776 102.645C83.4659 102.221 83.6664 101.51 84.2384 101.365L88.0996 100.385Z" fill="url(#paint22_linear_1_851)"/>
</g>
<g id="Group_31">
<path id="Vector_28" fill-rule="evenodd" clip-rule="evenodd" d="M108.422 34.0091C109.269 34.0091 109.956 33.3218 109.956 32.4738C109.956 31.6259 109.269 30.9386 108.422 30.9386C107.576 30.9386 106.889 31.6259 106.889 32.4738C106.889 33.3218 107.576 34.0091 108.422 34.0091ZM108.422 35.1606C109.904 35.1606 111.106 33.9577 111.106 32.4738C111.106 30.99 109.904 29.7871 108.422 29.7871C106.941 29.7871 105.739 30.99 105.739 32.4738C105.739 33.9577 106.941 35.1606 108.422 35.1606Z" fill="url(#paint23_linear_1_851)"/>
</g>
<g id="Group_32">
<path id="Vector_29" d="M104.654 102.387L111.117 95.2527L112.09 96.1369C113.035 96.9948 113.6 98.1932 113.662 99.4685C113.725 100.744 113.278 101.992 112.422 102.937C111.565 103.883 110.368 104.449 109.095 104.511C107.821 104.573 106.575 104.126 105.63 103.268L104.657 102.384L104.654 102.387Z" fill="#65C8DE"/>
</g>
</g>
</g>
<defs>
<filter id="filter0_d_1_851" x="-3.46191" y="52.0391" width="60.7451" height="71.0254" filterUnits="userSpaceOnUse" color-interpolation-filters="sRGB">
<feFlood flood-opacity="0" result="BackgroundImageFix"/>
<feColorMatrix in="SourceAlpha" type="matrix" values="0 0 0 0 0 0 0 0 0 0 0 0 0 0 0 0 0 0 127 0" result="hardAlpha"/>
<feOffset dx="3" dy="7"/>
<feGaussianBlur stdDeviation="7.5"/>
<feColorMatrix type="matrix" values="0 0 0 0 0.104618 0 0 0 0 0.465612 0 0 0 0 0.545833 0 0 0 0.15 0"/>
<feBlend mode="normal" in2="BackgroundImageFix" result="effect1_dropShadow_1_851"/>
<feBlend mode="normal" in="SourceGraphic" in2="effect1_dropShadow_1_851" result="shape"/>
</filter>
<filter id="filter1_d_1_851" x="68.0903" y="-2.20508" width="56.7451" height="42.8262" filterUnits="userSpaceOnUse" color-interpolation-filters="sRGB">
<feFlood flood-opacity="0" result="BackgroundImageFix"/>
<feColorMatrix in="SourceAlpha" type="matrix" values="0 0 0 0 0 0 0 0 0 0 0 0 0 0 0 0 0 0 127 0" result="hardAlpha"/>
<feOffset dx="6" dy="4"/>
<feGaussianBlur stdDeviation="6.5"/>
<feColorMatrix type="matrix" values="0 0 0 0 0.104618 0 0 0 0 0.465612 0 0 0 0 0.545833 0 0 0 0.09 0"/>
<feBlend mode="normal" in2="BackgroundImageFix" result="effect1_dropShadow_1_851"/>
<feBlend mode="normal" in="SourceGraphic" in2="effect1_dropShadow_1_851" result="shape"/>
</filter>
<filter id="filter2_f_1_851" x="36.5926" y="56.3143" width="73.8129" height="46.4398" filterUnits="userSpaceOnUse" color-interpolation-filters="sRGB">
<feFlood flood-opacity="0" result="BackgroundImageFix"/>
<feBlend mode="normal" in="SourceGraphic" in2="BackgroundImageFix" result="shape"/>
<feGaussianBlur stdDeviation="10.422" result="effect1_foregroundBlur_1_851"/>
</filter>
<linearGradient id="paint0_linear_1_851" x1="58.81" y1="-6.31669" x2="59.8416" y2="170.29" gradientUnits="userSpaceOnUse">
<stop stop-color="white" stop-opacity="0"/>
<stop offset="1" stop-color="#8EE2F4"/>
</linearGradient>
<linearGradient id="paint1_linear_1_851" x1="24.3002" y1="23.2108" x2="25.8485" y2="36.0708" gradientUnits="userSpaceOnUse">
<stop stop-color="#90E3F5"/>
<stop offset="1" stop-color="#65C8DE"/>
</linearGradient>
<linearGradient id="paint2_linear_1_851" x1="22.3299" y1="73.4132" x2="120.834" y2="75.6246" gradientUnits="userSpaceOnUse">
<stop stop-color="white"/>
<stop offset="1" stop-color="#BCF3FF"/>
</linearGradient>
<linearGradient id="paint3_linear_1_851" x1="32.4007" y1="37.6802" x2="85.3798" y2="37.68" gradientUnits="userSpaceOnUse">
<stop stop-color="#65C8DE"/>
<stop offset="1" stop-color="#D2F7FF"/>
</linearGradient>
<linearGradient id="paint4_linear_1_851" x1="32.4007" y1="52.0142" x2="85.3798" y2="52.014" gradientUnits="userSpaceOnUse">
<stop stop-color="#65C8DE"/>
<stop offset="1" stop-color="#D2F7FF"/>
</linearGradient>
<linearGradient id="paint5_linear_1_851" x1="32.4007" y1="66.3501" x2="85.3798" y2="66.3499" gradientUnits="userSpaceOnUse">
<stop stop-color="#65C8DE"/>
<stop offset="1" stop-color="#D2F7FF"/>
</linearGradient>
<linearGradient id="paint6_linear_1_851" x1="32.4007" y1="80.6841" x2="85.3798" y2="80.6839" gradientUnits="userSpaceOnUse">
<stop stop-color="#65C8DE"/>
<stop offset="1" stop-color="#D2F7FF"/>
</linearGradient>
<linearGradient id="paint7_linear_1_851" x1="7.61495" y1="90.8031" x2="66.6076" y2="94.0218" gradientUnits="userSpaceOnUse">
<stop stop-color="white"/>
<stop offset="1" stop-color="#BCF3FF"/>
</linearGradient>
<linearGradient id="paint8_linear_1_851" x1="74.1672" y1="19.4125" x2="118.542" y2="21.0334" gradientUnits="userSpaceOnUse">
<stop stop-color="white"/>
<stop offset="1" stop-color="#BCF3FF"/>
</linearGradient>
<linearGradient id="paint9_linear_1_851" x1="36.6981" y1="79.424" x2="11.7411" y2="79.4235" gradientUnits="userSpaceOnUse">
<stop stop-color="#D2F7FF"/>
<stop offset="1" stop-color="#65C8DE"/>
</linearGradient>
<linearGradient id="paint10_linear_1_851" x1="36.6783" y1="95.2712" x2="11.9357" y2="95.2708" gradientUnits="userSpaceOnUse">
<stop stop-color="#D2F7FF"/>
<stop offset="1" stop-color="#65C8DE"/>
</linearGradient>
<linearGradient id="paint11_linear_1_851" x1="36.6783" y1="86.9411" x2="11.9357" y2="86.9407" gradientUnits="userSpaceOnUse">
<stop stop-color="#D2F7FF"/>
<stop offset="1" stop-color="#65C8DE"/>
</linearGradient>
<linearGradient id="paint12_linear_1_851" x1="30.3492" y1="71.0936" x2="12.6165" y2="71.0936" gradientUnits="userSpaceOnUse">
<stop stop-color="#D2F7FF"/>
<stop offset="0.243799" stop-color="#D2F7FF"/>
<stop offset="1" stop-color="#6BCBE0"/>
</linearGradient>
<linearGradient id="paint13_linear_1_851" x1="90.6363" y1="89.6666" x2="103.18" y2="82.1047" gradientUnits="userSpaceOnUse">
<stop stop-color="#90E3F5"/>
<stop offset="1" stop-color="#65C8DE"/>
</linearGradient>
<linearGradient id="paint14_linear_1_851" x1="45.6938" y1="52.345" x2="99.8126" y2="93.7335" gradientUnits="userSpaceOnUse">
<stop stop-color="#90E3F5"/>
<stop offset="1" stop-color="#65C8DE"/>
</linearGradient>
<linearGradient id="paint15_linear_1_851" x1="72.7434" y1="44.0176" x2="95.8216" y2="103.822" gradientUnits="userSpaceOnUse">
<stop stop-color="white"/>
<stop offset="1" stop-color="#D2F7FF"/>
</linearGradient>
<linearGradient id="paint16_linear_1_851" x1="61.0491" y1="56.0972" x2="85.891" y2="79.275" gradientUnits="userSpaceOnUse">
<stop stop-color="#FF698D"/>
<stop offset="1" stop-color="#FF3868"/>
</linearGradient>
<linearGradient id="paint17_linear_1_851" x1="49.6168" y1="97.4764" x2="62.0471" y2="106.983" gradientUnits="userSpaceOnUse">
<stop stop-color="#90E3F5"/>
<stop offset="1" stop-color="#65C8DE"/>
</linearGradient>
<linearGradient id="paint18_linear_1_851" x1="13.276" y1="13.2967" x2="25.7063" y2="22.803" gradientUnits="userSpaceOnUse">
<stop stop-color="#90E3F5"/>
<stop offset="1" stop-color="#65C8DE"/>
</linearGradient>
<linearGradient id="paint19_linear_1_851" x1="54.5056" y1="8.66786" x2="59.886" y2="12.7826" gradientUnits="userSpaceOnUse">
<stop stop-color="#90E3F5"/>
<stop offset="1" stop-color="#65C8DE"/>
</linearGradient>
<linearGradient id="paint20_linear_1_851" x1="103.901" y1="55.9437" x2="110.573" y2="55.4779" gradientUnits="userSpaceOnUse">
<stop stop-color="#90E3F5"/>
<stop offset="1" stop-color="#65C8DE"/>
</linearGradient>
<linearGradient id="paint21_linear_1_851" x1="12.9646" y1="46.3613" x2="13.4239" y2="53.0425" gradientUnits="userSpaceOnUse">
<stop stop-color="#90E3F5"/>
<stop offset="1" stop-color="#65C8DE"/>
</linearGradient>
<linearGradient id="paint22_linear_1_851" x1="86.0842" y1="99.4121" x2="86.5435" y2="106.093" gradientUnits="userSpaceOnUse">
<stop stop-color="#90E3F5"/>
<stop offset="1" stop-color="#65C8DE"/>
</linearGradient>
<linearGradient id="paint23_linear_1_851" x1="105.733" y1="31.0272" x2="111.114" y2="35.142" gradientUnits="userSpaceOnUse">
<stop stop-color="#90E3F5"/>
<stop offset="1" stop-color="#65C8DE"/>
</linearGradient>
<clipPath id="clip0_1_851">
<rect width="117" height="114" fill="white"/>
</clipPath>
</defs>
</svg>
