<svg width="311" height="302" viewBox="0 0 311 302" fill="none" xmlns="http://www.w3.org/2000/svg">
<path d="M157.353 293.091C231.08 293.091 290.846 233.446 290.846 159.87C290.846 86.2937 231.08 26.6484 157.353 26.6484C83.6265 26.6484 23.8594 86.2937 23.8594 159.87C23.8594 233.446 83.6265 293.091 157.353 293.091Z" fill="url(#paint0_linear_3655_44758)"/>
<path d="M229.372 57.6484H81.489C72.2713 57.6484 64.7988 65.1056 64.7988 74.3046H246.062C246.062 65.1056 238.589 57.6484 229.372 57.6484Z" fill="url(#paint1_linear_3655_44758)"/>
<path d="M64.7988 73.8477H246.062V211.62C246.062 217.744 243.624 223.619 239.284 227.95C234.943 232.282 229.057 234.715 222.919 234.715H87.9419C81.8039 234.715 75.9174 232.282 71.5773 227.95C67.2371 223.619 64.7988 217.744 64.7988 211.62V73.8477Z" fill="url(#paint2_linear_3655_44758)"/>
<path d="M214.905 91.25H96.0163C93.5403 91.25 91.5332 93.2509 91.5332 95.7191C91.5332 98.1873 93.5403 100.188 96.0163 100.188H214.905C217.38 100.188 219.388 98.1873 219.388 95.7191C219.388 93.2509 217.38 91.25 214.905 91.25Z" fill="url(#paint3_linear_3655_44758)"/>
<path d="M214.905 129.225H96.0163C93.5403 129.225 91.5332 131.225 91.5332 133.694C91.5332 136.162 93.5403 138.163 96.0163 138.163H214.905C217.38 138.163 219.388 136.162 219.388 133.694C219.388 131.225 217.38 129.225 214.905 129.225Z" fill="url(#paint4_linear_3655_44758)"/>
<path d="M214.905 167.199H96.0163C93.5403 167.199 91.5332 169.2 91.5332 171.668C91.5332 174.137 93.5403 176.137 96.0163 176.137H214.905C217.38 176.137 219.388 174.137 219.388 171.668C219.388 169.2 217.38 167.199 214.905 167.199Z" fill="url(#paint5_linear_3655_44758)"/>
<path d="M214.905 205.174H96.0163C93.5403 205.174 91.5332 207.175 91.5332 209.643C91.5332 212.111 93.5403 214.112 96.0163 214.112H214.905C217.38 214.112 219.388 212.111 219.388 209.643C219.388 207.175 217.38 205.174 214.905 205.174Z" fill="url(#paint6_linear_3655_44758)"/>
<g filter="url(#filter0_d_3655_44758)">
<path d="M95.2103 159.055H31.904C26.8182 159.055 22.6953 163.169 22.6953 168.245V258.546C22.6953 263.622 26.8182 267.736 31.904 267.736H95.2103C100.296 267.736 104.419 263.622 104.419 258.546V168.245C104.419 163.169 100.296 159.055 95.2103 159.055Z" fill="url(#paint7_linear_3655_44758)"/>
</g>
<g filter="url(#filter1_d_3655_44758)">
<path d="M275.424 18.002H205.499C202.241 18.002 199.6 20.638 199.6 23.8897V56.6888C199.6 59.9405 202.241 62.5765 205.499 62.5765H275.424C278.682 62.5765 281.323 59.9405 281.323 56.6888V23.8897C281.323 20.638 278.682 18.002 275.424 18.002Z" fill="url(#paint8_linear_3655_44758)"/>
</g>
<path d="M88.1469 204.23H38.9691C37.3131 204.23 35.9707 205.57 35.9707 207.223V207.232C35.9707 208.885 37.3131 210.225 38.9691 210.225H88.1469C89.8029 210.225 91.1453 208.885 91.1453 207.232V207.223C91.1453 205.57 89.8029 204.23 88.1469 204.23Z" fill="url(#paint9_linear_3655_44758)"/>
<path d="M88.1731 246.408H39.418C37.7762 246.408 36.4453 247.706 36.4453 249.307V249.317C36.4453 250.918 37.7762 252.216 39.418 252.216H88.1731C89.8149 252.216 91.1458 250.918 91.1458 249.317V249.307C91.1458 247.706 89.8149 246.408 88.1731 246.408Z" fill="url(#paint10_linear_3655_44758)"/>
<path d="M88.1731 224.34H39.418C37.7762 224.34 36.4453 225.638 36.4453 227.239V227.248C36.4453 228.849 37.7762 230.147 39.418 230.147H88.1731C89.8149 230.147 91.1458 228.849 91.1458 227.248V227.239C91.1458 225.638 89.8149 224.34 88.1731 224.34Z" fill="url(#paint11_linear_3655_44758)"/>
<path d="M56.9495 173H42.5784C39.3951 173 36.8145 175.575 36.8145 178.752V182.732C36.8145 185.909 39.3951 188.484 42.5784 188.484H56.9495C60.1328 188.484 62.7134 185.909 62.7134 182.732V178.752C62.7134 175.575 60.1328 173 56.9495 173Z" fill="url(#paint12_linear_3655_44758)"/>
<path d="M216.857 47.0536C220.603 47.0536 223.64 44.023 223.64 40.2846C223.64 36.5462 220.603 33.5156 216.857 33.5156C213.111 33.5156 210.074 36.5462 210.074 40.2846C210.074 44.023 213.111 47.0536 216.857 47.0536Z" fill="#81AAE7"/>
<path d="M241.097 47.0536C244.843 47.0536 247.88 44.023 247.88 40.2846C247.88 36.5462 244.843 33.5156 241.097 33.5156C237.351 33.5156 234.314 36.5462 234.314 40.2846C234.314 44.023 237.351 47.0536 241.097 47.0536Z" fill="#81AAE7"/>
<path d="M265.338 47.0536C269.084 47.0536 272.12 44.023 272.12 40.2846C272.12 36.5462 269.084 33.5156 265.338 33.5156C261.591 33.5156 258.555 36.5462 258.555 40.2846C258.555 44.023 261.591 47.0536 265.338 47.0536Z" fill="#81AAE7"/>
<path d="M246.947 208.502L229.766 227.404L278.184 271.233L295.365 252.33L246.947 208.502Z" fill="url(#paint13_linear_3655_44758)"/>
<path fill-rule="evenodd" clip-rule="evenodd" d="M265.098 177.219C265.098 216.759 232.98 248.811 193.36 248.811C153.74 248.811 121.621 216.759 121.621 177.219C121.621 137.68 153.74 105.627 193.36 105.627C232.98 105.627 265.098 137.68 265.098 177.219ZM254.095 177.219C254.095 210.694 226.902 237.831 193.359 237.831C159.817 237.831 132.625 210.694 132.625 177.219C132.625 143.745 159.817 116.608 193.359 116.608C226.902 116.608 254.095 143.745 254.095 177.219Z" fill="url(#paint14_linear_3655_44758)"/>
<path d="M193.36 237.832C226.903 237.832 254.095 210.695 254.095 177.22C254.095 143.746 226.903 116.609 193.36 116.609C159.817 116.609 132.625 143.746 132.625 177.22C132.625 210.695 159.817 237.832 193.36 237.832Z" fill="url(#paint15_linear_3655_44758)" fill-opacity="0.2"/>
<path d="M207.954 177.219L225.323 159.846C226.951 158.127 227.842 155.843 227.809 153.479C227.775 151.115 226.819 148.856 225.144 147.185C223.468 145.513 221.206 144.558 218.836 144.525C216.467 144.491 214.179 145.381 212.456 147.005L195.048 164.378L177.679 147.005C176.843 146.122 175.838 145.416 174.724 144.927C173.61 144.439 172.409 144.178 171.192 144.161C169.975 144.144 168.767 144.37 167.639 144.827C166.512 145.284 165.487 145.962 164.627 146.821C163.766 147.679 163.087 148.702 162.629 149.827C162.172 150.952 161.945 152.158 161.962 153.372C161.979 154.587 162.24 155.785 162.73 156.897C163.219 158.009 163.927 159.012 164.812 159.846L182.21 177.219L164.812 194.591C163.927 195.426 163.219 196.428 162.73 197.54C162.24 198.652 161.979 199.851 161.962 201.065C161.945 202.279 162.172 203.485 162.629 204.61C163.087 205.736 163.766 206.758 164.627 207.617C165.487 208.475 166.512 209.153 167.639 209.61C168.767 210.067 169.975 210.293 171.192 210.276C172.409 210.259 173.61 209.998 174.724 209.51C175.838 209.021 176.843 208.315 177.679 207.432L195.087 190.059L212.495 207.432C214.234 208.96 216.491 209.769 218.806 209.694C221.122 209.619 223.321 208.666 224.957 207.029C226.593 205.392 227.541 203.194 227.609 200.883C227.677 198.572 226.86 196.322 225.323 194.591L207.954 177.219Z" fill="url(#paint16_linear_3655_44758)"/>
<g filter="url(#filter2_f_3655_44758)">
<path d="M195.37 216.991C218.95 216.991 238.065 214.173 238.065 210.697C238.065 207.22 218.95 204.402 195.37 204.402C171.789 204.402 152.674 207.22 152.674 210.697C152.674 214.173 171.789 216.991 195.37 216.991Z" fill="#EC5575" fill-opacity="0.56"/>
</g>
<path d="M146.026 252.508C146.628 250.018 150.178 250.018 150.78 252.508L152.807 260.889C153.023 261.779 153.719 262.474 154.611 262.689L163.009 264.712C165.504 265.313 165.504 268.855 163.009 269.457L154.611 271.48C153.719 271.694 153.023 272.389 152.807 273.279L150.78 281.66C150.178 284.151 146.628 284.151 146.026 281.66L143.999 273.279C143.783 272.389 143.087 271.694 142.195 271.48L133.797 269.457C131.302 268.855 131.302 265.313 133.797 264.712L142.195 262.689C143.087 262.474 143.783 261.779 143.999 260.889L146.026 252.508Z" fill="url(#paint17_linear_3655_44758)"/>
<path d="M49.4264 29.5063C50.0288 27.0161 53.5781 27.0161 54.1805 29.5063L56.2078 37.8874C56.423 38.7774 57.1192 39.4722 58.0109 39.687L66.4092 41.7102C68.9046 42.3114 68.9046 45.8534 66.4092 46.4545L58.0109 48.4777C57.1192 48.6925 56.423 49.3873 56.2078 50.2772L54.1805 58.6583C53.5781 61.1486 50.0288 61.1486 49.4264 58.6583L47.3991 50.2772C47.1838 49.3873 46.4876 48.6925 45.5959 48.4777L37.1976 46.4545C34.7024 45.8534 34.7023 42.3114 37.1976 41.7102L45.5959 39.687C46.4876 39.4722 47.1838 38.7774 47.3991 37.8874L49.4264 29.5063Z" fill="url(#paint18_linear_3655_44758)"/>
<path fill-rule="evenodd" clip-rule="evenodd" d="M152.03 30.8624C154.281 30.8624 156.106 29.0415 156.106 26.7952C156.106 24.549 154.281 22.7281 152.03 22.7281C149.78 22.7281 147.955 24.549 147.955 26.7952C147.955 29.0415 149.78 30.8624 152.03 30.8624ZM152.03 33.9128C155.969 33.9128 159.163 30.7261 159.163 26.7952C159.163 22.8643 155.969 19.6777 152.03 19.6777C148.092 19.6777 144.898 22.8643 144.898 26.7952C144.898 30.7261 148.092 33.9128 152.03 33.9128Z" fill="url(#paint19_linear_3655_44758)"/>
<path d="M278.756 142.857C278.369 141.34 279.772 139.973 281.282 140.397L291.476 143.256C292.986 143.679 293.47 145.575 292.348 146.669L284.771 154.049C283.648 155.142 281.76 154.613 281.373 153.096L278.756 142.857Z" fill="url(#paint20_linear_3655_44758)"/>
<path d="M39.8195 125.394C41.34 125.009 42.7078 126.411 42.2815 127.918L39.4041 138.087C38.9778 139.593 37.0772 140.074 35.983 138.952L28.597 131.38C27.5028 130.259 28.0357 128.376 29.5562 127.991L39.8195 125.394Z" fill="url(#paint21_linear_3655_44758)"/>
<path d="M234.181 265.931C235.701 265.546 237.069 266.948 236.643 268.455L233.765 278.624C233.339 280.13 231.438 280.611 230.344 279.489L222.958 271.918C221.864 270.796 222.397 268.913 223.917 268.528L234.181 265.931Z" fill="url(#paint22_linear_3655_44758)"/>
<path fill-rule="evenodd" clip-rule="evenodd" d="M288.198 90.0987C290.449 90.0987 292.274 88.2778 292.274 86.0316C292.274 83.7853 290.449 81.9644 288.198 81.9644C285.948 81.9644 284.123 83.7853 284.123 86.0316C284.123 88.2778 285.948 90.0987 288.198 90.0987ZM288.198 93.1491C292.137 93.1491 295.331 89.9624 295.331 86.0316C295.331 82.1007 292.137 78.9141 288.198 78.9141C284.26 78.9141 281.066 82.1007 281.066 86.0316C281.066 89.9624 284.26 93.1491 288.198 93.1491Z" fill="url(#paint23_linear_3655_44758)"/>
<path d="M278.184 271.236L295.364 252.335L297.951 254.677C300.461 256.949 301.963 260.124 302.128 263.502C302.293 266.88 301.106 270.186 298.829 272.691C296.551 275.197 293.37 276.697 289.985 276.862C286.599 277.027 283.287 275.843 280.777 273.571L278.19 271.229L278.184 271.236Z" fill="#659DDE"/>
<defs>
<filter id="filter0_d_3655_44758" x="10.6953" y="151.055" width="111.725" height="138.682" filterUnits="userSpaceOnUse" color-interpolation-filters="sRGB">
<feFlood flood-opacity="0" result="BackgroundImageFix"/>
<feColorMatrix in="SourceAlpha" type="matrix" values="0 0 0 0 0 0 0 0 0 0 0 0 0 0 0 0 0 0 127 0" result="hardAlpha"/>
<feOffset dx="3" dy="7"/>
<feGaussianBlur stdDeviation="7.5"/>
<feColorMatrix type="matrix" values="0 0 0 0 0.104618 0 0 0 0 0.465612 0 0 0 0 0.545833 0 0 0 0.15 0"/>
<feBlend mode="normal" in2="BackgroundImageFix" result="effect1_dropShadow_3655_44758"/>
<feBlend mode="normal" in="SourceGraphic" in2="effect1_dropShadow_3655_44758" result="shape"/>
</filter>
<filter id="filter1_d_3655_44758" x="192.6" y="9.00195" width="107.725" height="70.5742" filterUnits="userSpaceOnUse" color-interpolation-filters="sRGB">
<feFlood flood-opacity="0" result="BackgroundImageFix"/>
<feColorMatrix in="SourceAlpha" type="matrix" values="0 0 0 0 0 0 0 0 0 0 0 0 0 0 0 0 0 0 127 0" result="hardAlpha"/>
<feOffset dx="6" dy="4"/>
<feGaussianBlur stdDeviation="6.5"/>
<feColorMatrix type="matrix" values="0 0 0 0 0.104618 0 0 0 0 0.465612 0 0 0 0 0.545833 0 0 0 0.09 0"/>
<feBlend mode="normal" in2="BackgroundImageFix" result="effect1_dropShadow_3655_44758"/>
<feBlend mode="normal" in="SourceGraphic" in2="effect1_dropShadow_3655_44758" result="shape"/>
</filter>
<filter id="filter2_f_3655_44758" x="131.83" y="183.558" width="127.08" height="54.2777" filterUnits="userSpaceOnUse" color-interpolation-filters="sRGB">
<feFlood flood-opacity="0" result="BackgroundImageFix"/>
<feBlend mode="normal" in="SourceGraphic" in2="BackgroundImageFix" result="shape"/>
<feGaussianBlur stdDeviation="10.422" result="effect1_foregroundBlur_3655_44758"/>
</filter>
<linearGradient id="paint0_linear_3655_44758" x1="156.324" y1="-16.7317" x2="159.047" y2="451.122" gradientUnits="userSpaceOnUse">
<stop stop-color="white" stop-opacity="0"/>
<stop offset="1" stop-color="#8EB7F4"/>
</linearGradient>
<linearGradient id="paint1_linear_3655_44758" x1="64.5935" y1="61.4924" x2="68.6817" y2="95.5634" gradientUnits="userSpaceOnUse">
<stop stop-color="#90B2F5"/>
<stop offset="1" stop-color="#6595DE"/>
</linearGradient>
<linearGradient id="paint2_linear_3655_44758" x1="59.3563" y1="194.479" x2="321.192" y2="200.377" gradientUnits="userSpaceOnUse">
<stop stop-color="white"/>
<stop offset="1" stop-color="#BCD7FF"/>
</linearGradient>
<linearGradient id="paint3_linear_3655_44758" x1="86.1257" y1="99.8196" x2="226.95" y2="99.819" gradientUnits="userSpaceOnUse">
<stop stop-color="#6595DE"/>
<stop offset="1" stop-color="#D2ECFF"/>
</linearGradient>
<linearGradient id="paint4_linear_3655_44758" x1="86.1257" y1="137.794" x2="226.95" y2="137.794" gradientUnits="userSpaceOnUse">
<stop stop-color="#6595DE"/>
<stop offset="1" stop-color="#D2ECFF"/>
</linearGradient>
<linearGradient id="paint5_linear_3655_44758" x1="86.1257" y1="175.769" x2="226.95" y2="175.768" gradientUnits="userSpaceOnUse">
<stop stop-color="#6595DE"/>
<stop offset="1" stop-color="#D2ECFF"/>
</linearGradient>
<linearGradient id="paint6_linear_3655_44758" x1="86.1257" y1="213.743" x2="226.95" y2="213.743" gradientUnits="userSpaceOnUse">
<stop stop-color="#6595DE"/>
<stop offset="1" stop-color="#D2ECFF"/>
</linearGradient>
<linearGradient id="paint7_linear_3655_44758" x1="20.2415" y1="240.552" x2="177.048" y2="249.137" gradientUnits="userSpaceOnUse">
<stop stop-color="white"/>
<stop offset="1" stop-color="#BCDFFF"/>
</linearGradient>
<linearGradient id="paint8_linear_3655_44758" x1="197.146" y1="51.4274" x2="315.098" y2="55.7505" gradientUnits="userSpaceOnUse">
<stop stop-color="white"/>
<stop offset="1" stop-color="#BCD7FF"/>
</linearGradient>
<linearGradient id="paint9_linear_3655_44758" x1="97.5485" y1="210.403" x2="31.2097" y2="210.402" gradientUnits="userSpaceOnUse">
<stop stop-color="#D2E4FF"/>
<stop offset="1" stop-color="#6595DE"/>
</linearGradient>
<linearGradient id="paint10_linear_3655_44758" x1="97.4939" y1="252.389" x2="31.7252" y2="252.388" gradientUnits="userSpaceOnUse">
<stop stop-color="#D2E4FF"/>
<stop offset="1" stop-color="#6595DE"/>
</linearGradient>
<linearGradient id="paint11_linear_3655_44758" x1="97.4939" y1="230.32" x2="31.7252" y2="230.319" gradientUnits="userSpaceOnUse">
<stop stop-color="#D2E4FF"/>
<stop offset="1" stop-color="#6595DE"/>
</linearGradient>
<linearGradient id="paint12_linear_3655_44758" x1="80.6722" y1="188.335" x2="33.5367" y2="188.335" gradientUnits="userSpaceOnUse">
<stop stop-color="#D2ECFF"/>
<stop offset="0.243799" stop-color="#D2E1FF"/>
<stop offset="1" stop-color="#6BA8E0"/>
</linearGradient>
<linearGradient id="paint13_linear_3655_44758" x1="240.92" y1="237.541" x2="274.211" y2="217.407" gradientUnits="userSpaceOnUse">
<stop stop-color="#90B2F5"/>
<stop offset="1" stop-color="#6595DE"/>
</linearGradient>
<linearGradient id="paint14_linear_3655_44758" x1="121.459" y1="138.672" x2="264.953" y2="248.785" gradientUnits="userSpaceOnUse">
<stop stop-color="#90B2F5"/>
<stop offset="1" stop-color="#6595DE"/>
</linearGradient>
<linearGradient id="paint15_linear_3655_44758" x1="193.36" y1="116.609" x2="254.344" y2="275.179" gradientUnits="userSpaceOnUse">
<stop stop-color="white"/>
<stop offset="1" stop-color="#D2F7FF"/>
</linearGradient>
<linearGradient id="paint16_linear_3655_44758" x1="162.276" y1="148.609" x2="228.1" y2="210.232" gradientUnits="userSpaceOnUse">
<stop stop-color="#FF698D"/>
<stop offset="1" stop-color="#FF3868"/>
</linearGradient>
<linearGradient id="paint17_linear_3655_44758" x1="131.888" y1="258.231" x2="164.847" y2="283.522" gradientUnits="userSpaceOnUse">
<stop stop-color="#90B2F5"/>
<stop offset="1" stop-color="#6595DE"/>
</linearGradient>
<linearGradient id="paint18_linear_3655_44758" x1="35.2888" y1="35.2286" x2="68.2474" y2="60.5199" gradientUnits="userSpaceOnUse">
<stop stop-color="#90B2F5"/>
<stop offset="1" stop-color="#6595DE"/>
</linearGradient>
<linearGradient id="paint19_linear_3655_44758" x1="144.882" y1="22.963" x2="159.148" y2="33.9101" gradientUnits="userSpaceOnUse">
<stop stop-color="#90B2F5"/>
<stop offset="1" stop-color="#6595DE"/>
</linearGradient>
<linearGradient id="paint20_linear_3655_44758" x1="276.182" y1="148.206" x2="293.916" y2="146.963" gradientUnits="userSpaceOnUse">
<stop stop-color="#90B2F5"/>
<stop offset="1" stop-color="#6595DE"/>
</linearGradient>
<linearGradient id="paint21_linear_3655_44758" x1="34.4622" y1="122.817" x2="35.674" y2="140.517" gradientUnits="userSpaceOnUse">
<stop stop-color="#90B2F5"/>
<stop offset="1" stop-color="#6595DE"/>
</linearGradient>
<linearGradient id="paint22_linear_3655_44758" x1="228.824" y1="263.354" x2="230.035" y2="281.054" gradientUnits="userSpaceOnUse">
<stop stop-color="#90B2F5"/>
<stop offset="1" stop-color="#6595DE"/>
</linearGradient>
<linearGradient id="paint23_linear_3655_44758" x1="281.05" y1="82.1993" x2="295.316" y2="93.1464" gradientUnits="userSpaceOnUse">
<stop stop-color="#90B2F5"/>
<stop offset="1" stop-color="#6595DE"/>
</linearGradient>
</defs>
</svg>
