<svg width="24" height="24" viewBox="0 0 24 24" fill="none" xmlns="http://www.w3.org/2000/svg">
<path d="M5.22494 7.78558H18.7249C18.9114 7.78558 19.0903 7.71149 19.2222 7.57962C19.354 7.44774 19.4281 7.26888 19.4281 7.08238C19.4281 6.89588 19.354 6.71702 19.2222 6.58514C19.0903 6.45327 18.9114 6.37918 18.7249 6.37918H5.22494C5.03844 6.37918 4.85957 6.45327 4.7277 6.58514C4.59582 6.71702 4.52174 6.89588 4.52174 7.08238C4.52174 7.26888 4.59582 7.44774 4.7277 7.57962C4.85957 7.71149 5.03844 7.78558 5.22494 7.78558ZM6.77414 4.40398H17.1757C17.3621 4.40398 17.5408 4.32996 17.6725 4.19819C17.8043 4.06643 17.8783 3.88772 17.8783 3.70138C17.8783 3.51504 17.8043 3.33633 17.6725 3.20457C17.5408 3.0728 17.3621 2.99878 17.1757 2.99878H6.77414C6.5878 2.99878 6.40909 3.0728 6.27732 3.20457C6.14556 3.33633 6.07154 3.51504 6.07154 3.70138C6.07154 3.88772 6.14556 4.06643 6.27732 4.19819C6.40909 4.32996 6.5878 4.40398 6.77414 4.40398ZM19.9045 9.68998H4.04654C3.27254 9.68998 2.64014 10.3224 2.64014 11.0964V19.5324C2.64014 20.3064 3.27254 20.94 4.04654 20.94H19.9045C20.6773 20.94 21.3109 20.3064 21.3109 19.5336V11.0976C21.3109 10.3236 20.6773 9.69118 19.9045 9.69118V9.68998ZM19.9021 19.5288C19.9014 19.5296 19.9005 19.5303 19.8994 19.5307C19.8984 19.5311 19.8973 19.5313 19.8961 19.5312H4.05254L4.05014 19.53L4.04894 19.5264V11.1C4.05023 11.0987 4.05192 11.0978 4.05374 11.0976H19.8997L19.9021 11.1012V19.53V19.5288Z" fill="#F56C6C"/>
<path d="M8.87516 18.5521C8.74531 18.4222 8.67236 18.2461 8.67236 18.0625C8.67236 17.8788 8.74531 17.7027 8.87516 17.5729L14.1312 12.3169C14.2612 12.187 14.4374 12.1141 14.6212 12.1143C14.8049 12.1144 14.9811 12.1875 15.111 12.3175C15.2408 12.4475 15.3137 12.6238 15.3136 12.8075C15.3135 12.9913 15.2404 13.1674 15.1104 13.2973L9.85436 18.5533C9.72451 18.6831 9.5484 18.7561 9.36476 18.7561C9.18113 18.7561 9.00501 18.6831 8.87516 18.5533V18.5521Z" fill="#F56C6C"/>
<path d="M15.0731 18.6047C14.9432 18.7345 14.7671 18.8075 14.5835 18.8075C14.3998 18.8075 14.2237 18.7345 14.0939 18.6047L8.83788 13.3487C8.70803 13.2187 8.63514 13.0424 8.63525 12.8587C8.63537 12.6749 8.70847 12.4987 8.83848 12.3689C8.96849 12.239 9.14475 12.1661 9.3285 12.1663C9.51225 12.1664 9.68843 12.2395 9.81828 12.3695L15.0731 17.6255C15.2029 17.7553 15.2759 17.9314 15.2759 18.1151C15.2759 18.2987 15.2029 18.4748 15.0731 18.6047Z" fill="#F56C6C"/>
</svg>
