<svg width="40" height="40" viewBox="0 0 40 40" fill="none" xmlns="http://www.w3.org/2000/svg">
<rect width="40" height="40" rx="10" fill="#EDF4FF"/>
<path d="M17.7725 16.6021C18.1186 16.2611 18.3233 15.802 18.3456 15.3166C18.3679 14.8312 18.2061 14.3553 17.8926 13.9841L15.8685 11.4244C15.2151 10.5611 13.9645 10.4432 13.1315 11.0977C13.072 11.1561 13.0125 11.1561 13.0125 11.2167L11.2275 13.0017C9.53112 14.6981 11.9415 19.2796 16.3445 23.6837C20.7195 28.0576 25.2111 30.4072 26.9378 28.7704L28.6925 27.0157C29.466 26.2422 29.466 24.9927 28.6925 24.2787L28.5735 24.1597L26.015 22.1367C25.6438 21.8231 25.168 21.6612 24.6826 21.6832C24.1973 21.7053 23.7381 21.9097 23.397 22.2557L22.2956 23.3559C21.1555 22.6761 20.0973 21.8673 19.1421 20.9456C18.2205 20.0239 17.4458 18.9821 16.7318 17.7921L17.7736 16.6021H17.7725ZM16.8508 14.8462C17.0585 15.1146 17.0585 15.5007 16.7913 15.7096L15.3633 17.2262C15.1545 17.4362 15.095 17.7629 15.2443 18.0009C16.0178 19.4289 16.999 20.7076 18.1306 21.8684C19.2611 23.0001 20.569 23.9801 21.9981 24.7547C22.2665 24.8737 22.5628 24.8131 22.7716 24.6357L24.2883 23.1191C24.5566 22.8507 24.8833 22.8507 25.1516 23.0584L27.7113 25.1409C27.7113 25.1409 27.7696 25.1409 27.7696 25.2004C28.038 25.4384 28.038 25.8549 27.8 26.0929C27.8 26.0929 27.8 26.1232 27.7708 26.1232L25.9555 27.8791C25.0921 28.7424 21.0461 26.5701 17.1775 22.7609C13.31 18.9529 11.2275 14.8462 12.0605 13.9841L13.905 12.1396C14.1733 11.9307 14.619 11.9307 14.8266 12.2586L16.8508 14.8462Z" fill="#3B6DEC"/>
</svg>
