<svg
  width="14"
  height="14"
  viewBox="0 0 14 14"
  xmlns="http://www.w3.org/2000/svg"
>
  <path
    d="M12.1875 1.46875H0.9375V5.21875H1.875V3.8125C1.875 3.55322 2.08447 3.34375 2.34375 3.34375H10.7812C11.0405 3.34375 11.25 3.55322 11.25 3.8125V5.21875H12.1875V1.46875ZM7.96875 5.21875C8.22803 5.21875 8.4375 5.42822 8.4375 5.6875C8.4375 5.94678 8.22803 6.15625 7.96875 6.15625H5.15625C4.89697 6.15625 4.6875 5.94678 4.6875 5.6875C4.6875 5.42822 4.89697 5.21875 5.15625 5.21875H7.96875ZM7.96875 8.03125C8.22803 8.03125 8.4375 8.24072 8.4375 8.5C8.4375 8.75928 8.22803 8.96875 7.96875 8.96875H5.15625C4.89697 8.96875 4.6875 8.75927 4.6875 8.5C4.6875 8.24073 4.89697 8.03125 5.15625 8.03125H7.96875ZM10.3125 4.28125H2.8125V12.2705L4.21875 11.7095L6.5625 12.6455L8.90625 11.7095L10.3125 12.272V4.28125ZM12.6562 0.53125C12.9155 0.53125 13.125 0.740719 13.125 1V5.6875C13.125 5.91748 12.9595 6.10938 12.7412 6.14892L12.6562 6.15625H11.25V12.9634C11.25 13.2227 11.0405 13.4321 10.7812 13.4321C10.7212 13.4321 10.6626 13.4204 10.6069 13.3984L8.90625 12.7188L6.91113 13.5171C6.68702 13.6065 6.438 13.6065 6.21534 13.5171L4.21875 12.7188L2.51806 13.3999C2.27783 13.4966 2.00538 13.3794 1.90869 13.1392C1.88672 13.0835 1.875 13.0249 1.875 12.9649V6.15627H0.46875C0.209469 6.15627 0 5.9468 0 5.68752V1.00002C0 0.740734 0.209469 0.531266 0.46875 0.531266L12.6562 0.53125Z"
  />
</svg>