<svg width="15" height="15" viewBox="0 0 15 15" fill="none" xmlns="http://www.w3.org/2000/svg">
<path d="M4.51654 1.5972L6.02194 0L14.5 5.41665L13.0739 7.0833L4.51654 1.5972ZM5.46708 3.26385C3.48544 5.97225 0 7.15275 0 7.15275V14.5138L3.32787 10.3471C3.17234 10.2013 3.05005 10.0277 2.96835 9.83681C2.88665 9.64588 2.84723 9.44156 2.85244 9.2361C2.85244 8.3334 3.72404 7.56945 4.75353 7.56945C5.78302 7.56945 6.65462 8.3334 6.65462 9.2361C6.65462 10.1388 5.78302 10.9028 4.75353 10.9028C4.50626 10.9241 4.25781 10.8757 4.04046 10.7638L0.713231 15L8.63659 12.361C8.71585 9.2361 11.0929 6.87495 11.0929 6.87495L5.46708 3.26385Z" fill="white"/>
</svg>
