<svg viewBox="0 0 1024 1024" version="1.1" xmlns="http://www.w3.org/2000/svg" width="200" height="200">
<path d="M251.2 142.4h620.8c59.2 0 99.2 27.2 121.6 72 11.2 24 16 49.6 16 67.2l-1.6 9.6-102.4 360c-4.8 19.2-24 28.8-43.2 24-19.2-4.8-28.8-24-24-43.2L940.8 272l-1.6 9.6c0-8-1.6-22.4-8-35.2-9.6-20.8-27.2-32-57.6-32H246.4l49.6 49.6c14.4 14.4 14.4 36.8 0 49.6-14.4 14.4-36.8 14.4-49.6 0l-107.2-107.2c-14.4-14.4-14.4-36.8 0-49.6L246.4 48c14.4-14.4 36.8-14.4 49.6 0 14.4 14.4 14.4 36.8 0 49.6l-44.8 44.8z m-62.4 60.8c0 1.6 1.6 1.6 0 0v0zM784 881.6H163.2c-59.2 0-99.2-27.2-121.6-72-11.2-24-16-49.6-16-67.2l1.6-9.6 102.4-360c4.8-19.2 24-28.8 43.2-24 19.2 4.8 28.8 24 24 43.2L96 752l1.6-9.6c0 8 1.6 22.4 8 35.2 9.6 20.8 27.2 32 57.6 32h627.2l-49.6-49.6c-14.4-14.4-14.4-36.8 0-49.6 14.4-14.4 36.8-14.4 49.6 0l107.2 107.2c14.4 14.4 14.4 36.8 0 49.6L788.8 976c-14.4 14.4-36.8 14.4-49.6 0-14.4-14.4-14.4-36.8 0-49.6l44.8-44.8z m64-60.8c0-1.6-1.6-1.6 0 0v-1.6 1.6z m-100.8-376c19.2 0 35.2-16 35.2-35.2 0-19.2-16-35.2-35.2-35.2H390.4c-19.2 0-35.2 16-35.2 35.2 0 19.2 16 35.2 35.2 35.2h356.8z m-102.4 204.8c19.2 0 35.2-16 35.2-35.2 0-19.2-16-35.2-35.2-35.2H289.6c-19.2 0-35.2 16-35.2 35.2 0 19.2 16 35.2 35.2 35.2h355.2z" p-id="1532"></path>
</svg>