<svg width="56" height="56" viewBox="0 0 56 56" fill="none" xmlns="http://www.w3.org/2000/svg">
<circle cx="28" cy="28" r="28" fill="#EEE9FF"/>
<ellipse cx="37.5253" cy="36.6978" rx="4.82913" ry="6.72628" fill="white"/>
<path d="M26.9106 35.9924C26.9106 31.9887 29.2577 28.6752 32.7092 27.1565C32.9853 26.7423 33.3995 26.3282 33.6756 26.052C35.0562 24.3953 35.7465 22.3244 35.7465 19.9773C35.7465 15.0071 32.1569 11.0034 27.877 11.0034C23.321 10.8653 19.8695 15.0071 19.8695 19.9773C19.8695 22.3244 20.6979 24.5334 21.9404 26.052C22.7688 26.4662 23.321 27.4326 23.321 28.3991C23.321 29.2274 22.9068 30.0558 22.2165 30.6081V30.7461C22.0785 30.7461 22.0785 30.8842 22.0785 30.8842C21.6643 31.1603 21.2501 31.2984 20.6979 31.2984C17.3844 32.4029 14.4851 34.1976 12.8284 36.4066H12.9664C12.1381 37.0969 12 37.7872 12 38.4775C12 40.5485 13.7948 42.3433 16.0038 42.3433H29.3957C27.739 40.6865 26.9106 38.3395 26.9106 35.9924Z" fill="#9D84EF"/>
<path d="M38.2317 34.1976C38.2317 34.0596 38.0936 34.0596 37.9556 34.0596H36.1608C36.0227 34.0596 36.0227 34.1976 35.8846 34.1976L33.9518 39.7201C33.9518 39.8581 33.9518 39.8581 34.0898 39.8581L36.8511 42.3432C36.8511 42.3432 36.9891 42.3432 36.9891 42.4813C37.1272 42.4813 37.1272 42.4813 37.1272 42.3432L39.8884 39.8581C40.0265 39.8581 40.0265 39.7201 40.0265 39.7201L38.2317 34.1976ZM36.1608 33.2312L36.2988 33.3693H37.8175C37.9556 33.3693 37.9556 33.3693 37.9556 33.2312L38.922 31.5745V31.4364L38.7839 31.2983H35.4704C35.3324 31.2983 35.3324 31.2983 35.3324 31.4364V31.5745L36.1608 33.2312ZM37.2652 28.261C41.6832 28.261 45.1347 31.8506 45.1347 36.1305C45.1347 40.4104 41.5451 44 37.2652 44C32.8473 44 29.3958 40.4104 29.3958 36.1305C29.3958 31.8506 32.8473 28.261 37.2652 28.261Z" fill="#9D84EF"/>
</svg>
