
<svg width="23" height="23" viewBox="0 0 23 23" fill="none" xmlns="http://www.w3.org/2000/svg">
<path d="M9.65596 0L0 9.65596V22.845L22.845 0H9.65596Z" fill="#ED2D2D"/>
<path d="M7.32749 11.5991C7.62731 11.1296 8.02894 10.4451 8.43624 9.75494L8.79828 10.0491C8.44755 10.6827 8.0742 11.3389 7.77438 11.8649L7.32749 11.5991ZM4.91202 8.2785L5.32497 7.91081C5.78317 8.4369 6.3432 9.09875 6.76746 9.62484L7.54811 8.84419C7.08991 8.25022 6.37714 7.39038 5.75489 6.67761L4.23319 8.19931L3.8655 7.83161L5.78317 5.91394C6.48462 6.71721 7.41235 7.80333 7.91581 8.47649L8.31744 8.07486C8.31744 8.07486 8.43058 8.19931 8.48715 8.26719C9.83348 9.78323 10.2804 10.4111 10.303 10.7619C10.3087 10.9712 10.2464 11.1126 10.0994 11.2823C9.98056 11.4237 9.74297 11.6613 9.48275 11.8876C9.36396 11.7914 9.17163 11.6783 9.01324 11.6443C9.28476 11.4181 9.52235 11.1918 9.61852 11.0956C9.70337 11.0108 9.74863 10.9542 9.73731 10.8411C9.73731 10.6035 9.36396 10.0604 8.27219 8.82156L6.69393 10.3998C6.26966 9.82848 5.49467 8.91773 4.91202 8.2785ZM10.0654 5.5123L10.5802 5.20118C10.9818 5.98748 11.2194 6.7455 11.2986 7.50351C12.051 7.5318 12.7864 7.41866 13.4539 7.14713C13.4369 7.3225 13.4595 7.61665 13.5048 7.79767C12.826 8.02395 12.0849 8.12011 11.3325 8.08051C11.3439 8.88379 11.1742 9.67575 10.8517 10.4847C10.7216 10.4451 10.4105 10.3829 10.2408 10.3715C10.5972 9.58524 10.7669 8.80459 10.7612 8.0296C9.98056 7.92778 9.19991 7.7015 8.45321 7.36209L8.71342 6.8756C9.34699 7.16976 10.0258 7.37341 10.7216 7.45826C10.6311 6.81338 10.4218 6.16284 10.0654 5.5123ZM6.50725 5.76686L6.48462 5.2238C6.99374 5.04278 7.5764 4.87873 8.15339 4.74297C8.18168 4.23951 8.14774 3.74171 8.04026 3.2835L8.57766 3.02894C8.69645 3.54372 8.73605 4.08112 8.71342 4.62418C9.31305 4.49973 9.87308 4.41487 10.2917 4.38093L10.3426 4.9749C9.89571 4.99187 9.30174 5.07672 8.67382 5.19552C8.58897 5.92525 8.40795 6.64933 8.15905 7.30552C8.01763 7.27724 7.70085 7.26593 7.53114 7.27724C7.80267 6.65499 7.995 5.98748 8.09683 5.31997C7.54811 5.45008 6.99374 5.59715 6.50725 5.76686Z" fill="white"/>
</svg>


