<svg width="35" height="35" viewBox="0 0 35 35" xmlns="http://www.w3.org/2000/svg">
<path d="M17.9841 12.9122L18.2977 12.8921L17.88 10.8865H17.6706C17.3586 10.8776 17.0588 10.7634 16.8199 10.5625C16.5811 10.3617 16.4171 10.0859 16.3548 9.78014C16.3335 9.69613 16.3335 9.59082 16.3335 9.50799V9.29855L14.3279 8.81815L14.2864 9.13171C14.245 9.48669 14.2651 9.86297 14.3492 10.2179C14.684 11.8686 16.2708 13.0388 17.9841 12.9134V12.9122ZM17.6292 12.4034C17.525 12.4034 17.3996 12.3798 17.2943 12.3798L17.5665 12.078L17.6292 12.4034ZM17.5037 11.7432L16.9819 12.265C16.8766 12.2449 16.7926 12.2023 16.6885 12.1822L17.441 11.4296L17.5037 11.7432ZM16.8766 11.2214C16.9594 11.2628 17.0659 11.3042 17.1488 11.3255L16.4175 12.0567C16.3347 12.0153 16.2507 11.9739 16.1666 11.91L16.8766 11.2214ZM16.4175 10.9078C16.4802 10.9705 16.563 11.0332 16.6258 11.0746L15.9572 11.7645C15.8957 11.7018 15.8117 11.6592 15.749 11.5964L16.4175 10.9078ZM16.2294 10.7197L15.5395 11.4095C15.478 11.3449 15.4226 11.2748 15.3739 11.2001L16.0625 10.5102C16.1252 10.5729 16.1666 10.6356 16.2294 10.7197ZM15.9371 10.2392L15.2271 10.9492L15.1017 10.6984L15.8531 9.94698C15.8744 10.0511 15.8957 10.1552 15.9359 10.2392H15.9371ZM15.7277 9.67483L14.9763 10.4274C14.9391 10.3329 14.9114 10.235 14.8935 10.1351L15.4141 9.61212L15.7277 9.67483ZM15.136 9.52929L14.8319 9.80144C14.8083 9.67483 14.8083 9.5707 14.8083 9.44646L15.1348 9.52929H15.136ZM19.3626 9.11159C19.4402 9.477 19.3941 9.85783 19.2315 10.1941C19.0689 10.5305 18.7991 10.8032 18.4645 10.9693L18.7781 12.4744C19.5076 12.2194 20.1196 11.708 20.5001 11.0354C20.8806 10.3627 21.0037 9.57477 20.8465 8.81815C20.6921 8.05669 20.2652 7.37773 19.6459 6.90868C19.0265 6.43963 18.2572 6.21273 17.4824 6.27058L17.796 7.77332C18.5486 7.79462 19.1958 8.33774 19.3626 9.11041V9.11159ZM16.9819 7.94016L16.6684 6.43742C16.2325 6.58979 15.8349 6.83489 15.5029 7.15582C15.1709 7.47674 14.9126 7.86586 14.7455 8.29633L16.2282 8.65131C16.395 8.35904 16.666 8.10819 16.9807 7.94135L16.9819 7.94016Z" />
<path d="M22.7462 4.51562H12.4683C11.7584 4.51562 11.1738 5.10016 11.1738 5.78882V19.8058C11.1738 20.5157 11.7584 21.0801 12.4683 21.0801H21.4931L23.9992 18.5515V5.81012C23.9992 5.10016 23.4561 4.51562 22.7462 4.51562ZM23.1224 17.9267H20.8245V20.2246H12.4683C12.2601 20.2246 12.0506 20.0578 12.0506 19.8271V5.81012C12.0506 5.60186 12.2388 5.41372 12.4683 5.41372H22.7462C22.9556 5.41372 23.1224 5.58056 23.1224 5.81012V17.9267Z" />
<path d="M13.0117 17.7155H17.5874V18.6147H13.0117V17.7155ZM13.0117 14.0391H22.2246V14.9383H13.0117V14.0391ZM13.0117 15.8779H22.2246V16.776H13.0117V15.8767V15.8779Z" />
<path d="M7.384 23.424C7.88 24.504 8.856 25.728 9.688 26.352C9.536 26.472 9.32 26.696 9.2 26.856C8.36 26.136 7.4 24.832 6.832 23.648L7.384 23.424ZM4.592 23.44L5.232 23.616C4.816 24.64 4.216 25.576 3.536 26.304H8.496C8.496 26.304 8.496 26.512 8.488 26.592C8.368 29.048 8.264 29.96 7.984 30.272C7.816 30.472 7.632 30.528 7.36 30.552C7.088 30.576 6.6 30.568 6.096 30.536C6.08 30.36 6.008 30.104 5.896 29.936C6.416 29.984 6.912 29.984 7.096 29.984C7.264 29.984 7.36 29.968 7.44 29.888C7.64 29.68 7.76 28.896 7.848 26.896H5.672C5.456 28.48 4.928 29.928 2.888 30.664C2.816 30.512 2.656 30.28 2.52 30.152C4.416 29.528 4.856 28.256 5.04 26.896H3.496V26.344C3.288 26.56 3.08 26.752 2.864 26.928C2.76 26.808 2.496 26.576 2.352 26.464C3.312 25.776 4.128 24.664 4.592 23.44ZM13.856 24.16C14.872 23.968 16.024 23.672 16.68 23.368L17.192 23.84C16.44 24.144 15.392 24.408 14.424 24.584V26.024H17.648V26.592H16.48V30.64H15.888V26.592H14.424V26.624C14.424 27.824 14.312 29.512 13.552 30.624C13.448 30.528 13.2 30.368 13.056 30.32C13.784 29.248 13.856 27.744 13.856 26.624V24.16ZM11.672 23.28H12.256V24.992H13.44V25.568H12.256V25.984C12.536 26.328 13.208 27.232 13.368 27.464L12.984 27.944C12.848 27.672 12.528 27.152 12.256 26.736V30.632H11.672V26.848C11.368 27.744 10.976 28.608 10.568 29.144C10.504 28.984 10.36 28.744 10.256 28.6C10.8 27.928 11.344 26.672 11.608 25.568H10.472V24.992H11.672V23.28ZM21.384 23.552H25.168C25.168 23.552 25.168 23.72 25.16 23.808C25.112 24.936 25.04 25.392 24.864 25.576C24.72 25.72 24.544 25.768 24.28 25.784C24.024 25.8 23.52 25.792 22.984 25.76C22.976 25.608 22.904 25.4 22.816 25.264C23.344 25.304 23.864 25.312 24.024 25.312C24.2 25.312 24.288 25.304 24.36 25.248C24.456 25.144 24.504 24.832 24.536 24.112H21.984V26.288H24.92L25.032 26.272L25.424 26.4C25.216 27.392 24.816 28.32 24.24 29.096C24.672 29.528 25.168 29.88 25.704 30.112C25.568 30.224 25.384 30.464 25.288 30.616C24.76 30.36 24.28 30 23.856 29.552C23.448 29.992 22.976 30.368 22.432 30.656C22.344 30.52 22.168 30.328 22.024 30.216C22.584 29.936 23.064 29.56 23.464 29.112C22.944 28.456 22.528 27.68 22.224 26.84H21.984V30.624H21.384V23.552ZM22.792 26.84C23.048 27.496 23.4 28.112 23.84 28.648C24.232 28.104 24.52 27.48 24.704 26.84H22.792ZM19.512 23.28H20.12V24.896H21.032V25.48H20.12V27.016L21.016 26.76L21.088 27.336L20.12 27.624V29.888C20.12 30.264 20.024 30.432 19.792 30.528C19.56 30.624 19.184 30.64 18.544 30.64C18.52 30.48 18.44 30.232 18.352 30.064C18.8 30.08 19.216 30.072 19.328 30.072C19.464 30.064 19.512 30.032 19.512 29.896V27.808L18.416 28.128L18.256 27.512L19.512 27.184V25.48H18.376V24.896H19.512V23.28ZM27.984 23.344L28.584 23.496C28.472 23.816 28.336 24.128 28.184 24.432H29.864V23.28H30.488V24.432H32.944V24.984H30.488V26.248H33.536V26.808H26.488V26.248H29.864V24.984H27.888C27.648 25.4 27.392 25.776 27.128 26.072C27.008 25.976 26.728 25.816 26.584 25.744C27.168 25.168 27.68 24.256 27.984 23.344ZM27.48 27.608H32.608V30.696H31.984V30.256H28.08V30.712H27.48V27.608ZM28.08 29.696H31.984V28.16H28.08V29.696Z" />
</svg>
