<svg width="48" height="48" viewBox="0 0 48 48" fill="none" xmlns="http://www.w3.org/2000/svg">
<circle cx="24" cy="24" r="24" fill="#F0F5FE"/>
<path d="M17.142 14.2162C17.1421 14.1768 17.1532 14.1382 17.1739 14.1047C17.1946 14.0712 17.2242 14.044 17.2594 14.0262C17.2945 14.0085 17.3339 14.0007 17.3732 14.0039C17.4125 14.0071 17.4501 14.021 17.482 14.0442L30.502 23.4902C30.6114 23.5694 30.7006 23.6734 30.762 23.7937C30.8235 23.914 30.8555 24.0471 30.8555 24.1822C30.8555 24.3173 30.8235 24.4505 30.762 24.5708C30.7006 24.6911 30.6114 24.7951 30.502 24.8742L17.482 34.3202C17.4498 34.3428 17.4121 34.3561 17.3729 34.3589C17.3337 34.3616 17.2945 34.3536 17.2595 34.3357C17.2246 34.3178 17.1951 34.2907 17.1744 34.2573C17.1537 34.2239 17.1425 34.1855 17.142 34.1462V32.1462C17.1421 32.0788 17.1581 32.0123 17.1887 31.9522C17.2193 31.8921 17.2636 31.8401 17.318 31.8002L27.808 24.2002L17.318 16.5722C17.2636 16.5324 17.2193 16.4803 17.1887 16.4202C17.1581 16.3601 17.1421 16.2937 17.142 16.2262V14.2262V14.2162Z" fill="#1890FF"/>
</svg>
