<svg width="18" height="17" viewBox="0 0 18 17" fill="none" xmlns="http://www.w3.org/2000/svg">
<g id="search">
<path id="Exclude" fill-rule="evenodd" clip-rule="evenodd" d="M16.3991 15.3105L16.4015 15.3154C16.6219 15.5814 16.644 16.0329 16.4481 16.3258L16.4407 16.3356L16.4334 16.3429C16.306 16.4722 16.1322 16.5357 15.9142 16.5357C15.6987 16.5357 15.5224 16.4698 15.395 16.3429L11.964 12.9261C10.649 13.9536 9.11591 14.4954 7.51919 14.4954C6.57879 14.4954 5.66289 14.3099 4.79841 13.9414C3.96331 13.5875 3.21393 13.0799 2.56496 12.4356C1.91844 11.7913 1.40906 11.0421 1.05396 10.2098C0.686616 9.34834 0.498047 8.43559 0.498047 7.49843C0.498047 6.56127 0.684167 5.64607 1.05396 4.77969C1.40906 3.94259 1.91844 3.19091 2.56496 2.54173C3.21149 1.89255 3.96331 1.38004 4.79596 1.02372C5.66289 0.652764 6.57879 0.464844 7.51919 0.464844C8.45959 0.464844 9.3755 0.650323 10.2424 1.01884C11.0775 1.37272 11.8269 1.88035 12.4759 2.52464C13.1248 3.16894 13.6318 3.91818 13.9869 4.7504C14.3542 5.6119 14.5428 6.52466 14.5428 7.46182C14.5428 9.11649 13.9844 10.6833 12.9706 11.8938L16.3991 15.3105ZM1.92579 7.49841C1.92579 10.571 4.43351 13.0726 7.51919 13.0726C10.6024 13.0726 13.1126 10.5735 13.1126 7.49841C13.1126 4.42336 10.6024 1.92426 7.51919 1.92426C4.43596 1.92426 1.92579 4.4258 1.92579 7.49841Z" fill="#A3A3A3"/>
</g>
</svg>
