<svg width="20" height="18" viewBox="0 0 20 18" fill="none" xmlns="http://www.w3.org/2000/svg">
<path d="M4.54255 3.0749C4.78915 3.9285 4.69007 4.86411 4.22666 5.66676C3.76286 6.47008 3.00128 7.02391 2.13794 7.23677C2.00995 7.81025 1.94461 8.40042 1.94461 9.0001C1.94461 9.59977 2.00995 10.1899 2.13794 10.7634C3.00128 10.9763 3.76286 11.5301 4.22666 12.3334C4.69007 13.1361 4.78915 14.0717 4.54255 14.9253C5.41671 15.7311 6.45853 16.3358 7.5958 16.691C8.21185 16.0495 9.07241 15.6668 10.0002 15.6668C10.9279 15.6668 11.7885 16.0495 12.4045 16.691C13.5418 16.3358 14.5836 15.7311 15.4578 14.9253C15.2112 14.0717 15.3103 13.1361 15.7737 12.3334C16.2375 11.5301 16.999 10.9763 17.8624 10.7634C17.9904 10.1899 18.0557 9.59977 18.0557 9.0001C18.0557 8.40042 17.9904 7.81025 17.8624 7.23677C16.999 7.02391 16.2375 6.47008 15.7737 5.66676C15.3103 4.86411 15.2112 3.9285 15.4578 3.0749C14.5836 2.26912 13.5418 1.6644 12.4045 1.3092C11.7885 1.95066 10.9279 2.33343 10.0002 2.33343C9.07241 2.33343 8.21185 1.95066 7.5958 1.3092C6.45853 1.6644 5.41671 2.26912 4.54255 3.0749ZM11.9625 0.0439453C13.8491 0.455394 15.5186 1.44779 16.7742 2.82427C16.3549 3.49831 16.3113 4.37568 16.7359 5.11121C17.161 5.8475 17.9438 6.24849 18.7381 6.2214C19.0166 7.09785 19.1668 8.03143 19.1668 9.0001C19.1668 9.96876 19.0166 10.9023 18.7381 11.7788C17.9438 11.7517 17.161 12.1527 16.7359 12.889C16.3113 13.6245 16.3549 14.5019 16.7742 15.1759C15.5186 16.5524 13.8491 17.5448 11.9625 17.9562C11.5887 17.2551 10.8502 16.7779 10.0002 16.7779C9.15016 16.7779 8.41162 17.2551 8.03787 17.9562C6.15127 17.5448 4.48172 16.5524 3.22609 15.1759C3.64546 14.5019 3.68906 13.6245 3.26441 12.889C2.83931 12.1527 2.05648 11.7517 1.26221 11.7788C0.983746 10.9023 0.833496 9.96876 0.833496 9.0001C0.833496 8.03143 0.983746 7.09785 1.26221 6.2214C2.05648 6.24849 2.83931 5.8475 3.26441 5.11121C3.68906 4.37568 3.64546 3.49831 3.22609 2.82427C4.48172 1.44779 6.15127 0.455394 8.03787 0.0439453C8.41162 0.745085 9.15016 1.22232 10.0002 1.22232C10.8502 1.22232 11.5887 0.745085 11.9625 0.0439453ZM10.0002 5.66676C8.15921 5.66676 6.66683 7.15915 6.66683 9.0001C6.66683 10.841 8.15921 12.3334 10.0002 12.3334C11.8411 12.3334 13.3335 10.841 13.3335 9.0001C13.3335 7.15915 11.8411 5.66676 10.0002 5.66676ZM10.0002 6.77787C11.2275 6.77787 12.2224 7.7728 12.2224 9.0001C12.2224 10.2274 11.2275 11.2223 10.0002 11.2223C8.77286 11.2223 7.77794 10.2274 7.77794 9.0001C7.77794 7.7728 8.77286 6.77787 10.0002 6.77787Z" fill="white"/>
</svg>
