<svg width="16" height="16" viewBox="0 0 16 16" xmlns="http://www.w3.org/2000/svg">
<path d="M13.3327 8.33467C13.3327 8.20206 13.3854 8.07489 13.4791 7.98112C13.5729 7.88735 13.7001 7.83467 13.8327 7.83467C13.9653 7.83467 14.0925 7.88735 14.1862 7.98112C14.28 8.07489 14.3327 8.20206 14.3327 8.33467V12.5013C14.3327 13.5138 13.5119 14.3347 12.4993 14.3347H3.49935C2.48685 14.3347 1.66602 13.5138 1.66602 12.5013V4.00134C1.66602 2.98884 2.48685 2.16801 3.49935 2.16801H7.83268C7.96529 2.16801 8.09247 2.22069 8.18624 2.31445C8.28 2.40822 8.33268 2.5354 8.33268 2.66801C8.33268 2.80062 8.28 2.92779 8.18624 3.02156C8.09247 3.11533 7.96529 3.16801 7.83268 3.16801H3.49935C3.27834 3.16801 3.06637 3.2558 2.91009 3.41208C2.75381 3.56836 2.66602 3.78033 2.66602 4.00134V12.5013C2.66602 12.7224 2.75381 12.9343 2.91009 13.0906C3.06637 13.2469 3.27834 13.3347 3.49935 13.3347H12.4993C12.7204 13.3347 12.9323 13.2469 13.0886 13.0906C13.2449 12.9343 13.3327 12.7224 13.3327 12.5013V8.33467ZM12.6755 4.00134L11.2725 2.51067C11.1816 2.41409 11.1328 2.28536 11.1369 2.1528C11.1409 2.02025 11.1974 1.89472 11.294 1.80384C11.3906 1.71296 11.5193 1.66417 11.6519 1.6682C11.7844 1.67223 11.91 1.72876 12.0008 1.82534L14.1969 4.15867C14.4972 4.47767 14.2709 5.00134 13.8327 5.00134H11.3228C10.0467 5.00134 8.99935 6.11401 8.99935 7.50134V10.5013C8.99935 10.6339 8.94667 10.7611 8.8529 10.8549C8.75914 10.9487 8.63196 11.0013 8.49935 11.0013C8.36674 11.0013 8.23956 10.9487 8.1458 10.8549C8.05203 10.7611 7.99935 10.6339 7.99935 10.5013V7.50134C7.99935 5.57484 9.48035 4.00134 11.3228 4.00134H12.6755Z" />
</svg>

