<svg width="20" height="20" viewBox="0 0 20 20" fill="none" xmlns="http://www.w3.org/2000/svg">
<rect width="20" height="20" rx="4" fill="#21C215"/>
<path d="M10.4809 7.65625L10.3809 7.92625C10.6109 8.78625 10.9209 9.60625 11.3309 10.3362C11.6909 9.56625 11.9409 8.67625 12.1109 7.65625H10.4809ZM5.14094 12.4062C5.07094 12.1062 4.87094 11.5662 4.69094 11.3062C4.87094 11.1962 5.06094 10.9962 5.06094 10.5863V5.73625H6.24094V10.6462L7.30094 10.3262V4.80625H8.49094V8.77625C9.26094 7.79625 9.73094 6.26625 9.96094 4.65625L11.2009 4.85625C11.1009 5.42625 10.9909 5.97625 10.8409 6.51625H13.9009V7.65625H13.3109C13.0509 9.14625 12.6509 10.3962 12.0609 11.4362C12.5909 12.1062 13.2309 12.6562 13.9809 13.0262C13.7109 13.2463 13.3409 13.6963 13.1609 14.0163C12.4609 13.6163 11.8709 13.0862 11.3709 12.4462C10.8309 13.1062 10.1709 13.6463 9.37094 14.0863C9.23094 13.8363 8.84094 13.3363 8.60094 13.1062C9.47094 12.6862 10.1509 12.1262 10.6809 11.4262C10.3009 10.7662 9.99094 10.0262 9.72094 9.23625C9.57094 9.49625 9.39094 9.73625 9.21094 9.94625C9.07094 9.71625 8.74094 9.28625 8.49094 9.01625V14.0563H7.30094V11.4862C5.71094 12.0362 5.37094 12.2262 5.14094 12.4062Z" fill="white"/>
</svg>
