<svg width="30" height="30" viewBox="0 0 30 30" fill="none" xmlns="http://www.w3.org/2000/svg">
<g clip-path="url(#clip0_4548_50225)">
<path d="M28.0869 9.48301C25.0429 2.26133 16.7138 -1.12539 9.49508 1.91856C7.20114 2.88243 5.20309 4.43223 3.70309 6.41563C2.23825 8.34922 1.29196 10.6285 0.949185 13.025L0.873013 13.6666C0.656217 15.9283 0.981412 18.2721 1.9277 20.5133C4.97165 27.735 13.3007 31.1217 20.5195 28.0777C22.8105 27.1139 24.8115 25.5641 26.3115 23.5807C29.2763 19.6637 30.1347 14.3258 28.0869 9.48301ZM20.25 27.357C13.4121 30.2252 5.53122 27.0172 2.65426 20.1705C-0.225619 13.3209 2.99411 5.44883 9.83786 2.56895C14.8066 0.474223 20.5488 1.567 24.4131 5.32872C25.7021 6.59141 26.7275 8.1002 27.4336 9.75547C30.3047 16.5934 27.0966 24.4742 20.25 27.357Z" fill="#21C215"/>
<path d="M26.9853 9.94913C24.205 3.31925 16.5732 0.207919 9.94624 3.01163C7.83686 3.89054 6.00874 5.32022 4.63765 7.12784C1.92476 10.7167 1.1396 15.6064 3.00874 20.0507C5.7978 26.6689 13.4326 29.7773 20.0449 26.9882C22.1513 26.1093 23.9824 24.6796 25.3535 22.872C28.0693 19.2831 28.8544 14.3935 26.9853 9.94913ZM10.1865 26.7509C3.67085 24.0966 0.556592 16.661 3.21382 10.1425C5.16499 5.35245 9.83784 2.21475 15.0087 2.2294C16.6699 2.22354 18.2929 2.54581 19.8164 3.1669C26.3232 5.83585 29.4462 13.2597 26.789 19.7753C24.123 26.2851 16.7021 29.4081 10.1865 26.7509Z" fill="#21C215"/>
<path d="M12.5127 24.5781L11.7656 24.6719C11.7744 24.6807 11.1885 24.2559 11.1885 24.2559L11.0537 24.9531L10.4414 25.3603L11.0977 25.6943L11.3145 26.374L11.8652 25.8848L12.6064 25.8936L12.2754 25.252L12.5127 24.5781ZM17.4756 24.3467L16.916 24.8506L16.1836 24.8301L16.4678 25.4893L16.1982 26.1748L16.9248 26.0869L17.4932 26.5352L17.6602 25.8232L18.2783 25.4043L17.6543 25.0527L17.4756 24.3467ZM17.2061 5.55566L17.915 5.39453L18.5479 5.78711L18.6445 5.0752L19.2305 4.62695L18.542 4.33691L18.2783 3.6748L17.7744 4.19922L17.0273 4.24316L17.3965 4.86133L17.2061 5.55566ZM7.97754 9.3584C6.87305 10.7471 6.19336 12.4229 6.03223 14.1865L6.26953 14.084C6.36914 13.2666 6.56543 12.4697 6.87305 11.708C8.68359 7.21973 13.7871 5.04883 18.2725 6.8623C19.0254 7.16406 19.7285 7.57422 20.3848 8.06934L20.6221 7.9668C16.7461 4.85254 11.0889 5.48242 7.97754 9.3584ZM6.37207 10.2051L5.71875 9.8916L5.48145 9.19727L4.99219 9.75098L4.28027 9.79785L4.62305 10.4512L4.42969 11.1777L5.13867 11.0195C5.11523 11.0195 5.70996 11.4355 5.70996 11.4355L5.79785 10.6826L6.37207 10.2051ZM8.44336 6.78027L8.90039 7.38086L9.21387 6.68945L9.89063 6.40234L9.36914 5.91602L9.3457 5.16895L8.70703 5.54102L8.0127 5.35059L8.1416 6.07422L7.73438 6.70703L8.44336 6.78027ZM13.21 5.37695L13.7725 4.87305L14.5049 4.89355L14.2207 4.23438L14.499 3.53418L13.7637 3.63672L13.1924 3.19141L13.0283 3.90332L12.4072 4.32227L13.0313 4.6709L13.21 5.37695ZM21.9814 22.6533L21.5186 22.085L21.2168 22.7646L20.5459 23.04L21.0674 23.5264L21.0908 24.2734L21.7178 23.8926L22.4121 24.083L22.2832 23.3594L22.6904 22.7266L21.9814 22.6533ZM25.7373 18.5371L25.0371 18.6836L24.4482 18.2852L24.3691 19.0293L23.8066 19.4922L24.4453 19.7998L24.6943 20.5059L25.1836 19.9521L25.8897 19.9141L25.5439 19.2637L25.7373 18.5371ZM22.0078 20.585C23.1123 19.1963 23.792 17.5205 23.9531 15.7568L23.7158 15.8594C23.6162 16.6768 23.4229 17.4736 23.1123 18.2354C21.3018 22.7236 16.1982 24.8945 11.7129 23.0811C10.96 22.7793 10.2568 22.3691 9.60059 21.874L9.36328 21.9766C13.2393 25.0908 18.8965 24.4609 22.0078 20.585Z" fill="#21C215"/>
<path d="M19.8721 8.26641C16.1777 5.57402 11.0039 6.39141 8.31152 10.0857C7.51172 11.1873 6.99023 12.4881 6.80273 13.8416L7.06055 13.7361C7.64648 9.83086 11.0068 6.94805 14.9648 6.91582C16.623 6.90996 18.2461 7.42558 19.6143 8.37187L19.8721 8.26641ZM10.1104 21.6521C13.8076 24.3445 18.9814 23.5271 21.6709 19.8328C22.4707 18.7313 22.9922 17.4305 23.1797 16.077L22.9219 16.1824C22.3272 20.0965 18.9785 22.991 15.0176 22.9998C13.3594 23.0057 11.7363 22.49 10.3682 21.5438L10.1104 21.6521ZM10.7021 13.9266L11.5225 15.8484C11.6484 16.1443 11.6836 16.3699 11.6279 16.5281C11.5723 16.6863 11.3848 16.8328 11.0625 16.9705L7.88086 18.3299L8.47852 19.7332C8.51367 19.8152 8.54883 19.865 8.58691 19.8797C8.625 19.8943 8.72168 19.868 8.87402 19.8035L12.6328 18.198L12.9082 18.8396L8.88867 20.5564C8.55469 20.7 8.3291 20.7527 8.21777 20.7205C8.10352 20.6854 8.0127 20.6238 7.94238 20.533C7.87207 20.4422 7.81641 20.3455 7.77246 20.24L6.54199 17.3426L7.3125 17.0145L7.60254 17.6941L10.5381 16.4402C10.6699 16.3846 10.7402 16.3348 10.752 16.2908C10.7607 16.2498 10.749 16.1854 10.7139 16.1004L10.2012 14.8992L6.14355 16.6336L5.86816 15.992L10.7021 13.9266ZM12.0469 14.8816L11.8066 14.3221L11.9971 14.24C12.0732 14.2078 12.126 14.1668 12.1494 14.1199C12.1729 14.073 12.1787 13.9793 12.1641 13.8416L12.1055 13.2381L13.7168 12.5496L13.9805 13.1648L13.585 13.3348L13.6787 13.4373C13.7051 13.4666 13.7344 13.4871 13.7637 13.4988C13.7959 13.5105 13.8457 13.4988 13.9189 13.4695L14.1035 13.3904L14.3291 13.9207L13.7754 14.158C13.5938 14.2371 13.4473 14.2078 13.3389 14.076L12.9111 13.5604L12.9287 14.1346C12.9316 14.2664 12.9053 14.3719 12.8438 14.4568C12.7822 14.5418 12.6885 14.6092 12.5625 14.6648L12.0469 14.8816ZM12.2988 15.5232L13.0166 15.2156C13.0957 15.1805 13.1484 15.157 13.1748 15.1395C13.2012 15.1219 13.2158 15.0721 13.2246 14.99L13.251 14.5711L16.1191 13.3465L16.3564 13.6512C16.3857 13.6922 16.4209 13.7127 16.4619 13.7156C16.5029 13.7186 16.5645 13.698 16.6523 13.6629L17.2119 13.4227L17.4639 14.0086L16.7227 14.325C16.4971 14.4217 16.3477 14.4656 16.2773 14.4539C16.207 14.4451 16.1309 14.4041 16.0488 14.3338L15.8115 14.1346L13.998 14.908L13.9395 15.2713C13.9277 15.327 13.8955 15.3885 13.8369 15.4529C13.7783 15.5174 13.708 15.5672 13.623 15.6053L12.5361 16.0682L12.2988 15.5232ZM17.5371 14.1844L17.7686 14.7234L12.8555 16.8211L12.624 16.282L17.5371 14.1844ZM14.6689 17.1844L13.9717 17.4832C13.8428 17.5389 13.7373 17.5652 13.6582 17.5652C13.5791 17.5652 13.4766 17.5008 13.3594 17.366L12.9756 16.9412L13.6465 16.6541L13.8369 16.8475C13.8779 16.8914 13.9102 16.909 13.9307 16.9002C13.9541 16.8914 14.0244 16.8621 14.1475 16.8123L14.4551 16.6805L14.6689 17.1844ZM13.3359 18.0105L18.2695 15.9041L18.5273 16.5047L13.5938 18.6111L13.3359 18.0105ZM14.4814 13.8416L14.2471 13.2937L14.4375 13.2117C14.5137 13.1795 14.5635 13.1385 14.5869 13.0857C14.6133 13.0359 14.6191 12.9451 14.6045 12.8133L14.543 12.198L16.3799 11.4275L16.6436 12.0428L16.0225 12.3064L16.1162 12.409C16.1396 12.4354 16.166 12.4559 16.1982 12.4676C16.2305 12.4793 16.2832 12.4676 16.3564 12.4383L16.7432 12.2742L16.9717 12.8074L16.2129 13.1297C16.0928 13.1795 15.999 13.1883 15.9316 13.1561C15.8643 13.1238 15.8115 13.0857 15.7793 13.0447L15.3516 12.532L15.3955 13.1209C15.4043 13.2352 15.3896 13.326 15.3545 13.3934C15.3193 13.4607 15.2461 13.5193 15.1289 13.5691L14.4814 13.8416ZM14.5547 16.3025L15.2256 16.0154L15.4014 16.1941C15.4336 16.2293 15.4717 16.241 15.5098 16.2264C15.5508 16.2117 15.6064 16.1883 15.6826 16.1561L15.9375 16.0477L16.1572 16.5633L15.5186 16.8357C15.4922 16.8475 15.4395 16.8563 15.3662 16.865C15.293 16.8738 15.2285 16.865 15.1699 16.8387C15.1113 16.8123 15.0322 16.7508 14.9326 16.6541L14.5547 16.3025ZM16.4502 15.8162L16.9453 15.6053C17.001 15.5818 17.0391 15.5555 17.0625 15.5262C17.0859 15.4969 17.0977 15.4529 17.0977 15.3973L17.0947 15.2068L17.8066 14.9168L17.8154 15.5057C17.8154 15.5203 17.8125 15.5672 17.8096 15.6434C17.8066 15.7195 17.7891 15.7781 17.7627 15.8221C17.7363 15.8631 17.6631 15.91 17.54 15.9627L16.6699 16.3289L16.4502 15.8162ZM17.2939 11.1609L18.0147 10.8533L19.5996 14.5594C19.6465 14.6648 19.6963 14.7264 19.752 14.741C19.8076 14.7557 19.8838 14.7322 19.9746 14.6766L20.2588 14.5066L18.5273 10.4549L19.251 10.1443L21.4365 15.2596L20.7129 15.5672L20.5342 15.1512L19.9395 15.5027C19.8193 15.576 19.7109 15.6287 19.6143 15.658C19.5176 15.6902 19.4268 15.6814 19.3418 15.6346C19.2539 15.5877 19.1865 15.5203 19.1338 15.4295C19.084 15.3387 19.0254 15.2215 18.9668 15.0779L17.2939 11.1609ZM19.7578 10.7918L19.8604 10.7479C19.9365 10.7156 19.9863 10.6687 20.0098 10.6043C20.0361 10.5428 20.0479 10.4959 20.0479 10.4637L20.042 9.82793L20.7627 9.52031L20.7891 9.88359L22.1719 9.2918L22.4531 9.95391L20.8066 10.657C20.7773 10.8035 20.7305 10.9354 20.6689 11.0525C20.6045 11.1697 20.4492 11.2811 20.2031 11.3836L20.042 11.4539L19.7578 10.7918ZM23.9414 13.3963L24.2021 14.0174L23.6719 14.243C23.3994 14.3602 23.1855 14.3602 23.0391 14.2459L22.6084 13.9148L22.5908 14.2723C22.5791 14.4773 22.5381 14.6209 22.4678 14.7059C22.3945 14.7908 22.2539 14.8758 22.0459 14.9637L21.6182 15.1424L21.3457 14.5037L21.5273 14.4246C21.6504 14.3719 21.7236 14.3309 21.7441 14.3045C21.7646 14.2781 21.7822 14.243 21.7939 14.202C21.8057 14.1609 21.8115 14.1258 21.8115 14.1023L21.7852 13.1385L20.2559 11.782L21.0791 11.4305L21.7617 12.0428L21.7002 10.8533L22.4736 10.5223L22.5557 12.7752L23.3057 13.4285L23.4023 13.5135C23.4229 13.534 23.4521 13.5457 23.4844 13.5545C23.5166 13.5633 23.5752 13.5516 23.6543 13.5164L23.9414 13.3963Z" fill="#21C215"/>
</g>
<defs>
<clipPath id="clip0_4548_50225">
<rect width="30" height="30" fill="white"/>
</clipPath>
</defs>
</svg>
