<svg width="20" height="20" viewBox="0 0 20 20" fill="none" xmlns="http://www.w3.org/2000/svg">
<g clip-path="url(#clip0_2166_6661)">
<path d="M18.7246 6.32331C16.6953 1.50886 11.1426 -0.748955 6.33006 1.28034C4.80076 1.92292 3.46873 2.95612 2.46873 4.27839C1.49217 5.56745 0.861306 7.08698 0.63279 8.68464L0.582009 9.11237C0.437478 10.6202 0.654275 12.1827 1.28513 13.6768C3.31443 18.4913 8.86717 20.7491 13.6797 18.7198C15.207 18.0772 16.541 17.044 17.541 15.7217C19.5176 13.1104 20.0898 9.55183 18.7246 6.32331ZM13.5 18.2393C8.94138 20.1514 3.68748 18.0128 1.76951 13.4483C-0.150413 8.8819 1.99607 3.63386 6.55857 1.71394C9.87107 0.317451 13.6992 1.04597 16.2754 3.55378C17.1347 4.39558 17.8183 5.40144 18.289 6.50495C20.2031 11.0635 18.0644 16.3175 13.5 18.2393Z" fill="#3887FF"/>
<path d="M17.99 6.63275C16.1365 2.21283 11.0486 0.138612 6.63066 2.00775C5.22441 2.59369 4.00566 3.54682 3.0916 4.75189C1.28301 7.14447 0.75957 10.4042 2.00566 13.3671C3.86504 17.7792 8.95488 19.8515 13.3631 17.9921C14.7674 17.4062 15.9881 16.4531 16.9021 15.248C18.7127 12.8554 19.2361 9.59564 17.99 6.63275ZM6.79082 17.8339C2.44707 16.0644 0.370898 11.1074 2.14238 6.76166C3.44316 3.5683 6.5584 1.4765 10.0057 1.48627C11.1131 1.48236 12.1951 1.69721 13.2107 2.11127C17.5486 3.89057 19.6307 8.83978 17.8592 13.1835C16.0818 17.5234 11.1346 19.6054 6.79082 17.8339Z" fill="#3887FF"/>
<path d="M8.3418 16.3828L7.84375 16.4453C7.84961 16.4512 7.45898 16.168 7.45898 16.168L7.36914 16.6328L6.96094 16.9043L7.39844 17.127L7.54297 17.5801L7.91016 17.2539L8.4043 17.2598L8.18359 16.832L8.3418 16.3828ZM11.6504 16.2285L11.2773 16.5645L10.7891 16.5508L10.9785 16.9902L10.7988 17.4473L11.2832 17.3887L11.6621 17.6875L11.7734 17.2129L12.1855 16.9336L11.7695 16.6992L11.6504 16.2285ZM11.4707 3.70117L11.9434 3.59375L12.3652 3.85547L12.4297 3.38086L12.8203 3.08203L12.3613 2.88867L12.1855 2.44727L11.8496 2.79688L11.3516 2.82617L11.5977 3.23828L11.4707 3.70117ZM5.31836 6.23633C4.58203 7.16211 4.12891 8.2793 4.02148 9.45508L4.17969 9.38672C4.24609 8.8418 4.37695 8.31055 4.58203 7.80273C5.78906 4.81055 9.19141 3.36328 12.1816 4.57227C12.6836 4.77344 13.1523 5.04688 13.5898 5.37695L13.748 5.30859C11.1641 3.23242 7.39258 3.65234 5.31836 6.23633ZM4.24805 6.80078L3.8125 6.5918L3.6543 6.12891L3.32812 6.49805L2.85352 6.5293L3.08203 6.96484L2.95312 7.44922L3.42578 7.34375C3.41016 7.34375 3.80664 7.62109 3.80664 7.62109L3.86523 7.11914L4.24805 6.80078ZM5.62891 4.51758L5.93359 4.91797L6.14258 4.45703L6.59375 4.26562L6.24609 3.94141L6.23047 3.44336L5.80469 3.69141L5.3418 3.56445L5.42773 4.04688L5.15625 4.46875L5.62891 4.51758ZM8.80664 3.58203L9.18164 3.24609L9.66992 3.25977L9.48047 2.82031L9.66602 2.35352L9.17578 2.42187L8.79492 2.125L8.68555 2.59961L8.27148 2.87891L8.6875 3.11133L8.80664 3.58203ZM14.6543 15.0996L14.3457 14.7207L14.1445 15.1738L13.6973 15.3574L14.0449 15.6816L14.0605 16.1797L14.4785 15.9258L14.9414 16.0527L14.8555 15.5703L15.127 15.1484L14.6543 15.0996ZM17.1582 12.3555L16.6914 12.4531L16.2988 12.1875L16.2461 12.6836L15.8711 12.9922L16.2969 13.1973L16.4629 13.668L16.7891 13.2988L17.2598 13.2734L17.0293 12.8398L17.1582 12.3555ZM14.6719 13.7207C15.4082 12.7949 15.8613 11.6777 15.9688 10.502L15.8105 10.5703C15.7441 11.1152 15.6152 11.6465 15.4082 12.1543C14.2012 15.1465 10.7988 16.5937 7.80859 15.3848C7.30664 15.1836 6.83789 14.9102 6.40039 14.5801L6.24219 14.6484C8.82617 16.7246 12.5977 16.3047 14.6719 13.7207Z" fill="#3887FF"/>
<path d="M13.248 5.51094C10.7852 3.71602 7.33594 4.26094 5.54102 6.72383C5.00781 7.4582 4.66016 8.32539 4.53516 9.22773L4.70703 9.15742C5.09766 6.55391 7.33789 4.63203 9.97656 4.61055C11.082 4.60664 12.1641 4.95039 13.0762 5.58125L13.248 5.51094ZM6.74023 14.4348C9.20508 16.2297 12.6543 15.6848 14.4473 13.2219C14.9805 12.4875 15.3281 11.6203 15.4531 10.718L15.2813 10.7883C14.8848 13.3977 12.6523 15.3273 10.0117 15.3332C8.90625 15.3371 7.82422 14.9934 6.91211 14.3625L6.74023 14.4348Z" fill="#3887FF"/>
<path d="M7.64894 12.2458C7.796 12.1763 7.90483 12.0821 7.97544 11.9632L8.20128 12.759L5.88692 13.8532C5.66512 13.9581 5.46489 13.9775 5.28622 13.9116C5.11224 13.8493 4.97624 13.7145 4.87821 13.5072L4.12422 11.9124C4.36447 11.8903 4.60483 11.8091 4.84529 11.6689L4.94446 11.8786L6.21736 11.2768L5.98312 10.7813C5.44946 11.0189 4.81168 11.3264 4.06977 11.7037L3.8859 11.2774L3.73059 11.0986L6.23661 9.91375C6.36197 9.85448 6.45428 9.88753 6.51355 10.0129L7.24703 11.5642L5.24366 12.5114L5.58048 13.2238L7.64894 12.2458ZM11.1041 8.58582C10.8077 8.72006 10.5715 8.82878 10.3955 8.91199L10.5049 9.14343L11.1522 8.83738L11.3403 9.39441C10.82 9.62273 10.2516 9.89293 9.63521 10.205L9.48061 9.83124L9.35495 9.68712L9.89738 9.43066L9.78796 9.19923L9.25789 9.46312L9.35283 9.45805C9.31419 9.75064 9.26733 10.0914 9.21225 10.4802L9.55579 10.3178L9.76347 10.9629L9.37292 11.1476L9.37634 11.1548L8.84838 11.4044C8.71096 11.4694 8.60543 11.4677 8.53179 11.3993C8.46042 11.3357 8.43653 11.229 8.4601 11.0792L8.54002 10.537L8.26881 10.6652C8.01085 10.7872 7.88117 10.6907 7.87974 10.3758C7.87828 10.1169 7.86955 9.64609 7.85356 8.96343L8.54847 8.85168C8.55466 9.05818 8.56088 9.39887 8.56714 9.87377L8.63584 9.84128L8.6808 9.50589C8.87437 9.49106 9.03565 9.4797 9.16466 9.4718L9.02202 9.12333L8.88762 8.97007L9.53492 8.66403L9.42207 8.42536C9.37306 8.3217 9.32523 8.2455 9.27859 8.19676C9.59664 8.10832 9.81734 8.0261 9.94069 7.95008L10.1424 8.37679L10.9163 8.01091L11.1041 8.58582ZM11.2049 9.61331C11.27 9.58253 11.3209 9.57172 11.3577 9.58088C11.3956 9.59245 11.4276 9.62894 11.4537 9.69035C11.5729 9.96733 11.7592 10.3895 12.0127 10.9569L10.3276 11.7537L9.70991 10.3069C10.5632 9.90933 11.0615 9.67814 11.2049 9.61331ZM10.9837 10.3152L10.481 10.5529L10.6589 10.9289L11.1615 10.6913L10.9837 10.3152ZM8.56094 11.8633L9.75985 10.9646L10.1109 11.5199L8.97777 12.4361L8.79996 12.06L8.56094 11.8633ZM15.5795 8.89005C15.5109 8.91955 15.4091 8.96622 15.2741 9.03005L14.9541 9.17689L15.1815 9.65784L14.6029 9.9314L14.3755 9.45045C14.0284 9.61458 13.7674 9.73946 13.5925 9.82508C13.6147 10.0093 13.6313 10.1754 13.6424 10.3236L13.2981 10.4377L13.0699 10.6474C13.0542 10.4395 13.0379 10.2584 13.021 10.1042C12.886 10.168 12.6918 10.2627 12.4386 10.3884L12.3075 10.0831L12.1642 9.92964L12.9525 9.55692L12.9417 9.47795L12.515 9.6797L11.8956 8.22928C11.8493 8.21872 11.7538 8.19455 11.6091 8.15677L11.4089 8.22931C11.4871 7.82068 11.5353 7.4454 11.5536 7.10345L12.1564 6.94673C12.1478 7.01572 12.1424 7.0669 12.1405 7.10026L12.7227 6.82499L12.8427 7.14433C12.8346 6.97119 12.8185 6.78117 12.7944 6.57428L13.3768 6.37416C13.3817 6.42199 13.3843 6.46797 13.3845 6.51211L14.2198 6.11716L14.3905 6.57182C14.3605 6.58308 14.3153 6.60296 14.255 6.63146L14.1159 6.69281L14.2699 6.85008C14.2117 6.89532 14.1625 6.9348 14.1224 6.96851C14.2169 6.95627 14.2909 7.00979 14.3443 7.12906C14.4908 7.46389 14.6959 7.92885 14.9595 8.52392L14.7028 8.64531L14.7353 8.71402L15.4513 8.37549L15.5795 8.89005ZM12.8431 7.45389L12.8449 7.28931C12.8004 7.30742 12.7335 7.33756 12.6443 7.37973L12.7821 7.54022L12.6422 7.63735L12.9694 7.48709C13.114 7.4187 13.2219 7.36918 13.2929 7.33853L13.0369 7.349L12.8431 7.45389ZM12.0585 7.65671L12.0041 7.93464L12.2264 7.83396C12.2368 7.8497 12.1868 7.78777 12.0766 7.64816L12.0585 7.65671ZM13.539 6.96999C13.5088 6.98722 13.4612 7.01122 13.3961 7.04199C13.3967 7.12431 13.3948 7.20777 13.3906 7.29237L13.7052 7.14363L13.539 6.96999ZM13.7384 7.5881L12.5595 8.14547L12.5817 8.19248L13.7606 7.63511L13.7384 7.5881ZM12.7664 8.58303L13.9452 8.02566L13.9128 7.95695C13.3824 8.20771 12.9906 8.39591 12.7373 8.52155L12.7664 8.58303ZM14.1282 8.41259L14.0923 8.33665C13.5643 8.58627 13.1719 8.77327 12.9151 8.89764L12.9493 8.96996L14.1282 8.41259ZM14.1567 8.98758L14.1242 8.91887L13.5167 9.2061L13.5275 9.28507L14.1567 8.98758Z" fill="#3887FF"/>
</g>
<defs>
<clipPath id="clip0_2166_6661">
<rect width="20" height="20" fill="white"/>
</clipPath>
</defs>
</svg>
