<svg width="20" height="20" viewBox="0 0 20 20" fill="none" xmlns="http://www.w3.org/2000/svg">
<g id="Signed for-icon" clip-path="url(#clip0_2166_6656)">
<path id="Vector" d="M18.7246 6.32331C16.6953 1.50886 11.1426 -0.748955 6.33006 1.28034C4.80076 1.92292 3.46873 2.95612 2.46873 4.27839C1.49217 5.56745 0.861306 7.08698 0.63279 8.68464L0.582009 9.11237C0.437478 10.6202 0.654275 12.1827 1.28513 13.6768C3.31443 18.4913 8.86717 20.7491 13.6797 18.7198C15.207 18.0772 16.541 17.044 17.541 15.7217C19.5176 13.1104 20.0898 9.55183 18.7246 6.32331ZM13.5 18.2393C8.94138 20.1514 3.68748 18.0128 1.76951 13.4483C-0.150413 8.8819 1.99607 3.63386 6.55857 1.71394C9.87107 0.317451 13.6992 1.04597 16.2754 3.55378C17.1347 4.39558 17.8183 5.40144 18.289 6.50495C20.2031 11.0635 18.0644 16.3175 13.5 18.2393Z" fill="#21C215"/>
<path id="Vector_2" d="M17.99 6.63275C16.1365 2.21283 11.0486 0.138612 6.63066 2.00775C5.22441 2.59369 4.00566 3.54682 3.0916 4.75189C1.28301 7.14447 0.75957 10.4042 2.00566 13.3671C3.86504 17.7792 8.95488 19.8515 13.3631 17.9921C14.7674 17.4062 15.9881 16.4531 16.9021 15.248C18.7127 12.8554 19.2361 9.59564 17.99 6.63275ZM6.79082 17.8339C2.44707 16.0644 0.370898 11.1074 2.14238 6.76166C3.44316 3.5683 6.5584 1.4765 10.0057 1.48627C11.1131 1.48236 12.1951 1.69721 13.2107 2.11127C17.5486 3.89057 19.6307 8.83978 17.8592 13.1835C16.0818 17.5234 11.1346 19.6054 6.79082 17.8339Z" fill="#21C215"/>
<path id="Vector_3" d="M8.3418 16.3828L7.84375 16.4453C7.84961 16.4512 7.45898 16.168 7.45898 16.168L7.36914 16.6328L6.96094 16.9043L7.39844 17.127L7.54297 17.5801L7.91016 17.2539L8.4043 17.2598L8.18359 16.832L8.3418 16.3828ZM11.6504 16.2285L11.2773 16.5645L10.7891 16.5508L10.9785 16.9902L10.7988 17.4473L11.2832 17.3887L11.6621 17.6875L11.7734 17.2129L12.1855 16.9336L11.7695 16.6992L11.6504 16.2285ZM11.4707 3.70117L11.9434 3.59375L12.3652 3.85547L12.4297 3.38086L12.8203 3.08203L12.3613 2.88867L12.1855 2.44727L11.8496 2.79688L11.3516 2.82617L11.5977 3.23828L11.4707 3.70117ZM5.31836 6.23633C4.58203 7.16211 4.12891 8.2793 4.02148 9.45508L4.17969 9.38672C4.24609 8.8418 4.37695 8.31055 4.58203 7.80273C5.78906 4.81055 9.19141 3.36328 12.1816 4.57227C12.6836 4.77344 13.1523 5.04688 13.5898 5.37695L13.748 5.30859C11.1641 3.23242 7.39258 3.65234 5.31836 6.23633ZM4.24805 6.80078L3.8125 6.5918L3.6543 6.12891L3.32812 6.49805L2.85352 6.5293L3.08203 6.96484L2.95312 7.44922L3.42578 7.34375C3.41016 7.34375 3.80664 7.62109 3.80664 7.62109L3.86523 7.11914L4.24805 6.80078ZM5.62891 4.51758L5.93359 4.91797L6.14258 4.45703L6.59375 4.26562L6.24609 3.94141L6.23047 3.44336L5.80469 3.69141L5.3418 3.56445L5.42773 4.04688L5.15625 4.46875L5.62891 4.51758ZM8.80664 3.58203L9.18164 3.24609L9.66992 3.25977L9.48047 2.82031L9.66602 2.35352L9.17578 2.42187L8.79492 2.125L8.68555 2.59961L8.27148 2.87891L8.6875 3.11133L8.80664 3.58203ZM14.6543 15.0996L14.3457 14.7207L14.1445 15.1738L13.6973 15.3574L14.0449 15.6816L14.0605 16.1797L14.4785 15.9258L14.9414 16.0527L14.8555 15.5703L15.127 15.1484L14.6543 15.0996ZM17.1582 12.3555L16.6914 12.4531L16.2988 12.1875L16.2461 12.6836L15.8711 12.9922L16.2969 13.1973L16.4629 13.668L16.7891 13.2988L17.2598 13.2734L17.0293 12.8398L17.1582 12.3555ZM14.6719 13.7207C15.4082 12.7949 15.8613 11.6777 15.9688 10.502L15.8105 10.5703C15.7441 11.1152 15.6152 11.6465 15.4082 12.1543C14.2012 15.1465 10.7988 16.5937 7.80859 15.3848C7.30664 15.1836 6.83789 14.9102 6.40039 14.5801L6.24219 14.6484C8.82617 16.7246 12.5977 16.3047 14.6719 13.7207Z" fill="#21C215"/>
<path id="Vector_4" d="M13.248 5.51094C10.7852 3.71602 7.33594 4.26094 5.54102 6.72383C5.00781 7.4582 4.66016 8.32539 4.53516 9.22773L4.70703 9.15742C5.09766 6.55391 7.33789 4.63203 9.97656 4.61055C11.082 4.60664 12.1641 4.95039 13.0762 5.58125L13.248 5.51094ZM6.74023 14.4348C9.20508 16.2297 12.6543 15.6848 14.4473 13.2219C14.9805 12.4875 15.3281 11.6203 15.4531 10.718L15.2813 10.7883C14.8848 13.3977 12.6523 15.3273 10.0117 15.3332C8.90625 15.3371 7.82422 14.9934 6.91211 14.3625L6.74023 14.4348ZM7.13477 9.28437L7.68164 10.5656C7.76562 10.7629 7.78906 10.9133 7.75195 11.0188C7.71484 11.1242 7.58984 11.2219 7.375 11.3137L5.25391 12.2199L5.65234 13.1555C5.67578 13.2102 5.69922 13.2434 5.72461 13.2531C5.75 13.2629 5.81445 13.2453 5.91602 13.2023L8.42188 12.132L8.60547 12.5598L5.92578 13.7043C5.70312 13.8 5.55273 13.8352 5.47852 13.8137C5.40234 13.7902 5.3418 13.7492 5.29492 13.6887C5.24805 13.6281 5.21094 13.5637 5.18164 13.4934L4.36133 11.5617L4.875 11.343L5.06836 11.7961L7.02539 10.9602C7.11328 10.923 7.16016 10.8898 7.16797 10.8605C7.17383 10.8332 7.16602 10.7902 7.14258 10.7336L6.80078 9.93281L4.0957 11.0891L3.91211 10.6613L7.13477 9.28437ZM8.03125 9.92109L7.87109 9.54805L7.99805 9.49336C8.04883 9.47187 8.08398 9.44453 8.09961 9.41328C8.11523 9.38203 8.11914 9.31953 8.10938 9.22773L8.07031 8.82539L9.14453 8.36641L9.32031 8.77656L9.05664 8.88984L9.11914 8.9582C9.13672 8.97773 9.15625 8.99141 9.17578 8.99922C9.19727 9.00703 9.23047 8.99922 9.2793 8.97969L9.40234 8.92695L9.55273 9.28047L9.18359 9.43867C9.0625 9.49141 8.96484 9.47187 8.89258 9.38398L8.60742 9.04023L8.61914 9.42305C8.62109 9.51094 8.60352 9.58125 8.5625 9.63789C8.52148 9.69453 8.45898 9.73945 8.375 9.77656L8.03125 9.92109ZM8.19922 10.3488L8.67773 10.1438C8.73047 10.1203 8.76562 10.1047 8.7832 10.093C8.80078 10.0812 8.81055 10.048 8.81641 9.99336L8.83398 9.71406L10.7461 8.89766L10.9043 9.10078C10.9238 9.12812 10.9473 9.1418 10.9746 9.14375C11.002 9.1457 11.043 9.13203 11.1016 9.10859L11.4746 8.94844L11.6426 9.33906L11.1484 9.55C10.998 9.61445 10.8984 9.64375 10.8516 9.63594C10.8047 9.63008 10.7539 9.60273 10.6992 9.55586L10.541 9.42305L9.33203 9.93867L9.29297 10.1809C9.28516 10.218 9.26367 10.259 9.22461 10.302C9.18555 10.3449 9.13867 10.3781 9.08203 10.4035L8.35742 10.7121L8.19922 10.3488ZM11.6914 9.45625L11.8457 9.81563L8.57031 11.2141L8.41602 10.8547L11.6914 9.45625ZM9.7793 11.4562L9.31445 11.6555C9.22852 11.6926 9.1582 11.7102 9.10547 11.7102C9.05273 11.7102 8.98438 11.6672 8.90625 11.5773L8.65039 11.2941L9.09766 11.1027L9.22461 11.2316C9.25195 11.2609 9.27344 11.2727 9.28711 11.2668C9.30273 11.2609 9.34961 11.2414 9.43164 11.2082L9.63672 11.1203L9.7793 11.4562ZM8.89062 12.007L12.1797 10.6027L12.3516 11.0031L9.0625 12.4074L8.89062 12.007ZM9.6543 9.22773L9.49805 8.8625L9.625 8.80781C9.67578 8.78633 9.70898 8.75898 9.72461 8.72383C9.74219 8.69062 9.74609 8.63008 9.73633 8.54219L9.69531 8.13203L10.9199 7.61836L11.0957 8.02852L10.6816 8.2043L10.7441 8.27266C10.7598 8.29023 10.7773 8.30391 10.7988 8.31172C10.8203 8.31953 10.8555 8.31172 10.9043 8.29219L11.1621 8.18281L11.3145 8.53828L10.8086 8.75312C10.7285 8.78633 10.666 8.79219 10.6211 8.7707C10.5762 8.74922 10.541 8.72383 10.5195 8.69648L10.2344 8.35469L10.2637 8.74726C10.2695 8.82344 10.2598 8.88398 10.2363 8.92891C10.2129 8.97383 10.1641 9.01289 10.0859 9.04609L9.6543 9.22773ZM9.70312 10.8684L10.1504 10.677L10.2676 10.7961C10.2891 10.8195 10.3145 10.8273 10.3398 10.8176C10.3672 10.8078 10.4043 10.7922 10.4551 10.7707L10.625 10.6984L10.7715 11.0422L10.3457 11.2238C10.3281 11.2316 10.293 11.2375 10.2441 11.2434C10.1953 11.2492 10.1523 11.2434 10.1133 11.2258C10.0742 11.2082 10.0215 11.1672 9.95508 11.1027L9.70312 10.8684ZM10.9668 10.5441L11.2969 10.4035C11.334 10.3879 11.3594 10.3703 11.375 10.3508C11.3906 10.3312 11.3984 10.302 11.3984 10.2648L11.3965 10.1379L11.8711 9.94453L11.877 10.3371C11.877 10.3469 11.875 10.3781 11.873 10.4289C11.8711 10.4797 11.8594 10.5187 11.8418 10.548C11.8242 10.5754 11.7754 10.6066 11.6934 10.6418L11.1133 10.8859L10.9668 10.5441ZM11.5293 7.44062L12.0098 7.23555L13.0664 9.70625C13.0977 9.77656 13.1309 9.81758 13.168 9.82734C13.2051 9.83711 13.2559 9.82148 13.3164 9.78437L13.5059 9.67109L12.3516 6.96992L12.834 6.76289L14.291 10.173L13.8086 10.3781L13.6895 10.1008L13.293 10.3352C13.2129 10.384 13.1406 10.4191 13.0762 10.4387C13.0117 10.4602 12.9512 10.4543 12.8945 10.423C12.8359 10.3918 12.791 10.3469 12.7559 10.2863C12.7227 10.2258 12.6836 10.1477 12.6445 10.052L11.5293 7.44062ZM13.1719 7.19453L13.2402 7.16523C13.291 7.14375 13.3242 7.1125 13.3398 7.06953C13.3574 7.02852 13.3652 6.99727 13.3652 6.97578L13.3613 6.55195L13.8418 6.34687L13.8594 6.58906L14.7812 6.19453L14.9688 6.63594L13.8711 7.10469C13.8516 7.20234 13.8203 7.29023 13.7793 7.36836C13.7363 7.44648 13.6328 7.5207 13.4688 7.58906L13.3613 7.63594L13.1719 7.19453ZM15.9609 8.93086L16.1348 9.34492L15.7812 9.49531C15.5996 9.57344 15.457 9.57344 15.3594 9.49727L15.0723 9.27656L15.0605 9.51484C15.0527 9.65156 15.0254 9.74727 14.9785 9.80391C14.9297 9.86055 14.8359 9.91719 14.6973 9.97578L14.4121 10.0949L14.2305 9.66914L14.3516 9.61641C14.4336 9.58125 14.4824 9.55391 14.4961 9.53633C14.5098 9.51875 14.5215 9.49531 14.5293 9.46797C14.5371 9.44062 14.541 9.41719 14.541 9.40156L14.5234 8.75898L13.5039 7.85469L14.0527 7.62031L14.5078 8.02852L14.4668 7.23555L14.9824 7.01484L15.0371 8.5168L15.5371 8.95234L15.6016 9.00898C15.6152 9.02266 15.6348 9.03047 15.6562 9.03633C15.6777 9.04219 15.7168 9.03437 15.7695 9.01094L15.9609 8.93086Z" fill="#21C215"/>
</g>
<defs>
<clipPath id="clip0_2166_6656">
<rect width="20" height="20" fill="white"/>
</clipPath>
</defs>
</svg>
