<svg width="20" height="20" viewBox="0 0 20 20" fill="none" xmlns="http://www.w3.org/2000/svg">
<g clip-path="url(#clip0_2166_6793)">
<path d="M18.7246 6.32331C16.6953 1.50886 11.1426 -0.748955 6.33006 1.28034C4.80076 1.92292 3.46873 2.95612 2.46873 4.27839C1.49217 5.56745 0.861306 7.08698 0.63279 8.68464L0.582009 9.11237C0.437478 10.6202 0.654275 12.1827 1.28513 13.6768C3.31443 18.4913 8.86717 20.7491 13.6797 18.7198C15.207 18.0772 16.541 17.044 17.541 15.7217C19.5176 13.1104 20.0898 9.55183 18.7246 6.32331ZM13.5 18.2393C8.94138 20.1514 3.68748 18.0128 1.76951 13.4483C-0.150413 8.8819 1.99607 3.63386 6.55857 1.71394C9.87107 0.317451 13.6992 1.04597 16.2754 3.55378C17.1347 4.39558 17.8183 5.40144 18.289 6.50495C20.2031 11.0635 18.0644 16.3175 13.5 18.2393Z" fill="#3887FF"/>
<path d="M17.99 6.63275C16.1365 2.21283 11.0486 0.138612 6.63066 2.00775C5.22441 2.59369 4.00566 3.54682 3.0916 4.75189C1.28301 7.14447 0.75957 10.4042 2.00566 13.3671C3.86504 17.7792 8.95488 19.8515 13.3631 17.9921C14.7674 17.4062 15.9881 16.4531 16.9021 15.248C18.7127 12.8554 19.2361 9.59564 17.99 6.63275ZM6.79082 17.8339C2.44707 16.0644 0.370898 11.1074 2.14238 6.76166C3.44316 3.5683 6.5584 1.4765 10.0057 1.48627C11.1131 1.48236 12.1951 1.69721 13.2107 2.11127C17.5486 3.89057 19.6307 8.83978 17.8592 13.1835C16.0818 17.5234 11.1346 19.6054 6.79082 17.8339Z" fill="#3887FF"/>
<path d="M8.3418 16.3828L7.84375 16.4453C7.84961 16.4512 7.45898 16.168 7.45898 16.168L7.36914 16.6328L6.96094 16.9043L7.39844 17.127L7.54297 17.5801L7.91016 17.2539L8.4043 17.2598L8.18359 16.832L8.3418 16.3828ZM11.6504 16.2285L11.2773 16.5645L10.7891 16.5508L10.9785 16.9902L10.7988 17.4473L11.2832 17.3887L11.6621 17.6875L11.7734 17.2129L12.1855 16.9336L11.7695 16.6992L11.6504 16.2285ZM11.4707 3.70117L11.9434 3.59375L12.3652 3.85547L12.4297 3.38086L12.8203 3.08203L12.3613 2.88867L12.1855 2.44727L11.8496 2.79688L11.3516 2.82617L11.5977 3.23828L11.4707 3.70117ZM5.31836 6.23633C4.58203 7.16211 4.12891 8.2793 4.02148 9.45508L4.17969 9.38672C4.24609 8.8418 4.37695 8.31055 4.58203 7.80273C5.78906 4.81055 9.19141 3.36328 12.1816 4.57227C12.6836 4.77344 13.1523 5.04688 13.5898 5.37695L13.748 5.30859C11.1641 3.23242 7.39258 3.65234 5.31836 6.23633ZM4.24805 6.80078L3.8125 6.5918L3.6543 6.12891L3.32812 6.49805L2.85352 6.5293L3.08203 6.96484L2.95312 7.44922L3.42578 7.34375C3.41016 7.34375 3.80664 7.62109 3.80664 7.62109L3.86523 7.11914L4.24805 6.80078ZM5.62891 4.51758L5.93359 4.91797L6.14258 4.45703L6.59375 4.26562L6.24609 3.94141L6.23047 3.44336L5.80469 3.69141L5.3418 3.56445L5.42773 4.04688L5.15625 4.46875L5.62891 4.51758ZM8.80664 3.58203L9.18164 3.24609L9.66992 3.25977L9.48047 2.82031L9.66602 2.35352L9.17578 2.42187L8.79492 2.125L8.68555 2.59961L8.27148 2.87891L8.6875 3.11133L8.80664 3.58203ZM14.6543 15.0996L14.3457 14.7207L14.1445 15.1738L13.6973 15.3574L14.0449 15.6816L14.0605 16.1797L14.4785 15.9258L14.9414 16.0527L14.8555 15.5703L15.127 15.1484L14.6543 15.0996ZM17.1582 12.3555L16.6914 12.4531L16.2988 12.1875L16.2461 12.6836L15.8711 12.9922L16.2969 13.1973L16.4629 13.668L16.7891 13.2988L17.2598 13.2734L17.0293 12.8398L17.1582 12.3555ZM14.6719 13.7207C15.4082 12.7949 15.8613 11.6777 15.9688 10.502L15.8105 10.5703C15.7441 11.1152 15.6152 11.6465 15.4082 12.1543C14.2012 15.1465 10.7988 16.5937 7.80859 15.3848C7.30664 15.1836 6.83789 14.9102 6.40039 14.5801L6.24219 14.6484C8.82617 16.7246 12.5977 16.3047 14.6719 13.7207Z" fill="#3887FF"/>
<path d="M13.248 5.51094C10.7852 3.71602 7.33594 4.26094 5.54102 6.72383C5.00781 7.4582 4.66016 8.32539 4.53516 9.22773L4.70703 9.15742C5.09766 6.55391 7.33789 4.63203 9.97656 4.61055C11.082 4.60664 12.1641 4.95039 13.0762 5.58125L13.248 5.51094ZM6.74023 14.4348C9.20508 16.2297 12.6543 15.6848 14.4473 13.2219C14.9805 12.4875 15.3281 11.6203 15.4531 10.718L15.2813 10.7883C14.8848 13.3977 12.6523 15.3273 10.0117 15.3332C8.90625 15.3371 7.82422 14.9934 6.91211 14.3625L6.74023 14.4348Z" fill="#3887FF"/>
<path d="M7.64894 12.2458C7.796 12.1763 7.90483 12.0821 7.97544 11.9632L8.20128 12.759L5.88692 13.8532C5.66512 13.9581 5.46489 13.9775 5.28622 13.9116C5.11224 13.8493 4.97624 13.7145 4.87821 13.5072L4.12422 11.9124C4.36447 11.8903 4.60483 11.8091 4.84529 11.6689L4.94446 11.8786L6.21736 11.2768L5.98312 10.7813C5.44946 11.0189 4.81168 11.3264 4.06977 11.7037L3.8859 11.2774L3.73059 11.0986L6.23661 9.91375C6.36197 9.85448 6.45428 9.88753 6.51355 10.0129L7.24703 11.5642L5.24366 12.5114L5.58048 13.2238L7.64894 12.2458ZM10.4689 8.09411C10.5886 8.12895 10.6878 8.23253 10.7663 8.40483C11.0608 9.05904 11.449 9.93001 11.9309 11.0178L8.89328 12.4539L7.52035 9.3068C8.9361 8.66398 9.7609 8.28729 9.99475 8.17672C10.1912 8.08681 10.3492 8.05927 10.4689 8.09411ZM10.9269 10.7004L10.0686 8.88512L8.43773 9.65621L9.29601 11.4715L10.9269 10.7004ZM10.0837 9.33814L10.6462 10.612L9.32624 11.236L8.70153 9.78368C9.34139 9.49 9.7228 9.3141 9.84575 9.25597C9.91199 9.2276 9.96228 9.21857 9.99665 9.22887C10.0286 9.24031 10.0576 9.27673 10.0837 9.33814ZM9.8906 10.3896L9.64611 9.87246L9.39297 9.99214L9.63747 10.5093L9.8906 10.3896ZM15.4209 8.61995C15.5197 8.57322 15.5986 8.50935 15.6577 8.42834L15.8424 9.22148L15.2349 9.50872C15.0203 9.61016 14.8606 9.54999 14.7558 9.3282L14.3437 8.45669C14.3265 8.58872 14.3061 8.75766 14.2825 8.9635L14.1074 8.94892C14.2063 9.33281 14.2843 9.64109 14.3412 9.87375L13.944 10.035L13.7529 10.3421C13.6248 9.82161 13.5007 9.33458 13.3807 8.88104L13.1967 8.86626C13.1991 8.86512 13.2026 8.86937 13.2072 8.87901C13.1073 8.97344 13.0312 9.04333 12.9789 9.08871L13.6064 10.4158L12.5751 10.4433L12.7788 10.2939L12.4454 9.58871L12.1496 9.86133L11.9718 9.48524L11.7434 9.29234L12.1462 8.95587C12.0731 8.80754 12.0001 8.65623 11.9272 8.50194C11.8428 8.54184 11.727 8.59953 11.5798 8.67502L11.4066 8.25252L11.281 8.1084L11.657 7.93059L11.3527 7.2869L11.9855 6.9877L12.2899 7.63138L12.5322 7.51683L12.4884 7.47114L12.9405 7.25742L12.7581 6.60032L13.4054 6.29428L13.5769 6.95651L14.0651 6.72569C14.2121 6.65616 14.325 6.70457 14.4036 6.87092L15.2654 8.69347L15.4209 8.61995ZM13.194 8.17732L13.1093 7.87665L12.7839 8.03053L12.6303 7.61203C12.6069 7.58766 12.5824 7.56386 12.5567 7.54063L12.7678 8.1089C12.7233 8.12701 12.654 8.15829 12.56 8.20274L12.6985 8.49565C12.7253 8.47119 12.7812 8.42411 12.8662 8.35441L12.9822 8.5341L13.0385 8.16675L13.194 8.17732ZM13.9209 8.23626L14.2514 8.26142L13.8941 7.50564L13.7422 7.57745L13.9209 8.23626Z" fill="#3887FF"/>
</g>
<defs>
<clipPath id="clip0_2166_6793">
<rect width="20" height="20" fill="white"/>
</clipPath>
</defs>
</svg>
