<svg width="18" height="14" viewBox="0 0 18 14" fill="none" xmlns="http://www.w3.org/2000/svg">
<path d="M16.5645 6.20173H13.2378C12.8604 6.20173 12.5547 6.50907 12.5547 6.88757V7.10163C12.5547 7.48068 12.8604 7.78746 13.2378 7.78746H16.5645C16.942 7.78746 17.2477 7.48068 17.2477 7.10163V6.88757C17.2477 6.50907 16.942 6.20173 16.5645 6.20173ZM8.84572 0.315569C7.81105 1.13835 5.64571 2.29164 4.08751 3.40019L4.08534 3.40127C4.06754 3.41206 4.04975 3.47352 4.03196 3.48376C3.84756 3.58728 3.76507 3.87358 2.76436 3.87358H0.812C0.311118 3.87358 0 4.10811 0 4.63705V9.33864C0 9.86756 0.285215 10.1285 0.812 10.1285H2.77243C3.76829 10.1301 3.84916 10.4143 4.03248 10.5178C4.05028 10.5281 4.06752 10.5895 4.08586 10.6003L4.08802 10.6014C5.59718 11.7099 7.77706 12.9533 8.84624 13.7421C9.16812 13.9799 10.2389 14.3977 10.2389 12.9285C10.2389 11.1993 10.2389 2.78174 10.2389 1.06662C10.2389 -0.403161 9.15949 0.0664599 8.84569 0.315554L8.84572 0.315569ZM11.9179 3.55709C12.0948 3.86872 12.4447 3.94691 12.7003 3.73178L15.435 1.4268C15.6905 1.21168 15.7542 0.784645 15.5779 0.472468L15.4776 0.296161C15.3013 -0.0154707 14.9508 -0.0936629 14.6958 0.121475L11.9611 2.4259C11.7055 2.64157 11.6413 3.06859 11.8182 3.38024L11.9179 3.55709ZM12.6997 10.2693C12.4442 10.0542 12.0943 10.1323 11.9174 10.4434L11.8177 10.6197C11.6408 10.9314 11.7055 11.3584 11.9605 11.5741L14.6952 13.8785C14.9508 14.0936 15.3007 14.0155 15.477 13.7043L15.5773 13.528C15.7536 13.2164 15.6895 12.7894 15.4344 12.5737L12.6997 10.2693Z" fill="#FF6E30"/>
</svg>
