<svg width="64" height="64" viewBox="0 0 64 64" fill="none" xmlns="http://www.w3.org/2000/svg">
<circle cx="32" cy="32" r="32" fill="#E9DDFF"/>
<path d="M14.6431 23.4223L30.5032 31.0817C30.9163 31.2782 31.4697 31.3824 32.013 31.3824C32.5584 31.3824 33.1098 31.2782 33.5228 31.0817L49.3829 23.4223C50.219 23.0193 50.219 22.3616 49.3829 21.9586L33.5248 14.3013C33.0481 14.0943 32.5327 13.9918 32.0131 14.0005C31.4717 14.0005 30.9163 14.1027 30.5052 14.3012L14.6432 21.9607C13.809 22.3616 13.809 23.0193 14.6431 23.4223Z" fill="#9464E7"/>
<path d="M49.3854 31.2656L46.1031 29.6816C45.7201 29.4931 45.6159 29.5032 45.2129 29.6897C44.8118 29.8781 33.5133 35.3339 33.5133 35.3339C33.0922 35.5304 32.5488 35.6347 32.0055 35.6347C31.4621 35.6347 30.9087 35.5304 30.4957 35.3339C30.4957 35.3339 19.4999 30.0285 18.9846 29.7758C18.4232 29.5032 18.2628 29.5032 17.7555 29.7477L14.6256 31.2556C13.7915 31.6586 13.7915 32.3163 14.6256 32.7193L30.4856 40.3786C30.8987 40.5752 31.4521 40.6774 31.9955 40.6774C32.5388 40.6774 33.0922 40.5752 33.5052 40.3766L49.3654 32.7173C50.2195 32.3243 50.2195 31.6686 49.3854 31.2656Z" fill="#9464E7"/>
<path d="M49.3832 40.5774L46.1009 38.9934C45.7179 38.8049 45.6137 38.8129 45.2107 39.0014C44.8097 39.1899 33.5212 44.6557 33.5212 44.6557C33.1001 44.8502 32.5567 44.9544 32.0114 44.9544C31.47 44.9544 30.9146 44.8502 30.5035 44.6537C30.5035 44.6537 19.5058 39.3483 18.9904 39.0956C18.429 38.8229 18.2686 38.8229 17.7634 39.0676L14.6314 40.5774C13.7973 40.9784 13.7973 41.636 14.6314 42.0391L30.4935 49.6984C30.9066 49.903 31.4599 49.9992 32.0034 49.9992C32.5447 49.9992 33.1001 49.8949 33.5112 49.6984L49.3732 42.0391C50.2153 41.636 50.2153 40.9804 49.3832 40.5754L49.3832 40.5774Z" fill="#9464E7"/>
</svg>
