<svg width="12" height="12" viewBox="0 0 12 12"  xmlns="http://www.w3.org/2000/svg">
<path d="M6.1867 8.51292H3.79704C3.75297 8.51292 3.7107 8.49536 3.67953 8.4641C3.64837 8.43285 3.63086 8.39045 3.63086 8.34625C3.63086 8.30205 3.64837 8.25966 3.67953 8.2284C3.7107 8.19714 3.75297 8.17958 3.79704 8.17958H6.1867C6.23078 8.17958 6.27305 8.19714 6.30421 8.2284C6.33538 8.25966 6.35288 8.30205 6.35288 8.34625C6.35288 8.39045 6.33538 8.43285 6.30421 8.4641C6.27305 8.49536 6.23078 8.51292 6.1867 8.51292ZM8.75917 6.53125H6.3695C6.32543 6.53125 6.28316 6.51369 6.252 6.48244C6.22083 6.45118 6.20332 6.40879 6.20332 6.36458C6.20332 6.32038 6.22083 6.27799 6.252 6.24673C6.28316 6.21548 6.32543 6.19792 6.3695 6.19792H8.75917C8.80324 6.19792 8.84551 6.21548 8.87667 6.24673C8.90784 6.27799 8.92535 6.32038 8.92535 6.36458C8.92535 6.40879 8.90784 6.45118 8.87667 6.48244C8.84551 6.51369 8.80324 6.53125 8.75917 6.53125ZM6.00225 9.68792H8.57471V10.0213H6.00225V9.68792ZM6.20997 3.90458C6.04991 3.90458 5.89344 3.85698 5.76035 3.76779C5.62726 3.67861 5.52353 3.55184 5.46228 3.40353C5.40102 3.25522 5.385 3.09202 5.41622 2.93457C5.44745 2.77712 5.52453 2.6325 5.63771 2.51898C5.75089 2.40547 5.8951 2.32816 6.05208 2.29685C6.20907 2.26553 6.37179 2.2816 6.51967 2.34303C6.66755 2.40447 6.79395 2.5085 6.88287 2.64198C6.9718 2.77546 7.01927 2.93238 7.01927 3.09292C7.01883 3.30805 6.93342 3.51424 6.78174 3.66637C6.63007 3.81849 6.42447 3.90414 6.20997 3.90458ZM6.20997 2.61458C6.11564 2.61458 6.02343 2.64264 5.945 2.6952C5.86657 2.74776 5.80544 2.82246 5.76934 2.90987C5.73324 2.99727 5.7238 3.09345 5.7422 3.18624C5.7606 3.27902 5.80602 3.36425 5.87273 3.43115C5.93943 3.49805 6.02441 3.5436 6.11692 3.56206C6.20944 3.58052 6.30534 3.57104 6.39249 3.53484C6.47963 3.49864 6.55412 3.43733 6.60653 3.35867C6.65893 3.28 6.68691 3.18752 6.68691 3.09292C6.68691 2.96606 6.63666 2.84439 6.54721 2.75468C6.45777 2.66498 6.33646 2.61458 6.20997 2.61458Z" />
<path d="M9.21753 10.6666C9.05747 10.6666 8.901 10.619 8.76791 10.5298C8.63482 10.4406 8.53109 10.3139 8.46984 10.1656C8.40859 10.0172 8.39256 9.85405 8.42378 9.6966C8.45501 9.53915 8.53209 9.39453 8.64527 9.28101C8.75845 9.1675 8.90266 9.0902 9.05964 9.05888C9.21663 9.02756 9.37935 9.04363 9.52723 9.10507C9.67511 9.1665 9.80151 9.27053 9.89044 9.40401C9.97936 9.53749 10.0268 9.69442 10.0268 9.85495C10.0264 10.0701 9.94098 10.2763 9.7893 10.4284C9.63763 10.5805 9.43203 10.6662 9.21753 10.6666ZM9.21753 9.37662C9.1232 9.37662 9.03099 9.40467 8.95256 9.45723C8.87413 9.50979 8.813 9.58449 8.7769 9.6719C8.7408 9.7593 8.73136 9.85548 8.74976 9.94827C8.76816 10.0411 8.81358 10.1263 8.88029 10.1932C8.94699 10.2601 9.03197 10.3056 9.12449 10.3241C9.217 10.3425 9.3129 10.3331 9.40005 10.2969C9.48719 10.2607 9.56168 10.1994 9.61409 10.1207C9.66649 10.042 9.69447 9.94955 9.69447 9.85495C9.69447 9.72809 9.64422 9.60642 9.55477 9.51672C9.46533 9.42701 9.34402 9.37662 9.21753 9.37662ZM9.40199 7.17661C9.24193 7.17661 9.08546 7.12901 8.95237 7.03982C8.81928 6.95064 8.71555 6.82387 8.6543 6.67556C8.59304 6.52725 8.57702 6.36405 8.60824 6.2066C8.63947 6.04915 8.71655 5.90453 8.82973 5.79101C8.94291 5.6775 9.08712 5.6002 9.2441 5.56888C9.40109 5.53756 9.56381 5.55363 9.71169 5.61507C9.85957 5.6765 9.98597 5.78053 10.0749 5.91401C10.1638 6.04749 10.2113 6.20442 10.2113 6.36495C10.2108 6.58008 10.1254 6.78628 9.97376 6.9384C9.82209 7.09052 9.61649 7.17617 9.40199 7.17661ZM9.40199 5.88661C9.30766 5.88661 9.21545 5.91467 9.13702 5.96723C9.05859 6.01979 8.99746 6.09449 8.96136 6.1819C8.92526 6.2693 8.91582 6.36548 8.93422 6.45827C8.95262 6.55105 8.99804 6.63629 9.06475 6.70318C9.13145 6.77008 9.21643 6.81563 9.30894 6.83409C9.40146 6.85255 9.49736 6.84307 9.58451 6.80687C9.67165 6.77067 9.74614 6.70936 9.79855 6.6307C9.85095 6.55203 9.87893 6.45955 9.87893 6.36495C9.87893 6.23809 9.82868 6.11642 9.73923 6.02672C9.64979 5.93701 9.52848 5.88661 9.40199 5.88661ZM6.02023 3.73828H6.35259V10.0049H6.02023V3.73828ZM3.15695 9.06495C2.99689 9.06495 2.84042 9.01735 2.70733 8.92816C2.57424 8.83897 2.47051 8.71221 2.40926 8.56389C2.34801 8.41558 2.33198 8.25238 2.36321 8.09493C2.39443 7.93749 2.47151 7.79286 2.58469 7.67935C2.69788 7.56583 2.84208 7.48853 2.99907 7.45721C3.15605 7.42589 3.31878 7.44197 3.46666 7.5034C3.61454 7.56483 3.74093 7.66887 3.82986 7.80234C3.91878 7.93582 3.96625 8.09275 3.96625 8.25328C3.96581 8.46841 3.8804 8.67461 3.72873 8.82673C3.57705 8.97885 3.37146 9.06451 3.15695 9.06495ZM3.15695 7.77495C3.06262 7.77495 2.97041 7.803 2.89198 7.85556C2.81355 7.90812 2.75242 7.98283 2.71632 8.07023C2.68022 8.15764 2.67078 8.25381 2.68918 8.3466C2.70758 8.43939 2.75301 8.52462 2.81971 8.59151C2.88641 8.65841 2.97139 8.70397 3.06391 8.72242C3.15642 8.74088 3.25232 8.73141 3.33947 8.6952C3.42662 8.659 3.5011 8.59769 3.55351 8.51903C3.60592 8.44037 3.63389 8.34789 3.63389 8.25328C3.63389 8.12642 3.58364 8.00475 3.4942 7.91505C3.40475 7.82534 3.28344 7.77495 3.15695 7.77495Z" />
</svg>
