<svg width="56" height="56" viewBox="0 0 56 56" fill="none" xmlns="http://www.w3.org/2000/svg">
<circle cx="28" cy="28" r="28" fill="#FFE6E6"/>
<path d="M28.6742 25.8509C26.7049 25.8509 24.8162 25.0686 23.4236 23.676C22.0311 22.2835 21.2488 20.3948 21.2488 18.4255C21.2488 16.4561 22.0311 14.5674 23.4236 13.1749C24.8162 11.7823 26.7049 11 28.6742 11C30.6436 11 32.5323 11.7823 33.9248 13.1749C35.3173 14.5674 36.0997 16.4561 36.0997 18.4255C36.0997 20.3948 35.3173 22.2835 33.9248 23.676C32.5323 25.0686 30.6436 25.8509 28.6742 25.8509ZM32.799 43.604C24.6567 44.7425 13 43.4242 13 39.6508C13 33.8514 19.1624 29.1507 26.7636 29.1507C28.6016 29.1507 30.3555 29.4263 31.9576 29.9246C29.6939 31.1405 28.1396 33.6616 28.1396 36.5754C28.1396 39.8373 30.0882 42.6075 32.799 43.604ZM42.4972 35.3016L36.8479 40.3223C37.5764 40.6582 38.387 40.7744 39.1805 40.6566C39.974 40.5388 40.716 40.1922 41.3155 39.6592C41.915 39.1262 42.3461 38.43 42.556 37.6557C42.7659 36.8815 42.7455 36.0628 42.4972 35.3V35.3016ZM40.3094 32.8317C39.5802 32.4932 38.768 32.3752 37.9726 32.4922C37.1772 32.6091 36.4333 32.956 35.8324 33.4901C35.2315 34.0242 34.7998 34.7223 34.5904 35.4985C34.3809 36.2747 34.4029 37.0951 34.6535 37.859L40.3094 32.8317ZM38.5737 44C36.8567 43.9986 35.1932 43.4021 33.8663 42.3123C32.5395 41.2224 31.6313 39.7064 31.2964 38.0224C30.9614 36.3383 31.2204 34.5902 32.0292 33.0756C32.838 31.5609 34.1467 30.3734 35.7326 29.715C37.3195 29.0594 39.0845 28.9739 40.7274 29.4731C42.3702 29.9723 43.7893 31.0253 44.7431 32.453C45.697 33.8807 46.1267 35.5948 45.9591 37.3036C45.7914 39.0124 45.0369 40.6103 43.8238 41.8254C43.1343 42.5148 42.3158 43.0617 41.415 43.4349C40.5142 43.808 39.5487 44 38.5737 44Z" fill="#F76161"/>
</svg>
