<svg width="19" height="19" viewBox="0 0 19 19" fill="none" xmlns="http://www.w3.org/2000/svg">
<path d="M9.50016 11.8868C9.71012 11.8868 9.91149 11.8034 10.06 11.655C10.2084 11.5065 10.2918 11.3051 10.2918 11.0952V4.76183H12.7222C12.8199 4.76182 12.914 4.72573 12.9867 4.6605L13.0365 4.60667C13.0681 4.56534 13.0912 4.51821 13.1046 4.46795C13.1179 4.4177 13.1212 4.3653 13.1143 4.31377C13.1074 4.26223 13.0904 4.21256 13.0643 4.1676C13.0382 4.12263 13.0035 4.08325 12.9621 4.05171L9.88729 1.70521C9.78358 1.62597 9.65666 1.58311 9.52615 1.58325C9.39564 1.5834 9.26881 1.62653 9.16529 1.706L6.11341 4.05329C6.04803 4.10369 6.00005 4.17326 5.97617 4.25228C5.95229 4.3313 5.95371 4.4158 5.98023 4.49397C6.00675 4.57214 6.05705 4.64006 6.12408 4.68824C6.19111 4.73641 6.27153 4.76242 6.35408 4.76262H8.70849V11.096C8.70849 11.3059 8.7919 11.5073 8.94037 11.6558C9.08883 11.8042 9.2902 11.8876 9.50016 11.8876V11.8868ZM13.7617 6.35071C13.5613 6.37454 13.3776 6.47398 13.2481 6.62872C13.1186 6.78345 13.0531 6.9818 13.0649 7.18323C13.0767 7.38466 13.165 7.57398 13.3117 7.71249C13.4585 7.85101 13.6525 7.92828 13.8543 7.9285H15.8335V15.8452H3.16683V7.9285H5.146C5.35596 7.9285 5.55732 7.84509 5.70579 7.69663C5.85425 7.54816 5.93766 7.3468 5.93766 7.13683C5.93766 6.92687 5.85425 6.72551 5.70579 6.57704C5.55732 6.42857 5.35596 6.34517 5.146 6.34517H3.16683C2.9589 6.34517 2.75301 6.38612 2.56091 6.46569C2.36881 6.54526 2.19427 6.66189 2.04724 6.80891C1.90022 6.95594 1.78359 7.13049 1.70402 7.32258C1.62445 7.51468 1.5835 7.72057 1.5835 7.9285V15.8452C1.5835 16.0531 1.62445 16.259 1.70402 16.4511C1.78359 16.6432 1.90022 16.8177 2.04724 16.9648C2.19427 17.1118 2.36881 17.2284 2.56091 17.308C2.75301 17.3875 2.9589 17.4285 3.16683 17.4285H15.8335C16.0414 17.4285 16.2473 17.3875 16.4394 17.308C16.6315 17.2284 16.8061 17.1118 16.9531 16.9648C17.1001 16.8177 17.2167 16.6432 17.2963 16.4511C17.3759 16.259 17.4168 16.0531 17.4168 15.8452V7.9285C17.4168 7.72057 17.3759 7.51468 17.2963 7.32258C17.2167 7.13049 17.1001 6.95594 16.9531 6.80891C16.8061 6.66189 16.6315 6.54526 16.4394 6.46569C16.2473 6.38612 16.0414 6.34517 15.8335 6.34517H13.8543L13.7617 6.35071Z" fill="var(--base-color)"/>
</svg>
