<svg width="7" height="11" viewBox="0 0 7 11" fill="none" xmlns="http://www.w3.org/2000/svg">
<path d="M0.458584 4.58347C0.373931 4.58352 0.290919 4.56013 0.218751 4.51588C0.146584 4.47163 0.0880811 4.40826 0.0497306 4.33279C0.01138 4.25733 -0.00532025 4.17271 0.00148236 4.08833C0.00828498 4.00396 0.0383241 3.92311 0.0882691 3.85476L2.76205 0.188282C2.80458 0.12995 2.8603 0.0824922 2.92465 0.0497732C2.989 0.0170542 3.06017 0 3.13236 0C3.20456 0 3.27573 0.0170542 3.34008 0.0497732C3.40443 0.0824922 3.46014 0.12995 3.50268 0.188282L6.17646 3.85476C6.2264 3.92311 6.25644 4.00396 6.26325 4.08833C6.27005 4.17271 6.25335 4.25733 6.215 4.33279C6.17665 4.40826 6.11814 4.47163 6.04598 4.51588C5.97381 4.56013 5.8908 4.58352 5.80614 4.58347H4.9656V10.5417C4.9656 10.6019 4.95375 10.6615 4.93072 10.7171C4.90768 10.7727 4.87393 10.8232 4.83137 10.8658C4.78881 10.9083 4.73829 10.9421 4.68268 10.9651C4.62708 10.9881 4.56748 11 4.50729 11H1.75743C1.69725 11 1.63765 10.9881 1.58205 10.9651C1.52644 10.9421 1.47592 10.9083 1.43336 10.8658C1.3908 10.8232 1.35704 10.7727 1.33401 10.7171C1.31098 10.6615 1.29912 10.6019 1.29912 10.5417V4.58347H0.458584Z" fill="#FD3D3D"/>
</svg>
