<svg width="7" height="11" viewBox="0 0 7 11" fill="none" xmlns="http://www.w3.org/2000/svg">
<path d="M0.458584 6.41653C0.373931 6.41648 0.290919 6.43987 0.218751 6.48412C0.146584 6.52837 0.0880811 6.59174 0.0497306 6.66721C0.01138 6.74267 -0.00532025 6.82729 0.00148236 6.91167C0.00828498 6.99604 0.0383241 7.07689 0.0882691 7.14524L2.76205 10.8117C2.80458 10.87 2.8603 10.9175 2.92465 10.9502C2.989 10.9829 3.06017 11 3.13236 11C3.20456 11 3.27573 10.9829 3.34008 10.9502C3.40443 10.9175 3.46014 10.87 3.50268 10.8117L6.17646 7.14524C6.2264 7.07689 6.25644 6.99604 6.26325 6.91167C6.27005 6.82729 6.25335 6.74267 6.215 6.66721C6.17665 6.59174 6.11814 6.52837 6.04598 6.48412C5.97381 6.43987 5.8908 6.41648 5.80614 6.41653H4.9656V0.45831C4.9656 0.398125 4.95375 0.338528 4.93072 0.282923C4.90768 0.227318 4.87393 0.176794 4.83137 0.134236C4.78881 0.0916777 4.73829 0.0579185 4.68268 0.0348864C4.62708 0.0118542 4.56748 0 4.50729 0H1.75743C1.69725 0 1.63765 0.0118542 1.58205 0.0348864C1.52644 0.0579185 1.47592 0.0916777 1.43336 0.134236C1.3908 0.176794 1.35704 0.227318 1.33401 0.282923C1.31098 0.338528 1.29912 0.398125 1.29912 0.45831V6.41653H0.458584Z" fill="#12C624"/>
</svg>
