<svg width="12" height="12" viewBox="0 0 12 12" fill="var(--base-color)" xmlns="http://www.w3.org/2000/svg">
<g clip-path="url(#clip0_4536_40994)">
<path d="M11.3771 2.76812C10.7232 1.53884 9.62982 0.637685 8.29742 0.229879C6.96737 -0.176755 5.55645 -0.04082 4.32718 0.613076C3.0979 1.26697 2.19674 2.36031 1.79011 3.69154C1.70573 3.96927 1.64363 4.25638 1.60613 4.54465C1.43855 5.83838 1.75847 7.13797 2.50142 8.1985C2.63267 8.39303 2.60572 8.65201 2.43463 8.81958L0.172947 11.0813C-0.0368156 11.291 -0.0368156 11.632 0.172947 11.8418C0.278414 11.9473 0.415521 12 0.5538 12C0.692079 12 0.829186 11.9473 0.934653 11.8418L3.19282 9.5848C3.73187 9.05747 3.81742 8.22076 3.38969 7.58796C2.79556 6.74071 2.54127 5.70948 2.67486 4.68293C2.70416 4.45442 2.75337 4.22591 2.82134 4.0056C3.14243 2.94976 3.85726 2.08258 4.83225 1.56345C5.80723 1.04432 6.92635 0.936508 7.98337 1.25994C9.03921 1.5822 9.90755 2.29703 10.4267 3.27319C10.9458 4.24817 11.0536 5.36729 10.7302 6.42431C10.0634 8.60513 7.74782 9.83675 5.56583 9.16997C5.28224 9.08325 4.98107 9.24262 4.89435 9.52738C4.80764 9.81215 4.96701 10.1121 5.25177 10.1989C7.99743 11.0391 10.92 9.48637 11.7603 6.7372C12.1657 5.40714 12.0298 3.99622 11.3771 2.76812Z" fill="var(--base-color)"/>
<path d="M6.24294 5.76402V6.9183C6.24294 7.21595 6.48434 7.45618 6.78082 7.45618C7.0773 7.45618 7.3187 7.21478 7.3187 6.9183V5.76402H8.47416C8.77181 5.76402 9.01204 5.52262 9.01204 5.22614C9.01204 4.92966 8.77063 4.68825 8.47416 4.68825H7.3187V3.53398C7.3187 3.23632 7.0773 2.99609 6.78082 2.99609C6.48434 2.99609 6.24294 3.2375 6.24294 3.53398V4.68825H5.08866C4.79101 4.68825 4.55078 4.92966 4.55078 5.22614C4.55078 5.52262 4.79218 5.76402 5.08866 5.76402H6.24294Z" fill="var(--base-color)"/>
</g>
<defs>
<clipPath id="clip0_4536_40994">
<rect width="12" height="12" fill="white"/>
</clipPath>
</defs>
</svg>
