<svg viewBox="0 0 1024 1024" version="1.1" xmlns="http://www.w3.org/2000/svg" width="200" height="200">
<path d="M512 64c247.424 0 448 200.576 448 448S759.424 960 512 960 64 759.424 64 512 264.576 64 512 64z m0.193 635c-13.488 0-24.595 4.034-33.323 13.714-9.52 8.874-14.28 20.168-14.28 33.883 0 13.714 4.76 25.008 14.28 34.689C487.598 790.16 498.705 795 512.193 795c13.487 0 25.388-4.84 34.909-13.714 8.727-8.874 13.487-20.168 13.487-34.69 0-13.714-4.76-25.008-13.487-33.882-9.52-9.68-20.628-13.714-34.91-13.714z m32.396-470c-35.346 0-64 28.654-64 64v342l1.059-0.009c34.858-0.565 62.941-28.998 62.941-63.991z"></path>
</svg>