<svg width="56" height="56" viewBox="0 0 56 56" fill="none" xmlns="http://www.w3.org/2000/svg">
<circle cx="28" cy="28" r="28" fill="#DEFFE0"/>
<ellipse cx="29.2768" cy="26.6752" rx="13.001" ry="9.5152" fill="white"/>
<path d="M28.5293 10C18.8482 10 11 17.835 11 27.5C11 37.165 18.8482 45 28.5293 45C38.2106 45 46.0586 37.165 46.0586 27.5C46.0586 17.835 38.2106 10 28.5293 10ZM38.1676 23.3053L26.8834 34.8341C26.3643 35.3645 25.5222 35.3645 25.0031 34.8341L18.891 28.5892C18.3716 28.0587 18.3716 27.1986 18.891 26.668C19.4101 26.1373 20.2523 26.1373 20.7713 26.668L25.9433 31.952L36.287 21.384C36.8064 20.8534 37.6486 20.8534 38.1677 21.384C38.6871 21.9145 38.6871 22.7747 38.1677 23.3053H38.1676Z" fill="#3DDD47"/>
</svg>
