<svg width="16" height="15" viewBox="0 0 16 15" fill="none" xmlns="http://www.w3.org/2000/svg">
<path d="M12.9734 0H2.71899C1.30047 0 0.155396 1.11744 0.155396 2.50174V10.8409C0.155396 12.2252 1.30047 13.3426 2.71899 13.3426H5.55604L6.83784 14.5935C7.39329 15.1355 8.29055 15.1355 8.83745 14.5935L10.1192 13.3426H12.9734C14.3919 13.3426 15.537 12.2252 15.537 10.8409V2.50174C15.537 1.11744 14.3919 0 12.9734 0ZM10.4098 5.00347C10.8798 5.00347 11.2643 5.37874 11.2643 5.83739C11.2643 6.29604 10.8798 6.6713 10.4098 6.6713H8.70072V7.50521H10.4098C10.8798 7.50521 11.2643 7.88047 11.2643 8.33912C11.2643 8.79778 10.8798 9.17304 10.4098 9.17304H8.70072V10.0069C8.70072 10.4656 8.31618 10.8409 7.84619 10.8409C7.3762 10.8409 6.99166 10.4656 6.99166 10.0069V9.17304H5.28259C4.8126 9.17304 4.42806 8.79778 4.42806 8.33912C4.42806 7.88047 4.8126 7.50521 5.28259 7.50521H6.99166V6.6713H5.28259C4.8126 6.6713 4.42806 6.29604 4.42806 5.83739C4.42806 5.37874 4.8126 5.00347 5.28259 5.00347H5.76968L4.66733 3.92773C4.50711 3.76865 4.41733 3.55453 4.41733 3.33148C4.41733 3.10843 4.50711 2.89431 4.66733 2.73523C4.83034 2.57888 5.04975 2.49127 5.27832 2.49127C5.50688 2.49127 5.7263 2.57888 5.88931 2.73523L7.84619 4.64489L9.80307 2.73523C9.96608 2.57888 10.1855 2.49127 10.4141 2.49127C10.6426 2.49127 10.862 2.57888 11.0251 2.73523C11.3583 3.06046 11.3583 3.59416 11.0251 3.92773L9.9227 5.00347H10.4098Z" fill="white"/>
</svg>
