<svg width="15" height="15" viewBox="0 0 15 15" fill="none" xmlns="http://www.w3.org/2000/svg">
<path d="M12.4921 0H11.6593V1.66667C11.6593 2.125 11.2846 2.5 10.8265 2.5C10.3685 2.5 9.99372 2.125 9.99372 1.66667V0H4.99686V1.66667C4.99686 2.125 4.62209 2.5 4.16405 2.5C3.706 2.5 3.33124 2.125 3.33124 1.66667V0H2.49843C1.11596 0 0 1.11667 0 2.5V12.5C0 13.8833 1.11596 15 2.49843 15H12.4921C13.8746 15 14.9906 13.8833 14.9906 12.5V2.5C14.9906 1.11667 13.8746 0 12.4921 0ZM10.8265 10.8333H4.16405C3.706 10.8333 3.33124 10.4583 3.33124 10C3.33124 9.54167 3.706 9.16667 4.16405 9.16667H10.8265C11.2846 9.16667 11.6593 9.54167 11.6593 10C11.6593 10.4583 11.2846 10.8333 10.8265 10.8333ZM10.8265 7.5H4.16405C3.706 7.5 3.33124 7.125 3.33124 6.66667C3.33124 6.20833 3.706 5.83333 4.16405 5.83333H10.8265C11.2846 5.83333 11.6593 6.20833 11.6593 6.66667C11.6593 7.125 11.2846 7.5 10.8265 7.5Z" fill="white"/>
</svg>
