<svg width="56" height="56" viewBox="0 0 56 56" fill="none" xmlns="http://www.w3.org/2000/svg">
<circle cx="28" cy="28" r="28" fill="#EEE9FF"/>
<ellipse cx="26" cy="27" rx="12" ry="5" fill="white"/>
<path d="M40.1506 36.204C41.6668 33.7328 42.5162 30.37 42.5162 27.2583C42.5162 18.2791 35.2373 11 26.2581 11C17.2792 11 10 18.2791 10 27.2583C10 36.2373 17.2791 43.5164 26.2581 43.5164C29.1919 43.5164 31.944 42.7394 34.3202 41.3798C35.5351 40.6847 41.1163 47.4689 43.951 45.7068C47.3278 43.6076 39.4518 37.3427 40.1506 36.204ZM19.2402 29.3313C18.012 29.3313 17.0164 28.3356 17.0164 27.1074C17.0164 25.8792 18.012 24.8835 19.2402 24.8835C20.4685 24.8835 21.4641 25.8792 21.4641 27.1074C21.4641 28.3356 20.4685 29.3313 19.2402 29.3313ZM26.1932 29.3313C24.965 29.3313 23.9693 28.3356 23.9693 27.1074C23.9693 25.8792 24.965 24.8835 26.1932 24.8835C27.4214 24.8835 28.417 25.8792 28.417 27.1074C28.417 28.3356 27.4214 29.3313 26.1932 29.3313ZM33.146 29.3313C31.9178 29.3313 30.9222 28.3356 30.9222 27.1074C30.9222 25.8792 31.9178 24.8835 33.146 24.8835C34.3742 24.8835 35.3699 25.8792 35.3699 27.1074C35.3699 28.3356 34.3742 29.3313 33.146 29.3313Z" fill="#9D84EF"/>
</svg>
