<svg width="56" height="56" viewBox="0 0 56 56" fill="none" xmlns="http://www.w3.org/2000/svg">
<circle cx="28" cy="28" r="28" fill="#DCFAFF"/>
<path d="M17.2856 13.7144H35.2856L31.8571 27.4286H17.2856V13.7144Z" fill="white"/>
<path d="M14.7144 28.2858H28.4286L27.5715 36.8572H14.7144V28.2858Z" fill="white"/>
<ellipse cx="36.5711" cy="34.2858" rx="6.42857" ry="6" fill="white"/>
<path d="M28 34.7986C28 30.144 31.7412 26.4028 36.3958 26.4028C37.7482 26.4028 39.0129 26.7014 40.137 27.2986V16.2155C40.137 13.897 38.24 12 35.9215 12H16.9169C14.7564 12 13 13.7564 13 15.9169V37.4859C13 39.9625 15.0199 41.9824 17.4965 41.9824H32.1101C29.6335 40.5597 28 37.8724 28 34.7986ZM24.9438 18.7447L26.9637 14.6522L28.9836 18.7447L33.4977 19.3946L30.2307 22.5913L31.0035 27.0878L26.9637 24.9625L22.9239 27.0878L23.6967 22.5913L20.4122 19.3946L24.9438 18.7447ZM26.0328 35.1323H16.1967C15.6874 35.1323 15.2834 34.7108 15.2834 34.219C15.2834 33.7096 15.7049 33.3056 16.1967 33.3056H26.0504C26.5597 33.3056 26.9637 33.7272 26.9637 34.219C26.9637 34.7283 26.5422 35.1323 26.0328 35.1323ZM26.8583 30.9169H16.2318C15.7049 30.9169 15.2658 30.4778 15.2658 29.9508C15.2658 29.4239 15.7049 28.9848 16.2318 28.9848H26.8583C27.3852 28.9848 27.8244 29.4239 27.8244 29.9508C27.8244 30.4778 27.4028 30.9169 26.8583 30.9169ZM36.308 27.5972C32.3384 27.5972 29.1066 30.8115 29.1066 34.7986C29.1066 38.7681 32.3208 42 36.308 42C40.2775 42 43.5094 38.7857 43.5094 34.7986C43.5094 30.829 40.2775 27.5972 36.308 27.5972ZM35.3244 39.014C34.9731 39.3653 34.411 39.3653 34.0597 39.014L30.4941 35.4485L30.4766 35.4309C30.1429 35.0972 30.1429 34.5527 30.4941 34.219C30.8279 33.8852 31.3724 33.8852 31.7061 34.2365L34.692 37.2225L40.4356 31.4789C40.7693 31.1452 41.3138 31.1452 41.6475 31.4789C41.9813 31.8126 41.9813 32.3571 41.6475 32.6909L35.3244 39.014Z" fill="#2FC8E1"/>
</svg>
