<svg width="56" height="56" viewBox="0 0 56 56" fill="none" xmlns="http://www.w3.org/2000/svg">
<circle cx="28" cy="28" r="28" fill="#FFF1E6"/>
<rect x="16.3687" y="20.2631" width="22.7368" height="16.8421" fill="white"/>
<path d="M20.3684 13.6667C20.3684 15.0812 20.886 16.4377 21.8072 17.4379C22.7284 18.4381 23.9779 19 25.2807 19H30.193C31.4958 19 32.7453 18.4381 33.6665 17.4379C34.5877 16.4377 35.1053 15.0812 35.1053 13.6667H37.5614C38.8642 13.6667 40.1137 14.2286 41.0349 15.2288C41.9561 16.229 42.4737 17.5855 42.4737 19V37.6667C42.4737 39.0812 41.9561 40.4377 41.0349 41.4379C40.1137 42.4381 38.8642 43 37.5614 43H17.9123C16.6095 43 15.36 42.4381 14.4388 41.4379C13.5175 40.4377 13 39.0812 13 37.6667V19C13 17.5855 13.5175 16.229 14.4388 15.2288C15.36 14.2286 16.6095 13.6667 17.9123 13.6667H20.3684ZM28.9657 24.3333C28.64 24.3333 28.3276 24.4738 28.0973 24.7239C27.867 24.9739 27.7376 25.313 27.7376 25.6667C27.7376 26.0203 27.867 26.3594 28.0973 26.6095C28.3276 26.8595 28.64 27 28.9657 27H36.3326C36.6583 27 36.9706 26.8595 37.201 26.6095C37.4313 26.3594 37.5607 26.0203 37.5607 25.6667C37.5607 25.313 37.4313 24.9739 37.201 24.7239C36.9706 24.4738 36.6583 24.3333 36.3326 24.3333H28.9642H28.9657ZM28.9657 32.3333C28.64 32.3333 28.3276 32.4738 28.0973 32.7239C27.867 32.9739 27.7376 33.313 27.7376 33.6667C27.7376 34.0203 27.867 34.3594 28.0973 34.6095C28.3276 34.8595 28.64 35 28.9657 35H36.3326C36.6583 35 36.9706 34.8595 37.201 34.6095C37.4313 34.3594 37.5607 34.0203 37.5607 33.6667C37.5607 33.313 37.4313 32.9739 37.201 32.7239C36.9706 32.4738 36.6583 32.3333 36.3326 32.3333H28.9642H28.9657ZM20.8748 24.8847L20.0087 23.9444C19.8956 23.8162 19.76 23.7138 19.6099 23.6431C19.4599 23.5725 19.2983 23.5352 19.1348 23.5332C18.9712 23.5313 18.809 23.5648 18.6575 23.6318C18.5061 23.6988 18.3685 23.798 18.2528 23.9235C18.1371 24.049 18.0456 24.1983 17.9837 24.3627C17.9219 24.5271 17.8909 24.7032 17.8925 24.8808C17.8942 25.0583 17.9285 25.2337 17.9934 25.3967C18.0583 25.5597 18.1525 25.707 18.2705 25.8299L20.0087 27.7138C20.1223 27.8385 20.2575 27.9375 20.4065 28.0051C20.5556 28.0726 20.7155 28.1074 20.877 28.1074C21.0386 28.1074 21.1985 28.0726 21.3475 28.0051C21.4966 27.9375 21.6318 27.8385 21.7454 27.7138L25.2172 23.9444C25.4168 23.7258 25.5408 23.439 25.5681 23.1326C25.5954 22.8262 25.5244 22.5189 25.3671 22.2628C25.2097 22.0067 24.9758 21.8174 24.7047 21.7271C24.4337 21.6367 24.1422 21.6507 23.8796 21.7668C23.7304 21.8336 23.5948 21.9318 23.4805 22.0556L20.8778 24.8847H20.8748ZM20.8748 32.8847L20.0087 31.9444C19.8956 31.8162 19.76 31.7138 19.6099 31.6431C19.4599 31.5725 19.2983 31.5352 19.1348 31.5332C18.9712 31.5313 18.809 31.5648 18.6575 31.6318C18.5061 31.6988 18.3685 31.798 18.2528 31.9235C18.1371 32.049 18.0456 32.1983 17.9837 32.3627C17.9219 32.5271 17.8909 32.7032 17.8925 32.8808C17.8942 33.0583 17.9285 33.2337 17.9934 33.3967C18.0583 33.5597 18.1525 33.707 18.2705 33.8299L20.0087 35.7155C20.1223 35.8402 20.2575 35.9392 20.4065 36.0067C20.5556 36.0743 20.7155 36.1091 20.877 36.1091C21.0386 36.1091 21.1985 36.0743 21.3475 36.0067C21.4966 35.9392 21.6318 35.8402 21.7454 35.7155L25.2172 31.9444C25.4168 31.7258 25.5408 31.439 25.5681 31.1326C25.5954 30.8262 25.5244 30.5189 25.3671 30.2628C25.2097 30.0067 24.9758 29.8174 24.7047 29.7271C24.4337 29.6367 24.1422 29.6507 23.8796 29.7668C23.7304 29.8337 23.5948 29.9318 23.4805 30.0556L20.8778 32.8847H20.8748ZM25.2807 11H30.193C30.8444 11 31.4691 11.281 31.9297 11.781C32.3904 12.2811 32.6491 12.9594 32.6491 13.6667C32.6491 14.3739 32.3904 15.0522 31.9297 15.5523C31.4691 16.0524 30.8444 16.3333 30.193 16.3333H25.2807C24.6293 16.3333 24.0046 16.0524 23.544 15.5523C23.0833 15.0522 22.8246 14.3739 22.8246 13.6667C22.8246 12.9594 23.0833 12.2811 23.544 11.781C24.0046 11.281 24.6293 11 25.2807 11Z" fill="#FF9038"/>
</svg>
