<svg width="13" height="15" viewBox="0 0 13 15" fill="none" xmlns="http://www.w3.org/2000/svg">
<path d="M13 11.6518V0.401786C13 0.1875 12.7996 0 12.5705 0H2.89207C1.31718 0 0.0286343 1.125 0.0286343 2.51786V12.7768C-3.20014e-08 12.8839 -1.67523e-08 12.9911 0 13.0982C0 14.1429 0.916299 15 2.06167 15H12.4273C12.7423 15 13 14.7589 13 14.4643V11.7321V11.6518ZM3.86564 7.33929C3.86564 7.09822 4.06608 6.91072 4.32379 6.91072H5.69824C5.84141 6.91072 5.84141 6.77679 5.84141 6.48214C5.84141 6.1875 5.03965 5.91964 5.03965 4.875C5.03965 3.80357 5.87004 3.50893 6.5859 3.50893C7.30176 3.50893 8.04626 3.83036 8.04626 4.875C8.04626 5.94643 7.24449 6.10714 7.24449 6.48214C7.24449 6.85714 7.24449 6.91072 7.38767 6.91072H8.73348C8.99119 6.91072 9.19163 7.09822 9.19163 7.33929V8.30357H3.86564V7.33929ZM11.8546 13.9286H2.06167C1.54626 13.9286 1.14537 13.5536 1.14537 13.0982C1.14537 12.6429 1.54626 12.2679 2.06167 12.2679H11.8546V13.9286Z" fill="white"/>
</svg>
