<svg width="12" height="12" viewBox="0 0 12 12" fill="none" xmlns="http://www.w3.org/2000/svg">
<circle cx="6" cy="6" r="6" fill="#ED7B2F"/>
<path d="M5.74219 4.76562C5.74219 4.65625 5.73438 4.5 5.71875 4.29688H6.23438C6.21875 4.5 6.21094 4.65625 6.21094 4.76562H7.19531C7.42969 4.76562 7.70312 4.75781 8.01562 4.74219V5.14062C7.71875 5.125 7.45312 5.11719 7.21875 5.11719H6.21094V5.75H7.89844C8.14844 5.75 8.42969 5.74219 8.74219 5.72656V6.14844C8.44531 6.13281 8.16406 6.125 7.89844 6.125H7.40625V6.73438C7.79688 6.73438 8.125 6.72656 8.39062 6.71094V7.13281C8.07812 7.11719 7.75 7.10938 7.40625 7.10938V7.88281C7.42188 8.16406 7.33594 8.33594 7.14844 8.39844C6.97656 8.47656 6.70312 8.53906 6.32812 8.58594C6.29688 8.39844 6.23438 8.22656 6.14062 8.07031C6.40625 8.08594 6.60156 8.08594 6.72656 8.07031C6.85156 8.05469 6.91406 7.94531 6.91406 7.74219V7.10938H4.45312C4.25 7.10938 3.98438 7.11719 3.65625 7.13281V6.71094C3.96875 6.72656 4.26562 6.73438 4.54688 6.73438H6.91406V6.125H4.00781C3.80469 6.125 3.53125 6.13281 3.1875 6.14844V5.72656C3.53125 5.74219 3.80469 5.75 4.00781 5.75H5.74219V5.11719H4.80469C4.58594 5.11719 4.3125 5.125 3.98438 5.14062V4.74219C4.40625 4.75781 4.67969 4.76562 4.80469 4.76562H5.74219ZM4.71094 3.21875C4.61719 3.28125 4.51562 3.39844 4.40625 3.57031H5.25C5.57812 3.57031 5.85156 3.5625 6.07031 3.54688V3.92188C5.89844 3.90625 5.67969 3.89844 5.41406 3.89844H5.13281C5.21094 4.02344 5.30469 4.1875 5.41406 4.39062C5.22656 4.45312 5.05469 4.50781 4.89844 4.55469C4.89844 4.52344 4.82031 4.30469 4.66406 3.89844H4.24219C4.11719 4.08594 3.9375 4.32031 3.70312 4.60156C3.5625 4.49219 3.41406 4.40625 3.25781 4.34375C3.47656 4.17188 3.65625 3.97656 3.79688 3.75781C3.9375 3.53906 4.0625 3.29688 4.17188 3.03125C4.35938 3.10938 4.53906 3.17188 4.71094 3.21875ZM6.46875 4.36719C6.34375 4.28906 6.19531 4.22656 6.02344 4.17969C6.17969 4.05469 6.3125 3.89844 6.42188 3.71094C6.53125 3.52344 6.63281 3.3125 6.72656 3.07812C6.89844 3.14062 7.07812 3.20312 7.26562 3.26562C7.14062 3.375 7.04688 3.48438 6.98438 3.59375H7.94531C8.05469 3.59375 8.32031 3.58594 8.74219 3.57031V3.94531C8.44531 3.92969 8.15625 3.92188 7.875 3.92188C8.04688 4.20312 8.17188 4.39844 8.25 4.50781C8.03125 4.55469 7.85156 4.60156 7.71094 4.64844C7.67969 4.50781 7.57812 4.26562 7.40625 3.92188H6.79688C6.71875 4.04688 6.60938 4.19531 6.46875 4.36719ZM5.41406 7.92969C5.27344 8.00781 5.13281 8.09375 4.99219 8.1875C4.85156 7.92188 4.66406 7.66406 4.42969 7.41406C4.53906 7.35156 4.66406 7.26562 4.80469 7.15625C5.03906 7.40625 5.24219 7.66406 5.41406 7.92969Z" fill="white"/>
</svg>
