<svg width="12" height="12" viewBox="0 0 12 12" fill="none" xmlns="http://www.w3.org/2000/svg">
<circle cx="6" cy="6" r="6" fill="#E34D59"/>
<path d="M3.88281 7.88281H3.32031L2.99219 6.64062H1.96094L1.63281 7.88281H1.07031L2.24219 3.82812H2.71094L3.88281 7.88281ZM2.875 6.19531L2.5 4.76562H2.45312L2.07812 6.19531H2.875ZM6.76562 5.09375C6.76562 5.46875 6.65625 5.76562 6.4375 5.98438C6.21875 6.20312 5.91406 6.3125 5.52344 6.3125H4.84375V7.88281H4.30469V3.875H5.52344C5.91406 3.875 6.21875 3.98438 6.4375 4.20312C6.65625 4.42188 6.76562 4.71875 6.76562 5.09375ZM6.22656 5.09375C6.22656 4.79688 6.15625 4.59375 6.01562 4.48438C5.875 4.375 5.66406 4.32031 5.38281 4.32031H4.84375V5.86719H5.38281C5.66406 5.86719 5.875 5.8125 6.01562 5.70312C6.15625 5.59375 6.22656 5.39062 6.22656 5.09375ZM9.71875 6.75781C9.71875 7.11719 9.60156 7.40625 9.36719 7.625C9.14844 7.82812 8.84375 7.92969 8.45312 7.92969C8.0625 7.92969 7.75781 7.82031 7.53906 7.60156C7.32031 7.38281 7.21094 7.10938 7.21094 6.78125V6.61719H7.75V6.75781C7.75 6.99219 7.82031 7.17188 7.96094 7.29688C8.10156 7.42188 8.26562 7.48438 8.45312 7.48438C8.70312 7.48438 8.88281 7.42188 8.99219 7.29688C9.11719 7.15625 9.17969 6.99219 9.17969 6.80469C9.17969 6.64844 9.10938 6.50781 8.96875 6.38281C8.82812 6.24219 8.625 6.11719 8.35938 6.00781C7.98438 5.86719 7.71094 5.71094 7.53906 5.53906C7.38281 5.36719 7.30469 5.16406 7.30469 4.92969C7.30469 4.60156 7.41406 4.33594 7.63281 4.13281C7.86719 3.92969 8.14062 3.82812 8.45312 3.82812C8.85938 3.82812 9.14844 3.95312 9.32031 4.20312C9.50781 4.4375 9.60156 4.69531 9.60156 4.97656H9.0625C9.07812 4.80469 9.03125 4.64844 8.92188 4.50781C8.8125 4.36719 8.65625 4.29688 8.45312 4.29688C8.26562 4.29688 8.11719 4.35156 8.00781 4.46094C7.89844 4.55469 7.84375 4.6875 7.84375 4.85938C7.84375 5 7.88281 5.125 7.96094 5.23438C8.05469 5.32812 8.28125 5.44531 8.64062 5.58594C8.98438 5.72656 9.25 5.89844 9.4375 6.10156C9.625 6.28906 9.71875 6.50781 9.71875 6.75781Z" fill="white"/>
</svg>
