<svg width="12" height="12" viewBox="0 0 12 12" fill="none" xmlns="http://www.w3.org/2000/svg">
<circle cx="6" cy="6" r="6" fill="#00A870"/>
<path d="M8.57812 7.36719C8.42188 7.33594 8.21094 7.32031 7.94531 7.32031H6.77344V7.85938C6.77344 8.15625 6.78125 8.39062 6.79688 8.5625H6.30469C6.32031 8.39062 6.32812 8.17188 6.32812 7.90625V4.0625C6.32812 3.64062 6.32031 3.35156 6.30469 3.19531H6.82031C6.78906 3.35156 6.77344 3.51562 6.77344 3.6875V4.20312H7.875C8.10938 4.20312 8.32031 4.19531 8.50781 4.17969V4.625C8.32031 4.60938 8.09375 4.60156 7.82812 4.60156H6.77344V5.49219H7.75781C7.97656 5.49219 8.16406 5.48438 8.32031 5.46875V5.89062C8.17969 5.875 7.99219 5.86719 7.75781 5.86719H6.77344V6.92188H7.94531C8.17969 6.92188 8.39062 6.91406 8.57812 6.89844V7.36719ZM5.01562 4.20312V3.6875C5.01562 3.57812 5.00781 3.42969 4.99219 3.24219H5.50781C5.49219 3.39844 5.48438 3.65625 5.48438 4.01562V7.55469C5.48438 7.91406 5.49219 8.22656 5.50781 8.49219H4.99219C5.00781 8.22656 5.01562 8.01562 5.01562 7.85938V7.32031H3.96094C3.74219 7.32031 3.53125 7.33594 3.32812 7.36719V6.89844C3.53125 6.91406 3.73438 6.92188 3.9375 6.92188H5.01562V5.86719H4.3125C4.09375 5.86719 3.85938 5.875 3.60938 5.89062V5.46875C3.85938 5.48438 4.10156 5.49219 4.33594 5.49219H5.01562V4.60156H4.03125C3.84375 4.60156 3.63281 4.60938 3.39844 4.625V4.17969C3.63281 4.19531 3.84375 4.20312 4.03125 4.20312H5.01562Z" fill="white"/>
</svg>
