<svg width="12" height="12" viewBox="0 0 12 12" fill="none" xmlns="http://www.w3.org/2000/svg">
<circle cx="6" cy="6" r="6" fill="#0052D9"/>
<path d="M8.48438 7.76562C8.45312 8.07812 8.35156 8.27344 8.17969 8.35156C8.00781 8.42969 7.74219 8.49219 7.38281 8.53906C7.35156 8.35156 7.28125 8.17969 7.17188 8.02344C7.48438 8.03906 7.70312 8.02344 7.82812 7.97656C7.95312 7.92969 8.02344 7.83594 8.03906 7.69531L8.08594 4.48438H6.44531C6.30469 4.79688 6.14844 5.09375 5.97656 5.375C5.88281 5.29688 5.75781 5.22656 5.60156 5.16406C5.80469 4.88281 5.98438 4.53906 6.14062 4.13281C6.29688 3.71094 6.39844 3.375 6.44531 3.125C6.63281 3.20312 6.79688 3.26562 6.9375 3.3125C6.85938 3.4375 6.74219 3.69531 6.58594 4.08594H8.55469C8.53906 4.35156 8.53125 4.69531 8.53125 5.11719L8.48438 7.76562ZM5.13281 6.875V3.89844H3.91406V7.01562H3.46875C3.48438 6.65625 3.49219 6.07031 3.49219 5.25781C3.49219 4.44531 3.48438 3.86719 3.46875 3.52344H5.55469C5.53906 3.86719 5.53125 4.42188 5.53125 5.1875C5.53125 5.9375 5.53906 6.5 5.55469 6.875H5.13281ZM3.1875 8.21094C3.46875 8.00781 3.6875 7.77344 3.84375 7.50781C4 7.24219 4.10938 6.95312 4.17188 6.64062C4.25 6.32812 4.28906 5.97656 4.28906 5.58594C4.28906 5.19531 4.28125 4.78906 4.26562 4.36719C4.4375 4.39844 4.60938 4.41406 4.78125 4.41406C4.73438 4.66406 4.71094 4.97656 4.71094 5.35156C4.71094 5.71094 4.6875 6.07812 4.64062 6.45312C4.59375 6.82812 4.48438 7.1875 4.3125 7.53125C4.15625 7.85938 3.90625 8.19531 3.5625 8.53906C3.42188 8.38281 3.29688 8.27344 3.1875 8.21094ZM7.42969 5.82031C7.60156 6.35156 7.74219 6.79688 7.85156 7.15625C7.67969 7.21875 7.53125 7.27344 7.40625 7.32031C7.375 7.16406 7.34375 7.03125 7.3125 6.92188C6.6875 6.96875 6.25 7.05469 6 7.17969C5.95312 7.02344 5.88281 6.85938 5.78906 6.6875C5.91406 6.625 6.03906 6.46094 6.16406 6.19531C6.30469 5.91406 6.42188 5.52344 6.51562 5.02344C6.70312 5.11719 6.86719 5.17969 7.00781 5.21094C6.91406 5.38281 6.80469 5.61719 6.67969 5.91406C6.55469 6.19531 6.4375 6.4375 6.32812 6.64062C6.65625 6.60938 6.95312 6.58594 7.21875 6.57031C7.1875 6.42969 7.125 6.21875 7.03125 5.9375C7.10938 5.92188 7.24219 5.88281 7.42969 5.82031ZM5.36719 8.42188C5.21094 8.15625 4.9375 7.82812 4.54688 7.4375C4.67188 7.3125 4.77344 7.20312 4.85156 7.10938C5.05469 7.26562 5.35156 7.59375 5.74219 8.09375C5.61719 8.17188 5.49219 8.28125 5.36719 8.42188Z" fill="white"/>
</svg>
