<svg width="12" height="12" viewBox="0 0 12 12" fill="none" xmlns="http://www.w3.org/2000/svg">
<circle cx="6" cy="6" r="6" fill="#B968CD"/>
<path d="M6.25781 4.41406C6.25781 3.91406 6.25 3.5 6.23438 3.17188C6.40625 3.21875 6.59375 3.25 6.79688 3.26562C6.73438 3.51562 6.71094 3.89844 6.72656 4.41406H7.99219C7.96094 4.55469 7.92969 4.78906 7.89844 5.11719L7.73438 7.71875C7.70312 7.96875 7.60938 8.11719 7.45312 8.16406C7.29688 8.22656 7.07812 8.28906 6.79688 8.35156C6.73438 8.14844 6.66406 7.97656 6.58594 7.83594C6.91406 7.82031 7.10938 7.80469 7.17188 7.78906C7.25 7.77344 7.29688 7.66406 7.3125 7.46094L7.47656 4.78906H6.70312C6.6875 5.49219 6.57812 6.15625 6.375 6.78125C6.17188 7.40625 5.82031 7.96875 5.32031 8.46875C5.22656 8.34375 5.03906 8.23438 4.75781 8.14062C5.11719 7.95312 5.44531 7.57031 5.74219 6.99219C6.03906 6.41406 6.20312 5.67969 6.23438 4.78906C5.9375 4.78906 5.64062 4.79688 5.34375 4.8125V4.39062C5.64062 4.40625 5.94531 4.41406 6.25781 4.41406ZM3.96094 4.74219C3.96094 3.99219 3.95312 3.49219 3.9375 3.24219H4.45312C4.4375 3.49219 4.42969 3.99219 4.42969 4.74219C4.72656 4.74219 4.97656 4.73438 5.17969 4.71875V5.14062C4.97656 5.125 4.72656 5.11719 4.42969 5.11719V7.69531C4.42969 7.91406 4.4375 8.19531 4.45312 8.53906H3.9375C3.95312 8.19531 3.96094 7.91406 3.96094 7.69531V5.11719C3.64844 5.11719 3.39844 5.125 3.21094 5.14062V4.71875C3.39844 4.73438 3.64844 4.74219 3.96094 4.74219ZM5.78906 5.65625C5.69531 5.78125 5.54688 6.17969 5.34375 6.85156C5.1875 6.78906 5.03906 6.75 4.89844 6.73438C5.11719 6.15625 5.24219 5.75781 5.27344 5.53906C5.39844 5.58594 5.57031 5.625 5.78906 5.65625ZM8.36719 5.49219C8.60156 5.99219 8.75 6.35938 8.8125 6.59375C8.64062 6.625 8.49219 6.67969 8.36719 6.75781C8.27344 6.42969 8.14062 6.07031 7.96875 5.67969C8.10938 5.63281 8.24219 5.57031 8.36719 5.49219Z" fill="white"/>
</svg>
