<svg width="18" height="17" viewBox="0 0 18 17" fill="none" xmlns="http://www.w3.org/2000/svg">
<circle cx="8.84766" cy="8.5" r="8" fill="#FFEEE9" stroke="#EF6D77"/>
<path d="M6.69531 10.9688H5.94531L5.50781 9.3125H4.13281L3.69531 10.9688H2.94531L4.50781 5.5625H5.13281L6.69531 10.9688ZM5.35156 8.71875L4.85156 6.8125H4.78906L4.28906 8.71875H5.35156ZM10.5391 7.25C10.5391 7.75 10.3932 8.14583 10.1016 8.4375C9.8099 8.72917 9.40365 8.875 8.88281 8.875H7.97656V10.9688H7.25781V5.625H8.88281C9.40365 5.625 9.8099 5.77083 10.1016 6.0625C10.3932 6.35417 10.5391 6.75 10.5391 7.25ZM9.82031 7.25C9.82031 6.85417 9.72656 6.58333 9.53906 6.4375C9.35156 6.29167 9.07031 6.21875 8.69531 6.21875H7.97656V8.28125H8.69531C9.07031 8.28125 9.35156 8.20833 9.53906 8.0625C9.72656 7.91667 9.82031 7.64583 9.82031 7.25ZM14.4766 9.46875C14.4766 9.94792 14.3203 10.3333 14.0078 10.625C13.7161 10.8958 13.3099 11.0312 12.7891 11.0312C12.2682 11.0312 11.862 10.8854 11.5703 10.5938C11.2786 10.3021 11.1328 9.9375 11.1328 9.5V9.28125H11.8516V9.46875C11.8516 9.78125 11.9453 10.0208 12.1328 10.1875C12.3203 10.3542 12.5391 10.4375 12.7891 10.4375C13.1224 10.4375 13.362 10.3542 13.5078 10.1875C13.6745 10 13.7578 9.78125 13.7578 9.53125C13.7578 9.32292 13.6641 9.13542 13.4766 8.96875C13.2891 8.78125 13.0182 8.61458 12.6641 8.46875C12.1641 8.28125 11.7995 8.07292 11.5703 7.84375C11.362 7.61458 11.2578 7.34375 11.2578 7.03125C11.2578 6.59375 11.4036 6.23958 11.6953 5.96875C12.0078 5.69792 12.3724 5.5625 12.7891 5.5625C13.3307 5.5625 13.7161 5.72917 13.9453 6.0625C14.1953 6.375 14.3203 6.71875 14.3203 7.09375H13.6016C13.6224 6.86458 13.5599 6.65625 13.4141 6.46875C13.2682 6.28125 13.0599 6.1875 12.7891 6.1875C12.5391 6.1875 12.3411 6.26042 12.1953 6.40625C12.0495 6.53125 11.9766 6.70833 11.9766 6.9375C11.9766 7.125 12.0286 7.29167 12.1328 7.4375C12.2578 7.5625 12.5599 7.71875 13.0391 7.90625C13.4974 8.09375 13.8516 8.32292 14.1016 8.59375C14.3516 8.84375 14.4766 9.13542 14.4766 9.46875Z" fill="#EF6D77"/>
</svg>
