<svg width="17" height="17" viewBox="0 0 17 17" fill="none" xmlns="http://www.w3.org/2000/svg">
<circle cx="8.5" cy="8.5" r="8" fill="#E9F4FF" stroke="#1D9EFC"/>
<path d="M11.7656 5.96875V4.9375C11.7656 4.375 11.75 3.82813 11.7188 3.29688H12.75C12.6875 3.82813 12.6562 4.39062 12.6562 4.98438V5.96875C13.2812 5.96875 13.875 5.95312 14.4375 5.92188V6.8125C13.875 6.78125 13.2812 6.76562 12.6562 6.76562V12.7656C12.6562 13.2344 12.5312 13.5469 12.2812 13.7031C12.0625 13.8594 11.6094 14.0156 10.9219 14.1719C10.8281 13.7969 10.6875 13.4375 10.5 13.0938C11.0312 13.0938 11.375 13.0625 11.5312 13C11.6875 12.9375 11.7656 12.7344 11.7656 12.3906V7.98438C11.3281 8.82812 10.8281 9.625 10.2656 10.375C9.73438 11.0938 9.0625 11.8281 8.25 12.5781C8.09375 12.3594 7.84375 12.1094 7.5 11.8281C8.1875 11.3906 8.875 10.7344 9.5625 9.85938C10.2812 8.98438 10.9062 7.95312 11.4375 6.76562H9.84375C9.46875 6.76562 9.03125 6.78125 8.53125 6.8125V5.92188C9.03125 5.95312 9.46875 5.96875 9.84375 5.96875H11.7656ZM7.125 7.9375C7.6875 8.65625 8.09375 9.20312 8.34375 9.57812C8.0625 9.76562 7.8125 9.9375 7.59375 10.0938C7.15625 9.34375 6.82812 8.85938 6.60938 8.64062V12.2031C6.60938 12.8594 6.625 13.5156 6.65625 14.1719H5.67188C5.70312 13.4844 5.71875 12.8281 5.71875 12.2031V8.92188C5.5 9.39062 5.23438 9.875 4.92188 10.375C4.64062 10.875 4.34375 11.3438 4.03125 11.7812C3.9375 11.5625 3.73438 11.2812 3.42188 10.9375C3.79688 10.5312 4.20312 9.9375 4.64062 9.15625C5.07812 8.34375 5.40625 7.54688 5.625 6.76562C4.96875 6.76562 4.35938 6.78125 3.79688 6.8125V5.92188C4.42188 5.95312 5.0625 5.96875 5.71875 5.96875V4.84375C5.71875 4.375 5.70312 3.85938 5.67188 3.29688H6.65625C6.625 3.79687 6.60938 4.3125 6.60938 4.84375V5.96875C7.07812 5.96875 7.57812 5.95312 8.10938 5.92188V6.8125C7.57812 6.78125 7.07812 6.76562 6.60938 6.76562V8.35938C6.85938 8.20312 7.03125 8.0625 7.125 7.9375Z" fill="#1D9EFC"/>
</svg>
