<svg width="17" height="17" viewBox="0 0 17 17" fill="none" xmlns="http://www.w3.org/2000/svg">
<circle cx="8.5" cy="8.5" r="8" fill="#FFFBE9" stroke="#F9B652"/>
<path d="M7.48438 6.53125C7.48438 6.3125 7.46875 6 7.4375 5.59375H8.46875C8.4375 6 8.42188 6.3125 8.42188 6.53125H10.3906C10.8594 6.53125 11.4062 6.51562 12.0312 6.48438V7.28125C11.4375 7.25 10.9062 7.23438 10.4375 7.23438H8.42188V8.5H11.7969C12.2969 8.5 12.8594 8.48438 13.4844 8.45312V9.29688C12.8906 9.26562 12.3281 9.25 11.7969 9.25H10.8125V10.4688C11.5938 10.4688 12.25 10.4531 12.7812 10.4219V11.2656C12.1562 11.2344 11.5 11.2188 10.8125 11.2188V12.7656C10.8438 13.3281 10.6719 13.6719 10.2969 13.7969C9.95312 13.9531 9.40625 14.0781 8.65625 14.1719C8.59375 13.7969 8.46875 13.4531 8.28125 13.1406C8.8125 13.1719 9.20312 13.1719 9.45312 13.1406C9.70312 13.1094 9.82812 12.8906 9.82812 12.4844V11.2188H4.90625C4.5 11.2188 3.96875 11.2344 3.3125 11.2656V10.4219C3.9375 10.4531 4.53125 10.4688 5.09375 10.4688H9.82812V9.25H4.01562C3.60938 9.25 3.0625 9.26562 2.375 9.29688V8.45312C3.0625 8.48438 3.60938 8.5 4.01562 8.5H7.48438V7.23438H5.60938C5.17188 7.23438 4.625 7.25 3.96875 7.28125V6.48438C4.8125 6.51562 5.35938 6.53125 5.60938 6.53125H7.48438ZM5.42188 3.4375C5.23438 3.5625 5.03125 3.79687 4.8125 4.14062H6.5C7.15625 4.14062 7.70312 4.125 8.14062 4.09375V4.84375C7.79688 4.8125 7.35938 4.79688 6.82812 4.79688H6.26562C6.42188 5.04688 6.60938 5.375 6.82812 5.78125C6.45312 5.90625 6.10938 6.01562 5.79688 6.10938C5.79688 6.04688 5.64062 5.60938 5.32812 4.79688H4.48438C4.23438 5.17188 3.875 5.64062 3.40625 6.20312C3.125 5.98438 2.82812 5.8125 2.51562 5.6875C2.95312 5.34375 3.3125 4.95312 3.59375 4.51562C3.875 4.07812 4.125 3.59375 4.34375 3.0625C4.71875 3.21875 5.07812 3.34375 5.42188 3.4375ZM8.9375 5.73438C8.6875 5.57812 8.39062 5.45312 8.04688 5.35938C8.35938 5.10938 8.625 4.79688 8.84375 4.42188C9.0625 4.04688 9.26562 3.625 9.45312 3.15625C9.79688 3.28125 10.1562 3.40625 10.5312 3.53125C10.2812 3.75 10.0938 3.96875 9.96875 4.1875H11.8906C12.1094 4.1875 12.6406 4.17188 13.4844 4.14062V4.89062C12.8906 4.85938 12.3125 4.84375 11.75 4.84375C12.0938 5.40625 12.3438 5.79688 12.5 6.01562C12.0625 6.10938 11.7031 6.20312 11.4219 6.29688C11.3594 6.01562 11.1562 5.53125 10.8125 4.84375H9.59375C9.4375 5.09375 9.21875 5.39062 8.9375 5.73438ZM6.82812 12.8594C6.54688 13.0156 6.26562 13.1875 5.98438 13.375C5.70312 12.8438 5.32812 12.3281 4.85938 11.8281C5.07812 11.7031 5.32812 11.5312 5.60938 11.3125C6.07812 11.8125 6.48438 12.3281 6.82812 12.8594Z" fill="#F9B652"/>
</svg>
