<svg width="17" height="17" viewBox="0 0 17 17" fill="none" xmlns="http://www.w3.org/2000/svg">
<circle cx="8.5" cy="8.5" r="8" fill="#E9FFF4" stroke="#87DCA4"/>
<path d="M13.9062 11.7344C13.5938 11.6719 13.1719 11.6406 12.6406 11.6406H10.2969V12.7188C10.2969 13.3125 10.3125 13.7812 10.3438 14.125H9.35938C9.39062 13.7812 9.40625 13.3438 9.40625 12.8125V5.125C9.40625 4.28125 9.39062 3.70312 9.35938 3.39062H10.3906C10.3281 3.70312 10.2969 4.03125 10.2969 4.375V5.40625H12.5C12.9688 5.40625 13.3906 5.39062 13.7656 5.35938V6.25C13.3906 6.21875 12.9375 6.20312 12.4062 6.20312H10.2969V7.98438H12.2656C12.7031 7.98438 13.0781 7.96875 13.3906 7.9375V8.78125C13.1094 8.75 12.7344 8.73438 12.2656 8.73438H10.2969V10.8438H12.6406C13.1094 10.8438 13.5312 10.8281 13.9062 10.7969V11.7344ZM6.78125 5.40625V4.375C6.78125 4.15625 6.76562 3.85938 6.73438 3.48438H7.76562C7.73438 3.79687 7.71875 4.3125 7.71875 5.03125V12.1094C7.71875 12.8281 7.73438 13.4531 7.76562 13.9844H6.73438C6.76562 13.4531 6.78125 13.0312 6.78125 12.7188V11.6406H4.67188C4.23438 11.6406 3.8125 11.6719 3.40625 11.7344V10.7969C3.8125 10.8281 4.21875 10.8438 4.625 10.8438H6.78125V8.73438H5.375C4.9375 8.73438 4.46875 8.75 3.96875 8.78125V7.9375C4.46875 7.96875 4.95312 7.98438 5.42188 7.98438H6.78125V6.20312H4.8125C4.4375 6.20312 4.01562 6.21875 3.54688 6.25V5.35938C4.01562 5.39062 4.4375 5.40625 4.8125 5.40625H6.78125Z" fill="#87DCA4"/>
</svg>
