<svg width="17" height="17" viewBox="0 0 17 17" fill="none" xmlns="http://www.w3.org/2000/svg">
<circle cx="8.5" cy="8.5" r="8" fill="#E9EAFF" stroke="#3982FA"/>
<path d="M13.9688 12.5312C13.9062 13.1562 13.7031 13.5469 13.3594 13.7031C13.0156 13.8594 12.4844 13.9844 11.7656 14.0781C11.7031 13.7031 11.5625 13.3594 11.3438 13.0469C11.9688 13.0781 12.4062 13.0469 12.6562 12.9531C12.9062 12.8594 13.0469 12.6719 13.0781 12.3906L13.1719 5.96875H9.89062C9.60938 6.59375 9.29688 7.1875 8.95312 7.75C8.76562 7.59375 8.51562 7.45312 8.20312 7.32812C8.60938 6.76562 8.96875 6.07812 9.28125 5.26562C9.59375 4.42188 9.79688 3.75 9.89062 3.25C10.2656 3.40625 10.5938 3.53125 10.875 3.625C10.7188 3.875 10.4844 4.39062 10.1719 5.17188H14.1094C14.0781 5.70312 14.0625 6.39062 14.0625 7.23438L13.9688 12.5312ZM7.26562 10.75V4.79688H4.82812V11.0312H3.9375C3.96875 10.3125 3.98438 9.14062 3.98438 7.51562C3.98438 5.89062 3.96875 4.73438 3.9375 4.04688H8.10938C8.07812 4.73438 8.0625 5.84375 8.0625 7.375C8.0625 8.875 8.07812 10 8.10938 10.75H7.26562ZM3.375 13.4219C3.9375 13.0156 4.375 12.5469 4.6875 12.0156C5 11.4844 5.21875 10.9062 5.34375 10.2812C5.5 9.65625 5.57812 8.95312 5.57812 8.17188C5.57812 7.39062 5.5625 6.57812 5.53125 5.73438C5.875 5.79688 6.21875 5.82812 6.5625 5.82812C6.46875 6.32812 6.42188 6.95312 6.42188 7.70312C6.42188 8.42188 6.375 9.15625 6.28125 9.90625C6.1875 10.6562 5.96875 11.375 5.625 12.0625C5.3125 12.7188 4.8125 13.3906 4.125 14.0781C3.84375 13.7656 3.59375 13.5469 3.375 13.4219ZM11.8594 8.64062C12.2031 9.70312 12.4844 10.5938 12.7031 11.3125C12.3594 11.4375 12.0625 11.5469 11.8125 11.6406C11.75 11.3281 11.6875 11.0625 11.625 10.8438C10.375 10.9375 9.5 11.1094 9 11.3594C8.90625 11.0469 8.76562 10.7188 8.57812 10.375C8.82812 10.25 9.07812 9.92188 9.32812 9.39062C9.60938 8.82812 9.84375 8.04688 10.0312 7.04688C10.4062 7.23438 10.7344 7.35938 11.0156 7.42188C10.8281 7.76562 10.6094 8.23438 10.3594 8.82812C10.1094 9.39062 9.875 9.875 9.65625 10.2812C10.3125 10.2188 10.9062 10.1719 11.4375 10.1406C11.375 9.85938 11.25 9.4375 11.0625 8.875C11.2188 8.84375 11.4844 8.76562 11.8594 8.64062ZM7.73438 13.8438C7.42188 13.3125 6.875 12.6562 6.09375 11.875C6.34375 11.625 6.54688 11.4062 6.70312 11.2188C7.10938 11.5312 7.70312 12.1875 8.48438 13.1875C8.23438 13.3438 7.98438 13.5625 7.73438 13.8438Z" fill="#3982FA"/>
</svg>
