<svg width="17" height="17" viewBox="0 0 17 17" fill="none" xmlns="http://www.w3.org/2000/svg">
<circle cx="8.5" cy="8.5" r="8" fill="#FCE9FF" stroke="#E09BF1"/>
<path d="M9.51562 5.82812C9.51562 4.82812 9.5 4 9.46875 3.34375C9.8125 3.4375 10.1875 3.5 10.5938 3.53125C10.4688 4.03125 10.4219 4.79688 10.4531 5.82812H12.9844C12.9219 6.10938 12.8594 6.57812 12.7969 7.23438L12.4688 12.4375C12.4062 12.9375 12.2188 13.2344 11.9062 13.3281C11.5938 13.4531 11.1562 13.5781 10.5938 13.7031C10.4688 13.2969 10.3281 12.9531 10.1719 12.6719C10.8281 12.6406 11.2188 12.6094 11.3438 12.5781C11.5 12.5469 11.5938 12.3281 11.625 11.9219L11.9531 6.57812H10.4062C10.375 7.98438 10.1562 9.3125 9.75 10.5625C9.34375 11.8125 8.64062 12.9375 7.64062 13.9375C7.45312 13.6875 7.07812 13.4688 6.51562 13.2812C7.23438 12.9062 7.89062 12.1406 8.48438 10.9844C9.07812 9.82812 9.40625 8.35938 9.46875 6.57812C8.875 6.57812 8.28125 6.59375 7.6875 6.625V5.78125C8.28125 5.8125 8.89062 5.82812 9.51562 5.82812ZM4.92188 6.48438C4.92188 4.98438 4.90625 3.98437 4.875 3.48438H5.90625C5.875 3.98437 5.85938 4.98438 5.85938 6.48438C6.45312 6.48438 6.95312 6.46875 7.35938 6.4375V7.28125C6.95312 7.25 6.45312 7.23438 5.85938 7.23438V12.3906C5.85938 12.8281 5.875 13.3906 5.90625 14.0781H4.875C4.90625 13.3906 4.92188 12.8281 4.92188 12.3906V7.23438C4.29688 7.23438 3.79688 7.25 3.42188 7.28125V6.4375C3.79688 6.46875 4.29688 6.48438 4.92188 6.48438ZM8.57812 8.3125C8.39062 8.5625 8.09375 9.35938 7.6875 10.7031C7.375 10.5781 7.07812 10.5 6.79688 10.4688C7.23438 9.3125 7.48438 8.51562 7.54688 8.07812C7.79688 8.17188 8.14062 8.25 8.57812 8.3125ZM13.7344 7.98438C14.2031 8.98438 14.5 9.71875 14.625 10.1875C14.2812 10.25 13.9844 10.3594 13.7344 10.5156C13.5469 9.85938 13.2812 9.14062 12.9375 8.35938C13.2188 8.26562 13.4844 8.14062 13.7344 7.98438Z" fill="#E09BF1"/>
</svg>
